<svg id="svg" xmlns="http://www.w3.org/2000/svg" xmlns:xlink="http://www.w3.org/1999/xlink" width="400" height="400" viewBox="0, 0, 400,400"><g id="svgg"><path id="path0" d="M176.603 38.141 C 173.770 40.973,176.867 48.060,181.563 49.493 C 182.793 49.869,183.623 50.351,183.409 50.566 C 183.194 50.780,180.922 50.242,178.361 49.369 C 174.758 48.141,173.088 48.014,170.986 48.807 C 169.492 49.371,168.269 49.512,168.269 49.120 C 168.269 48.418,159.788 46.154,157.157 46.154 C 156.414 46.154,155.557 47.147,155.252 48.361 C 154.528 51.244,150.032 51.391,149.041 48.564 C 148.434 46.834,148.211 46.952,146.756 49.766 C 144.839 53.473,141.624 53.898,137.534 50.985 C 133.213 47.909,130.063 46.985,129.439 48.613 C 128.694 50.554,124.735 50.340,120.968 48.155 C 115.474 44.966,113.338 45.178,112.032 49.038 L 110.894 52.404 102.689 52.902 C 98.036 53.184,93.825 53.947,92.962 54.664 C 92.076 55.399,90.585 55.657,89.400 55.281 C 85.869 54.160,74.267 57.579,72.054 60.393 C 70.099 62.878,70.094 62.878,65.845 61.304 C 63.333 60.373,60.258 59.944,58.332 60.257 C 56.539 60.548,54.139 60.287,52.998 59.676 C 47.568 56.770,36.810 63.386,39.324 68.084 C 39.907 69.174,40.385 71.166,40.385 72.511 C 40.385 75.234,42.346 76.767,49.038 79.273 C 57.466 82.430,60.544 86.096,61.386 93.977 C 61.798 97.836,62.778 101.635,63.610 102.601 C 70.387 110.467,68.840 125.361,60.175 135.659 C 58.809 137.282,57.692 139.216,57.692 139.958 C 57.692 140.700,55.940 142.201,53.799 143.293 C 47.952 146.276,47.559 148.623,52.173 153.012 C 54.259 154.997,55.734 157.186,55.449 157.878 C 52.766 164.404,52.626 166.166,54.569 168.905 C 55.634 170.406,56.667 172.500,56.864 173.558 C 57.062 174.615,58.194 175.908,59.381 176.430 C 61.508 177.366,62.446 180.769,60.577 180.769 C 58.843 180.769,59.566 182.744,62.415 185.792 L 65.215 188.788 62.175 190.308 C 56.210 193.289,59.736 200.020,68.057 201.537 C 70.025 201.896,74.808 203.860,78.686 205.902 C 86.028 209.767,96.200 210.446,105.049 207.662 C 106.887 207.084,108.774 207.281,111.228 208.306 C 114.662 209.741,119.220 209.687,125.274 208.140 C 127.099 207.673,128.478 207.916,129.601 208.902 C 130.508 209.698,133.936 211.733,137.219 213.424 C 140.502 215.115,143.448 217.319,143.766 218.321 C 144.084 219.323,145.617 221.048,147.172 222.156 C 148.728 223.263,150.000 224.829,150.000 225.635 C 150.000 228.837,159.650 239.423,162.568 239.423 C 163.589 239.423,164.423 239.902,164.423 240.487 C 164.423 246.582,172.347 250.153,180.049 247.529 C 184.067 246.160,184.692 246.159,186.772 247.523 C 189.189 249.106,195.392 246.281,198.916 241.991 C 200.545 240.007,204.173 239.904,205.744 241.796 C 210.957 248.077,213.124 253.568,212.700 259.423 C 212.190 266.481,215.965 270.181,219.006 265.602 C 221.045 262.531,225.962 262.599,225.962 265.698 C 225.962 268.564,229.555 271.935,233.885 273.131 C 235.748 273.645,238.752 275.070,240.560 276.297 L 243.848 278.528 249.087 273.890 C 252.718 270.677,255.167 269.249,257.063 269.241 C 258.568 269.236,260.948 268.436,262.352 267.464 C 269.995 262.173,277.787 267.156,277.894 277.404 C 277.905 278.462,278.295 279.929,278.761 280.665 C 279.318 281.544,278.818 283.490,277.304 286.337 C 273.681 293.152,274.437 296.154,279.778 296.154 C 280.734 296.154,283.748 297.690,286.478 299.568 C 289.207 301.445,292.393 303.334,293.557 303.765 C 295.507 304.486,295.675 305.187,295.691 312.680 C 295.705 318.749,296.132 321.458,297.374 323.354 C 298.289 324.751,299.038 326.941,299.038 328.221 C 299.038 329.642,299.974 331.161,301.442 332.123 C 303.077 333.194,303.846 334.576,303.846 336.443 C 303.846 337.952,304.440 339.681,305.167 340.284 C 305.893 340.886,306.994 343.954,307.613 347.101 C 308.232 350.249,309.152 353.079,309.658 353.392 C 310.163 353.704,310.577 356.098,310.577 358.711 C 310.577 365.635,314.169 365.450,323.936 358.021 C 328.462 354.579,332.987 353.853,336.842 355.951 C 337.997 356.580,341.106 357.227,343.750 357.390 C 346.621 357.567,348.988 358.269,349.625 359.132 C 352.519 363.049,352.824 356.940,349.998 351.668 C 348.939 349.693,348.507 348.077,349.037 348.077 C 349.566 348.077,350.000 347.031,350.000 345.753 C 350.000 344.475,350.433 343.285,350.962 343.109 C 353.327 342.320,352.488 332.330,349.756 328.755 C 348.304 326.855,347.115 324.637,347.115 323.828 C 347.115 322.961,345.928 322.118,344.231 321.779 C 342.508 321.434,341.346 320.599,341.346 319.705 C 341.346 317.766,344.045 316.737,345.449 318.142 C 347.013 319.705,348.077 319.484,348.077 317.596 C 348.077 314.913,349.818 317.477,350.166 320.673 L 350.481 323.558 353.365 319.053 C 354.952 316.576,357.024 314.412,357.971 314.245 C 360.942 313.722,360.243 312.138,356.010 309.803 C 353.210 308.258,351.759 306.739,351.401 304.976 C 350.326 299.686,348.654 297.596,345.497 297.596 C 342.836 297.596,339.278 295.515,337.274 292.788 C 336.886 292.260,336.561 289.933,336.553 287.617 L 336.538 283.408 340.320 284.013 C 343.604 284.538,344.185 284.350,344.746 282.584 C 345.286 280.883,345.926 280.637,348.657 281.080 C 352.255 281.664,352.627 281.106,350.511 278.309 C 347.671 274.553,350.756 270.908,354.899 273.126 C 356.729 274.105,356.853 273.999,356.257 271.958 C 354.846 267.122,349.217 264.464,344.137 266.235 C 340.264 267.585,339.423 266.988,339.423 262.890 C 339.423 259.904,339.228 259.652,337.596 260.525 C 336.213 261.266,335.636 261.157,335.222 260.079 C 334.493 258.177,332.395 258.283,328.087 260.440 C 326.125 261.422,323.005 262.467,321.154 262.762 C 319.303 263.057,317.090 263.575,316.237 263.913 C 315.067 264.377,314.538 263.795,314.089 261.552 C 313.485 258.532,308.257 252.885,306.066 252.885 C 305.408 252.885,304.314 251.873,303.636 250.637 C 300.216 244.401,294.655 238.543,292.118 238.502 C 284.524 238.383,275.589 228.794,277.490 222.804 C 278.251 220.406,276.234 218.271,273.200 218.263 C 271.810 218.259,269.375 217.397,267.788 216.346 C 266.202 215.295,263.281 214.433,261.298 214.429 C 256.714 214.421,255.819 210.122,260.174 209.029 C 265.140 207.783,275.531 209.185,277.746 211.400 C 279.921 213.574,281.731 214.089,281.731 212.533 C 281.731 212.023,283.026 210.280,284.608 208.661 C 286.410 206.817,287.718 204.262,288.108 201.822 C 288.557 199.017,289.328 197.700,290.864 197.116 C 292.358 196.548,293.181 195.205,293.617 192.624 C 293.958 190.599,294.502 187.532,294.825 185.809 C 295.196 183.834,294.945 182.110,294.147 181.149 C 293.450 180.309,292.860 178.494,292.834 177.113 C 292.783 174.293,293.023 174.444,277.325 167.329 C 271.464 164.673,265.623 162.483,264.344 162.463 C 262.790 162.438,261.382 161.402,260.096 159.338 C 259.025 157.618,256.239 155.325,253.808 154.162 C 244.727 149.819,238.769 141.196,241.831 136.825 C 243.191 134.883,240.342 130.791,237.611 130.763 C 234.803 130.734,232.997 122.512,235.251 120.021 C 236.130 119.050,237.320 117.343,237.895 116.227 C 238.471 115.111,240.960 113.439,243.427 112.512 C 252.688 109.029,256.731 104.366,256.731 97.163 C 256.731 94.284,256.342 93.269,255.237 93.269 C 254.416 93.269,252.152 92.187,250.207 90.865 C 248.261 89.543,246.120 88.462,245.450 88.462 C 244.779 88.462,244.231 87.683,244.231 86.731 C 244.231 84.516,242.408 82.692,240.192 82.692 C 238.251 82.692,237.838 79.855,239.532 78.161 C 242.229 75.464,237.385 73.910,234.078 76.412 C 231.150 78.626,227.999 78.226,226.748 75.481 C 225.465 72.664,224.367 72.482,221.935 74.682 C 220.372 76.097,220.021 76.117,218.975 74.855 C 218.322 74.068,216.612 72.695,215.175 71.806 C 213.613 70.839,212.773 69.639,213.086 68.822 C 213.383 68.048,212.772 67.006,211.676 66.420 C 209.044 65.011,208.946 65.050,208.259 67.788 C 207.826 69.515,207.007 70.192,205.353 70.192 C 201.135 70.192,203.536 65.103,208.236 64.082 C 217.731 62.019,218.864 59.331,212.474 54.025 C 208.810 50.982,204.808 50.434,204.808 52.974 C 204.808 53.481,203.471 53.204,201.837 52.359 C 199.020 50.902,198.950 50.730,200.481 49.038 C 202.343 46.980,201.901 44.916,198.758 41.000 L 196.552 38.251 193.435 40.874 C 189.735 43.986,186.142 43.700,181.154 39.896 C 177.715 37.273,177.539 37.205,176.603 38.141 M188.161 44.384 C 190.353 44.595,191.930 44.017,193.697 42.357 C 196.118 40.083,196.197 40.073,197.619 41.893 C 200.351 45.388,201.014 46.969,200.008 47.591 C 199.480 47.917,198.609 49.007,198.070 50.012 C 196.748 52.484,204.592 56.370,206.291 54.085 C 207.477 52.491,215.385 57.052,215.385 59.329 C 215.385 60.893,211.483 62.500,207.686 62.500 C 204.692 62.500,203.962 63.248,202.281 68.038 C 201.263 70.940,201.346 71.214,203.399 71.729 C 206.918 72.612,209.110 71.790,209.442 69.461 C 209.813 66.864,211.538 66.568,211.538 69.102 C 211.538 72.507,220.174 78.199,222.350 76.230 C 224.097 74.649,224.263 74.669,225.795 76.649 C 227.967 79.457,231.988 80.373,233.603 78.427 C 234.289 77.600,235.716 76.923,236.774 76.923 C 238.367 76.923,238.493 77.169,237.510 78.353 C 235.561 80.702,237.091 84.441,240.147 84.792 C 241.949 84.999,242.878 85.722,243.070 87.064 C 243.225 88.147,244.523 89.573,245.955 90.234 C 253.713 93.814,255.769 95.383,255.769 97.723 C 255.769 103.123,250.364 108.634,242.370 111.387 C 238.557 112.700,235.577 115.131,235.577 116.928 C 235.577 117.613,234.995 118.520,234.283 118.943 C 232.274 120.136,231.549 125.575,233.214 126.957 C 233.985 127.597,234.615 128.731,234.615 129.477 C 234.615 130.223,236.157 131.744,238.042 132.856 C 240.463 134.284,241.168 135.178,240.446 135.900 C 236.490 139.856,245.468 153.660,253.086 155.333 C 255.596 155.884,260.577 160.699,260.577 162.574 C 260.577 163.062,261.640 163.462,262.939 163.462 C 264.239 163.462,270.015 165.625,275.776 168.269 C 281.537 170.913,286.547 173.077,286.909 173.077 C 289.166 173.077,292.266 176.295,291.222 177.554 C 290.342 178.614,290.576 179.407,292.318 181.261 C 294.506 183.590,294.514 183.681,292.944 188.543 C 292.070 191.250,291.566 193.808,291.824 194.226 C 292.083 194.645,291.293 195.239,290.068 195.546 C 288.323 195.984,287.597 197.166,286.709 201.011 C 285.973 204.201,284.532 206.962,282.589 208.905 L 279.602 211.892 278.022 209.879 C 276.453 207.879,270.126 207.011,260.851 207.522 C 254.013 207.899,254.457 214.828,261.385 215.859 C 263.849 216.226,266.429 216.990,267.118 217.557 C 267.806 218.124,269.970 218.859,271.925 219.190 C 275.118 219.731,275.460 220.072,275.281 222.532 C 275.171 224.039,275.712 226.172,276.483 227.273 C 277.254 228.374,277.885 230.489,277.885 231.975 C 277.885 233.714,278.484 234.855,279.567 235.180 C 280.493 235.458,283.261 236.742,285.719 238.035 C 288.176 239.327,291.062 240.385,292.131 240.385 C 294.137 240.385,302.864 250.341,302.877 252.644 C 302.881 253.305,303.665 253.846,304.619 253.846 C 307.086 253.846,312.062 259.440,313.443 263.765 C 314.527 267.162,314.737 267.322,316.277 265.928 C 317.191 265.100,318.907 264.423,320.090 264.423 C 321.272 264.423,324.396 263.496,327.031 262.362 C 331.103 260.610,332.162 260.483,334.089 261.514 C 335.335 262.181,336.801 262.451,337.346 262.114 C 337.931 261.753,338.461 262.789,338.640 264.645 L 338.942 267.788 344.438 267.497 C 353.488 267.016,356.407 269.589,349.910 272.319 C 346.103 273.918,346.036 274.025,347.516 276.138 C 349.546 279.036,349.436 280.063,347.174 279.346 C 345.867 278.931,344.979 279.371,344.206 280.816 C 343.311 282.489,342.408 282.812,339.427 282.528 C 335.858 282.188,335.735 282.279,335.191 285.680 C 334.102 292.491,340.349 300.409,346.296 299.754 C 348.054 299.560,348.560 300.169,349.230 303.290 C 350.205 307.835,351.505 309.532,355.204 311.088 C 357.966 312.249,357.976 312.280,355.925 313.378 C 354.782 313.990,353.846 315.072,353.846 315.781 C 353.846 316.491,353.197 317.611,352.404 318.269 C 351.231 319.243,350.962 319.197,350.962 318.024 C 350.962 315.799,348.240 313.842,347.571 315.585 C 347.231 316.471,346.089 316.824,344.380 316.573 C 339.499 315.857,337.921 321.432,342.654 322.670 C 345.614 323.445,350.408 331.523,348.950 333.280 C 348.094 334.311,348.147 334.615,349.183 334.615 C 350.107 334.615,350.524 335.812,350.524 338.462 C 350.524 341.090,350.105 342.308,349.198 342.308 C 348.398 342.308,348.097 342.896,348.439 343.788 C 348.752 344.602,348.504 346.074,347.889 347.059 C 347.001 348.481,347.103 349.357,348.385 351.314 C 351.915 356.700,344.729 358.419,336.346 354.193 C 332.102 352.054,329.304 352.654,322.816 357.096 C 313.957 363.161,312.500 363.473,312.500 359.304 C 312.500 357.476,311.644 354.093,310.598 351.788 C 309.552 349.482,308.687 346.714,308.675 345.636 C 308.663 344.558,307.788 341.978,306.731 339.904 C 305.673 337.829,304.808 335.211,304.808 334.086 C 304.808 332.836,303.872 331.613,302.404 330.944 C 300.518 330.085,300.000 329.136,300.000 326.543 C 300.000 324.725,299.459 323.056,298.798 322.834 C 297.946 322.548,297.600 319.730,297.609 313.161 L 297.622 303.891 294.810 302.726 C 293.263 302.085,289.914 300.128,287.368 298.377 C 284.822 296.625,282.051 295.192,281.210 295.192 C 276.058 295.192,275.390 292.134,279.149 285.761 C 280.690 283.148,280.831 282.150,279.936 280.186 C 279.337 278.871,278.846 276.537,278.846 275.000 C 278.846 266.456,269.718 260.923,262.981 265.385 C 261.394 266.435,258.832 267.298,257.286 267.301 C 255.305 267.306,252.878 268.698,249.059 272.020 L 243.641 276.731 241.292 274.899 C 240.000 273.890,237.139 272.593,234.935 272.016 C 229.722 270.650,226.517 267.298,227.168 263.894 C 227.625 261.503,227.475 261.380,224.765 261.922 C 223.176 262.240,221.064 262.500,220.072 262.500 C 219.081 262.500,218.269 263.149,218.269 263.942 C 218.269 264.760,217.407 265.385,216.280 265.385 C 214.459 265.385,214.308 264.876,214.496 259.375 C 214.718 252.872,212.138 246.939,206.564 241.137 C 203.196 237.631,201.489 237.761,196.940 241.871 C 191.490 246.795,188.896 247.806,186.734 245.850 C 185.125 244.394,184.526 244.434,178.451 246.409 L 171.903 248.538 168.658 244.702 C 166.874 242.592,165.407 240.072,165.399 239.103 C 165.391 238.108,164.861 237.527,164.183 237.769 C 161.104 238.868,150.962 228.484,150.962 224.234 C 150.962 223.658,150.046 222.545,148.928 221.761 C 147.809 220.978,146.107 219.044,145.146 217.463 C 144.021 215.613,141.338 213.664,137.615 211.994 C 134.435 210.566,131.093 208.582,130.190 207.584 C 128.251 205.441,125.440 205.311,122.115 207.212 C 118.785 209.115,115.472 208.981,111.129 206.767 C 108.510 205.432,106.936 205.145,105.740 205.785 C 104.812 206.282,99.992 206.946,95.031 207.261 L 86.010 207.833 77.912 203.916 C 73.458 201.762,68.992 200.000,67.988 200.000 C 62.064 200.000,58.104 192.167,63.702 191.523 C 66.937 191.150,67.090 189.322,64.223 185.296 C 62.859 183.381,62.195 181.209,62.366 179.224 C 62.563 176.945,62.173 175.976,60.884 175.533 C 58.306 174.649,54.456 165.874,55.246 162.683 C 57.050 155.390,57.030 155.269,53.415 152.096 C 49.421 148.589,49.779 146.314,54.644 144.299 C 58.852 142.555,70.211 123.331,70.180 118.003 C 70.163 115.125,66.938 105.220,64.486 100.518 C 63.260 98.166,62.500 94.889,62.500 91.951 C 62.500 86.900,55.900 78.846,51.760 78.846 C 50.855 78.846,49.867 78.447,49.565 77.959 C 49.263 77.470,47.720 76.786,46.135 76.438 C 42.759 75.697,41.824 74.200,40.944 68.125 L 40.296 63.655 44.626 62.001 C 47.790 60.792,49.937 60.558,52.603 61.129 C 54.609 61.559,57.713 61.787,59.500 61.635 C 61.288 61.483,64.474 62.137,66.581 63.087 L 70.412 64.814 72.302 62.219 C 74.495 59.208,82.645 56.451,88.236 56.828 C 90.211 56.962,93.212 56.345,94.904 55.459 C 96.943 54.390,100.284 53.846,104.809 53.846 L 111.637 53.846 113.008 50.565 C 114.465 47.076,116.299 46.847,120.673 49.606 C 124.271 51.876,129.502 52.299,130.561 50.406 C 131.433 48.848,131.881 48.957,136.112 51.759 C 141.476 55.312,143.504 55.535,146.176 52.863 C 147.817 51.222,148.208 51.145,148.679 52.374 C 149.059 53.364,149.711 53.565,150.717 53.002 C 151.531 52.547,152.957 52.374,153.887 52.617 C 155.130 52.942,155.740 52.323,156.188 50.284 C 156.785 47.564,163.462 46.517,163.462 49.144 C 163.462 49.615,164.301 50.000,165.328 50.000 C 166.354 50.000,167.443 50.403,167.748 50.896 C 168.072 51.420,169.343 51.252,170.809 50.491 C 173.292 49.203,173.973 49.258,179.068 51.161 C 181.786 52.176,186.538 51.522,186.538 50.134 C 186.538 49.699,184.788 48.818,182.648 48.177 C 178.566 46.954,176.174 43.725,177.258 40.900 C 177.767 39.573,178.326 39.683,181.470 41.730 C 183.465 43.028,186.475 44.223,188.161 44.384 M244.756 124.914 C 243.225 127.874,244.281 133.654,246.353 133.654 C 248.156 133.654,251.890 129.343,251.906 127.242 C 251.952 121.496,247.306 119.983,244.756 124.914 M250.716 126.442 C 251.037 129.061,246.411 132.557,245.559 130.339 C 245.243 129.515,245.263 127.733,245.603 126.378 C 246.367 123.334,250.342 123.385,250.716 126.442 " stroke="none" fill="#000000" fill-rule="evenodd"></path></g></svg>