<svg id="svg" xmlns="http://www.w3.org/2000/svg" xmlns:xlink="http://www.w3.org/1999/xlink" width="400" height="225" viewBox="0, 0, 400,225"><g id="svgg"><path id="path0" d="M112.448 27.209 C 112.219 27.267,110.859 27.589,109.427 27.927 C 67.374 37.828,35.162 59.813,15.969 91.714 C 10.141 101.401,5.449 112.545,3.274 121.861 C 3.080 122.693,2.939 123.390,2.960 123.411 C 2.981 123.433,4.070 123.238,5.380 122.980 C 50.553 114.056,80.701 119.187,93.210 137.929 C 96.408 142.721,98.541 149.269,98.542 154.299 L 98.542 154.900 99.089 154.583 C 121.949 141.312,147.038 144.334,170.365 163.167 C 180.974 171.732,192.329 184.796,199.687 196.901 C 200.363 198.014,200.224 198.045,201.085 196.586 C 224.011 157.716,252.385 140.164,282.437 146.262 C 290.139 147.825,299.246 151.690,304.661 155.693 L 305.417 156.251 305.417 154.818 C 305.423 132.631,319.858 120.612,348.802 118.696 C 361.644 117.846,379.388 119.487,394.583 122.930 C 395.586 123.157,396.533 123.370,396.688 123.402 C 396.957 123.459,396.968 123.446,396.921 123.111 C 396.019 116.641,395.344 113.323,394.011 108.798 C 385.867 81.169,363.559 57.757,329.063 40.631 C 318.031 35.154,304.416 29.884,294.869 27.393 C 293.682 27.084,293.679 27.022,294.944 28.799 C 313.777 55.249,303.461 74.040,265.355 82.697 C 255.998 84.822,243.355 86.492,233.333 86.927 C 232.560 86.960,231.716 87.007,231.458 87.030 C 231.201 87.054,229.771 87.105,228.281 87.143 L 225.573 87.214 221.727 66.602 C 217.630 44.650,217.785 45.433,217.628 45.833 C 217.513 46.126,209.408 68.016,209.248 68.464 L 209.146 68.750 201.457 68.750 L 193.767 68.750 192.316 65.078 C 191.517 63.059,189.464 57.855,187.753 53.516 C 186.043 49.176,184.618 45.625,184.587 45.626 C 184.556 45.626,182.707 54.919,180.477 66.277 C 178.247 77.634,176.400 86.990,176.374 87.066 C 176.338 87.170,176.178 87.189,175.741 87.142 C 175.419 87.108,173.609 86.915,171.719 86.714 C 121.554 81.387,95.852 69.536,96.594 52.077 C 96.912 44.588,102.576 35.652,111.797 28.089 C 112.728 27.325,113.059 27.024,112.891 27.094 C 112.876 27.100,112.677 27.152,112.448 27.209 " stroke="none" fill="#000000" fill-rule="evenodd"></path></g></svg>