<?xml version="1.0" encoding="UTF-8"?>
<!DOCTYPE svg PUBLIC "-//W3C//DTD SVG 1.1//EN" "http://www.w3.org/Graphics/SVG/1.1/DTD/svg11.dtd">
<svg xmlns="http://www.w3.org/2000/svg" version="1.1" width="349px" height="494px" style="shape-rendering:geometricPrecision; text-rendering:geometricPrecision; image-rendering:optimizeQuality; fill-rule:evenodd; clip-rule:evenodd" xmlns:xlink="http://www.w3.org/1999/xlink">
<g><path style="opacity:1" fill="#fefefe" d="M -0.5,-0.5 C 88.1667,-0.5 176.833,-0.5 265.5,-0.5C 264.984,1.19978 263.984,2.53311 262.5,3.5C 258.955,-0.413431 255.455,-0.413431 252,3.5C 251.471,5.58467 251.971,7.418 253.5,9C 246.811,18.5996 249.477,22.933 261.5,22C 268.831,28.6654 270.165,36.6654 265.5,46C 265.93,47.4341 266.764,48.6008 268,49.5C 268.667,51.5 268.667,53.5 268,55.5C 263.055,60.1228 257.388,63.4561 251,65.5C 248.192,64.6137 245.359,64.447 242.5,65C 240.602,68.621 238.102,71.7877 235,74.5C 233.665,78.5115 232.331,82.5115 231,86.5C 227.688,88.6453 224.854,91.312 222.5,94.5C 222.931,95.2935 223.265,96.1268 223.5,97C 221.95,102.034 221.117,107.201 221,112.5C 217.527,115.061 214.527,118.061 212,121.5C 211.695,124.497 211.862,127.497 212.5,130.5C 212.485,132.634 211.985,134.634 211,136.5C 208.204,138.886 205.037,140.719 201.5,142C 199.622,143.543 198.122,145.376 197,147.5C 195.028,156.059 193.694,164.726 193,173.5C 191.294,174.308 190.461,175.641 190.5,177.5C 184.337,176.368 180.004,178.535 177.5,184C 170.291,185.634 167.457,190.134 169,197.5C 165.986,200.447 164.652,204.113 165,208.5C 160.14,213.89 157.806,220.223 158,227.5C 153.475,232.686 150.808,238.686 150,245.5C 141.232,249.694 137.066,256.694 137.5,266.5C 134.099,267.441 131.599,269.441 130,272.5C 127.055,270.373 123.888,269.873 120.5,271C 119.671,269.184 118.837,267.351 118,265.5C 112.414,263.015 109.247,258.682 108.5,252.5C 106.167,251.333 103.833,250.167 101.5,249C 99.9431,246.704 98.2764,244.538 96.5,242.5C 95.2011,243.09 94.3678,244.09 94,245.5C 93.7822,248.426 93.2822,251.26 92.5,254C 89.1464,254.455 85.8131,254.955 82.5,255.5C 82.2447,252.984 81.4114,250.65 80,248.5C 79.2825,247.549 78.4491,247.383 77.5,248C 73.8333,251.667 70.1667,255.333 66.5,259C 63.8807,259.151 61.5473,259.985 59.5,261.5C 58.198,264.708 57.5313,268.041 57.5,271.5C 53.9054,271.88 50.572,272.38 47.5,273C 45.5842,276.585 42.7509,279.085 39,280.5C 38.4212,284.091 36.5879,286.924 33.5,289C 28.6226,293.546 23.456,297.713 18,301.5C 17.3623,302.609 16.8623,303.775 16.5,305C 16.997,309.026 17.997,312.86 19.5,316.5C 17.3536,322.331 15.8536,328.331 15,334.5C 13.0394,337.463 10.706,340.129 8,342.5C 7.63732,348.854 4.80398,353.521 -0.5,356.5C -0.5,237.5 -0.5,118.5 -0.5,-0.5 Z"/></g>
<g><path style="opacity:1" fill="#fefefe" d="M 267.5,-0.5 C 294.5,-0.5 321.5,-0.5 348.5,-0.5C 348.5,164.167 348.5,328.833 348.5,493.5C 346.833,493.5 345.167,493.5 343.5,493.5C 345.235,491.765 346.568,489.765 347.5,487.5C 346.246,482.813 344.246,478.48 341.5,474.5C 342.453,471.185 343.953,468.185 346,465.5C 346.667,462.5 346.667,459.5 346,456.5C 342.321,453.776 341.487,450.276 343.5,446C 345.129,433.626 339.795,426.293 327.5,424C 318.565,413.733 310.398,402.9 303,391.5C 301.665,384.802 300.332,378.136 299,371.5C 294.035,366.516 288.368,362.516 282,359.5C 280.053,351.506 280.22,343.506 282.5,335.5C 281.965,332.1 280.632,329.1 278.5,326.5C 278.528,318.179 278.695,309.846 279,301.5C 276.104,297.987 272.938,294.821 269.5,292C 269.645,291.228 269.978,290.561 270.5,290C 274.91,287.868 279.077,285.368 283,282.5C 286.481,275.861 289.148,268.861 291,261.5C 298.642,256.55 302.975,249.55 304,240.5C 308.418,236.753 312.084,232.42 315,227.5C 317.81,221.567 316.81,216.567 312,212.5C 308.155,199.645 302.322,187.811 294.5,177C 290.342,177.078 288.009,175.078 287.5,171C 280.624,167.13 274.624,162.13 269.5,156C 267.765,155.349 266.098,155.515 264.5,156.5C 263.804,153.444 262.97,150.444 262,147.5C 257.454,143.286 252.621,139.453 247.5,136C 250.388,132.778 252.888,129.278 255,125.5C 255.903,124.299 257.069,123.465 258.5,123C 264.741,123.864 271.074,124.364 277.5,124.5C 283.916,124.53 290.249,123.863 296.5,122.5C 304.321,124.84 311.988,124.34 319.5,121C 317.016,118.256 314.016,116.256 310.5,115C 305.375,108.207 299.875,101.707 294,95.5C 292.22,91.1587 291.053,86.6587 290.5,82C 290.625,78.3591 291.958,75.1925 294.5,72.5C 292.557,68.9472 290.89,65.2806 289.5,61.5C 290.636,59.6822 291.303,57.6822 291.5,55.5C 290.231,51.9939 290.231,48.4939 291.5,45C 289.975,40.6894 288.975,36.1894 288.5,31.5C 287.553,29.5998 286.053,28.2665 284,27.5C 282.595,21.6177 280.595,15.951 278,10.5C 274.478,7.73412 271.145,4.73412 268,1.5C 267.536,0.905578 267.369,0.238911 267.5,-0.5 Z"/></g>
<g><path style="opacity:1" fill="#151515" d="M 265.5,-0.5 C 266.167,-0.5 266.833,-0.5 267.5,-0.5C 267.369,0.238911 267.536,0.905578 268,1.5C 271.145,4.73412 274.478,7.73412 278,10.5C 280.595,15.951 282.595,21.6177 284,27.5C 286.053,28.2665 287.553,29.5998 288.5,31.5C 288.975,36.1894 289.975,40.6894 291.5,45C 290.231,48.4939 290.231,51.9939 291.5,55.5C 291.303,57.6822 290.636,59.6822 289.5,61.5C 290.89,65.2806 292.557,68.9472 294.5,72.5C 291.958,75.1925 290.625,78.3591 290.5,82C 291.053,86.6587 292.22,91.1587 294,95.5C 299.875,101.707 305.375,108.207 310.5,115C 314.016,116.256 317.016,118.256 319.5,121C 311.988,124.34 304.321,124.84 296.5,122.5C 290.249,123.863 283.916,124.53 277.5,124.5C 271.074,124.364 264.741,123.864 258.5,123C 257.069,123.465 255.903,124.299 255,125.5C 252.888,129.278 250.388,132.778 247.5,136C 252.621,139.453 257.454,143.286 262,147.5C 262.97,150.444 263.804,153.444 264.5,156.5C 266.098,155.515 267.765,155.349 269.5,156C 274.624,162.13 280.624,167.13 287.5,171C 288.009,175.078 290.342,177.078 294.5,177C 302.322,187.811 308.155,199.645 312,212.5C 316.81,216.567 317.81,221.567 315,227.5C 312.084,232.42 308.418,236.753 304,240.5C 302.975,249.55 298.642,256.55 291,261.5C 289.148,268.861 286.481,275.861 283,282.5C 279.077,285.368 274.91,287.868 270.5,290C 269.978,290.561 269.645,291.228 269.5,292C 272.938,294.821 276.104,297.987 279,301.5C 278.695,309.846 278.528,318.179 278.5,326.5C 280.632,329.1 281.965,332.1 282.5,335.5C 280.22,343.506 280.053,351.506 282,359.5C 288.368,362.516 294.035,366.516 299,371.5C 300.332,378.136 301.665,384.802 303,391.5C 310.398,402.9 318.565,413.733 327.5,424C 339.795,426.293 345.129,433.626 343.5,446C 341.487,450.276 342.321,453.776 346,456.5C 346.667,459.5 346.667,462.5 346,465.5C 343.953,468.185 342.453,471.185 341.5,474.5C 344.246,478.48 346.246,482.813 347.5,487.5C 346.568,489.765 345.235,491.765 343.5,493.5C 342.833,493.5 342.167,493.5 341.5,493.5C 340.375,491.871 339.041,490.371 337.5,489C 332.999,486.584 328.666,483.917 324.5,481C 322.419,480.131 320.253,479.631 318,479.5C 311.691,481.591 306.024,480.591 301,476.5C 298.213,477.517 295.38,477.684 292.5,477C 286.134,474.551 279.634,472.384 273,470.5C 270.738,471.382 268.571,472.382 266.5,473.5C 265.062,473.281 263.729,472.781 262.5,472C 246.837,471.5 231.17,471.333 215.5,471.5C 215.436,467.938 213.603,466.271 210,466.5C 202.672,467.214 195.339,467.881 188,468.5C 171.334,468.214 154.667,467.881 138,467.5C 134.388,466.907 131.555,468.074 129.5,471C 108.411,471.977 87.4109,471.643 66.5,470C 65.2986,469.097 64.4652,467.931 64,466.5C 61.0298,455.8 61.0298,445.133 64,434.5C 65.2086,428.114 64.2086,422.114 61,416.5C 57.3874,413.377 54.054,410.044 51,406.5C 50.7619,402.627 49.9286,398.96 48.5,395.5C 48.7958,393.015 50.1292,391.348 52.5,390.5C 50.4382,389.239 48.7715,389.739 47.5,392C 36.8815,392.942 28.3815,389.109 22,380.5C 20.1059,374.731 19.1059,368.731 19,362.5C 18.6667,362.167 18.3333,361.833 18,361.5C 14.627,363.017 11.2937,364.684 8,366.5C 4.06625,364.931 1.23291,362.264 -0.5,358.5C -0.5,357.833 -0.5,357.167 -0.5,356.5C 4.80398,353.521 7.63732,348.854 8,342.5C 10.706,340.129 13.0394,337.463 15,334.5C 15.8536,328.331 17.3536,322.331 19.5,316.5C 17.997,312.86 16.997,309.026 16.5,305C 16.8623,303.775 17.3623,302.609 18,301.5C 23.456,297.713 28.6226,293.546 33.5,289C 36.5879,286.924 38.4212,284.091 39,280.5C 42.7509,279.085 45.5842,276.585 47.5,273C 50.572,272.38 53.9054,271.88 57.5,271.5C 57.5313,268.041 58.198,264.708 59.5,261.5C 61.5473,259.985 63.8807,259.151 66.5,259C 70.1667,255.333 73.8333,251.667 77.5,248C 78.4491,247.383 79.2825,247.549 80,248.5C 81.4114,250.65 82.2447,252.984 82.5,255.5C 85.8131,254.955 89.1464,254.455 92.5,254C 93.2822,251.26 93.7822,248.426 94,245.5C 94.3678,244.09 95.2011,243.09 96.5,242.5C 98.2764,244.538 99.9431,246.704 101.5,249C 103.833,250.167 106.167,251.333 108.5,252.5C 109.247,258.682 112.414,263.015 118,265.5C 118.837,267.351 119.671,269.184 120.5,271C 123.888,269.873 127.055,270.373 130,272.5C 131.599,269.441 134.099,267.441 137.5,266.5C 137.066,256.694 141.232,249.694 150,245.5C 150.808,238.686 153.475,232.686 158,227.5C 157.806,220.223 160.14,213.89 165,208.5C 164.652,204.113 165.986,200.447 169,197.5C 167.457,190.134 170.291,185.634 177.5,184C 180.004,178.535 184.337,176.368 190.5,177.5C 190.461,175.641 191.294,174.308 193,173.5C 193.694,164.726 195.028,156.059 197,147.5C 198.122,145.376 199.622,143.543 201.5,142C 205.037,140.719 208.204,138.886 211,136.5C 211.985,134.634 212.485,132.634 212.5,130.5C 211.862,127.497 211.695,124.497 212,121.5C 214.527,118.061 217.527,115.061 221,112.5C 221.117,107.201 221.95,102.034 223.5,97C 223.265,96.1268 222.931,95.2935 222.5,94.5C 224.854,91.312 227.688,88.6453 231,86.5C 232.331,82.5115 233.665,78.5115 235,74.5C 238.102,71.7877 240.602,68.621 242.5,65C 245.359,64.447 248.192,64.6137 251,65.5C 257.388,63.4561 263.055,60.1228 268,55.5C 268.667,53.5 268.667,51.5 268,49.5C 266.764,48.6008 265.93,47.4341 265.5,46C 270.165,36.6654 268.831,28.6654 261.5,22C 249.477,22.933 246.811,18.5996 253.5,9C 251.971,7.418 251.471,5.58467 252,3.5C 255.455,-0.413431 258.955,-0.413431 262.5,3.5C 263.984,2.53311 264.984,1.19978 265.5,-0.5 Z"/></g>
<g><path style="opacity:1" fill="#fefefe" d="M 255.5,3.5 C 257.607,4.30043 259.774,4.9671 262,5.5C 263.711,5.56072 265.044,4.89405 266,3.5C 269.667,6.83333 273.333,10.1667 277,13.5C 278.276,21.0136 281.276,27.6803 286,33.5C 286.185,37.6563 287.018,41.6563 288.5,45.5C 287.405,48.6426 287.405,51.8093 288.5,55C 288.518,57.4218 287.851,59.5885 286.5,61.5C 287.89,65.2806 289.557,68.9472 291.5,72.5C 288.806,74.8887 287.473,77.8887 287.5,81.5C 288.487,86.9635 289.987,92.2968 292,97.5C 297.044,102.876 301.711,108.542 306,114.5C 308.234,116.7 310.734,118.533 313.5,120C 311,120.5 308.5,121 306,121.5C 303.143,120.241 300.143,119.575 297,119.5C 290.226,120.879 283.393,121.879 276.5,122.5C 270.504,121.326 264.504,120.493 258.5,120C 256.413,120.792 254.579,121.959 253,123.5C 251.204,126.927 249.037,130.094 246.5,133C 245.552,133.483 244.552,133.649 243.5,133.5C 243.297,135.39 243.963,136.89 245.5,138C 250.621,141.453 255.454,145.286 260,149.5C 260.056,152.78 260.889,155.78 262.5,158.5C 264.426,159.061 266.426,159.227 268.5,159C 272.964,164.47 278.297,168.803 284.5,172C 286.148,176.814 289.481,179.648 294.5,180.5C 300.921,191.263 306.087,202.596 310,214.5C 311.512,215.257 312.846,216.257 314,217.5C 313.532,225.758 309.865,232.425 303,237.5C 301.572,246.921 296.906,254.255 289,259.5C 287.154,266.851 284.487,273.851 281,280.5C 278.374,283.231 275.207,285.064 271.5,286C 269.443,287.719 267.776,289.719 266.5,292C 266.862,293.225 267.362,294.391 268,295.5C 270.846,297.257 273.512,299.257 276,301.5C 276.609,305.524 276.442,309.524 275.5,313.5C 275.875,315.916 276.541,318.25 277.5,320.5C 276.833,322.5 276.167,324.5 275.5,326.5C 277.122,329.597 278.456,332.764 279.5,336C 277.471,344.512 277.638,353.012 280,361.5C 286.368,364.516 292.035,368.516 297,373.5C 297.871,379.521 298.871,385.521 300,391.5C 307.343,403.845 315.843,415.345 325.5,426C 331.381,427.404 336.381,430.237 340.5,434.5C 339.937,435.939 339.603,437.439 339.5,439C 340.153,444.485 340.653,449.985 341,455.5C 343.016,456.839 344.183,458.672 344.5,461C 341.537,464.929 339.537,469.429 338.5,474.5C 341.258,478.419 343.258,482.753 344.5,487.5C 344,488.5 343.5,489.5 343,490.5C 338.255,486.878 333.422,483.378 328.5,480C 326.283,478.725 323.949,477.725 321.5,477C 316.515,477.219 311.515,477.219 306.5,477C 305.5,476 304.5,475 303.5,474C 299.861,474.278 296.194,474.278 292.5,474C 285.829,472.51 279.329,470.343 273,467.5C 269.396,470.382 265.562,470.882 261.5,469C 246.822,468.833 232.155,468.333 217.5,467.5C 215.57,464.847 212.904,463.514 209.5,463.5C 199.853,465.111 190.186,465.444 180.5,464.5C 176.861,465.326 173.194,465.993 169.5,466.5C 157.166,465.56 144.833,465.06 132.5,465C 130.884,465.615 129.551,466.615 128.5,468C 108.5,468.667 88.5,468.667 68.5,468C 67.1068,466.829 66.2735,465.329 66,463.5C 63.7657,453.389 64.099,443.389 67,433.5C 68.3155,421.797 63.9821,412.797 54,406.5C 54.0198,402.275 52.8531,398.442 50.5,395C 54.4606,394.392 55.9606,392.226 55,388.5C 53.769,387.892 52.4357,387.559 51,387.5C 47.3805,389.207 43.5472,389.707 39.5,389C 34.9745,387.489 30.6412,385.489 26.5,383C 25.2612,379.049 23.7612,375.215 22,371.5C 23.5127,357.803 19.0127,355.137 8.5,363.5C 5.5,362.5 3.5,360.5 2.5,357.5C 7.47458,354.642 9.97458,350.308 10,344.5C 12.6667,341.167 15.3333,337.833 18,334.5C 17.9658,328.105 19.4658,322.105 22.5,316.5C 20.6944,312.364 19.861,308.031 20,303.5C 26.9604,298.208 33.6271,292.542 40,286.5C 40.0396,282.795 41.8729,280.628 45.5,280C 46.7717,278.693 47.7717,277.193 48.5,275.5C 49.1667,275.833 49.8333,276.167 50.5,276.5C 52.8822,274.929 55.5488,274.096 58.5,274C 59.8876,270.283 60.8876,266.45 61.5,262.5C 63.9892,262.702 66.3225,262.202 68.5,261C 71.6667,257.833 74.8333,254.667 78,251.5C 79.3186,253.25 79.8186,255.25 79.5,257.5C 84.1785,257.666 88.8452,257.499 93.5,257C 95.3445,254.149 96.5112,250.982 97,247.5C 99.1974,250.777 102.197,253.11 106,254.5C 107.191,260.579 110.525,264.913 116,267.5C 116.795,269.901 117.962,272.068 119.5,274C 123.816,273.491 128.149,273.491 132.5,274C 134.625,271.008 137.458,268.842 141,267.5C 139.77,262.891 140.437,258.558 143,254.5C 146.563,251.725 149.896,248.725 153,245.5C 153.152,239.198 155.485,233.864 160,229.5C 161.073,225.916 161.74,222.25 162,218.5C 164,215.167 166,211.833 168,208.5C 167.792,204.209 169.125,200.542 172,197.5C 170.748,191.087 173.248,187.254 179.5,186C 180.5,184.333 181.5,182.667 182.5,181C 185.5,180.667 188.5,180.333 191.5,180C 192.352,177.638 193.852,175.805 196,174.5C 196.176,164.309 198.009,154.475 201.5,145C 204.382,143.392 207.382,142.059 210.5,141C 213.705,138.06 215.371,134.393 215.5,130C 214.907,127.491 214.741,124.991 215,122.5C 218,119.167 221,115.833 224,112.5C 224.229,106.077 225.063,99.7432 226.5,93.5C 233.025,89.798 236.525,84.1313 237,76.5C 239.933,74.2357 242.1,71.4024 243.5,68C 254.456,68.4386 263.622,64.6053 271,56.5C 272.188,52.2492 271.355,48.5826 268.5,45.5C 269.341,40.0896 270.174,34.7563 271,29.5C 268.5,26.3333 266,23.1667 263.5,20C 259.974,18.6632 256.308,18.1632 252.5,18.5C 252.343,17.1266 252.51,15.7932 253,14.5C 256.617,11.8659 257.117,8.86591 254.5,5.5C 254.863,4.81654 255.196,4.14987 255.5,3.5 Z"/></g>
<g><path style="opacity:1" fill="#fdfdfd" d="M -0.5,358.5 C 1.23291,362.264 4.06625,364.931 8,366.5C 11.2937,364.684 14.627,363.017 18,361.5C 18.3333,361.833 18.6667,362.167 19,362.5C 19.1059,368.731 20.1059,374.731 22,380.5C 28.3815,389.109 36.8815,392.942 47.5,392C 48.7715,389.739 50.4382,389.239 52.5,390.5C 50.1292,391.348 48.7958,393.015 48.5,395.5C 49.9286,398.96 50.7619,402.627 51,406.5C 54.054,410.044 57.3874,413.377 61,416.5C 64.2086,422.114 65.2086,428.114 64,434.5C 61.0298,445.133 61.0298,455.8 64,466.5C 64.4652,467.931 65.2986,469.097 66.5,470C 87.4109,471.643 108.411,471.977 129.5,471C 131.555,468.074 134.388,466.907 138,467.5C 154.667,467.881 171.334,468.214 188,468.5C 195.339,467.881 202.672,467.214 210,466.5C 213.603,466.271 215.436,467.938 215.5,471.5C 231.17,471.333 246.837,471.5 262.5,472C 263.729,472.781 265.062,473.281 266.5,473.5C 268.571,472.382 270.738,471.382 273,470.5C 279.634,472.384 286.134,474.551 292.5,477C 295.38,477.684 298.213,477.517 301,476.5C 306.024,480.591 311.691,481.591 318,479.5C 320.253,479.631 322.419,480.131 324.5,481C 328.666,483.917 332.999,486.584 337.5,489C 339.041,490.371 340.375,491.871 341.5,493.5C 227.5,493.5 113.5,493.5 -0.5,493.5C -0.5,448.5 -0.5,403.5 -0.5,358.5 Z"/></g>
</svg>
