<svg id="svg" version="1.1" width="512" height="482" xmlns="http://www.w3.org/2000/svg"><path d="M237.318 61.705 C 237.673 62.280,241.128 64.630,244.994 66.927 C 253.461 71.957,276.549 89.816,291.000 102.513 C 334.024 140.314,359.386 179.798,367.688 221.905 C 370.446 235.889,369.947 261.036,366.580 277.800 C 365.110 285.115,362.600 295.105,361.000 300.000 C 356.924 312.474,346.799 330.000,343.669 330.000 C 342.508 330.000,322.567 310.684,235.597 225.314 L 198.694 189.090 201.307 185.795 C 202.745 183.983,213.276 172.936,224.710 161.248 C 236.145 149.559,245.217 139.996,244.871 139.998 C 244.525 139.999,231.940 137.726,216.905 134.946 C 201.869 132.166,188.652 130.126,187.534 130.412 C 186.415 130.699,171.550 145.418,154.500 163.121 C 115.427 203.691,109.812 209.831,110.193 211.576 C 110.637 213.616,140.907 245.000,142.430 245.000 C 143.134 245.000,151.681 236.873,161.422 226.939 C 171.164 217.006,179.503 209.018,179.954 209.189 C 180.653 209.455,216.722 248.029,295.722 333.000 L 313.852 352.500 310.576 354.197 C 305.497 356.828,293.041 359.784,281.756 361.037 C 258.634 363.603,227.473 357.914,195.500 345.288 C 181.658 339.821,159.373 329.155,151.774 324.357 C 149.616 322.995,146.906 322.020,145.752 322.190 C 144.580 322.363,140.934 325.810,137.491 330.000 L 131.329 337.500 125.276 337.164 C 119.785 336.860,118.938 337.092,116.145 339.664 C 112.663 342.872,112.231 345.038,113.417 353.331 C 114.504 360.934,113.418 362.868,105.087 368.168 C 86.981 379.685,81.357 383.900,74.970 390.739 C 59.349 407.466,55.547 426.334,66.420 433.174 C 75.440 438.848,93.618 429.262,105.445 412.594 C 109.949 406.247,117.021 392.632,120.947 382.753 C 124.141 374.713,128.571 371.000,134.970 371.000 C 145.132 371.000,147.718 367.667,146.573 356.049 C 145.946 349.685,146.060 349.039,147.981 348.010 C 149.804 347.034,150.860 347.577,156.285 352.276 C 166.946 361.511,184.742 374.413,195.061 380.388 C 229.117 400.110,256.571 408.775,288.000 409.721 C 311.055 410.416,327.233 407.464,345.162 399.294 C 350.112 397.038,353.314 396.103,354.208 396.651 C 354.969 397.118,362.488 404.925,370.916 414.000 C 390.354 434.931,390.431 435.000,394.321 435.000 C 404.185 435.000,419.000 419.464,419.000 409.120 C 419.000 405.949,417.504 404.128,402.500 389.030 C 393.425 379.897,386.000 371.758,386.000 370.941 C 386.000 370.124,387.283 367.891,388.850 365.978 C 392.666 361.322,401.100 347.751,404.732 340.424 C 419.819 309.984,423.999 265.046,415.365 226.117 C 407.255 189.554,389.447 158.323,360.782 130.394 C 332.622 102.955,296.972 81.775,253.485 66.646 C 246.327 64.155,239.616 61.790,238.571 61.389 C 237.351 60.921,236.903 61.034,237.318 61.705 " stroke="none" fill="undefined" fill-rule="evenodd"/></svg>