<svg id="svg" version="1.1" xmlns="http://www.w3.org/2000/svg" xmlns:xlink="http://www.w3.org/1999/xlink" width="400" height="375.90361445783134" viewBox="0, 0, 400,375.90361445783134"><g id="svgg"><path id="path0" d="

M189.098 70.136 C 177.839 73.206,174.393 86.901,182.919 94.694 C 195.122 105.846,212.872 90.733,204.502 76.318 C 201.686 71.468,194.618 68.632,189.098 70.136 M199.730 98.475 C 196.754 99.985,192.547 100.624,189.691 100.001 C 185.483 99.083,185.509 99.071,185.636 101.790 C 185.742 104.076,186.061 105.062,188.097 109.398 C 189.483 112.348,191.474 114.969,195.677 119.376 C 217.057 141.793,221.880 148.245,227.236 161.597 C 228.177 163.944,228.947 166.260,228.947 166.744 C 228.947 167.229,229.094 167.716,229.274 167.827 C 229.454 167.938,229.715 168.745,229.855 169.620 C 229.995 170.496,230.453 172.234,230.872 173.482 C 231.292 174.730,231.883 176.673,232.185 177.798 C 232.983 180.766,233.077 180.827,236.820 180.827 C 240.487 180.827,240.297 180.711,243.155 184.689 C 245.465 187.905,253.685 198.967,254.812 200.376 C 255.391 201.100,258.214 204.906,261.085 208.835 C 263.956 212.763,268.021 218.261,270.117 221.053 C 277.466 230.836,284.844 240.806,286.039 242.570 C 287.643 244.935,288.571 245.431,289.554 244.447 C 290.268 243.734,290.271 243.660,289.645 242.436 C 288.918 241.014,281.502 228.492,279.320 225.000 C 278.119 223.078,275.555 218.840,274.248 216.618 C 272.061 212.899,263.328 198.299,261.722 195.677 C 260.582 193.816,258.858 190.940,257.890 189.286 C 256.922 187.632,254.497 183.613,252.501 180.355 C 250.505 177.098,248.872 174.340,248.872 174.226 C 248.872 174.112,248.195 173.022,247.368 171.805 C 246.541 170.587,245.865 169.500,245.865 169.389 C 245.865 169.217,244.702 167.249,242.955 164.465 C 242.699 164.056,242.165 163.130,241.769 162.406 C 241.374 161.682,239.257 158.161,237.066 154.581 C 234.875 151.001,233.083 147.995,233.083 147.901 C 233.083 147.806,232.629 147.014,232.074 146.139 C 230.186 143.165,224.060 133.006,224.060 132.850 C 224.060 132.765,223.486 131.810,222.785 130.727 C 222.083 129.645,219.354 125.122,216.720 120.677 C 214.086 116.231,211.446 111.887,210.853 111.022 C 210.260 110.158,209.774 109.350,209.774 109.227 C 209.774 108.910,203.732 98.820,203.067 98.026 C 202.383 97.211,202.164 97.241,199.730 98.475 M179.334 104.558 C 177.822 107.323,176.035 110.517,175.363 111.654 C 174.690 112.791,173.463 114.991,172.635 116.541 C 171.807 118.092,170.377 120.714,169.456 122.368 C 168.536 124.023,167.135 126.560,166.344 128.008 C 165.553 129.455,163.732 132.754,162.297 135.338 C 160.863 137.923,159.183 140.968,158.564 142.105 C 157.945 143.242,157.310 144.342,157.153 144.549 C 156.881 144.907,156.192 146.127,153.650 150.752 C 151.634 154.421,151.508 154.690,151.506 155.340 C 151.503 156.093,156.649 160.644,157.152 160.333 C 157.341 160.216,158.564 157.968,159.869 155.337 C 164.150 146.711,171.824 135.759,180.439 125.981 C 182.190 123.994,183.712 122.282,183.822 122.177 C 189.437 116.804,189.840 115.952,187.846 113.661 C 185.877 111.399,184.275 107.570,183.431 103.108 C 182.623 98.837,182.423 98.907,179.334 104.558 M233.647 101.680 C 226.083 103.071,225.598 104.594,231.850 107.319 C 238.948 110.413,249.791 117.246,258.271 123.970 C 262.738 127.513,263.446 128.103,266.538 130.873 C 278.769 141.827,293.185 162.166,297.781 174.952 C 298.709 177.532,300.922 177.600,301.263 175.060 C 302.982 162.251,300.191 146.426,294.109 134.506 C 283.118 112.959,255.079 97.737,233.647 101.680 M139.431 104.445 C 136.284 106.463,134.556 107.400,131.103 108.958 L 127.256 110.695 121.053 110.744 C 117.641 110.770,114.653 110.817,114.412 110.847 C 114.172 110.877,111.564 113.567,108.616 116.823 C 105.669 120.080,102.906 123.095,102.475 123.523 C 102.044 123.951,100.085 126.055,98.120 128.198 C 96.156 130.342,93.463 133.254,92.135 134.670 C 90.808 136.086,89.370 137.717,88.940 138.294 C 88.510 138.872,86.765 140.769,85.063 142.510 C 83.286 144.329,81.966 145.999,81.962 146.433 C 81.955 147.149,94.691 159.116,95.989 159.614 C 96.487 159.805,100.269 155.957,115.789 139.468 C 118.994 136.063,122.209 132.669,122.932 131.926 C 126.210 128.561,138.656 115.340,143.163 110.438 C 145.410 107.993,145.405 107.896,142.904 105.268 C 141.330 103.612,140.891 103.508,139.431 104.445 M250.846 142.098 C 238.711 154.091,238.962 153.754,240.471 156.034 C 241.019 156.862,242.672 159.608,244.145 162.135 C 246.264 165.771,246.992 166.729,247.636 166.729 C 248.778 166.729,273.308 142.426,273.308 141.294 C 273.308 140.360,263.700 130.824,262.782 130.846 C 262.472 130.853,257.101 135.917,250.846 142.098 M120.229 138.245 C 118.304 140.257,115.926 142.739,114.944 143.760 C 112.854 145.933,112.841 145.991,114.194 147.303 C 115.528 148.597,122.619 155.076,124.794 156.988 C 125.714 157.797,126.743 158.712,127.079 159.023 C 127.415 159.333,128.185 160.002,128.789 160.509 C 129.393 161.017,131.410 162.798,133.271 164.467 C 135.132 166.136,138.853 169.429,141.541 171.784 C 144.229 174.139,146.682 176.350,146.992 176.698 C 147.303 177.046,150.009 179.500,153.008 182.151 C 156.006 184.802,159.709 188.083,161.237 189.444 C 162.765 190.804,164.205 192.086,164.438 192.293 C 164.671 192.500,166.549 194.192,168.611 196.053 C 178.005 204.528,181.942 207.895,182.461 207.895 C 183.052 207.895,192.539 198.405,193.027 197.326 C 193.327 196.661,193.148 196.326,191.899 195.223 C 190.140 193.670,189.546 193.136,181.949 186.278 C 178.742 183.383,174.598 179.667,172.740 178.018 C 169.850 175.456,167.184 173.007,164.743 170.677 C 164.418 170.367,163.588 169.665,162.899 169.117 C 162.210 168.569,159.830 166.439,157.609 164.383 C 155.388 162.326,151.964 159.227,150.000 157.495 C 143.423 151.696,133.659 142.861,128.838 138.346 C 126.310 135.978,124.523 134.594,123.989 134.589 C 123.846 134.588,122.154 136.233,120.229 138.245 M220.842 172.274 C 215.205 178.036,195.800 197.836,179.511 214.448 C 173.308 220.774,164.465 229.796,159.860 234.497 C 155.255 239.199,148.585 245.962,145.040 249.528 C 138.903 255.698,138.615 256.054,139.066 256.895 C 139.783 258.235,147.947 266.541,148.546 266.541 C 148.835 266.541,161.757 253.844,177.261 238.325 C 202.756 212.807,222.820 192.843,229.269 186.578 C 232.001 183.923,231.937 184.601,230.043 178.383 C 229.413 176.316,228.744 174.032,228.556 173.308 C 226.598 165.789,227.120 165.859,220.842 172.274 M140.739 175.100 C 140.238 175.424,139.318 177.011,136.653 182.143 C 135.579 184.211,133.998 187.124,133.140 188.616 C 132.281 190.109,131.579 191.423,131.579 191.537 C 131.579 191.651,131.144 192.434,130.611 193.277 C 130.079 194.120,128.876 196.274,127.937 198.063 C 126.998 199.852,126.102 201.485,125.946 201.692 C 125.620 202.125,124.486 204.189,120.676 211.278 C 119.176 214.070,117.660 216.776,117.306 217.293 C 116.953 217.810,116.551 218.544,116.414 218.924 C 116.276 219.303,114.449 222.687,112.353 226.442 C 110.257 230.198,107.774 234.709,106.836 236.466 C 105.898 238.224,104.737 240.293,104.257 241.064 C 103.776 241.835,103.383 242.535,103.383 242.620 C 103.383 242.705,102.707 243.932,101.880 245.347 C 100.109 248.377,99.929 249.874,101.294 250.216 C 102.621 250.549,102.643 250.525,107.028 243.864 C 109.230 240.519,113.933 233.383,117.478 228.008 C 121.023 222.632,126.619 214.123,129.913 209.100 C 133.207 204.077,137.941 196.887,140.432 193.123 L 144.962 186.278 147.763 185.902 C 152.908 185.212,152.828 184.694,146.711 179.156 C 141.941 174.837,141.552 174.573,140.739 175.100 M202.730 215.570 C 196.251 222.119,196.330 221.581,201.220 225.807 C 203.339 227.637,207.366 231.165,210.170 233.647 C 212.974 236.128,217.458 240.086,220.134 242.443 C 222.810 244.800,226.184 247.777,227.632 249.058 C 229.079 250.339,231.810 252.725,233.701 254.359 C 235.592 255.994,238.936 258.896,241.132 260.808 C 246.012 265.058,245.084 265.166,250.316 259.741 C 256.376 253.457,256.292 254.410,251.199 249.752 C 249.200 247.924,245.784 244.737,243.607 242.669 C 241.431 240.602,237.374 236.795,234.591 234.211 C 229.753 229.716,227.392 227.496,218.985 219.530 C 213.438 214.274,208.793 210.150,208.420 210.150 C 208.240 210.150,205.679 212.589,202.730 215.570 " stroke="none" fill="#fbfbfb" fill-rule="evenodd"></path></g></svg>