<svg id="svg" xmlns="http://www.w3.org/2000/svg" xmlns:xlink="http://www.w3.org/1999/xlink" width="400" height="400" viewBox="0, 0, 400,400"><g id="svgg"><path id="path0" d="M77.734 142.764 L 77.734 207.793 78.809 207.386 C 79.399 207.162,81.465 206.219,83.398 205.290 C 90.459 201.899,96.761 198.890,100.195 197.271 C 105.255 194.885,113.036 191.182,116.211 189.649 C 125.931 184.956,132.885 181.641,133.008 181.641 C 133.145 181.641,145.329 175.826,150.195 173.438 C 151.484 172.805,154.736 171.246,157.422 169.973 C 160.107 168.700,164.326 166.694,166.797 165.515 C 169.268 164.337,172.695 162.710,174.414 161.899 C 176.133 161.089,180.586 158.959,184.311 157.166 C 188.036 155.373,191.154 153.906,191.242 153.906 C 191.418 153.906,198.578 150.384,199.805 149.694 C 200.523 149.289,204.895 147.197,213.867 142.962 C 215.801 142.050,219.756 140.165,222.656 138.774 C 225.557 137.382,229.424 135.542,231.250 134.685 C 233.076 133.827,236.416 132.242,238.672 131.163 C 240.928 130.084,245.322 127.987,248.438 126.505 C 251.553 125.022,254.980 123.387,256.055 122.871 C 257.129 122.355,260.469 120.760,263.477 119.327 C 269.611 116.404,272.743 114.908,280.664 111.119 C 283.672 109.680,287.627 107.808,289.453 106.959 C 291.279 106.110,293.608 104.986,294.629 104.462 C 296.843 103.324,296.848 103.348,295.150 106.832 C 293.919 109.360,291.841 113.738,288.382 121.094 C 287.624 122.705,285.621 126.897,283.932 130.410 C 282.242 133.923,280.859 136.858,280.859 136.932 C 280.859 137.007,279.653 139.582,278.179 142.655 C 276.705 145.728,274.837 149.648,274.029 151.367 C 272.520 154.574,270.448 158.951,267.188 165.820 C 264.026 172.480,261.791 177.191,259.914 181.152 C 258.921 183.247,257.056 187.158,255.769 189.844 C 254.482 192.529,252.722 196.309,251.858 198.242 C 250.994 200.176,250.150 201.934,249.983 202.148 C 249.816 202.363,248.631 204.824,247.349 207.617 C 246.068 210.410,244.050 214.717,242.864 217.188 C 241.678 219.658,239.371 224.467,237.737 227.873 C 236.103 231.279,234.766 234.127,234.766 234.201 C 234.766 234.357,228.463 247.507,221.295 262.305 C 220.358 264.238,218.592 268.018,217.370 270.703 C 216.147 273.389,215.009 275.762,214.839 275.977 C 214.670 276.191,213.741 278.125,212.777 280.273 C 211.812 282.422,209.509 287.312,207.660 291.139 C 205.810 294.967,204.297 298.181,204.297 298.281 C 204.297 298.381,203.330 300.401,202.148 302.769 C 200.967 305.137,200.000 307.275,200.000 307.519 C 200.000 307.764,199.401 309.204,198.668 310.720 C 195.908 316.431,193.359 321.880,193.359 322.070 C 193.359 322.177,222.363 322.266,257.813 322.266 L 322.266 322.266 322.266 200.000 L 322.266 77.734 200.000 77.734 L 77.734 77.734 77.734 142.764 M231.250 166.382 C 227.705 167.606,223.574 169.009,222.070 169.501 C 220.566 169.992,218.445 170.735,217.356 171.152 C 216.266 171.568,214.509 172.154,213.449 172.455 C 212.390 172.755,207.920 174.249,203.516 175.773 C 196.996 178.030,179.518 183.958,173.438 185.974 C 172.686 186.224,170.928 186.834,169.531 187.329 C 168.135 187.825,166.377 188.408,165.625 188.624 C 164.873 188.840,157.227 191.408,148.633 194.332 C 140.039 197.255,132.217 199.883,131.250 200.172 C 130.283 200.460,124.043 202.567,117.383 204.854 C 110.723 207.140,104.395 209.255,103.320 209.554 C 102.246 209.853,100.576 210.435,99.609 210.847 C 98.643 211.259,97.324 211.719,96.680 211.871 C 96.035 212.022,94.365 212.558,92.969 213.062 C 91.572 213.566,88.408 214.631,85.938 215.428 C 83.467 216.226,81.219 217.002,80.943 217.154 C 80.666 217.306,83.039 217.732,86.216 218.102 C 98.144 219.489,109.433 222.390,120.313 226.864 C 124.812 228.715,132.255 232.360,134.236 233.684 C 135.127 234.279,135.958 234.766,136.084 234.766 C 136.210 234.766,137.657 235.688,139.299 236.816 C 140.941 237.944,142.680 239.131,143.164 239.453 C 152.115 245.412,162.413 256.020,168.384 265.430 C 169.338 266.934,170.343 268.516,170.618 268.945 C 171.668 270.589,176.545 280.772,177.353 283.008 C 179.550 289.086,181.119 294.281,181.613 297.109 C 181.797 298.162,182.323 301.133,182.781 303.711 C 183.240 306.289,183.726 310.829,183.862 313.799 C 184.138 319.834,184.112 319.834,186.124 313.867 C 186.631 312.363,188.222 307.793,189.659 303.711 C 191.096 299.629,192.591 295.322,192.982 294.141 C 193.373 292.959,194.419 289.971,195.307 287.500 C 198.162 279.560,199.230 276.423,199.961 273.828 C 200.355 272.432,201.416 269.268,202.320 266.797 C 203.224 264.326,204.102 261.777,204.272 261.133 C 204.442 260.488,205.044 258.832,205.611 257.452 C 206.177 256.072,206.641 254.734,206.641 254.477 C 206.641 254.220,206.985 253.152,207.406 252.103 C 208.239 250.026,210.758 243.049,212.467 238.086 C 213.911 233.894,214.637 231.842,216.473 226.758 C 217.327 224.395,218.175 221.934,218.357 221.289 C 218.539 220.645,219.417 218.096,220.307 215.625 C 222.590 209.288,224.124 204.928,225.186 201.758 C 225.690 200.254,226.830 197.002,227.719 194.531 C 228.608 192.061,229.660 189.072,230.057 187.891 C 230.454 186.709,231.513 183.721,232.410 181.250 C 233.307 178.779,234.201 176.118,234.396 175.337 C 234.590 174.556,235.167 172.886,235.677 171.626 C 236.584 169.385,237.773 166.107,238.172 164.746 C 238.429 163.868,238.761 163.790,231.250 166.382 " stroke="none" fill="#000000" fill-rule="evenodd"></path></g></svg>