<svg id="svg" xmlns="http://www.w3.org/2000/svg" xmlns:xlink="http://www.w3.org/1999/xlink" width="400" height="650.9090909090909" viewBox="0, 0, 400,650.9090909090909"><g id="svgg"><path id="path0" d="M252.642 46.562 C 232.341 53.296,226.294 53.949,200.285 52.210 C 165.288 49.870,140.606 56.418,140.606 68.042 C 140.606 69.707,139.717 70.303,137.234 70.303 C 135.379 70.303,130.896 71.072,127.270 72.013 C 120.685 73.721,120.676 73.719,116.687 70.217 C 103.740 58.849,89.096 60.549,71.312 75.484 C 67.091 79.030,58.239 85.128,51.642 89.036 C 34.933 98.934,31.515 102.128,31.515 107.841 C 31.515 134.752,88.788 171.769,139.394 177.568 C 148.394 178.599,158.740 180.250,162.385 181.236 C 173.273 184.183,180.658 182.866,190.804 176.168 C 195.569 173.023,206.961 173.524,209.093 176.973 C 211.599 181.028,187.739 192.179,180.254 190.451 C 169.409 187.948,161.864 188.708,149.855 193.513 C 143.777 195.944,137.027 198.425,134.856 199.024 C 130.033 200.356,129.843 201.716,134.242 203.426 C 149.465 209.346,165.805 208.261,180.951 200.327 L 189.174 196.019 192.319 198.919 C 197.681 203.863,198.959 208.888,199.977 229.033 C 200.501 239.398,201.599 249.674,202.419 251.868 C 203.691 255.275,203.540 257.044,201.385 263.989 C 199.183 271.085,198.816 275.801,198.503 301.014 L 198.144 329.906 193.059 334.650 C 185.909 341.319,185.397 341.050,175.046 325.175 C 160.461 302.805,142.725 287.336,113.811 271.766 C 102.464 265.656,101.818 266.069,101.818 279.442 C 101.818 313.109,122.569 341.371,152.146 347.990 C 158.576 349.429,166.743 348.841,181.950 345.843 C 184.763 345.289,185.735 346.157,190.752 353.704 C 200.909 368.982,205.463 382.969,212.731 421.212 C 214.504 430.545,216.764 441.034,217.753 444.520 C 219.535 450.801,219.513 450.952,215.349 461.489 C 203.661 491.066,201.869 518.252,209.055 556.970 C 211.813 571.835,213.908 588.397,216.451 615.455 C 216.842 619.621,217.665 623.030,218.278 623.030 C 220.819 623.030,218.346 581.533,214.701 563.016 C 211.684 547.688,209.316 511.436,210.633 500.741 C 212.153 488.401,219.703 465.446,224.954 457.202 C 225.085 456.996,227.227 457.678,229.714 458.717 C 244.336 464.826,265.002 455.098,273.723 437.999 C 279.538 426.596,286.581 392.930,284.361 387.145 C 280.996 378.375,242.062 411.599,227.791 435.420 C 222.707 443.907,222.334 443.962,221.328 436.372 C 218.207 412.845,205.832 373.356,197.073 358.974 C 186.565 341.720,187.082 342.785,188.905 342.127 C 198.171 338.784,201.881 329.236,202.917 306.061 C 203.718 288.160,205.581 271.722,207.332 267.117 L 208.520 263.992 213.257 268.271 C 234.867 287.795,300.587 242.814,303.904 206.229 C 305.018 193.943,301.928 193.692,285.157 204.703 C 278.581 209.021,267.861 214.348,256.970 218.709 C 229.596 229.671,214.321 239.671,208.726 250.293 C 206.481 254.556,205.736 251.351,204.577 232.452 C 203.172 209.543,202.269 205.941,196.314 199.481 L 191.569 194.332 200.936 189.538 C 207.232 186.316,211.098 183.461,212.727 180.828 C 215.594 176.198,216.988 176.219,235.152 181.173 C 249.139 184.987,252.893 185.165,274.545 183.034 C 283.879 182.115,296.697 181.292,303.030 181.205 C 337.395 180.730,347.677 167.176,329.888 145.800 C 320.699 134.758,319.398 128.792,325.090 123.794 C 337.199 113.162,340.142 75.228,330.064 59.686 C 325.871 53.220,323.786 53.200,315.556 59.549 C 308.099 65.303,304.861 66.217,293.943 65.654 L 286.061 65.248 286.061 60.464 C 286.061 43.543,275.272 39.055,252.642 46.562 M277.660 49.193 C 278.537 50.249,279.487 54.340,279.773 58.284 L 280.291 65.455 275.945 65.455 C 265.026 65.455,260.468 73.804,259.405 95.758 C 258.329 117.974,256.164 124.539,247.459 131.983 C 243.863 135.059,236.238 141.847,230.516 147.067 L 220.111 156.557 217.833 153.430 C 214.663 149.078,202.515 149.869,202.387 154.437 C 202.367 155.163,201.779 154.774,201.079 153.573 C 199.001 150.001,201.037 142.131,207.883 127.273 C 215.562 110.605,217.304 103.648,217.459 89.012 C 217.640 71.910,217.590 71.889,174.565 70.870 C 157.575 70.468,143.456 69.921,143.188 69.653 C 142.015 68.480,147.096 62.861,151.230 60.761 C 164.399 54.071,168.620 53.798,216.841 56.517 C 232.758 57.414,242.581 56.030,257.415 50.797 C 268.549 46.870,275.290 46.336,277.660 49.193 M329.428 76.970 C 330.706 104.778,322.515 129.942,316.293 117.321 C 309.602 103.748,291.570 104.161,281.256 118.122 C 278.576 121.750,274.035 126.334,271.165 128.309 C 268.295 130.283,259.155 138.783,250.852 147.198 C 234.895 163.372,225.778 171.136,220.300 173.219 C 215.598 175.007,216.157 173.110,221.120 170.437 C 225.291 168.191,242.106 149.216,251.950 135.647 C 254.856 131.641,260.038 126.229,263.465 123.620 C 273.655 115.862,278.935 105.213,283.084 84.046 C 284.108 78.821,285.180 73.428,285.465 72.063 C 285.938 69.799,286.866 69.584,296.022 69.621 C 308.874 69.672,311.373 68.924,318.269 62.955 L 323.943 58.044 326.434 62.052 C 328.324 65.092,329.047 68.697,329.428 76.970 M280.000 69.810 C 280.000 80.198,271.214 109.109,265.966 115.989 C 261.620 121.688,260.567 120.969,262.520 113.636 C 263.484 110.014,264.220 101.433,264.228 93.715 C 264.243 79.418,265.217 75.054,269.383 70.606 C 272.485 67.294,280.000 66.731,280.000 69.810 M106.284 71.623 C 112.334 74.552,113.006 76.364,108.042 76.364 C 103.277 76.364,99.122 79.956,94.580 88.004 C 88.964 97.956,89.993 102.593,99.794 111.494 C 110.640 121.344,119.699 130.872,123.440 136.364 C 126.452 140.785,129.429 143.258,147.499 156.348 C 154.363 161.320,174.545 168.413,184.545 169.368 C 193.011 170.176,193.184 171.039,185.758 175.401 C 178.668 179.564,171.299 179.677,153.100 175.898 C 146.305 174.488,137.851 173.333,134.312 173.334 C 106.616 173.335,51.271 141.964,39.507 119.596 C 32.701 106.654,33.357 105.201,50.620 94.999 C 57.112 91.163,65.424 85.502,69.091 82.420 C 85.541 68.592,94.594 65.964,106.284 71.623 M210.303 76.376 C 217.738 80.119,215.394 104.700,205.579 125.914 C 199.034 140.060,197.591 145.170,197.583 154.242 C 197.568 169.187,192.354 154.878,190.059 133.594 C 188.435 118.537,185.340 113.700,176.277 112.053 C 168.590 110.657,152.516 104.423,147.273 100.804 L 142.424 97.459 142.424 86.620 L 142.424 75.781 146.061 75.017 C 154.031 73.341,206.478 74.450,210.303 76.376 M139.375 82.727 C 139.347 94.130,138.365 94.594,131.096 86.641 C 123.635 78.476,123.535 77.905,129.394 76.925 C 131.894 76.507,134.485 75.980,135.152 75.754 C 138.891 74.486,139.394 75.315,139.375 82.727 M128.476 93.207 C 136.498 101.140,140.606 106.101,140.606 107.857 C 140.606 116.726,166.329 150.294,181.394 161.085 C 187.717 165.614,189.291 167.864,185.303 166.672 C 167.015 161.203,158.685 157.695,149.273 151.495 C 138.920 144.676,135.322 141.165,123.568 126.414 C 120.270 122.275,113.848 115.881,109.298 112.204 C 95.643 101.171,94.863 95.831,105.261 84.545 C 111.098 78.211,114.652 79.537,128.476 93.207 M168.498 116.628 C 182.115 118.636,184.526 121.700,185.938 138.788 C 186.324 143.455,187.663 150.955,188.914 155.455 C 190.166 159.955,190.940 163.636,190.635 163.636 C 187.600 163.636,156.981 133.759,152.112 126.047 C 141.307 108.930,141.100 105.720,151.139 110.964 C 156.714 113.876,162.387 115.727,168.498 116.628 M310.607 113.636 C 319.108 123.166,306.743 134.063,271.515 148.087 C 266.515 150.077,257.448 154.390,251.365 157.671 C 245.283 160.952,239.828 163.625,239.244 163.610 C 238.660 163.596,249.909 151.915,264.242 137.651 L 290.303 111.718 299.509 111.616 C 306.835 111.536,309.102 111.948,310.607 113.636 M316.812 136.061 C 317.744 138.227,320.796 142.182,323.595 144.848 C 335.072 155.782,333.760 168.382,320.816 171.555 C 314.702 173.054,304.971 174.192,302.900 173.651 C 300.640 173.059,271.680 175.995,256.667 178.338 C 249.034 179.528,242.459 179.041,228.086 176.218 C 225.452 175.700,260.627 156.793,273.939 151.570 C 289.577 145.434,302.055 139.670,307.257 136.178 C 314.670 131.202,314.724 131.202,316.812 136.061 M248.330 137.855 C 242.320 145.433,225.948 163.505,222.973 165.845 L 219.394 168.661 219.394 164.432 C 219.394 160.893,220.233 159.553,224.545 156.207 C 227.379 154.008,233.707 148.508,238.608 143.984 C 246.886 136.342,252.175 133.008,248.330 137.855 M214.100 155.967 C 214.762 158.605,214.260 159.743,211.396 162.092 C 202.049 169.757,197.194 169.796,200.376 162.181 C 203.870 153.819,212.572 149.879,214.100 155.967 M212.655 168.948 C 211.966 171.691,211.219 172.121,207.141 172.121 C 201.097 172.121,201.231 170.918,207.620 167.852 C 213.704 164.932,213.665 164.924,212.655 168.948 M180.606 192.634 C 190.828 195.592,153.064 205.500,141.362 202.930 C 137.835 202.155,137.926 202.058,144.931 199.140 C 162.857 191.672,171.705 190.058,180.606 192.634 M296.966 213.344 C 286.180 240.708,251.927 267.879,228.217 267.879 C 198.587 267.879,212.385 244.093,251.439 227.847 C 268.940 220.566,276.268 216.642,283.770 210.531 C 287.437 207.544,292.316 203.953,294.612 202.550 L 298.788 199.999 299.153 203.434 C 299.353 205.324,298.369 209.783,296.966 213.344 M118.448 279.074 C 148.649 297.085,157.945 305.391,172.168 327.078 C 181.960 342.008,182.086 341.627,167.020 342.616 C 140.522 344.357,115.327 323.234,110.405 295.152 C 108.642 285.094,107.009 272.727,107.444 272.727 C 107.642 272.727,112.594 275.583,118.448 279.074 M280.647 397.879 C 277.197 430.419,267.349 449.289,250.551 455.552 C 242.797 458.443,227.879 456.515,227.879 452.622 C 227.879 450.240,238.686 431.007,242.804 426.061 C 250.045 417.363,278.565 390.730,281.028 390.365 C 281.260 390.331,281.089 393.712,280.647 397.879 " stroke="none" fill="#000000" fill-rule="evenodd"></path></g></svg>