<svg id="splitsvg" version="1.1" xmlns="http://www.w3.org/2000/svg" xmlns:xlink="http://www.w3.org/1999/xlink" width="1380" height="574"><g id="svgg"><path id="path0" d="M104.049 34.292 C 103.423 37.246,104.338 40.731,106.484 43.563 C 106.996 44.240,107.229 44.659,107.051 44.586 C 106.886 44.517,106.506 44.395,106.208 44.314 C 104.787 43.927,104.345 43.813,103.417 43.594 C 102.867 43.465,101.817 43.197,101.083 43.000 C 100.350 42.803,99.337 42.541,98.833 42.419 C 96.337 41.814,93.391 40.832,92.597 40.342 C 91.924 39.926,91.751 40.053,91.521 41.133 C 90.549 45.702,94.387 52.250,99.702 55.089 L 100.704 55.625 99.749 56.062 C 99.223 56.303,98.764 56.500,98.730 56.500 C 98.624 56.500,94.142 58.745,93.250 59.245 C 92.792 59.501,92.249 59.795,92.043 59.897 C 91.837 60.000,91.669 60.140,91.668 60.208 C 91.667 60.277,91.595 60.333,91.507 60.333 C 91.356 60.333,90.302 60.979,89.888 61.326 C 89.780 61.416,89.478 61.623,89.217 61.786 C 88.587 62.181,86.815 63.515,86.500 63.832 C 86.362 63.970,85.804 64.458,85.258 64.917 C 81.342 68.206,78.011 72.606,78.652 73.642 C 78.780 73.849,80.348 73.307,81.479 72.665 L 82.083 72.322 81.495 72.869 C 81.171 73.170,80.271 73.977,79.495 74.661 C 76.991 76.869,75.833 78.092,73.728 80.750 C 70.784 84.469,69.367 87.136,68.605 90.394 C 68.195 92.145,68.314 92.179,70.717 90.988 L 71.351 90.674 70.975 91.212 C 70.768 91.508,70.554 91.787,70.499 91.833 C 70.307 91.994,68.667 94.529,68.667 94.667 C 68.667 94.743,68.606 94.831,68.532 94.861 C 68.407 94.913,67.976 95.639,66.967 97.500 C 66.168 98.973,64.926 102.546,64.446 104.750 C 63.708 108.140,63.510 109.365,63.050 113.353 C 62.901 114.651,63.224 114.560,64.818 112.853 C 66.409 111.151,66.650 110.999,66.101 112.042 C 63.762 116.490,63.615 123.973,65.752 129.750 C 66.091 130.667,66.504 131.789,66.670 132.245 C 66.990 133.126,67.116 133.246,67.476 133.018 C 67.634 132.918,67.655 132.783,67.545 132.563 C 67.360 132.192,67.469 130.667,67.680 130.667 C 67.761 130.667,67.875 130.873,67.933 131.125 C 68.231 132.416,69.212 135.093,69.659 135.833 C 69.742 135.971,70.198 136.833,70.672 137.750 C 71.240 138.847,71.831 139.713,72.404 140.284 L 73.274 141.151 71.429 142.151 C 70.414 142.701,69.208 143.313,68.750 143.511 C 68.292 143.708,67.392 144.121,66.750 144.428 C 64.985 145.273,60.235 146.932,56.500 148.008 C 55.813 148.206,55.063 148.427,54.833 148.500 C 54.424 148.630,53.063 149.010,51.750 149.361 C 51.383 149.459,50.896 149.596,50.667 149.667 C 50.438 149.737,49.950 149.876,49.583 149.975 C 43.188 151.705,42.061 152.068,40.015 153.060 C 36.311 154.856,34.982 160.220,36.995 165.250 C 37.740 167.111,39.430 170.168,41.514 173.420 C 42.476 174.921,44.593 177.955,44.826 178.167 C 44.877 178.213,45.142 178.550,45.414 178.917 C 45.687 179.283,46.070 179.771,46.266 180.000 C 47.612 181.575,51.245 185.765,51.323 185.833 C 51.376 185.879,51.831 186.403,52.334 186.998 C 53.563 188.450,55.146 190.127,57.751 192.742 C 61.621 196.625,62.710 197.942,63.820 200.083 L 64.338 201.083 63.461 201.873 C 62.978 202.307,62.496 202.663,62.389 202.664 C 62.282 202.666,62.169 202.723,62.139 202.792 C 62.108 202.860,61.558 203.365,60.917 203.912 C 57.652 206.698,54.071 210.283,53.224 211.612 C 53.059 211.871,52.880 212.121,52.826 212.167 C 52.709 212.266,51.931 213.643,51.100 215.221 C 49.137 218.949,49.839 221.974,52.577 221.579 C 53.039 221.513,53.808 221.440,54.287 221.418 C 55.075 221.382,55.619 221.241,56.583 220.822 C 57.268 220.524,59.611 219.628,60.580 219.293 C 62.304 218.696,66.039 216.597,67.048 215.658 C 67.237 215.481,67.510 215.298,67.654 215.251 C 67.955 215.152,70.793 212.295,71.214 211.667 C 71.368 211.438,72.074 210.387,72.783 209.333 C 74.178 207.259,76.160 205.138,78.167 203.571 C 78.854 203.035,79.516 202.499,79.637 202.381 C 79.758 202.263,79.908 202.166,79.970 202.166 C 80.032 202.165,80.309 201.959,80.584 201.708 C 80.859 201.456,81.458 200.950,81.915 200.583 C 82.372 200.217,82.863 199.804,83.006 199.667 C 83.149 199.529,83.563 199.167,83.925 198.862 C 84.287 198.558,85.300 197.620,86.175 196.779 C 88.358 194.682,89.963 193.208,90.927 192.417 C 91.374 192.050,91.856 191.635,92.000 191.494 C 92.144 191.353,92.559 191.016,92.923 190.745 C 93.286 190.474,93.621 190.208,93.667 190.155 C 93.712 190.102,94.650 189.357,95.750 188.500 C 96.850 187.643,97.787 186.898,97.833 186.845 C 97.879 186.791,98.399 186.336,98.989 185.832 C 100.530 184.516,102.830 181.866,104.115 179.925 C 104.725 179.004,105.361 178.047,105.529 177.798 C 105.696 177.550,105.833 177.275,105.833 177.187 C 105.833 177.100,105.891 177.003,105.961 176.972 C 106.087 176.918,108.167 173.760,108.167 173.624 C 108.167 173.586,108.750 172.511,109.464 171.236 C 111.917 166.851,113.505 163.321,115.597 157.605 L 115.894 156.793 117.739 156.873 C 119.746 156.961,122.549 156.779,123.389 156.507 C 123.679 156.413,124.262 156.227,124.684 156.095 C 125.661 155.788,127.790 154.855,128.333 154.496 C 128.563 154.345,128.868 154.179,129.012 154.127 C 129.265 154.036,132.252 152.094,133.180 151.417 C 133.432 151.233,134.150 150.713,134.777 150.260 C 135.404 149.807,135.954 149.392,136.000 149.338 C 136.046 149.284,136.496 148.943,137.000 148.580 C 137.989 147.870,138.064 147.813,138.614 147.362 C 138.815 147.197,139.179 146.917,139.424 146.740 C 139.788 146.475,140.585 145.866,142.083 144.707 C 148.859 139.467,152.936 137.758,155.500 139.084 C 155.752 139.214,155.993 139.285,156.035 139.242 C 156.078 139.200,156.256 139.328,156.432 139.528 C 156.607 139.727,156.657 139.836,156.544 139.770 C 156.404 139.689,156.369 139.733,156.436 139.907 C 156.490 140.049,156.591 140.130,156.660 140.087 C 156.729 140.045,156.748 140.206,156.702 140.446 C 156.645 140.745,156.678 140.846,156.807 140.766 C 156.926 140.693,156.962 140.739,156.903 140.891 C 156.852 141.024,156.887 141.180,156.981 141.238 C 157.075 141.297,157.105 141.466,157.048 141.616 C 156.981 141.791,157.009 141.847,157.128 141.774 C 157.240 141.705,157.317 141.794,157.323 141.996 C 157.329 142.182,157.338 142.485,157.343 142.670 C 157.349 142.856,157.413 142.970,157.486 142.925 C 157.559 142.880,157.583 143.029,157.540 143.255 C 157.495 143.488,157.540 143.667,157.642 143.667 C 157.741 143.667,157.780 143.779,157.727 143.917 C 157.674 144.054,157.709 144.167,157.804 144.167 C 157.900 144.167,157.943 144.360,157.900 144.597 C 157.852 144.864,157.887 144.987,157.992 144.921 C 158.093 144.859,158.122 144.922,158.064 145.075 C 158.009 145.217,158.042 145.333,158.138 145.333 C 158.233 145.333,158.277 145.521,158.236 145.750 C 158.193 145.984,158.239 146.167,158.340 146.167 C 158.439 146.167,158.473 146.242,158.417 146.333 C 158.360 146.425,158.388 146.500,158.478 146.500 C 158.568 146.500,158.614 146.727,158.578 147.005 C 158.543 147.283,158.570 147.476,158.638 147.434 C 158.753 147.364,158.812 147.639,158.842 148.379 C 158.848 148.541,158.913 148.637,158.986 148.592 C 159.059 148.547,159.081 148.706,159.035 148.946 C 158.988 149.194,159.019 149.341,159.107 149.287 C 159.192 149.234,159.276 149.336,159.294 149.512 C 159.365 150.231,159.395 150.333,159.538 150.333 C 159.619 150.333,159.640 150.408,159.583 150.500 C 159.527 150.592,159.555 150.667,159.646 150.667 C 159.737 150.667,159.776 150.860,159.733 151.097 C 159.690 151.335,159.724 151.484,159.809 151.432 C 159.893 151.380,159.959 151.430,159.955 151.543 C 159.931 152.204,160.016 152.510,160.192 152.401 C 160.315 152.325,160.339 152.355,160.260 152.484 C 160.071 152.790,160.304 153.536,160.547 153.397 C 160.658 153.332,160.694 153.341,160.626 153.416 C 160.558 153.491,160.596 153.668,160.710 153.808 C 160.874 154.011,160.874 154.038,160.710 153.940 C 160.570 153.856,160.536 153.899,160.603 154.074 C 160.657 154.215,160.765 154.292,160.842 154.245 C 160.919 154.197,160.953 154.310,160.918 154.496 C 160.882 154.681,160.923 154.833,161.010 154.833 C 161.096 154.833,161.158 154.890,161.147 154.958 C 161.136 155.027,161.145 155.140,161.168 155.208 C 161.190 155.277,161.221 155.390,161.237 155.458 C 161.354 155.960,161.580 156.465,161.811 156.737 C 162.029 156.993,162.033 157.029,161.833 156.918 C 161.696 156.842,161.771 156.991,162.000 157.250 C 162.229 157.509,162.304 157.659,162.167 157.583 C 162.029 157.508,162.104 157.658,162.333 157.917 C 162.563 158.175,162.657 158.334,162.544 158.268 C 162.405 158.188,162.370 158.234,162.436 158.408 C 162.491 158.550,162.603 158.667,162.684 158.667 C 162.766 158.667,162.824 158.723,162.814 158.792 C 162.761 159.127,162.851 159.342,163.004 159.247 C 163.098 159.189,163.158 159.204,163.138 159.279 C 163.072 159.522,163.350 160.167,163.521 160.167 C 163.612 160.167,163.643 160.237,163.590 160.323 C 163.536 160.409,163.614 160.547,163.761 160.630 C 163.909 160.712,164.022 160.830,164.012 160.892 C 163.965 161.173,164.532 162.000,164.700 161.896 C 164.801 161.833,164.842 161.852,164.789 161.937 C 164.736 162.023,164.843 162.278,165.027 162.505 C 165.212 162.731,165.306 162.804,165.238 162.667 C 165.166 162.522,165.176 162.474,165.263 162.553 C 165.345 162.629,165.413 162.797,165.415 162.927 C 165.416 163.057,165.482 163.159,165.563 163.154 C 165.643 163.150,165.799 163.319,165.910 163.531 C 166.020 163.743,166.217 163.892,166.347 163.861 C 166.477 163.831,166.529 163.860,166.463 163.926 C 166.298 164.091,166.987 165.028,167.184 164.906 C 167.270 164.853,167.321 164.908,167.296 165.029 C 167.271 165.151,167.344 165.231,167.458 165.208 C 167.573 165.185,167.648 165.257,167.625 165.367 C 167.602 165.478,167.696 165.575,167.833 165.583 C 167.971 165.592,168.066 165.685,168.045 165.790 C 167.995 166.037,168.912 166.695,169.087 166.537 C 169.160 166.471,169.173 166.499,169.116 166.600 C 169.001 166.801,169.745 167.533,169.902 167.375 C 169.956 167.322,170.000 167.403,170.000 167.556 C 170.000 167.809,170.194 167.912,170.554 167.849 C 170.630 167.836,170.644 167.902,170.586 167.996 C 170.528 168.090,170.542 168.167,170.617 168.167 C 170.692 168.167,170.960 168.358,171.212 168.592 C 171.464 168.826,171.756 168.964,171.861 168.900 C 171.970 168.832,172.006 168.855,171.945 168.954 C 171.852 169.105,172.932 170.000,173.209 170.000 C 173.268 170.000,173.517 170.186,173.762 170.414 C 174.008 170.641,174.266 170.791,174.337 170.748 C 174.407 170.704,174.511 170.788,174.567 170.935 C 174.633 171.105,174.772 171.162,174.955 171.092 C 175.112 171.032,175.188 171.034,175.126 171.097 C 174.978 171.244,176.300 172.207,176.489 172.090 C 176.568 172.042,176.679 172.125,176.736 172.275 C 176.794 172.425,176.888 172.501,176.946 172.443 C 177.003 172.386,177.157 172.469,177.288 172.628 C 177.444 172.819,177.487 172.832,177.415 172.667 C 177.354 172.529,177.442 172.570,177.611 172.757 C 178.018 173.210,178.602 173.647,178.440 173.377 C 178.356 173.237,178.399 173.202,178.574 173.269 C 178.715 173.324,178.790 173.435,178.739 173.517 C 178.688 173.600,178.764 173.667,178.907 173.667 C 179.050 173.667,179.167 173.742,179.167 173.833 C 179.167 173.925,179.240 174.000,179.330 174.000 C 179.420 174.000,179.923 174.275,180.449 174.611 C 180.974 174.947,181.501 175.222,181.619 175.222 C 181.737 175.222,181.796 175.259,181.751 175.304 C 181.648 175.408,182.372 175.929,182.542 175.874 C 182.610 175.852,182.648 175.927,182.625 176.042 C 182.602 176.156,182.709 176.251,182.863 176.252 C 183.017 176.253,183.205 176.322,183.280 176.404 C 183.359 176.491,183.312 176.500,183.167 176.425 C 183.029 176.355,183.142 176.485,183.417 176.716 C 183.692 176.946,183.984 177.093,184.067 177.042 C 184.150 176.990,184.167 177.031,184.104 177.133 C 183.987 177.322,184.540 177.716,184.728 177.577 C 184.786 177.535,184.796 177.550,184.751 177.610 C 184.652 177.743,185.360 178.266,185.554 178.203 C 185.630 178.178,185.649 178.227,185.598 178.310 C 185.462 178.530,185.949 178.885,186.185 178.739 C 186.301 178.667,186.341 178.686,186.281 178.782 C 186.194 178.924,187.003 179.805,187.125 179.702 C 187.148 179.682,187.157 179.685,187.146 179.708 C 187.098 179.804,189.714 182.333,189.860 182.333 C 189.948 182.333,189.979 182.400,189.928 182.481 C 189.811 182.671,190.242 183.035,190.399 182.879 C 190.464 182.813,190.474 182.873,190.421 183.011 C 190.368 183.149,190.477 183.424,190.662 183.623 C 190.847 183.822,191.286 184.439,191.637 184.994 C 191.988 185.549,192.310 185.968,192.353 185.925 C 192.395 185.883,192.442 186.006,192.457 186.200 C 192.471 186.395,192.556 186.598,192.645 186.653 C 192.734 186.708,192.858 186.958,192.921 187.209 C 192.984 187.459,193.102 187.623,193.183 187.574 C 193.263 187.524,193.285 187.599,193.230 187.741 C 193.176 187.884,193.218 188.000,193.325 188.000 C 193.432 188.000,193.470 188.081,193.409 188.179 C 193.348 188.277,193.464 188.534,193.667 188.750 C 193.869 188.966,193.988 189.217,193.931 189.309 C 193.874 189.402,193.901 189.522,193.990 189.577 C 194.079 189.632,194.105 189.800,194.048 189.949 C 193.985 190.114,194.011 190.179,194.114 190.116 C 194.220 190.050,194.255 190.166,194.206 190.422 C 194.162 190.655,194.206 190.833,194.309 190.833 C 194.409 190.833,194.442 190.957,194.383 191.111 C 194.318 191.281,194.344 191.347,194.449 191.281 C 194.558 191.214,194.600 191.361,194.563 191.679 C 194.524 192.013,194.566 192.145,194.687 192.071 C 194.810 191.995,194.830 192.080,194.750 192.333 C 194.681 192.551,194.696 192.668,194.785 192.613 C 194.875 192.558,194.912 192.863,194.874 193.342 C 194.832 193.860,194.875 194.167,194.987 194.167 C 195.096 194.167,195.167 194.567,195.167 195.177 C 195.167 195.816,195.105 196.148,194.998 196.082 C 194.889 196.015,194.849 196.305,194.884 196.896 C 194.918 197.464,194.877 197.777,194.777 197.715 C 194.681 197.656,194.653 197.762,194.708 197.974 C 194.760 198.172,194.733 198.333,194.648 198.333 C 194.563 198.333,194.527 198.521,194.569 198.750 C 194.611 198.979,194.570 199.167,194.479 199.167 C 194.388 199.167,194.360 199.242,194.417 199.333 C 194.473 199.425,194.449 199.500,194.363 199.500 C 194.169 199.500,193.816 200.837,193.952 201.057 C 194.007 201.146,193.965 201.165,193.859 201.099 C 193.752 201.033,193.661 201.077,193.654 201.198 C 193.624 201.711,193.514 202.010,193.264 202.260 C 193.117 202.407,193.036 202.589,193.083 202.666 C 193.130 202.742,193.090 202.831,192.994 202.863 C 192.897 202.895,192.806 203.086,192.791 203.287 C 192.776 203.488,192.729 203.618,192.686 203.575 C 192.555 203.444,191.679 204.884,191.785 205.056 C 191.845 205.153,191.796 205.163,191.664 205.082 C 191.502 204.982,191.473 205.022,191.553 205.231 C 191.614 205.389,191.594 205.475,191.510 205.423 C 191.361 205.331,191.091 205.620,191.086 205.875 C 191.084 205.944,191.022 205.996,190.946 205.991 C 190.871 205.987,190.599 206.268,190.341 206.616 C 190.083 206.965,189.095 208.011,188.145 208.942 C 186.060 210.984,184.341 212.764,183.262 214.000 C 182.057 215.380,179.580 217.900,178.898 218.440 C 178.567 218.702,178.143 219.048,177.956 219.208 C 177.769 219.369,177.566 219.500,177.506 219.500 C 177.446 219.500,177.251 219.631,177.073 219.792 C 176.594 220.224,174.864 221.333,174.669 221.333 C 174.576 221.333,174.500 221.390,174.500 221.459 C 174.500 221.529,174.256 221.691,173.958 221.821 C 173.660 221.951,173.379 222.105,173.333 222.163 C 173.287 222.222,172.725 222.560,172.083 222.916 C 170.786 223.634,170.460 223.898,170.633 224.090 C 170.697 224.161,170.624 224.175,170.471 224.120 C 170.308 224.062,170.099 224.138,169.971 224.302 C 169.768 224.561,169.777 224.563,170.083 224.333 C 170.394 224.100,170.401 224.103,170.182 224.383 C 170.052 224.547,169.852 224.645,169.735 224.601 C 169.530 224.522,169.252 224.747,169.139 225.083 C 169.108 225.175,169.030 225.232,168.964 225.210 C 168.899 225.189,168.885 225.275,168.934 225.402 C 168.983 225.529,168.931 225.690,168.819 225.759 C 168.680 225.845,168.658 225.815,168.750 225.667 C 168.842 225.518,168.820 225.489,168.681 225.574 C 168.569 225.644,168.510 225.787,168.551 225.893 C 168.639 226.122,168.250 226.528,168.092 226.370 C 168.032 226.310,168.037 226.401,168.103 226.574 C 168.188 226.796,168.165 226.852,168.024 226.765 C 167.915 226.697,167.839 226.704,167.856 226.779 C 167.911 227.027,167.611 227.579,167.300 227.803 C 167.132 227.924,167.033 228.086,167.081 228.163 C 167.208 228.369,166.990 228.847,166.818 228.740 C 166.737 228.690,166.716 228.767,166.771 228.910 C 166.826 229.054,166.768 229.294,166.644 229.444 C 166.519 229.595,166.417 229.763,166.417 229.817 C 166.417 229.872,166.379 229.904,166.333 229.889 C 166.082 229.805,166.303 233.566,166.561 233.754 C 166.724 233.873,166.833 234.190,166.833 234.542 C 166.833 234.913,166.926 235.167,167.085 235.228 C 167.223 235.281,167.317 235.413,167.293 235.522 C 167.269 235.630,167.438 235.745,167.667 235.776 C 169.128 235.977,169.472 236.051,169.946 236.265 C 170.945 236.716,174.922 234.736,177.622 232.444 C 180.041 230.390,181.689 228.723,182.391 227.618 C 183.053 226.577,185.729 223.796,187.083 222.743 C 187.542 222.386,187.954 222.054,188.000 222.003 C 188.046 221.953,188.496 221.578,189.000 221.170 C 190.881 219.648,193.002 217.679,195.917 214.749 C 199.023 211.627,199.982 210.625,203.084 207.263 C 204.092 206.170,205.391 204.770,205.970 204.152 C 206.549 203.534,207.359 202.591,207.770 202.056 C 208.180 201.521,208.631 200.944,208.771 200.775 C 208.911 200.605,209.277 200.074,209.583 199.595 C 211.687 196.306,211.658 195.764,209.105 190.710 C 209.002 190.504,208.860 190.335,208.792 190.335 C 208.723 190.334,208.667 190.257,208.667 190.163 C 208.667 190.070,208.466 189.676,208.220 189.288 C 207.476 188.114,205.998 185.469,205.591 184.583 C 205.381 184.125,205.053 183.412,204.862 183.000 C 203.567 180.196,202.110 175.452,201.186 171.029 C 200.590 168.180,201.254 163.351,202.670 160.232 C 204.430 156.358,205.710 154.293,206.229 154.495 C 211.139 156.411,212.332 156.882,212.750 157.073 C 213.025 157.199,213.737 157.504,214.333 157.751 C 217.031 158.872,219.184 159.927,219.047 160.064 C 218.981 160.130,219.055 160.135,219.212 160.075 C 219.395 160.005,219.534 160.062,219.600 160.233 C 219.656 160.380,219.826 160.500,219.976 160.501 C 220.429 160.502,224.000 162.507,226.500 164.164 C 227.994 165.155,230.274 166.750,230.458 166.934 C 230.586 167.062,230.746 167.167,230.814 167.167 C 230.882 167.167,231.083 167.299,231.260 167.461 C 231.438 167.622,231.890 167.979,232.266 168.252 C 234.159 169.633,234.235 169.749,234.497 171.667 C 234.679 173.001,234.697 173.089,235.593 176.917 C 235.914 178.292,236.259 179.792,236.359 180.250 C 236.460 180.708,236.598 181.271,236.668 181.500 C 236.738 181.729,236.886 182.254,236.998 182.667 C 237.237 183.550,237.956 185.773,238.157 186.250 C 238.234 186.433,238.653 187.446,239.088 188.500 C 240.617 192.204,243.167 196.470,244.879 198.190 C 246.480 199.797,246.963 200.509,246.835 201.074 C 246.449 202.787,245.548 203.966,241.941 207.482 C 237.699 211.617,235.621 218.304,238.156 219.661 C 238.343 219.761,238.543 220.029,238.600 220.257 C 238.815 221.115,240.530 221.736,241.103 221.164 C 241.217 221.050,241.443 221.080,241.801 221.259 C 242.093 221.404,242.475 221.477,242.652 221.421 C 242.829 221.365,243.126 221.290,243.312 221.254 C 243.710 221.177,244.405 220.709,245.667 219.665 C 246.171 219.248,247.097 218.508,247.725 218.021 C 250.827 215.613,252.057 214.455,254.428 211.711 C 254.605 211.506,254.975 210.891,255.250 210.344 L 255.750 209.349 256.833 210.192 C 258.809 211.731,262.779 214.000,263.496 214.000 C 263.586 214.000,264.205 214.178,264.871 214.395 C 266.274 214.852,267.185 215.086,268.583 215.347 C 269.652 215.546,270.653 215.743,271.787 215.976 C 273.072 216.240,272.997 215.748,271.625 214.916 C 268.286 212.891,264.667 210.019,264.667 209.394 C 264.667 209.304,264.518 209.070,264.337 208.875 C 264.030 208.546,262.853 206.390,262.358 205.250 C 262.105 204.669,262.116 204.679,263.530 206.336 C 264.735 207.748,265.464 208.483,267.000 209.836 C 267.779 210.522,268.454 211.125,268.500 211.175 C 268.546 211.226,268.882 211.489,269.248 211.759 C 269.613 212.029,270.063 212.408,270.248 212.601 C 270.631 213.003,275.662 216.383,276.917 217.082 C 279.126 218.313,282.982 220.153,284.466 220.684 C 284.989 220.871,285.567 221.090,285.750 221.170 C 286.060 221.306,287.431 221.787,290.250 222.749 C 290.892 222.968,291.717 223.222,292.083 223.314 C 292.450 223.406,293.050 223.560,293.417 223.657 C 297.693 224.784,304.731 224.870,308.417 223.841 C 308.692 223.764,309.442 223.567,310.083 223.404 C 311.132 223.136,313.943 222.038,316.291 220.978 C 317.936 220.236,316.963 219.852,314.667 220.337 C 313.036 220.682,301.086 221.062,301.917 220.743 C 302.008 220.708,303.246 220.599,304.667 220.502 C 307.275 220.323,308.725 220.156,310.250 219.861 C 310.708 219.773,311.533 219.615,312.083 219.510 C 319.669 218.069,327.335 215.086,332.630 211.514 C 333.389 211.002,334.375 210.376,334.822 210.123 C 335.462 209.760,335.616 209.592,335.548 209.331 C 335.433 208.892,335.205 208.913,334.437 209.435 C 333.829 209.848,329.955 211.833,329.756 211.833 C 329.705 211.833,329.345 211.979,328.957 212.158 C 327.694 212.738,326.264 213.157,323.250 213.831 C 322.114 214.085,315.352 214.518,313.333 214.466 L 311.417 214.417 312.417 214.194 C 313.936 213.856,316.202 213.049,318.083 212.176 C 320.343 211.127,320.816 210.889,322.265 210.069 C 323.668 209.276,326.364 207.603,326.750 207.287 C 326.842 207.212,327.892 206.464,329.083 205.625 C 330.275 204.786,331.325 204.041,331.417 203.969 C 332.049 203.472,333.154 202.714,333.519 202.526 C 333.759 202.402,334.134 202.140,334.352 201.942 C 334.571 201.745,335.050 201.362,335.417 201.092 C 335.783 200.822,336.121 200.558,336.167 200.506 C 336.212 200.453,336.887 199.888,337.667 199.250 C 340.355 197.049,341.510 195.994,344.593 192.919 C 347.445 190.075,350.119 187.085,351.750 184.917 C 352.300 184.186,352.881 183.441,353.042 183.262 C 353.202 183.084,353.333 182.888,353.333 182.827 C 353.333 182.767,353.482 182.547,353.663 182.338 C 353.844 182.129,354.235 181.574,354.532 181.104 C 354.829 180.634,355.116 180.213,355.169 180.167 C 355.885 179.552,357.760 176.289,358.379 174.583 C 358.761 173.531,358.895 173.092,359.347 171.417 C 359.709 170.075,359.996 168.262,359.866 168.133 C 359.690 167.957,359.167 168.137,359.167 168.373 C 359.167 169.227,354.257 174.755,352.083 176.348 C 351.533 176.751,351.046 177.125,351.000 177.179 C 350.804 177.409,346.570 180.037,345.461 180.616 C 344.795 180.965,344.225 181.306,344.194 181.375 C 344.164 181.444,344.079 181.500,344.005 181.500 C 343.931 181.500,343.056 181.878,342.060 182.340 C 341.065 182.803,339.950 183.319,339.583 183.487 C 338.879 183.811,337.146 184.493,336.167 184.832 C 335.846 184.943,335.433 185.094,335.250 185.169 C 334.925 185.300,333.761 185.650,332.417 186.021 C 332.050 186.123,331.563 186.266,331.333 186.340 C 330.954 186.463,329.417 186.755,327.000 187.162 C 325.741 187.375,322.920 187.642,320.917 187.739 L 319.250 187.820 320.333 187.510 C 323.909 186.487,325.982 185.325,328.120 183.142 C 329.628 181.601,329.393 181.422,327.061 182.337 C 326.065 182.728,325.025 183.107,324.750 183.178 C 319.913 184.428,316.896 184.504,309.833 183.557 C 307.731 183.275,307.372 183.167,308.545 183.167 C 309.351 183.167,312.172 182.759,313.167 182.499 C 314.040 182.271,315.828 181.827,316.583 181.652 C 318.745 181.149,324.012 179.267,323.960 179.016 C 323.899 178.714,323.407 178.713,318.667 179.004 C 311.885 179.421,306.880 179.311,303.667 178.674 C 303.254 178.592,302.429 178.438,301.833 178.330 C 300.423 178.077,298.568 177.687,297.833 177.489 C 287.120 174.604,278.278 171.397,273.538 168.676 C 273.055 168.399,271.858 167.627,270.879 166.961 C 269.203 165.822,268.933 165.627,268.166 165.000 C 267.998 164.862,267.654 164.600,267.403 164.417 C 267.151 164.233,266.864 164.008,266.764 163.917 C 266.664 163.825,266.209 163.450,265.752 163.083 C 260.987 159.262,257.510 155.008,253.762 148.417 C 253.241 147.500,252.658 146.487,252.468 146.167 C 252.278 145.846,251.898 145.171,251.625 144.667 C 250.937 143.398,250.211 142.070,249.667 141.083 C 249.414 140.625,249.021 139.912,248.793 139.500 C 248.270 138.551,247.543 137.254,247.111 136.500 C 246.928 136.179,246.613 135.617,246.412 135.250 C 246.211 134.883,245.425 133.533,244.665 132.250 C 243.905 130.967,243.201 129.749,243.100 129.543 C 242.999 129.337,242.860 129.169,242.792 129.168 C 242.723 129.167,242.667 129.088,242.667 128.991 C 242.667 128.816,238.896 122.824,238.687 122.667 C 238.626 122.621,238.434 122.358,238.261 122.083 C 235.496 117.685,231.199 113.579,228.235 112.503 C 227.968 112.406,227.600 112.263,227.417 112.186 C 227.233 112.108,226.896 111.966,226.667 111.869 C 226.438 111.772,225.688 111.494,225.000 111.250 C 224.313 111.006,223.600 110.745,223.417 110.670 C 220.424 109.445,217.804 109.000,213.577 109.000 L 210.071 109.000 209.244 108.152 C 208.362 107.247,206.498 105.833,206.187 105.833 C 206.084 105.833,205.999 105.777,205.999 105.708 C 205.998 105.640,205.829 105.500,205.624 105.398 C 205.418 105.296,204.537 104.845,203.667 104.396 C 202.134 103.605,199.865 102.536,198.667 102.040 C 198.346 101.907,197.783 101.664,197.417 101.499 C 191.615 98.894,185.931 97.652,180.917 97.892 C 177.360 98.062,173.981 98.323,172.917 98.508 C 172.367 98.604,171.504 98.754,171.000 98.840 C 168.606 99.251,165.616 99.895,164.333 100.275 C 163.554 100.506,162.579 100.795,162.167 100.918 C 161.754 101.040,160.892 101.302,160.250 101.500 C 157.867 102.235,156.570 102.610,155.583 102.852 C 155.217 102.942,154.617 103.089,154.250 103.178 C 152.801 103.532,148.464 104.123,144.333 104.529 C 141.534 104.804,136.305 104.798,134.750 104.518 C 127.146 103.150,122.617 100.795,119.494 96.583 C 119.086 96.033,118.712 95.546,118.664 95.500 C 117.985 94.859,117.333 92.750,117.333 91.198 C 117.333 85.943,127.071 79.060,137.083 77.238 C 138.905 76.906,139.870 76.717,140.750 76.518 C 141.117 76.435,141.829 76.284,142.333 76.184 C 143.722 75.906,147.202 74.808,151.030 73.439 C 152.348 72.968,154.812 71.717,155.167 71.339 C 155.212 71.290,155.438 71.145,155.667 71.017 C 156.855 70.351,158.860 68.641,161.251 66.250 C 165.418 62.085,166.667 60.614,166.667 59.870 C 166.667 59.618,166.735 59.522,166.859 59.599 C 166.974 59.670,167.006 59.645,166.940 59.537 C 166.878 59.438,166.901 59.311,166.990 59.256 C 167.079 59.201,167.105 59.034,167.048 58.884 C 166.978 58.702,167.008 58.652,167.138 58.732 C 167.271 58.814,167.333 58.690,167.333 58.343 C 167.333 58.063,167.254 57.833,167.157 57.833 C 167.060 57.833,167.027 57.758,167.083 57.667 C 167.140 57.575,167.009 57.332,166.793 57.125 C 166.577 56.919,166.521 56.825,166.668 56.917 C 166.815 57.008,166.727 56.893,166.473 56.659 C 165.993 56.218,164.589 56.038,164.006 56.342 C 163.865 56.415,163.112 56.565,162.333 56.674 C 161.554 56.783,160.504 56.940,160.000 57.022 C 155.969 57.676,152.183 57.290,148.583 55.857 C 147.485 55.420,143.865 53.551,143.667 53.319 C 143.621 53.265,143.208 53.006,142.750 52.744 C 142.292 52.481,141.879 52.217,141.833 52.158 C 141.787 52.098,141.430 51.850,141.040 51.605 C 140.649 51.360,140.199 51.053,140.040 50.922 C 136.348 47.891,133.266 46.061,130.764 45.416 C 129.139 44.996,124.297 44.333,122.866 44.333 C 122.198 44.333,121.833 44.232,121.369 43.917 C 121.032 43.688,120.661 43.500,120.545 43.500 C 120.428 43.500,120.333 43.425,120.333 43.333 C 120.333 43.242,120.251 43.167,120.151 43.167 C 120.050 43.167,119.769 43.031,119.526 42.865 C 118.912 42.447,116.736 41.485,114.750 40.755 C 111.167 39.438,110.725 39.262,110.000 38.863 C 108.178 37.860,106.300 36.122,105.248 34.464 C 104.630 33.490,104.231 33.433,104.049 34.292 M105.764 36.250 C 107.785 38.657,109.137 39.450,114.500 41.376 C 115.004 41.557,115.642 41.801,115.917 41.918 C 116.192 42.036,116.829 42.303,117.333 42.511 C 117.837 42.720,118.325 42.945,118.417 43.011 C 118.508 43.077,118.958 43.336,119.417 43.586 C 119.875 43.837,120.321 44.107,120.408 44.187 C 120.499 44.271,119.218 44.333,117.389 44.333 C 115.642 44.333,113.808 44.412,113.314 44.509 C 112.821 44.606,111.487 44.693,110.352 44.703 L 108.287 44.722 107.805 44.153 C 105.638 41.593,104.103 37.880,104.420 35.963 C 104.535 35.272,104.655 34.922,104.742 35.031 C 104.766 35.060,105.225 35.608,105.764 36.250 M93.043 41.314 C 94.537 41.977,98.417 43.069,104.417 44.515 C 105.150 44.692,106.050 44.929,106.417 45.043 C 107.272 45.309,112.758 45.299,114.554 45.029 C 115.271 44.922,117.328 44.833,119.126 44.833 C 122.193 44.833,123.489 44.920,126.750 45.344 C 130.196 45.792,133.032 46.717,134.969 48.026 C 135.893 48.650,138.819 50.826,139.136 51.125 C 139.258 51.240,139.413 51.333,139.480 51.333 C 139.548 51.333,139.762 51.481,139.955 51.660 C 141.013 52.646,146.102 55.596,148.000 56.324 C 148.504 56.518,149.067 56.741,149.250 56.821 C 151.766 57.917,157.710 58.256,161.333 57.510 C 163.009 57.166,163.095 57.166,163.095 57.511 C 163.095 57.688,163.036 57.833,162.964 57.833 C 162.892 57.833,162.833 58.021,162.833 58.250 C 162.833 58.479,162.900 58.667,162.982 58.667 C 163.064 58.667,163.176 58.783,163.230 58.925 C 163.285 59.068,163.262 59.142,163.180 59.092 C 163.098 59.041,163.070 59.149,163.118 59.331 C 163.166 59.514,163.268 59.624,163.345 59.576 C 163.422 59.528,163.613 59.685,163.770 59.924 C 163.958 60.210,164.159 60.331,164.361 60.278 C 164.529 60.234,164.628 60.261,164.580 60.339 C 164.532 60.416,164.761 60.503,165.089 60.531 C 165.662 60.581,165.674 60.596,165.413 60.917 C 165.264 61.100,165.189 61.156,165.247 61.042 C 165.449 60.643,165.197 60.836,164.891 61.315 C 164.645 61.701,161.853 64.804,161.064 65.570 C 160.422 66.192,158.306 68.166,157.821 68.595 C 156.319 69.922,153.029 71.957,151.417 72.557 C 146.857 74.254,142.829 75.474,140.083 75.989 C 139.533 76.092,138.708 76.251,138.250 76.343 C 137.792 76.435,137.004 76.588,136.500 76.684 C 135.996 76.780,135.321 76.925,135.000 77.007 C 134.679 77.089,133.817 77.301,133.083 77.477 C 130.014 78.214,123.927 81.387,122.167 83.168 C 122.121 83.214,121.783 83.475,121.417 83.749 C 119.450 85.214,117.662 87.338,117.065 88.917 C 116.436 90.582,116.812 94.378,117.702 95.333 C 117.860 95.503,118.123 95.860,118.287 96.127 C 121.031 100.613,125.972 103.432,133.833 104.994 C 136.583 105.541,140.044 105.600,144.083 105.167 C 144.908 105.079,146.483 104.930,147.583 104.835 C 150.183 104.612,151.163 104.458,155.083 103.658 C 155.950 103.481,157.388 103.096,158.333 102.788 C 158.746 102.654,159.533 102.413,160.083 102.253 C 160.633 102.092,161.608 101.790,162.250 101.580 C 163.543 101.157,166.746 100.318,168.167 100.029 C 168.671 99.927,169.458 99.768,169.917 99.676 C 170.713 99.516,172.257 99.280,174.417 98.988 C 174.967 98.913,176.804 98.767,178.500 98.663 C 184.237 98.310,187.540 98.683,192.083 100.199 C 194.327 100.948,196.735 101.899,198.808 102.857 C 199.574 103.211,200.229 103.500,200.264 103.500 C 200.372 103.500,204.025 105.310,204.971 105.832 C 206.974 106.938,208.707 108.363,209.741 109.755 C 210.011 110.119,210.276 110.454,210.328 110.500 C 210.701 110.823,212.318 113.775,212.888 115.170 C 213.056 115.581,213.257 116.067,213.335 116.250 C 213.414 116.433,213.574 116.867,213.691 117.214 C 213.832 117.631,213.991 117.826,214.160 117.790 C 214.548 117.709,214.424 116.994,213.814 115.794 C 213.733 115.635,213.667 115.427,213.667 115.333 C 213.667 115.018,212.169 112.058,211.422 110.898 L 210.684 109.750 213.879 109.705 C 217.453 109.654,218.932 109.864,221.847 110.836 C 228.741 113.135,231.542 114.710,234.088 117.720 C 234.544 118.259,234.993 118.786,235.087 118.892 C 235.181 118.997,235.801 119.833,236.465 120.750 C 237.129 121.667,237.786 122.567,237.926 122.750 C 238.066 122.933,238.705 123.908,239.346 124.917 C 239.987 125.925,240.948 127.434,241.482 128.270 C 242.015 129.106,242.852 130.493,243.342 131.353 C 243.831 132.213,244.360 133.106,244.517 133.338 C 244.675 133.570,244.983 134.095,245.204 134.505 C 245.738 135.500,246.065 136.065,246.167 136.167 C 246.213 136.212,246.397 136.550,246.576 136.917 C 246.756 137.283,247.025 137.771,247.175 138.000 C 247.325 138.229,247.711 138.904,248.032 139.500 C 248.353 140.096,248.861 141.033,249.161 141.583 C 249.462 142.133,249.972 143.071,250.297 143.667 C 250.938 144.846,251.712 146.214,253.126 148.667 C 253.628 149.537,254.228 150.587,254.461 151.000 C 254.694 151.412,254.948 151.775,255.025 151.806 C 255.103 151.836,255.167 151.931,255.167 152.017 C 255.167 152.173,255.988 153.508,256.182 153.667 C 256.238 153.712,256.494 154.087,256.751 154.500 C 257.139 155.123,258.186 156.519,258.500 156.833 C 258.546 156.879,258.958 157.364,259.417 157.912 C 260.468 159.166,262.234 160.934,263.833 162.333 C 264.515 162.929,265.225 163.553,265.411 163.721 C 268.608 166.588,274.437 170.200,278.417 171.780 C 279.700 172.290,281.012 172.818,281.333 172.954 C 282.896 173.615,285.852 174.659,287.750 175.220 C 289.703 175.798,291.677 176.404,293.000 176.832 C 294.185 177.215,296.662 177.859,300.083 178.674 C 300.450 178.761,301.237 178.910,301.833 179.006 C 308.713 180.105,311.023 180.178,320.083 179.583 L 321.250 179.506 320.250 179.848 C 318.952 180.292,315.010 181.408,313.833 181.664 C 313.329 181.774,312.467 181.961,311.917 182.079 C 309.542 182.591,307.391 182.740,305.333 182.534 C 303.216 182.322,302.833 182.367,302.833 182.829 C 302.833 183.048,303.016 183.150,303.542 183.228 C 303.931 183.286,304.662 183.407,305.167 183.499 C 313.798 185.065,321.731 185.050,325.959 183.459 C 327.496 182.881,327.500 182.881,327.042 183.315 C 324.318 185.899,319.176 187.655,314.305 187.664 C 312.472 187.667,312.167 187.741,312.167 188.184 C 312.167 188.755,323.238 188.487,327.167 187.822 C 330.435 187.268,334.219 186.322,335.750 185.676 C 335.933 185.599,336.458 185.409,336.917 185.255 C 337.808 184.955,338.074 184.851,339.025 184.434 C 339.360 184.287,339.692 184.167,339.763 184.167 C 340.120 184.167,347.200 180.530,347.306 180.292 C 347.336 180.223,347.452 180.167,347.562 180.167 C 348.966 180.167,355.689 174.426,358.312 170.987 L 358.874 170.250 358.764 171.000 C 358.346 173.842,355.681 178.929,352.868 182.254 C 352.788 182.348,352.579 182.648,352.403 182.921 C 352.227 183.194,351.971 183.554,351.833 183.722 C 351.696 183.890,351.471 184.166,351.333 184.334 C 351.196 184.502,350.938 184.838,350.760 185.080 C 350.583 185.323,350.320 185.657,350.177 185.823 C 350.034 185.990,349.617 186.488,349.250 186.931 C 346.767 189.930,341.569 195.080,338.078 198.000 C 337.256 198.687,336.546 199.287,336.500 199.333 C 336.454 199.379,336.042 199.716,335.583 200.081 C 335.125 200.446,334.675 200.807,334.583 200.883 C 334.492 200.958,333.805 201.447,333.057 201.968 C 332.309 202.490,330.584 203.712,329.224 204.685 C 323.845 208.530,320.139 210.674,315.987 212.346 C 313.177 213.478,310.890 213.987,308.042 214.116 C 306.092 214.205,305.833 214.251,305.833 214.507 C 305.833 214.757,306.062 214.811,307.458 214.895 C 316.227 215.423,324.346 214.778,327.901 213.271 C 328.258 213.120,328.586 213.030,328.629 213.073 C 328.671 213.116,328.397 213.284,328.020 213.448 C 327.642 213.611,327.333 213.803,327.333 213.873 C 327.333 213.943,327.240 214.000,327.125 214.001 C 327.010 214.001,326.559 214.183,326.123 214.404 C 325.182 214.882,321.800 216.197,320.500 216.592 C 319.996 216.745,319.171 217.002,318.667 217.163 C 312.138 219.246,305.037 220.241,299.517 219.846 C 296.326 219.618,293.295 219.265,293.009 219.089 C 292.816 218.970,292.509 219.234,292.503 219.526 C 292.501 219.586,292.931 219.763,293.458 219.918 C 293.985 220.074,294.604 220.265,294.833 220.343 C 295.063 220.422,295.700 220.570,296.250 220.674 C 296.800 220.777,297.813 220.970,298.500 221.102 C 301.018 221.585,310.468 221.566,313.833 221.072 L 314.417 220.986 313.985 221.234 C 312.746 221.948,309.551 222.976,307.250 223.403 C 301.190 224.526,296.507 224.130,290.000 221.944 C 287.532 221.115,285.676 220.455,285.417 220.316 C 285.325 220.266,284.931 220.125,284.542 220.003 C 284.152 219.880,283.833 219.725,283.833 219.658 C 283.833 219.591,283.635 219.486,283.393 219.426 C 281.884 219.047,277.532 216.742,274.250 214.583 C 270.419 212.063,265.055 207.365,263.167 204.877 C 262.846 204.454,262.507 204.027,262.415 203.929 C 262.322 203.831,262.110 203.539,261.945 203.281 C 260.890 201.633,260.216 201.666,260.847 203.333 C 262.982 208.976,265.039 211.628,269.375 214.329 C 270.612 215.100,270.727 215.217,270.042 215.012 C 269.790 214.937,269.208 214.795,268.750 214.697 C 265.333 213.969,264.186 213.611,261.917 212.567 C 260.841 212.072,257.528 209.957,256.816 209.311 C 256.577 209.094,256.021 208.617,255.580 208.250 C 254.529 207.377,250.757 203.609,249.147 201.824 C 248.448 201.050,247.586 200.113,247.230 199.742 C 244.245 196.629,242.522 194.180,240.705 190.469 C 240.226 189.489,239.833 188.644,239.833 188.592 C 239.833 188.539,239.676 188.141,239.483 187.707 C 238.981 186.573,238.892 186.347,238.579 185.417 C 238.424 184.958,238.237 184.433,238.161 184.250 C 237.901 183.615,237.360 181.747,237.244 181.083 C 237.180 180.717,237.017 180.004,236.882 179.500 C 236.493 178.042,236.336 177.374,235.905 175.333 C 234.887 170.523,234.717 169.445,234.493 166.333 C 233.847 157.374,233.613 155.693,232.489 151.917 C 232.298 151.275,232.031 150.337,231.897 149.833 C 231.762 149.329,231.580 148.673,231.493 148.375 C 231.266 147.606,231.092 146.970,230.609 145.157 C 230.375 144.280,230.078 143.230,229.947 142.823 C 229.817 142.416,229.579 141.633,229.419 141.083 C 229.046 139.802,227.700 135.687,227.512 135.250 C 227.253 134.651,226.888 133.762,226.658 133.167 C 226.316 132.285,224.971 129.758,224.809 129.694 C 224.731 129.664,224.667 129.533,224.667 129.403 C 224.667 129.273,224.597 129.167,224.511 129.167 C 224.426 129.167,224.309 129.020,224.253 128.841 C 224.100 128.361,221.547 125.805,220.583 125.168 C 220.125 124.865,219.532 124.422,219.266 124.184 C 219.000 123.945,218.844 123.859,218.921 123.991 C 219.012 124.149,218.892 124.118,218.572 123.902 C 217.948 123.480,214.164 121.667,213.908 121.667 C 213.855 121.667,213.393 121.475,212.880 121.240 C 212.143 120.903,211.919 120.860,211.810 121.032 C 211.558 121.430,211.455 121.360,213.718 122.322 C 215.025 122.878,215.844 124.987,216.860 130.417 C 217.284 132.682,217.139 137.190,216.591 138.742 C 216.142 140.015,216.022 140.266,215.156 141.750 C 214.461 142.942,212.699 145.161,210.583 147.507 C 207.713 150.692,206.184 152.609,204.771 154.798 C 203.662 156.515,202.000 159.754,202.000 160.198 C 202.000 160.327,201.932 160.505,201.848 160.592 C 200.574 161.918,199.954 169.275,200.830 172.667 C 200.913 172.987,201.067 173.625,201.173 174.083 C 201.279 174.542,201.425 175.104,201.499 175.333 C 201.572 175.563,201.760 176.200,201.916 176.750 C 202.238 177.887,202.788 179.588,202.993 180.083 C 203.069 180.267,203.263 180.792,203.425 181.250 C 203.586 181.708,203.906 182.496,204.135 183.000 C 204.364 183.504,204.553 184.010,204.554 184.125 C 204.555 184.240,204.626 184.333,204.712 184.333 C 204.798 184.333,204.827 184.444,204.775 184.579 C 204.723 184.714,204.771 184.883,204.882 184.954 C 204.993 185.025,205.376 185.646,205.734 186.333 C 206.092 187.021,206.796 188.258,207.299 189.083 C 209.997 193.511,210.716 195.276,210.343 196.550 C 210.148 197.214,209.071 199.322,208.835 199.500 C 208.775 199.546,208.586 199.823,208.415 200.116 C 208.245 200.409,208.044 200.611,207.969 200.564 C 207.895 200.518,207.833 200.600,207.833 200.745 C 207.833 200.891,207.721 201.054,207.583 201.106 C 207.446 201.159,207.333 201.288,207.333 201.393 C 207.333 201.621,207.062 201.941,204.905 204.266 C 203.995 205.246,203.114 206.206,202.947 206.399 C 201.927 207.579,197.828 211.857,195.259 214.421 C 192.185 217.491,191.401 218.228,189.500 219.833 C 188.904 220.336,188.379 220.788,188.333 220.838 C 188.287 220.887,187.877 221.225,187.421 221.589 C 186.964 221.953,186.364 222.433,186.087 222.657 C 185.341 223.260,182.333 226.342,182.333 226.504 C 182.333 226.580,182.236 226.742,182.117 226.863 C 181.998 226.984,181.667 227.425,181.381 227.843 C 180.762 228.747,178.861 230.500,178.499 230.500 C 178.408 230.500,178.333 230.578,178.333 230.672 C 178.333 230.871,177.611 231.597,176.930 232.083 C 176.673 232.267,176.378 232.493,176.273 232.587 C 175.223 233.528,171.725 235.500,171.106 235.500 C 170.967 235.500,170.807 235.575,170.750 235.667 C 170.589 235.927,170.380 235.863,170.292 235.525 C 170.193 235.148,170.546 234.440,170.744 234.620 C 170.822 234.691,170.836 234.661,170.774 234.553 C 170.613 234.271,171.148 233.022,171.514 232.826 C 171.683 232.736,171.782 232.561,171.735 232.439 C 171.688 232.316,171.839 232.092,172.070 231.941 C 172.310 231.784,172.451 231.566,172.400 231.433 C 172.312 231.203,172.592 230.924,172.916 230.919 C 173.008 230.918,173.083 230.767,173.083 230.584 C 173.083 230.401,173.194 230.251,173.328 230.250 C 173.463 230.250,173.657 230.082,173.760 229.876 C 173.863 229.670,174.002 229.558,174.070 229.626 C 174.139 229.694,174.169 229.637,174.139 229.500 C 174.105 229.348,174.182 229.272,174.333 229.306 C 174.471 229.336,174.528 229.306,174.461 229.239 C 174.307 229.085,174.993 228.476,175.186 228.595 C 175.265 228.644,175.287 228.573,175.235 228.438 C 175.183 228.303,175.018 228.145,174.867 228.087 C 174.717 228.030,174.638 228.027,174.693 228.082 C 174.817 228.206,172.955 230.000,172.703 230.000 C 172.602 230.000,172.466 230.087,172.401 230.192 C 172.324 230.317,172.355 230.339,172.492 230.255 C 172.607 230.184,172.572 230.322,172.415 230.563 C 172.151 230.966,171.850 231.211,172.083 230.833 C 172.140 230.742,172.147 230.667,172.099 230.667 C 172.051 230.667,171.927 230.826,171.823 231.020 C 171.686 231.276,171.685 231.342,171.820 231.259 C 171.922 231.195,171.813 231.428,171.577 231.776 C 171.138 232.422,170.838 232.770,171.082 232.349 C 171.174 232.191,171.155 232.154,171.023 232.236 C 170.916 232.302,170.868 232.421,170.917 232.501 C 171.052 232.719,170.299 234.165,170.112 234.049 C 170.021 233.993,170.001 234.034,170.068 234.142 C 170.221 234.389,170.024 235.034,169.832 234.916 C 169.752 234.867,169.723 235.023,169.767 235.264 C 169.884 235.912,168.469 235.775,167.871 235.080 C 167.462 234.603,167.456 233.566,167.863 233.315 C 167.954 233.259,168.017 233.184,168.003 233.148 C 167.886 232.844,168.683 231.590,168.836 231.837 C 168.916 231.968,168.987 231.942,169.058 231.755 C 169.119 231.596,169.094 231.525,168.998 231.585 C 168.720 231.756,168.815 231.402,169.167 230.955 C 169.350 230.721,169.500 230.465,169.500 230.385 C 169.500 230.013,171.231 228.137,172.381 227.264 C 172.728 227.000,172.984 226.702,172.950 226.601 C 172.635 225.655,169.388 229.025,167.948 231.792 C 167.793 232.090,167.547 232.562,167.400 232.842 C 166.978 233.648,166.755 233.360,166.701 231.940 C 166.651 230.628,167.185 228.555,167.519 228.762 C 167.598 228.811,167.618 228.735,167.564 228.593 C 167.507 228.444,167.573 228.295,167.722 228.238 C 167.863 228.183,167.943 228.047,167.900 227.934 C 167.857 227.821,168.012 227.523,168.244 227.272 C 168.476 227.021,168.667 226.741,168.667 226.648 C 168.667 226.556,168.733 226.521,168.815 226.572 C 168.896 226.622,168.952 226.533,168.940 226.373 C 168.927 226.214,169.003 226.100,169.108 226.119 C 169.214 226.139,169.348 225.964,169.407 225.729 C 169.476 225.454,169.597 225.335,169.748 225.393 C 169.911 225.455,169.951 225.400,169.879 225.213 C 169.801 225.008,169.845 224.969,170.063 225.052 C 170.221 225.113,170.311 225.099,170.263 225.020 C 170.093 224.745,171.455 223.878,171.896 223.980 C 171.976 223.999,172.149 223.861,172.281 223.674 C 172.412 223.486,172.595 223.333,172.689 223.333 C 172.782 223.333,173.380 222.996,174.018 222.583 C 174.655 222.171,175.206 221.833,175.241 221.833 C 175.355 221.833,177.893 220.121,178.667 219.522 C 179.559 218.831,182.911 215.463,184.667 213.492 C 185.354 212.720,187.358 210.647,189.120 208.885 C 190.900 207.105,192.369 205.499,192.427 205.270 C 192.484 205.043,192.636 204.817,192.765 204.767 C 192.894 204.718,193.000 204.520,193.000 204.329 C 193.000 204.137,193.075 204.027,193.167 204.083 C 193.314 204.175,193.415 203.824,193.349 203.446 C 193.336 203.370,193.402 203.356,193.496 203.414 C 193.647 203.508,193.749 203.161,193.682 202.779 C 193.669 202.704,193.735 202.689,193.829 202.747 C 193.923 202.806,194.000 202.755,194.001 202.635 C 194.002 202.515,194.114 202.203,194.250 201.941 C 194.387 201.679,194.462 201.407,194.418 201.335 C 194.373 201.263,194.449 201.112,194.585 200.999 C 194.727 200.881,194.802 200.622,194.760 200.393 C 194.712 200.130,194.750 200.032,194.872 200.107 C 194.991 200.181,195.019 200.123,194.950 199.944 C 194.892 199.791,194.910 199.667,194.991 199.667 C 195.071 199.667,195.117 199.481,195.092 199.255 C 195.067 199.028,195.107 198.880,195.180 198.925 C 195.314 199.008,195.341 198.860,195.367 197.875 C 195.375 197.577,195.431 197.333,195.493 197.333 C 195.554 197.333,195.604 196.325,195.604 195.093 C 195.604 193.861,195.551 192.885,195.486 192.925 C 195.422 192.965,195.362 192.830,195.354 192.624 C 195.323 191.859,195.259 191.500,195.154 191.500 C 195.094 191.500,195.066 191.313,195.092 191.083 C 195.117 190.854,195.071 190.667,194.991 190.667 C 194.910 190.667,194.892 190.542,194.950 190.389 C 195.019 190.210,194.991 190.152,194.872 190.226 C 194.749 190.302,194.714 190.196,194.766 189.907 C 194.815 189.637,194.780 189.513,194.674 189.579 C 194.576 189.639,194.543 189.582,194.597 189.442 C 194.648 189.309,194.608 189.150,194.509 189.089 C 194.409 189.027,194.374 188.902,194.430 188.811 C 194.487 188.720,194.418 188.519,194.278 188.364 C 194.018 188.077,194.000 188.025,194.000 187.573 C 194.000 187.420,193.922 187.362,193.808 187.433 C 193.694 187.503,193.660 187.479,193.725 187.374 C 193.871 187.137,193.672 186.643,193.478 186.763 C 193.394 186.815,193.336 186.796,193.349 186.721 C 193.408 186.378,193.321 185.988,193.201 186.062 C 193.129 186.107,193.059 186.013,193.047 185.853 C 193.020 185.494,192.349 184.333,192.168 184.333 C 192.096 184.333,191.988 184.143,191.930 183.910 C 191.871 183.677,191.751 183.531,191.662 183.586 C 191.573 183.641,191.500 183.565,191.500 183.417 C 191.500 183.268,191.433 183.188,191.352 183.238 C 191.271 183.289,191.215 183.199,191.227 183.040 C 191.240 182.880,191.151 182.770,191.029 182.796 C 190.908 182.821,190.853 182.769,190.908 182.681 C 190.962 182.593,190.887 182.454,190.741 182.372 C 190.595 182.290,190.385 182.042,190.275 181.820 C 190.164 181.598,189.963 181.413,189.828 181.409 C 189.694 181.405,189.602 181.311,189.625 181.201 C 189.648 181.090,189.576 181.019,189.466 181.042 C 189.355 181.065,189.258 180.971,189.250 180.833 C 189.242 180.696,189.145 180.602,189.034 180.625 C 188.924 180.648,188.852 180.573,188.875 180.458 C 188.898 180.344,188.823 180.269,188.708 180.292 C 188.594 180.315,188.519 180.240,188.542 180.125 C 188.565 180.010,188.484 179.937,188.363 179.962 C 188.241 179.988,188.182 179.943,188.232 179.863 C 188.347 179.677,187.431 178.791,187.280 178.942 C 187.218 179.005,187.167 178.931,187.167 178.778 C 187.167 178.524,186.973 178.422,186.613 178.484 C 186.537 178.498,186.517 178.440,186.569 178.356 C 186.705 178.137,186.218 177.782,185.982 177.928 C 185.863 178.001,185.825 177.981,185.889 177.878 C 186.014 177.677,185.606 177.282,185.443 177.446 C 185.383 177.506,185.333 177.431,185.333 177.278 C 185.333 177.016,185.130 176.917,184.750 176.994 C 184.658 177.013,184.637 176.974,184.703 176.908 C 184.838 176.773,184.132 176.167,183.839 176.167 C 183.733 176.167,183.693 176.092,183.750 176.000 C 183.844 175.847,183.617 175.759,183.279 175.818 C 183.204 175.831,183.189 175.765,183.247 175.671 C 183.306 175.577,183.232 175.500,183.083 175.500 C 182.935 175.500,182.860 175.425,182.917 175.333 C 183.009 175.183,182.791 175.094,182.458 175.147 C 182.390 175.158,182.333 175.062,182.333 174.934 C 182.333 174.711,181.884 174.419,181.625 174.474 C 181.556 174.488,181.500 174.427,181.500 174.338 C 181.500 174.099,180.521 173.634,180.303 173.769 C 180.188 173.840,180.162 173.810,180.234 173.692 C 180.346 173.511,180.122 173.419,179.750 173.494 C 179.658 173.513,179.635 173.476,179.698 173.413 C 179.890 173.221,179.221 172.635,178.780 172.608 C 178.552 172.595,178.400 172.527,178.442 172.458 C 178.485 172.390,178.403 172.333,178.260 172.333 C 178.117 172.333,178.000 172.263,178.000 172.178 C 178.000 172.018,177.508 171.807,177.299 171.877 C 177.234 171.899,177.084 171.790,176.966 171.634 C 176.847 171.479,176.642 171.329,176.509 171.301 C 176.376 171.273,176.094 171.069,175.882 170.849 C 175.670 170.628,175.455 170.489,175.405 170.540 C 175.354 170.590,175.116 170.449,174.876 170.227 C 174.635 170.004,174.340 169.859,174.219 169.905 C 174.099 169.952,174.000 169.882,174.000 169.751 C 174.000 169.467,173.434 169.127,173.245 169.298 C 173.173 169.363,173.175 169.310,173.251 169.180 C 173.354 169.002,173.317 168.971,173.102 169.053 C 172.944 169.114,172.858 169.094,172.911 169.009 C 173.037 168.806,172.329 168.319,172.098 168.450 C 171.998 168.507,171.972 168.492,172.041 168.417 C 172.170 168.274,171.509 167.723,171.292 167.793 C 171.223 167.815,171.185 167.740,171.208 167.625 C 171.231 167.510,171.124 167.416,170.970 167.415 C 170.816 167.413,170.629 167.345,170.553 167.263 C 170.474 167.176,170.521 167.170,170.667 167.249 C 170.804 167.323,170.767 167.233,170.583 167.047 C 170.400 166.861,170.194 166.742,170.125 166.781 C 170.056 166.821,170.000 166.736,170.000 166.593 C 170.000 166.450,169.925 166.333,169.833 166.333 C 169.485 166.333,169.409 166.302,169.129 166.049 C 168.971 165.906,168.873 165.737,168.913 165.673 C 169.000 165.532,167.205 163.733,167.036 163.792 C 166.970 163.815,166.916 163.777,166.915 163.708 C 166.913 163.467,166.386 162.837,166.277 162.946 C 166.216 163.006,166.167 162.926,166.167 162.768 C 166.167 162.610,166.097 162.523,166.012 162.576 C 165.926 162.629,165.802 162.584,165.736 162.477 C 165.656 162.348,165.688 162.327,165.829 162.414 C 165.965 162.498,166.019 162.472,165.976 162.344 C 165.939 162.233,165.835 162.137,165.746 162.131 C 165.656 162.124,165.491 161.900,165.378 161.631 C 165.265 161.363,165.097 161.190,165.005 161.247 C 164.903 161.310,164.880 161.232,164.945 161.050 C 165.005 160.885,164.991 160.806,164.916 160.874 C 164.841 160.943,164.645 160.699,164.481 160.333 C 164.317 159.966,164.092 159.667,163.980 159.667 C 163.869 159.667,163.825 159.620,163.882 159.563 C 164.020 159.425,163.372 158.167,163.163 158.167 C 163.073 158.167,163.015 158.110,163.033 158.042 C 163.095 157.807,162.811 157.167,162.646 157.167 C 162.555 157.167,162.523 157.097,162.576 157.012 C 162.687 156.832,162.374 156.043,162.025 155.625 C 161.891 155.465,161.833 155.333,161.897 155.333 C 161.960 155.333,161.919 155.165,161.806 154.958 C 161.692 154.752,161.575 154.437,161.546 154.257 C 161.516 154.078,161.437 153.890,161.371 153.841 C 161.304 153.791,161.250 153.675,161.250 153.583 C 161.250 153.172,160.621 151.509,160.495 151.587 C 160.417 151.634,160.390 151.478,160.433 151.240 C 160.478 150.993,160.444 150.848,160.355 150.904 C 160.268 150.957,160.235 150.859,160.280 150.686 C 160.325 150.513,160.284 150.323,160.188 150.263 C 160.093 150.204,160.062 150.034,160.119 149.884 C 160.182 149.720,160.156 149.654,160.052 149.718 C 159.945 149.784,159.913 149.660,159.965 149.387 C 160.012 149.140,159.981 148.992,159.893 149.046 C 159.808 149.099,159.725 149.016,159.710 148.863 C 159.694 148.709,159.650 148.396,159.612 148.167 C 159.574 147.938,159.533 147.689,159.521 147.615 C 159.510 147.541,159.435 147.520,159.356 147.570 C 159.276 147.619,159.238 147.432,159.270 147.154 C 159.302 146.877,159.271 146.686,159.200 146.729 C 159.081 146.803,159.022 146.534,158.992 145.788 C 158.985 145.626,158.919 145.530,158.846 145.576 C 158.772 145.621,158.738 145.432,158.770 145.154 C 158.802 144.877,158.762 144.691,158.680 144.742 C 158.598 144.792,158.568 144.692,158.613 144.519 C 158.659 144.346,158.617 144.156,158.522 144.097 C 158.426 144.038,158.395 143.867,158.452 143.717 C 158.526 143.525,158.494 143.484,158.344 143.577 C 158.184 143.675,158.161 143.614,158.250 143.333 C 158.327 143.089,158.308 142.996,158.195 143.066 C 158.084 143.134,158.050 143.015,158.099 142.740 C 158.153 142.443,158.118 142.344,157.988 142.424 C 157.858 142.504,157.832 142.434,157.906 142.202 C 157.965 142.014,157.939 141.815,157.847 141.759 C 157.756 141.702,157.728 141.534,157.786 141.384 C 157.855 141.203,157.825 141.152,157.697 141.231 C 157.574 141.307,157.537 141.263,157.597 141.109 C 157.648 140.976,157.613 140.820,157.519 140.762 C 157.425 140.703,157.395 140.534,157.452 140.384 C 157.528 140.188,157.495 140.150,157.336 140.248 C 157.185 140.341,157.155 140.321,157.240 140.183 C 157.403 139.919,157.202 139.125,157.004 139.248 C 156.920 139.300,156.880 139.191,156.915 139.006 C 156.951 138.822,156.891 138.576,156.782 138.460 C 156.673 138.345,156.583 138.175,156.582 138.083 C 156.578 137.710,155.951 136.677,155.789 136.777 C 155.689 136.839,155.665 136.805,155.732 136.696 C 155.871 136.470,155.177 135.474,154.969 135.602 C 154.890 135.651,154.846 135.592,154.871 135.471 C 154.896 135.349,154.817 135.271,154.696 135.296 C 154.575 135.321,154.520 135.268,154.576 135.179 C 154.676 135.017,154.028 134.564,153.792 134.631 C 153.723 134.651,153.667 134.597,153.667 134.512 C 153.667 134.267,152.713 133.858,152.258 133.908 C 152.010 133.935,151.885 133.885,151.947 133.784 C 152.014 133.676,151.867 133.652,151.538 133.717 C 151.255 133.774,150.999 133.750,150.970 133.664 C 150.851 133.313,149.647 133.694,149.704 134.065 C 149.760 134.431,149.784 134.436,150.570 134.239 C 150.924 134.150,151.017 134.171,150.926 134.319 C 150.834 134.467,150.980 134.502,151.478 134.452 C 151.909 134.409,152.117 134.446,152.050 134.554 C 151.987 134.655,152.054 134.681,152.217 134.619 C 152.367 134.562,152.537 134.591,152.594 134.684 C 152.723 134.893,153.522 135.235,153.750 135.180 C 153.842 135.157,153.860 135.196,153.790 135.265 C 153.630 135.426,154.314 136.167,154.622 136.167 C 154.749 136.167,154.806 136.242,154.749 136.335 C 154.692 136.427,154.763 136.547,154.906 136.602 C 155.049 136.657,155.167 136.849,155.167 137.028 C 155.167 137.207,155.242 137.307,155.333 137.250 C 155.425 137.193,155.500 137.306,155.500 137.500 C 155.500 137.694,155.559 137.816,155.632 137.771 C 155.705 137.726,155.776 137.844,155.790 138.032 C 155.813 138.339,155.752 138.362,155.200 138.260 C 152.568 137.770,150.688 138.221,147.483 140.108 C 146.336 140.784,141.991 143.837,140.833 144.780 C 140.696 144.892,139.646 145.704,138.500 146.583 C 137.354 147.463,136.304 148.273,136.167 148.383 C 136.029 148.494,135.504 148.883,135.000 149.248 C 134.496 149.613,134.008 149.969,133.917 150.039 C 131.264 152.072,127.824 154.099,124.917 155.342 C 123.117 156.111,118.762 156.580,116.654 156.231 L 116.058 156.132 116.204 155.358 C 116.745 152.483,116.557 150.718,115.453 148.311 C 114.733 146.741,113.657 145.124,112.305 143.583 C 110.420 141.435,109.405 140.566,109.087 140.830 C 108.862 141.017,109.021 141.234,110.310 142.504 C 116.487 148.587,117.212 153.116,113.358 161.533 C 113.161 161.963,113.000 162.383,113.000 162.465 C 113.000 162.548,112.895 162.833,112.766 163.099 C 112.637 163.366,112.367 163.958,112.165 164.417 C 111.201 166.606,109.534 169.813,108.107 172.222 C 107.681 172.940,107.333 173.563,107.333 173.607 C 107.333 173.872,102.584 181.059,102.000 181.678 C 101.862 181.824,101.337 182.430,100.833 183.024 C 100.075 183.918,98.105 185.736,96.389 187.125 C 96.191 187.285,95.891 187.530,95.722 187.669 C 95.554 187.809,95.117 188.146,94.750 188.419 C 94.383 188.691,94.046 188.957,94.000 189.008 C 93.954 189.059,93.618 189.322,93.252 189.592 C 92.887 189.862,92.399 190.243,92.169 190.438 C 90.201 192.101,88.884 193.265,87.750 194.341 C 84.635 197.296,83.359 198.471,82.417 199.253 C 81.867 199.710,81.379 200.123,81.333 200.172 C 81.287 200.221,80.875 200.559,80.417 200.922 C 79.958 201.286,79.546 201.623,79.500 201.672 C 79.454 201.721,79.110 201.983,78.735 202.255 C 75.927 204.293,74.079 206.202,72.202 209.000 C 71.618 209.871,71.052 210.697,70.945 210.837 C 70.838 210.976,70.533 211.378,70.268 211.731 C 69.728 212.450,68.260 213.915,67.588 214.406 C 67.346 214.583,66.945 214.902,66.698 215.114 C 66.452 215.326,66.199 215.500,66.137 215.500 C 66.075 215.500,65.925 215.595,65.804 215.710 C 65.534 215.968,64.755 216.479,64.083 216.839 C 63.808 216.986,63.321 217.258,63.000 217.443 C 62.259 217.870,60.809 218.496,59.000 219.169 C 58.221 219.460,57.358 219.796,57.083 219.916 C 55.544 220.591,54.230 220.904,54.065 220.637 C 53.898 220.367,53.857 219.500,54.011 219.500 C 54.080 219.500,54.096 219.351,54.049 219.169 C 53.994 218.959,54.060 218.800,54.230 218.735 C 54.378 218.678,54.455 218.561,54.401 218.475 C 54.272 218.266,54.662 217.811,54.863 217.935 C 54.951 217.989,54.999 217.895,54.969 217.725 C 54.938 217.539,55.004 217.435,55.137 217.462 C 55.259 217.488,55.310 217.431,55.252 217.336 C 55.116 217.117,55.789 216.160,56.043 216.211 C 56.149 216.233,56.242 216.137,56.250 216.000 C 56.258 215.862,56.361 215.771,56.478 215.796 C 56.596 215.821,56.647 215.770,56.593 215.682 C 56.539 215.594,56.720 215.389,56.997 215.225 C 57.274 215.062,57.500 214.864,57.500 214.786 C 57.500 214.607,56.786 214.822,56.644 215.044 C 56.585 215.135,56.465 215.165,56.376 215.110 C 56.185 214.992,55.451 215.730,55.398 216.095 C 55.345 216.456,54.990 216.847,54.814 216.738 C 54.733 216.688,54.667 216.806,54.667 217.000 C 54.667 217.194,54.593 217.307,54.502 217.251 C 54.407 217.193,54.379 217.260,54.436 217.408 C 54.491 217.550,54.453 217.667,54.351 217.667 C 54.250 217.667,54.167 217.771,54.167 217.899 C 54.167 218.027,54.071 218.168,53.955 218.212 C 53.838 218.257,53.725 218.506,53.704 218.764 C 53.682 219.023,53.590 219.310,53.499 219.401 C 53.408 219.492,53.333 219.847,53.333 220.190 C 53.333 221.448,51.043 221.202,50.685 219.905 C 50.481 219.167,50.808 217.282,51.259 216.592 C 51.430 216.331,51.589 215.993,51.613 215.841 C 51.663 215.512,53.401 212.408,53.706 212.104 C 53.822 211.988,54.104 211.618,54.333 211.282 C 54.824 210.563,58.378 207.038,60.167 205.497 C 60.854 204.904,61.529 204.302,61.667 204.160 C 61.804 204.017,62.479 203.477,63.167 202.959 C 64.799 201.730,74.929 191.515,77.812 188.191 C 79.405 186.355,81.669 183.840,82.333 183.170 C 82.563 182.939,83.500 181.933,84.417 180.936 C 85.333 179.938,86.346 178.846,86.667 178.511 C 87.142 178.014,88.110 176.937,89.583 175.270 C 94.204 170.038,95.254 167.464,95.120 161.701 C 94.955 154.617,94.566 153.404,91.350 149.963 C 90.390 148.936,90.374 148.927,90.017 149.152 C 89.829 149.272,89.860 149.376,90.184 149.704 C 92.785 152.337,93.578 153.640,94.101 156.139 C 94.497 158.034,94.427 158.945,93.875 159.046 C 93.623 159.092,92.367 159.406,91.083 159.744 C 88.584 160.402,86.017 161.007,84.000 161.414 C 83.313 161.552,82.375 161.742,81.917 161.836 C 78.319 162.570,66.792 162.899,60.000 162.461 C 54.097 162.081,52.893 162.248,51.943 163.579 C 51.175 164.656,51.637 169.204,52.664 170.667 C 52.825 170.896,53.003 171.233,53.060 171.417 C 53.116 171.600,53.576 172.536,54.081 173.496 C 54.587 174.457,55.000 175.300,55.000 175.371 C 55.000 175.442,55.075 175.500,55.167 175.500 C 55.258 175.500,55.333 175.579,55.333 175.676 C 55.333 175.882,56.826 178.250,57.639 179.333 C 58.407 180.357,60.870 182.754,62.086 183.661 C 62.634 184.071,63.351 184.639,63.677 184.925 C 64.004 185.210,65.166 185.886,66.261 186.428 C 67.355 186.969,68.275 187.470,68.306 187.540 C 68.336 187.609,68.452 187.667,68.562 187.667 C 69.086 187.667,71.221 190.397,72.325 192.481 C 72.527 192.862,72.379 193.035,68.728 196.689 C 64.396 201.024,64.845 200.700,64.429 199.787 C 63.569 197.903,62.156 196.192,58.026 192.030 C 55.132 189.114,54.097 188.001,52.031 185.583 C 51.532 184.999,49.289 182.455,49.166 182.333 C 49.119 182.287,48.670 181.762,48.167 181.167 C 47.664 180.571,47.209 180.046,47.156 180.000 C 47.043 179.902,45.234 177.576,44.750 176.906 C 44.567 176.652,44.342 176.363,44.250 176.262 C 43.727 175.688,40.167 170.083,40.167 169.834 C 40.167 169.757,40.110 169.669,40.042 169.639 C 39.840 169.549,38.057 166.132,37.525 164.816 C 36.376 161.973,36.435 158.912,37.687 156.381 C 38.771 154.190,40.833 153.025,46.167 151.589 C 46.946 151.380,48.183 151.043,48.917 150.840 C 49.650 150.638,50.665 150.371,51.172 150.247 C 51.678 150.123,52.428 149.915,52.838 149.785 C 53.248 149.654,53.883 149.463,54.250 149.360 C 56.260 148.793,58.022 148.271,58.833 148.003 C 59.337 147.836,60.237 147.547,60.833 147.360 C 63.967 146.376,68.467 144.559,70.333 143.522 C 70.471 143.446,71.320 142.989,72.221 142.506 L 73.859 141.629 74.305 142.053 C 74.750 142.476,76.312 143.333,76.637 143.333 C 76.732 143.333,76.929 143.453,77.076 143.600 C 77.222 143.746,77.454 143.823,77.591 143.770 C 77.976 143.622,78.061 143.204,77.766 142.909 C 77.620 142.763,77.500 142.508,77.500 142.342 C 77.500 142.177,77.452 141.789,77.394 141.479 L 77.289 140.917 77.782 141.583 C 79.256 143.576,82.021 145.124,86.697 146.574 C 87.493 146.821,88.235 147.131,88.344 147.263 C 88.496 147.446,88.599 147.458,88.772 147.315 C 89.097 147.045,89.054 146.614,88.678 146.379 C 88.501 146.268,88.088 145.699,87.761 145.115 C 87.136 143.996,87.030 143.681,87.375 143.963 C 88.077 144.537,90.237 145.427,91.833 145.801 C 92.246 145.898,92.921 146.055,93.333 146.152 C 94.381 146.396,95.967 146.696,96.708 146.789 C 97.052 146.833,97.333 146.935,97.333 147.018 C 97.333 147.265,97.791 147.185,97.893 146.919 C 97.953 146.762,97.599 146.265,96.930 145.566 C 96.348 144.958,95.709 144.170,95.510 143.815 C 95.082 143.054,95.151 143.062,96.724 143.950 C 97.260 144.252,97.789 144.500,97.899 144.500 C 98.010 144.500,98.171 144.566,98.258 144.647 C 98.407 144.785,100.431 145.450,101.917 145.849 C 102.283 145.947,102.958 146.129,103.417 146.252 C 104.731 146.606,105.826 146.811,107.042 146.929 C 108.804 147.101,108.602 146.723,105.962 144.917 C 102.754 142.721,101.697 141.629,100.875 139.658 C 100.385 138.482,100.004 138.089,99.751 138.498 C 99.689 138.599,99.707 138.772,99.790 138.882 C 99.874 138.993,100.081 139.458,100.251 139.917 C 101.010 141.972,102.051 143.081,105.290 145.289 C 106.687 146.241,106.904 146.479,106.096 146.171 C 105.848 146.077,105.444 146.000,105.197 145.999 C 104.951 145.999,104.487 145.835,104.167 145.635 C 103.783 145.396,103.265 145.259,102.653 145.233 C 101.508 145.184,98.640 144.249,97.263 143.475 C 97.087 143.376,96.600 143.107,96.180 142.877 C 95.760 142.647,95.345 142.393,95.258 142.313 C 95.010 142.083,94.499 142.142,94.396 142.411 C 94.241 142.815,94.863 144.190,95.623 145.123 L 96.337 146.000 95.860 146.000 C 95.598 146.000,95.166 145.933,94.900 145.850 C 94.634 145.768,93.817 145.575,93.083 145.422 C 91.166 145.021,89.616 144.443,87.944 143.506 C 86.727 142.824,86.000 142.609,86.000 142.930 C 86.000 143.008,86.956 145.099,87.264 145.695 L 87.496 146.142 86.998 145.988 C 81.701 144.345,78.749 142.473,77.621 140.042 C 77.105 138.931,76.531 140.051,76.743 141.752 C 76.871 142.776,76.869 142.778,76.025 142.379 C 75.368 142.067,75.189 141.932,74.085 140.917 C 73.687 140.550,73.129 140.037,72.846 139.777 C 72.293 139.268,71.417 137.863,70.843 136.566 C 70.647 136.124,70.387 135.647,70.263 135.506 C 70.140 135.365,69.983 135.063,69.915 134.833 C 69.846 134.604,69.659 134.117,69.498 133.750 C 69.129 132.906,68.944 132.353,68.579 131.000 C 68.418 130.404,68.194 129.622,68.080 129.261 C 67.945 128.831,67.925 128.429,68.020 128.095 C 68.223 127.388,68.210 127.333,67.840 127.333 C 67.463 127.333,67.253 127.961,67.070 129.636 C 66.926 130.952,66.804 130.836,66.078 128.697 C 65.065 125.714,64.568 121.231,65.002 119.000 C 65.100 118.496,65.216 117.746,65.259 117.333 C 65.414 115.874,66.062 113.532,66.551 112.667 C 66.732 112.346,67.067 111.746,67.296 111.333 C 67.524 110.921,67.780 110.496,67.864 110.390 C 68.083 110.112,67.735 109.947,67.209 110.079 C 66.596 110.233,65.895 110.742,64.872 111.778 C 63.663 113.001,63.651 112.969,64.156 109.917 C 64.246 109.367,64.433 108.242,64.570 107.417 C 65.022 104.690,66.422 99.902,67.007 99.083 C 67.072 98.992,67.177 98.749,67.240 98.545 C 67.484 97.747,70.011 93.532,70.708 92.760 C 70.869 92.583,71.000 92.375,71.000 92.299 C 71.000 92.223,71.248 91.918,71.551 91.622 C 71.854 91.326,72.270 90.733,72.476 90.305 C 72.681 89.878,73.052 89.397,73.300 89.237 C 73.974 88.801,75.667 87.049,76.506 85.917 C 76.914 85.367,77.288 84.879,77.336 84.833 C 77.645 84.542,78.011 83.768,77.935 83.570 C 77.772 83.146,77.542 83.315,76.727 84.458 C 75.130 86.697,73.660 88.192,71.750 89.522 C 69.795 90.882,68.958 91.118,69.294 90.214 C 69.388 89.959,69.596 89.308,69.756 88.768 C 70.279 86.998,71.722 84.448,73.446 82.250 C 73.662 81.975,73.894 81.675,73.962 81.583 C 75.380 79.664,79.136 75.679,80.167 75.000 C 80.387 74.855,83.385 72.114,84.133 71.375 C 84.527 70.985,84.921 70.667,85.009 70.667 C 85.306 70.667,88.665 68.418,88.666 68.218 C 88.668 67.744,87.535 68.045,87.000 68.662 C 86.912 68.763,86.149 69.274,85.583 69.611 C 85.400 69.720,84.800 70.039,84.250 70.319 C 83.230 70.839,83.100 70.915,81.903 71.699 C 81.526 71.946,81.018 72.198,80.774 72.259 C 80.530 72.320,80.289 72.437,80.239 72.518 C 80.146 72.668,79.500 72.732,79.500 72.592 C 79.500 72.369,80.547 70.675,81.156 69.911 C 82.048 68.793,85.272 65.715,86.917 64.411 C 87.375 64.047,87.787 63.710,87.833 63.661 C 87.879 63.612,88.329 63.277,88.833 62.917 C 89.337 62.556,89.787 62.220,89.833 62.170 C 89.959 62.031,92.481 60.439,93.333 59.959 C 94.721 59.177,98.392 57.385,100.521 56.449 C 101.561 55.992,101.267 55.938,103.569 57.008 C 104.790 57.575,106.980 58.309,108.500 58.659 C 109.004 58.776,109.589 58.937,109.800 59.019 C 110.387 59.246,110.528 59.199,110.470 58.797 C 110.433 58.544,110.260 58.391,109.917 58.311 C 106.319 57.473,104.526 56.814,101.522 55.226 C 100.547 54.710,99.530 54.174,99.262 54.034 C 98.296 53.530,95.302 50.763,94.587 49.715 C 92.780 47.062,91.761 43.839,92.073 41.761 C 92.205 40.880,92.137 40.911,93.043 41.314 M120.465 55.758 C 120.413 55.845,120.684 56.367,121.067 56.917 C 122.364 58.777,123.478 58.999,126.500 57.999 C 127.096 57.802,127.733 57.620,127.917 57.595 C 128.100 57.570,128.488 57.497,128.779 57.431 C 129.620 57.242,131.435 57.860,132.029 58.537 C 132.183 58.712,132.348 58.854,132.396 58.852 C 132.444 58.850,132.987 59.370,133.603 60.008 C 134.791 61.238,135.475 61.592,134.797 60.625 C 134.280 59.888,133.244 58.833,133.037 58.833 C 132.945 58.833,132.826 58.721,132.773 58.583 C 132.720 58.446,132.562 58.333,132.422 58.333 C 132.282 58.333,132.167 58.262,132.167 58.175 C 132.167 57.261,128.918 56.808,127.000 57.454 C 126.313 57.685,125.641 57.878,125.507 57.882 C 125.374 57.886,125.095 57.977,124.888 58.084 C 123.743 58.678,122.484 58.053,120.989 56.146 C 120.753 55.846,120.518 55.671,120.465 55.758 M166.235 57.179 C 166.794 57.844,166.807 58.652,166.268 59.279 C 165.164 60.562,162.905 59.062,163.754 57.609 C 164.410 56.490,165.496 56.301,166.235 57.179 M217.276 123.942 C 221.987 126.419,224.187 128.973,226.585 134.750 C 226.699 135.025,226.920 135.625,227.076 136.083 C 227.232 136.542,227.421 137.067,227.496 137.250 C 227.718 137.790,227.946 138.490,228.421 140.083 C 228.667 140.908,229.004 142.033,229.170 142.583 C 229.726 144.421,231.000 148.977,231.000 149.126 C 231.000 149.163,230.756 149.044,230.458 148.861 C 230.160 148.678,229.429 148.274,228.833 147.963 C 225.874 146.422,224.226 145.375,222.500 143.942 C 221.357 142.993,220.889 142.504,220.081 141.417 C 219.808 141.050,219.542 140.712,219.489 140.667 C 219.436 140.621,219.024 140.021,218.574 139.333 L 217.756 138.083 217.742 134.750 C 217.726 131.214,217.542 129.686,216.800 126.917 C 216.466 125.668,215.803 123.750,215.651 123.592 C 215.457 123.389,215.457 123.167,215.651 123.167 C 215.734 123.167,216.465 123.515,217.276 123.942 M218.004 139.708 C 218.313 140.190,218.608 140.621,218.661 140.667 C 218.714 140.712,218.895 140.966,219.064 141.230 C 219.769 142.337,221.443 144.078,222.667 144.977 C 223.171 145.348,223.658 145.714,223.750 145.791 C 224.238 146.200,227.405 148.000,230.717 149.750 C 231.110 149.958,231.384 150.240,231.443 150.500 C 231.496 150.729,231.647 151.292,231.780 151.750 C 232.795 155.270,233.270 157.978,233.503 161.583 C 233.791 166.030,233.986 168.343,234.086 168.505 C 234.143 168.596,234.060 168.615,233.891 168.550 C 233.615 168.444,233.473 168.341,232.627 167.625 C 232.437 167.465,232.233 167.333,232.173 167.333 C 232.112 167.333,231.917 167.199,231.740 167.035 C 230.880 166.241,224.066 161.667,223.744 161.667 C 223.684 161.667,223.436 161.525,223.192 161.352 C 222.655 160.971,218.581 158.876,217.398 158.373 C 216.929 158.173,216.067 157.789,215.481 157.519 C 214.896 157.249,214.042 156.879,213.583 156.696 C 213.125 156.514,211.327 155.801,209.588 155.112 C 206.012 153.695,206.128 153.789,206.914 152.931 C 207.236 152.579,207.500 152.243,207.500 152.183 C 207.500 152.123,207.706 151.847,207.958 151.570 C 208.210 151.292,208.717 150.704,209.083 150.264 C 209.450 149.823,209.938 149.261,210.167 149.014 C 213.601 145.313,215.595 142.646,216.750 140.208 C 217.108 139.452,217.411 138.833,217.422 138.833 C 217.434 138.833,217.696 139.227,218.004 139.708 M94.527 159.875 C 94.731 161.034,94.566 165.149,94.271 166.250 C 93.343 169.710,90.621 173.472,84.267 180.075 C 83.910 180.446,82.900 181.537,82.022 182.500 C 81.145 183.463,80.238 184.439,80.006 184.669 C 79.773 184.900,79.171 185.575,78.667 186.169 C 78.163 186.764,77.601 187.408,77.417 187.601 C 76.681 188.374,73.728 191.574,73.410 191.943 C 73.085 192.319,72.667 192.236,72.667 191.796 C 72.667 191.546,70.836 188.762,70.290 188.181 C 69.602 187.450,68.495 186.752,66.417 185.740 C 65.500 185.294,64.712 184.887,64.667 184.836 C 64.621 184.785,63.683 184.021,62.583 183.137 C 58.596 179.933,56.868 177.658,54.060 171.917 C 53.747 171.275,53.335 170.450,53.144 170.083 C 52.396 168.639,51.870 165.810,52.158 164.780 C 52.619 163.134,53.220 162.953,57.490 163.175 C 59.283 163.268,61.050 163.338,61.417 163.331 C 61.783 163.324,64.333 163.317,67.083 163.317 C 73.867 163.315,78.106 163.079,81.583 162.512 C 82.133 162.423,83.071 162.270,83.667 162.173 C 84.842 161.981,87.508 161.366,89.417 160.846 C 89.783 160.746,90.383 160.594,90.750 160.508 C 91.117 160.423,91.679 160.277,92.000 160.186 C 92.321 160.094,92.871 159.946,93.222 159.857 C 93.573 159.768,93.904 159.652,93.958 159.598 C 94.175 159.381,94.465 159.522,94.527 159.875 M69.208 165.448 C 69.369 165.490,69.631 165.490,69.792 165.448 C 69.952 165.406,69.821 165.372,69.500 165.372 C 69.179 165.372,69.048 165.406,69.208 165.448 M188.760 181.042 L 189.250 181.583 188.708 181.094 C 188.203 180.638,188.090 180.500,188.219 180.500 C 188.248 180.500,188.491 180.744,188.760 181.042 M252.174 205.994 C 252.865 206.685,253.837 207.615,254.333 208.061 L 255.235 208.872 254.595 210.113 C 253.786 211.685,250.633 214.978,248.248 216.741 C 247.882 217.011,247.546 217.274,247.500 217.325 C 247.454 217.377,247.117 217.639,246.750 217.909 C 246.383 218.179,245.971 218.520,245.833 218.668 C 244.713 219.869,242.598 220.939,242.084 220.563 C 240.876 219.680,242.101 216.327,244.581 213.732 C 244.866 213.433,245.561 212.647,247.041 210.950 C 247.254 210.706,247.285 210.559,247.154 210.402 C 246.983 210.195,246.500 210.252,246.500 210.479 C 246.500 210.540,246.181 210.926,245.792 211.339 C 242.021 215.328,241.115 216.806,241.125 218.950 C 241.132 220.461,241.009 220.667,240.098 220.667 C 238.678 220.667,239.055 217.451,240.847 214.289 C 241.222 213.627,241.580 213.047,241.641 213.001 C 241.702 212.954,241.975 212.617,242.248 212.250 C 242.521 211.883,243.215 211.131,243.789 210.578 C 244.849 209.557,245.010 209.270,244.612 209.117 C 244.280 208.990,242.005 211.222,241.236 212.427 C 241.065 212.696,240.877 212.954,240.819 213.000 C 240.227 213.469,238.895 216.765,238.739 218.150 C 238.627 219.133,238.609 219.166,238.317 218.902 C 237.056 217.760,237.933 213.888,240.227 210.472 C 240.515 210.044,241.987 208.431,243.500 206.889 C 246.208 204.127,246.953 203.107,247.418 201.525 C 247.524 201.163,247.664 201.271,249.225 202.935 C 250.155 203.927,251.482 205.303,252.174 205.994  M -25 0 L -5 0 L -5 20 L -25 20 Z M 405 0 L 425 0 L 425 20 L 405 20 Z" stroke="none" fill="#000000" fill-rule="evenodd" transform="translate(30,0)"></path><path id="path1" d="M166.053 231.833 C 166.053 232.429,166.084 232.673,166.121 232.375 C 166.158 232.077,166.158 231.590,166.121 231.292 C 166.084 230.994,166.053 231.237,166.053 231.833  M -25 0 L -5 0 L -5 20 L -25 20 Z M 405 0 L 425 0 L 425 20 L 405 20 Z" stroke="none" fill="#000000" fill-rule="evenodd" transform="translate(490,0)"></path><path id="path2" d="M55.906 215.545 L 55.250 216.250 55.915 215.666 C 56.280 215.346,56.612 215.065,56.651 215.042 C 56.690 215.019,56.686 214.964,56.642 214.920 C 56.598 214.876,56.267 215.157,55.906 215.545 M57.167 215.123 C 56.466 215.581,55.824 216.216,55.309 216.958 C 54.607 217.970,54.820 217.833,55.709 216.702 C 56.126 216.171,56.737 215.592,57.067 215.414 C 57.397 215.236,57.667 215.033,57.667 214.962 C 57.667 214.798,57.662 214.799,57.167 215.123 M53.209 220.250 C 53.211 220.617,53.245 220.747,53.285 220.540 C 53.324 220.332,53.323 220.032,53.281 219.873 C 53.239 219.714,53.207 219.883,53.209 220.250 M169.706 224.603 C 169.314 224.931,168.919 225.360,168.826 225.558 C 168.677 225.874,168.691 225.870,168.943 225.526 C 169.100 225.311,169.563 224.879,169.972 224.567 C 170.380 224.255,170.648 224.001,170.566 224.003 C 170.484 224.005,170.097 224.275,169.706 224.603 M168.847 226.308 C 168.575 226.817,168.631 226.958,168.934 226.526 C 169.081 226.317,169.162 226.106,169.114 226.058 C 169.066 226.011,168.946 226.123,168.847 226.308 M168.106 227.406 C 167.716 228.000,167.769 228.127,168.186 227.597 C 168.379 227.351,168.502 227.113,168.458 227.069 C 168.414 227.025,168.256 227.177,168.106 227.406 M166.833 228.667 C 166.646 229.033,166.551 229.333,166.622 229.332 C 166.692 229.331,166.876 229.031,167.029 228.665 C 167.390 227.807,167.272 227.808,166.833 228.667 M173.426 229.250 C 172.977 229.662,172.681 230.000,172.770 230.000 C 172.858 230.000,173.262 229.662,173.667 229.250 C 174.072 228.838,174.367 228.500,174.323 228.500 C 174.279 228.500,173.875 228.838,173.426 229.250 M173.301 230.125 C 173.008 230.467,172.787 230.833,172.875 230.833 C 172.909 230.833,173.104 230.608,173.307 230.333 C 173.709 229.790,173.705 229.655,173.301 230.125 M166.220 231.833 C 166.220 232.429,166.250 232.673,166.287 232.375 C 166.324 232.077,166.324 231.590,166.287 231.292 C 166.250 230.994,166.220 231.237,166.220 231.833 M172.252 231.453 L 171.960 231.917 172.346 231.546 C 172.558 231.343,172.690 231.134,172.638 231.083 C 172.587 231.032,172.413 231.198,172.252 231.453 M171.743 231.294 C 171.554 231.427,170.802 232.667,170.910 232.667 C 170.947 232.667,171.204 232.329,171.483 231.917 C 171.761 231.504,171.973 231.168,171.953 231.169 C 171.933 231.171,171.838 231.227,171.743 231.294 M168.667 236.065 C 168.667 236.101,168.924 236.160,169.238 236.197 C 169.553 236.234,169.773 236.204,169.728 236.132 C 169.648 236.001,168.667 235.940,168.667 236.065  M -25 0 L -5 0 L -5 20 L -25 20 Z M 405 0 L 425 0 L 425 20 L 405 20 Z" stroke="none" fill="#000000" fill-rule="evenodd" transform="translate(950,0)"></path><path id="path3" d="M188.167 180.552 C 188.167 180.581,188.410 180.825,188.708 181.094 L 189.250 181.583 188.760 181.042 C 188.304 180.537,188.167 180.423,188.167 180.552 M189.418 181.168 C 189.584 181.352,189.755 181.468,189.797 181.426 C 189.887 181.335,189.412 180.833,189.236 180.833 C 189.169 180.833,189.251 180.984,189.418 181.168 M195.053 195.167 C 195.053 195.762,195.084 196.006,195.121 195.708 C 195.158 195.410,195.158 194.923,195.121 194.625 C 195.084 194.327,195.053 194.571,195.053 195.167  M -25 0 L -5 0 L -5 20 L -25 20 Z M 405 0 L 425 0 L 425 20 L 405 20 Z" stroke="none" fill="#000000" fill-rule="evenodd" transform="translate(30,317)"></path><path id="path4" d=" M -25 0 L -5 0 L -5 20 L -25 20 Z M 405 0 L 425 0 L 425 20 L 405 20 Z" stroke="none" fill="#000000" fill-rule="evenodd" transform="translate(490,317)"></path></g></svg>