<?xml version="1.0" standalone="no"?>
<!DOCTYPE svg PUBLIC "-//W3C//DTD SVG 20010904//EN"
 "http://www.w3.org/TR/2001/REC-SVG-20010904/DTD/svg10.dtd">
<svg version="1.0" xmlns="http://www.w3.org/2000/svg"
 width="300.000000pt" height="275.000000pt" viewBox="0 0 300.000000 275.000000"
 preserveAspectRatio="xMidYMid meet">
<metadata>
Created by potrace 1.10, written by Peter Selinger 2001-2011
</metadata>
<g transform="translate(0.000000,275.000000) scale(0.100000,-0.100000)"
fill="#000000" stroke="none">
<path d="M601 2693 c-15 -78 -14 -224 4 -308 8 -38 33 -107 55 -152 l41 -82
-30 -56 c-42 -78 -54 -150 -49 -285 4 -86 13 -145 37 -235 47 -176 72 -333 77
-479 2 -71 6 -131 8 -134 10 -9 36 167 44 294 l7 109 18 -67 c29 -113 39 -250
26 -362 -15 -131 -8 -237 20 -303 l23 -52 -71 -71 c-98 -99 -126 -159 -126
-271 0 -78 3 -91 38 -162 21 -42 42 -77 47 -77 5 0 -8 35 -28 78 -29 61 -37
92 -40 147 -4 78 20 159 60 206 l23 27 51 -28 c49 -26 51 -28 38 -51 -7 -13
-13 -31 -13 -39 0 -8 9 2 20 22 l19 38 68 0 c38 0 93 7 123 16 78 23 196 87
267 144 68 55 78 60 63 31 -6 -10 -19 -67 -30 -127 -16 -95 -29 -132 -100
-284 -45 -95 -79 -176 -76 -178 3 -3 7 -3 9 -1 10 12 200 429 236 519 118 298
277 529 435 632 159 104 347 102 410 -6 33 -57 49 -165 35 -231 -30 -133 -170
-366 -429 -713 -79 -106 -141 -195 -138 -198 6 -6 242 305 336 443 35 51 65
93 67 93 4 0 -24 -73 -122 -326 -67 -172 -91 -250 -64 -202 13 22 172 436 199
519 12 36 46 111 77 165 67 123 94 205 94 294 0 148 -76 249 -187 250 -39 0
-40 6 -9 53 13 19 22 37 20 39 -2 3 -26 -17 -52 -42 -34 -33 -61 -49 -88 -54
-66 -13 -166 -68 -231 -130 -35 -32 -61 -51 -57 -42 11 29 39 79 94 173 45 76
58 91 74 87 15 -5 18 -2 13 15 -3 14 14 49 59 116 35 52 67 110 72 128 6 24
18 37 50 52 l42 21 -31 37 c-22 27 -26 37 -15 37 22 0 21 1 -22 48 -42 45 -77
117 -87 175 -3 20 -10 37 -15 37 -12 0 -12 2 0 -40 22 -74 13 -207 -24 -350
-19 -74 -38 -157 -42 -185 -7 -47 -8 -49 -17 -22 -6 20 -5 39 7 68 9 21 16 49
16 62 -1 13 -8 1 -19 -30 -11 -28 -22 -56 -25 -62 -4 -5 0 -25 7 -43 13 -31
11 -35 -35 -111 -27 -43 -70 -120 -95 -170 -25 -51 -62 -114 -82 -142 -84
-114 -181 -298 -243 -461 -17 -46 -33 -82 -35 -80 -24 23 240 644 283 669 8 5
12 13 8 18 -8 14 38 89 118 193 37 49 68 93 68 99 0 13 0 13 -73 -79 -31 -38
-72 -96 -91 -129 -25 -41 -37 -53 -41 -42 -7 15 22 80 57 130 11 16 18 30 15
33 -4 4 -19 -16 -74 -102 -11 -18 -12 -18 -12 2 -1 23 76 117 89 109 12 -7 87
113 120 192 34 82 55 204 47 274 -4 29 -21 81 -38 118 -18 36 -40 100 -50 141
-13 58 -17 67 -18 39 -1 -19 10 -73 24 -119 14 -46 25 -88 25 -94 0 -20 -77
114 -90 156 -21 73 -22 74 -27 60 -3 -6 4 -40 16 -75 18 -55 42 -175 40 -202
0 -5 -10 17 -22 50 -25 67 -116 239 -123 232 -3 -2 2 -31 10 -63 8 -33 19 -99
26 -147 6 -48 22 -118 35 -155 22 -60 22 -64 5 -42 -20 25 -60 138 -60 167 0
23 -60 143 -71 143 -5 0 2 -20 16 -44 31 -53 55 -158 55 -246 0 -36 -9 -121
-21 -190 -14 -83 -19 -148 -16 -195 4 -54 3 -62 -4 -35 -5 19 -13 118 -18 220
-10 199 -17 233 -81 360 -36 73 -38 75 -45 68 -3 -2 2 -19 11 -37 9 -18 13
-35 9 -39 -4 -4 -10 -1 -13 7 -11 31 -79 94 -142 131 -89 53 -133 100 -132
140 0 16 -4 30 -9 30 -29 0 12 -129 69 -213 54 -80 55 -94 3 -39 -70 77 -111
157 -111 221 0 75 -18 62 -22 -16 -4 -92 8 -203 32 -292 12 -40 19 -75 17 -77
-2 -2 -22 35 -45 83 -53 113 -76 202 -69 270 3 30 1 53 -4 53 -5 0 -9 -20 -9
-44 0 -25 -5 -48 -10 -51 -28 -17 -79 -156 -81 -220 l0 -30 -11 25 c-10 26 -5
167 7 208 4 12 3 22 -2 22 -5 0 -15 -23 -21 -51 -14 -57 -51 -116 -112 -174
-23 -22 -48 -52 -56 -67 -18 -34 -19 -111 -2 -106 16 6 58 -84 58 -122 0 -16
-5 -51 -12 -79 -16 -70 3 -108 76 -155 31 -19 65 -45 76 -56 l20 -20 -34 -65
c-41 -78 -38 -101 23 -174 l40 -48 -44 -37 c-61 -50 -94 -112 -109 -199 -12
-67 -13 -70 -21 -38 -4 19 -4 127 0 241 5 148 4 229 -5 281 -15 89 -66 255
-82 265 -8 5 -9 0 -2 -17 11 -30 8 -267 -5 -329 l-9 -45 -1 54 c-2 87 -29 256
-66 406 -59 240 -67 329 -40 443 17 73 40 121 85 177 40 51 125 122 170 143
l35 16 -30 4 c-32 4 -60 22 -35 22 8 0 54 20 102 45 74 38 97 45 145 45 l58 0
-33 17 c-18 9 -40 29 -48 44 l-14 29 46 -25 c36 -19 62 -25 113 -25 194 0 401
-74 514 -184 57 -56 150 -175 169 -218 7 -16 16 -28 19 -28 9 0 19 122 19 238
0 56 4 102 9 102 10 0 71 -22 116 -41 l30 -13 -40 -5 -40 -6 35 -21 c91 -53
136 -114 175 -233 10 -29 33 -71 52 -92 42 -47 37 -51 -12 -8 -43 38 -46 29
-5 -17 35 -41 102 -178 124 -254 13 -47 13 -52 1 -36 -19 25 -19 9 0 -24 8
-14 14 -37 15 -52 0 -18 5 -28 15 -28 18 0 18 -5 0 72 -20 87 -47 164 -81 228
-38 72 -39 74 -25 66 6 -4 16 -4 21 -1 7 4 -5 24 -28 49 -22 24 -49 69 -61
102 -40 111 -55 135 -109 185 -29 27 -59 50 -65 50 -7 1 6 5 28 8 l40 6 -27
18 c-15 10 -57 29 -95 42 l-68 24 -7 73 c-13 126 -50 289 -63 276 -3 -3 4 -38
14 -80 30 -116 44 -292 35 -452 -5 -110 -9 -137 -18 -122 -6 10 -29 42 -50 72
l-39 53 -1 243 c-1 167 -6 251 -14 268 -10 21 -11 10 -5 -60 9 -93 8 -408 -1
-417 -2 -3 -19 11 -36 30 -56 64 -151 118 -302 170 -16 6 -16 11 3 79 11 40
35 106 54 146 19 39 30 72 25 72 -15 0 -68 -121 -91 -207 l-21 -80 -48 10
c-45 9 -48 11 -40 32 18 48 83 171 107 203 29 39 23 57 -6 21 -26 -31 -121
-215 -121 -234 0 -11 -14 -15 -55 -15 -85 0 -151 18 -186 51 -17 16 -33 29
-36 29 -13 0 9 -66 29 -87 l21 -23 -24 0 c-32 0 -164 86 -228 149 -27 27 -64
72 -81 100 -37 59 -51 62 -22 4 40 -77 138 -169 251 -235 l43 -26 -50 -25 -50
-25 -66 54 c-83 68 -147 149 -191 239 -19 39 -34 62 -35 51 -1 -60 143 -254
240 -321 l43 -30 -52 -22 c-54 -24 -63 -38 -31 -48 17 -5 12 -13 -40 -51 -33
-25 -69 -57 -79 -71 -11 -13 -24 -22 -29 -19 -16 10 -70 130 -88 196 -20 74
-23 258 -7 328 6 23 7 44 3 47 -4 2 -12 -21 -19 -52z m631 -742 c38 -49 141
-152 146 -147 3 3 -27 59 -66 124 -40 65 -72 122 -72 126 0 5 15 -5 34 -20 18
-16 60 -45 93 -65 74 -44 117 -98 117 -145 0 -40 19 -40 24 -1 5 42 19 32 41
-28 25 -68 25 -65 2 -65 -42 0 -151 -41 -166 -63 -17 -27 -32 -157 -18 -157 6
0 16 6 22 14 6 7 38 21 70 30 32 9 74 27 92 39 l34 23 12 -156 c10 -134 29
-250 47 -279 3 -4 -19 -62 -48 -127 -54 -120 -156 -384 -156 -407 -1 -17 -166
-132 -248 -172 -37 -18 -85 -38 -107 -44 -42 -11 -162 -17 -170 -9 -8 7 99
122 129 137 14 8 26 18 26 23 0 28 -118 -76 -162 -142 l-16 -25 -46 24 c-25
13 -46 27 -46 30 0 4 24 30 53 58 49 49 186 141 388 263 104 63 205 151 251
219 17 25 56 77 86 114 29 38 52 71 49 74 -3 2 -33 -29 -67 -70 -62 -76 -111
-117 -163 -136 -50 -19 -51 -12 -3 25 26 20 45 38 42 41 -3 3 -22 -8 -43 -24
-21 -17 -63 -43 -93 -59 -47 -24 -66 -28 -136 -28 -67 0 -87 4 -118 24 l-38
23 38 13 c48 16 96 68 92 97 -4 27 -55 41 -125 34 -29 -3 -53 -4 -53 -2 0 2
19 35 41 75 51 88 89 192 89 246 0 53 -44 140 -81 159 -15 8 -43 15 -61 14
l-33 -1 34 -8 c41 -10 81 -30 81 -42 0 -5 -9 -4 -20 2 -11 6 -52 12 -91 15
-70 4 -71 4 -91 41 -15 29 -19 51 -16 94 4 51 9 63 55 116 27 32 55 67 60 78
9 15 11 10 17 -30 14 -97 58 -198 48 -108 -6 49 15 146 45 213 l25 56 19 -74
c19 -74 136 -321 153 -321 4 0 5 10 2 23 -33 108 -66 256 -71 317 l-7 75 27
-49 c14 -27 35 -61 47 -75z m547 -142 c10 -38 21 -72 26 -76 4 -5 5 39 2 96
l-5 104 19 -29 c10 -16 24 -45 31 -64 l13 -35 5 45 6 45 12 -40 c28 -93 5
-261 -51 -370 -17 -35 -66 -102 -107 -149 l-75 -86 -3 95 c-2 56 4 128 13 176
8 45 15 116 15 158 l1 76 23 -45 c24 -44 72 -98 80 -89 3 2 -8 31 -24 64 -31
63 -54 157 -64 265 l-6 65 36 -69 c19 -38 43 -99 53 -137z m285 -23 c29 -38
29 -38 5 -31 -20 7 -17 1 19 -38 23 -26 42 -50 42 -55 0 -4 -16 -14 -35 -21
-19 -7 -56 -28 -81 -47 -42 -32 -45 -33 -38 -12 21 67 35 130 40 191 4 37 10
64 14 60 3 -4 19 -25 34 -47z m-484 -88 c0 -13 3 -32 5 -43 7 -26 -43 -61
-112 -79 -27 -7 -59 -18 -71 -25 -20 -11 -22 -9 -22 16 0 15 5 45 10 65 9 32
17 39 63 56 101 38 127 40 127 10z m460 -140 c-22 -43 -100 -168 -105 -168 -3
0 23 142 27 146 20 19 93 72 96 69 3 -2 -5 -23 -18 -47z m-1120 -61 c18 -11
50 -17 90 -17 l63 0 -6 -55 c-3 -30 -18 -81 -33 -115 -27 -60 -27 -60 -46 -41
-10 11 -45 38 -77 61 -33 22 -63 49 -66 61 -4 11 -3 48 1 82 5 34 7 73 6 87
-2 22 0 21 19 -11 12 -20 34 -43 49 -52z m72 73 c39 -11 82 -55 71 -72 -9 -16
-113 -2 -141 19 -14 10 -32 29 -40 41 -14 22 -14 22 29 22 24 0 61 -5 81 -10z
m605 -610 c-41 -85 -89 -192 -108 -237 -18 -46 -34 -81 -36 -79 -5 5 73 211
139 365 49 113 64 140 70 125 7 -14 -10 -59 -65 -174z m-482 130 c0 -17 -12
-32 -41 -53 -34 -24 -44 -26 -67 -18 -26 10 -57 56 -57 86 0 13 13 15 83 13
80 -3 82 -4 82 -28z m356 -87 c-53 -74 -144 -145 -316 -248 -71 -43 -158 -97
-193 -121 -35 -24 -65 -44 -67 -44 -11 0 -3 148 9 183 20 55 62 112 104 140
34 23 44 24 128 20 73 -4 103 -1 155 15 35 11 83 25 106 31 22 6 52 20 65 31
31 26 33 25 9 -7z"/>
<path d="M1415 1721 c-44 -27 -73 -62 -79 -96 -5 -25 -3 -23 13 12 12 25 36
53 60 69 36 23 48 34 39 34 -2 0 -16 -8 -33 -19z"/>
<path d="M1297 1424 c-47 -72 -137 -246 -137 -264 0 -27 18 -4 40 53 14 34 53
109 87 166 71 118 78 150 10 45z"/>
<path d="M2307 1814 c-3 -3 3 -16 14 -27 45 -49 60 -176 57 -507 -2 -239 0
-275 20 -365 13 -60 37 -131 60 -177 l38 -77 -31 23 c-16 12 -40 44 -53 70
-31 64 -39 52 -13 -18 36 -97 61 -246 61 -363 0 -123 -16 -203 -60 -300 -17
-36 -28 -68 -26 -70 8 -8 46 65 72 142 26 73 28 92 28 225 0 134 -13 237 -40
304 -6 16 -2 15 32 -8 64 -43 70 -33 25 41 -17 26 -39 76 -50 110 -42 126 -51
217 -52 551 -1 174 -4 322 -8 327 -4 6 -15 31 -25 57 -17 47 -38 73 -49 62z"/>
<path d="M841 154 c-2 -30 29 -127 45 -144 12 -12 12 -8 -1 25 -8 22 -21 63
-29 90 -7 28 -14 41 -15 29z"/>
<path d="M98 114 c-12 -12 -9 -59 4 -72 7 -7 25 -12 40 -12 24 0 28 4 28 26 0
20 -4 25 -16 20 -9 -3 -18 -6 -20 -6 -3 0 -2 -4 1 -10 3 -5 -1 -10 -9 -10 -10
0 -16 12 -18 36 -2 20 -6 32 -10 28z"/>
<path d="M10 87 c0 -13 15 -38 35 -57 38 -37 45 -34 19 6 -13 19 -14 28 -5 37
20 20 12 37 -19 37 -25 0 -30 -4 -30 -23z"/>
</g>
</svg>
