<?xml version="1.0" encoding="UTF-8"?>
<!DOCTYPE svg PUBLIC "-//W3C//DTD SVG 1.1//EN" "http://www.w3.org/Graphics/SVG/1.1/DTD/svg11.dtd">
<svg xmlns="http://www.w3.org/2000/svg" version="1.1" width="602px" height="552px" style="shape-rendering:geometricPrecision; text-rendering:geometricPrecision; image-rendering:optimizeQuality; fill-rule:evenodd; clip-rule:evenodd" xmlns:xlink="http://www.w3.org/1999/xlink">
<g><path style="opacity:1" fill="#fdfdfd" d="M -0.5,-0.5 C 200.167,-0.5 400.833,-0.5 601.5,-0.5C 601.5,183.5 601.5,367.5 601.5,551.5C 400.833,551.5 200.167,551.5 -0.5,551.5C -0.5,367.5 -0.5,183.5 -0.5,-0.5 Z"/></g>
<g><path style="opacity:1" fill="#fcfcfc" d="M 305.5,335.5 C 298.828,342.332 291.161,347.832 282.5,352C 277.885,353.655 273.218,354.655 268.5,355C 275.408,350.762 281.741,345.762 287.5,340C 277.519,346.51 267.186,352.844 256.5,359C 242.265,363.238 227.932,363.571 213.5,360C 209.072,358.123 205.405,355.29 202.5,351.5C 211.348,349.483 218.848,345.149 225,338.5C 230.318,329.455 227.818,324.622 217.5,324C 208.769,323.708 200.103,323.541 191.5,323.5C 201.206,308.421 209.039,292.421 215,275.5C 219.881,260.418 217.881,246.418 209,233.5C 202.734,226.144 194.9,223.477 185.5,225.5C 193.45,225.52 200.283,228.186 206,233.5C 206.374,234.416 206.874,235.25 207.5,236C 203.835,235.355 200.169,234.355 196.5,233C 188.791,232.33 181.125,231.497 173.5,230.5C 172.119,231 171.453,232 171.5,233.5C 174.809,244.642 182.143,251.476 193.5,254C 200.826,254.5 208.159,254.666 215.5,254.5C 215.691,259.899 215.191,265.233 214,270.5C 211.122,280.467 207.455,290.134 203,299.5C 202.282,300.451 201.449,300.617 200.5,300C 198.63,297.96 196.63,296.127 194.5,294.5C 188.585,289.531 182.252,285.031 175.5,281C 167.845,274.546 165.345,266.38 168,256.5C 170.908,247.961 171.241,239.294 169,230.5C 160.988,218.042 159.321,204.709 164,190.5C 169.667,184.167 175.333,177.833 181,171.5C 184.063,167.431 186.73,163.098 189,158.5C 188.455,173.076 191.289,186.909 197.5,200C 198.332,200.688 198.998,200.521 199.5,199.5C 196.46,176.994 201.293,156.328 214,137.5C 214.971,150.779 218.304,163.445 224,175.5C 230.737,189.977 238.237,203.977 246.5,217.5C 247.631,215.926 247.798,214.259 247,212.5C 239.151,190.459 234.318,167.792 232.5,144.5C 232.19,141.287 232.523,138.287 233.5,135.5C 237.208,145.365 242.374,154.365 249,162.5C 257.345,171.677 265.845,180.677 274.5,189.5C 274.833,189 275.167,188.5 275.5,188C 269.139,174.77 261.639,162.27 253,150.5C 250.053,145.289 247.72,139.955 246,134.5C 250.132,138.997 254.632,143.164 259.5,147C 272.352,152.845 283.519,161.011 293,171.5C 296.686,177.59 298.519,184.257 298.5,191.5C 301.801,187.104 303.634,182.104 304,176.5C 308.184,184.554 311.684,192.888 314.5,201.5C 314.167,202.167 313.833,202.833 313.5,203.5C 305.343,205.04 297.343,207.206 289.5,210C 281.951,211.675 277.117,216.175 275,223.5C 273.836,231.459 273.336,239.459 273.5,247.5C 275.978,246.805 277.978,245.305 279.5,243C 287.797,240.177 296.131,237.51 304.5,235C 309.554,232.611 314.054,229.445 318,225.5C 318.333,225.833 318.667,226.167 319,226.5C 319.564,242.504 320.231,258.504 321,274.5C 322.142,285.541 324.308,296.374 327.5,307C 319.965,316.365 312.632,325.865 305.5,335.5 Z"/></g>
<g><path style="opacity:1" fill="#1a1a1a" d="M 358.5,320.5 C 355.905,328.007 353.072,335.34 350,342.5C 362.219,328.27 376.719,317.104 393.5,309C 400.499,305.778 407.833,303.778 415.5,303C 423.932,298.069 430.932,291.569 436.5,283.5C 437.583,284.365 437.749,285.365 437,286.5C 433.46,291.077 430.294,295.91 427.5,301C 453.624,302.121 468.791,315.621 473,341.5C 474.675,357.442 472.342,372.775 466,387.5C 459.112,402.278 451.445,416.612 443,430.5C 429.223,471.049 414.056,511.049 397.5,550.5C 396.417,549.635 396.251,548.635 397,547.5C 411.576,511.376 425.243,475.043 438,438.5C 412.205,477.123 384.705,514.456 355.5,550.5C 355.167,550.167 354.833,549.833 354.5,549.5C 386.802,508.697 416.968,466.363 445,422.5C 451.438,411.061 457.438,399.395 463,387.5C 473.123,364.629 472.79,341.962 462,319.5C 457.163,312.66 450.663,308.16 442.5,306C 417.816,301.536 395.482,306.87 375.5,322C 349.427,343.067 328.927,368.567 314,398.5C 300.624,425.583 288.624,453.25 278,481.5C 266.925,504.651 255.591,527.651 244,550.5C 243.5,550.333 243,550.167 242.5,550C 254.238,526.024 265.571,501.858 276.5,477.5C 278.444,460.903 281.278,444.569 285,428.5C 269.008,442.82 251.174,454.32 231.5,463C 214.81,469.695 197.477,472.362 179.5,471C 178.54,472.419 177.707,473.919 177,475.5C 177.218,473.413 177.051,471.413 176.5,469.5C 169.212,466.695 162.545,463.195 156.5,459C 136.684,481.436 133.184,506.27 146,533.5C 148.535,539.408 151.702,544.908 155.5,550C 153.406,550.445 151.906,549.612 151,547.5C 144.087,536.346 139.421,524.346 137,511.5C 134.982,495.584 138.316,480.918 147,467.5C 155.256,455.909 164.922,445.575 176,436.5C 176.49,435.207 176.657,433.873 176.5,432.5C 176.833,432.5 177.167,432.5 177.5,432.5C 178.738,433.412 180.072,433.579 181.5,433C 201.188,418.487 221.855,405.487 243.5,394C 255.886,386.442 267.552,377.942 278.5,368.5C 279.167,368.5 279.5,368.833 279.5,369.5C 273.604,375.126 267.271,380.293 260.5,385C 244.165,395.503 227.498,405.503 210.5,415C 191.898,426.594 174.731,440.094 159,455.5C 163.397,461.903 169.73,465.903 178,467.5C 180.653,466.013 182.82,464.013 184.5,461.5C 184.038,463.757 183.038,465.757 181.5,467.5C 196.553,469.708 211.219,468.208 225.5,463C 236.058,459.054 246.058,454.054 255.5,448C 266.594,440.738 277.261,432.904 287.5,424.5C 299.615,387.605 313.948,351.605 330.5,316.5C 330.147,314.269 329.314,312.269 328,310.5C 320.592,319.065 313.425,327.732 306.5,336.5C 306.5,335.833 306.167,335.5 305.5,335.5C 312.632,325.865 319.965,316.365 327.5,307C 324.308,296.374 322.142,285.541 321,274.5C 320.231,258.504 319.564,242.504 319,226.5C 318.667,226.167 318.333,225.833 318,225.5C 314.054,229.445 309.554,232.611 304.5,235C 296.131,237.51 287.797,240.177 279.5,243C 277.978,245.305 275.978,246.805 273.5,247.5C 273.336,239.459 273.836,231.459 275,223.5C 277.117,216.175 281.951,211.675 289.5,210C 297.343,207.206 305.343,205.04 313.5,203.5C 313.833,202.833 314.167,202.167 314.5,201.5C 311.684,192.888 308.184,184.554 304,176.5C 303.634,182.104 301.801,187.104 298.5,191.5C 298.519,184.257 296.686,177.59 293,171.5C 283.519,161.011 272.352,152.845 259.5,147C 254.632,143.164 250.132,138.997 246,134.5C 247.72,139.955 250.053,145.289 253,150.5C 261.639,162.27 269.139,174.77 275.5,188C 275.167,188.5 274.833,189 274.5,189.5C 265.845,180.677 257.345,171.677 249,162.5C 242.374,154.365 237.208,145.365 233.5,135.5C 233.108,133.821 232.608,132.154 232,130.5C 231.185,135.352 231.352,140.019 232.5,144.5C 234.318,167.792 239.151,190.459 247,212.5C 247.798,214.259 247.631,215.926 246.5,217.5C 238.237,203.977 230.737,189.977 224,175.5C 218.304,163.445 214.971,150.779 214,137.5C 201.293,156.328 196.46,176.994 199.5,199.5C 198.998,200.521 198.332,200.688 197.5,200C 191.289,186.909 188.455,173.076 189,158.5C 186.73,163.098 184.063,167.431 181,171.5C 175.333,177.833 169.667,184.167 164,190.5C 159.321,204.709 160.988,218.042 169,230.5C 171.241,239.294 170.908,247.961 168,256.5C 165.345,266.38 167.845,274.546 175.5,281C 182.252,285.031 188.585,289.531 194.5,294.5C 194.167,294.5 193.833,294.5 193.5,294.5C 187.333,290.522 180.999,286.689 174.5,283C 168.681,278.197 165.348,272.031 164.5,264.5C 165.346,259.114 166.513,253.78 168,248.5C 168.667,243.5 168.667,238.5 168,233.5C 166.106,228.608 163.772,223.941 161,219.5C 158.063,210.96 158.229,202.46 161.5,194C 161.333,193.5 161.167,193 161,192.5C 155.381,199.275 154.215,206.775 157.5,215C 156.576,216.811 155.743,216.645 155,214.5C 152.349,206.665 153.349,199.331 158,192.5C 168.824,183.018 178.157,172.351 186,160.5C 189.337,152.653 192.171,144.653 194.5,136.5C 194.833,137 195.167,137.5 195.5,138C 190.51,154.399 190.177,170.899 194.5,187.5C 194.709,188.922 195.209,190.255 196,191.5C 196.495,189.527 196.662,187.527 196.5,185.5C 196.642,167.41 201.975,151.076 212.5,136.5C 214.388,134.012 215.055,131.012 214.5,127.5C 214.336,124.813 214.503,122.146 215,119.5C 215.998,116.972 216.831,116.972 217.5,119.5C 214.798,136.816 216.964,153.483 224,169.5C 229.728,181.956 235.728,194.289 242,206.5C 237.885,189.695 234.219,172.695 231,155.5C 228.758,140.711 229.258,126.044 232.5,111.5C 232.235,130.62 238.401,147.287 251,161.5C 255.467,166.968 260.3,172.135 265.5,177C 266.332,177.688 266.998,177.521 267.5,176.5C 259.244,164.328 251.744,151.662 245,138.5C 242.783,133.016 241.283,127.349 240.5,121.5C 240.365,119.192 241.031,117.192 242.5,115.5C 241.326,123.199 243.659,129.866 249.5,135.5C 251.984,137.483 254.317,139.65 256.5,142C 267.344,147.919 277.677,154.586 287.5,162C 293.204,167.204 297.537,173.37 300.5,180.5C 301.655,177.554 301.821,174.554 301,171.5C 299.697,169.06 298.53,166.56 297.5,164C 297.833,163.5 298.167,163 298.5,162.5C 319.719,195.413 327.886,231.413 323,270.5C 323.615,281.758 325.615,292.758 329,303.5C 327.706,289.552 327.373,275.552 328,261.5C 335.824,231.657 336.491,201.657 330,171.5C 327.28,164.391 323.78,157.725 319.5,151.5C 319.833,151.167 320.167,150.833 320.5,150.5C 323.831,154.492 326.664,158.825 329,163.5C 332.893,176.509 336.893,189.509 341,202.5C 343.332,208.506 346.666,213.84 351,218.5C 342.069,196.188 337.069,172.855 336,148.5C 334.865,142.595 333.031,136.928 330.5,131.5C 330.833,130.833 331.167,130.167 331.5,129.5C 339.082,141.657 345.915,154.323 352,167.5C 355.464,175.227 358.131,183.227 360,191.5C 360.249,180.736 359.249,170.069 357,159.5C 353.859,150.27 351.025,140.937 348.5,131.5C 348.833,130.833 349.167,130.167 349.5,129.5C 351.811,136.397 353.977,143.397 356,150.5C 361.328,159.797 366.662,169.13 372,178.5C 372.551,173.455 372.218,168.455 371,163.5C 365.3,151.383 362.8,138.716 363.5,125.5C 364.58,142.572 369.746,158.238 379,172.5C 380.796,176.683 382.129,181.016 383,185.5C 385.455,208.873 381.788,231.206 372,252.5C 364.85,267.473 356.183,281.473 346,294.5C 341.826,300.846 338.159,307.512 335,314.5C 334.862,317.621 335.529,320.621 337,323.5C 347.849,305.146 360.182,287.812 374,271.5C 379.416,262.763 383.583,253.429 386.5,243.5C 387.206,245.766 387.039,248.099 386,250.5C 384.163,255.505 382.33,260.505 380.5,265.5C 381.697,270.59 383.197,275.59 385,280.5C 385.206,271.408 386.206,262.408 388,253.5C 394.4,233.566 399.067,213.233 402,192.5C 402.889,178.89 401.389,165.557 397.5,152.5C 398.167,151.167 398.833,151.167 399.5,152.5C 401.382,162.959 404.548,172.959 409,182.5C 413.596,190.597 419.763,197.264 427.5,202.5C 424.893,203.318 422.226,203.818 419.5,204C 424.021,209.02 428.355,214.187 432.5,219.5C 426.703,221.154 421.203,223.487 416,226.5C 409.639,244.528 400.306,260.862 388,275.5C 387.667,278.833 387.333,282.167 387,285.5C 386.667,285.833 386.333,286.167 386,286.5C 385,285.167 384,283.833 383,282.5C 375.058,295.401 366.892,308.068 358.5,320.5 Z"/></g>
<g><path style="opacity:1" fill="#1c1c1c" d="M 394.5,73.5 C 394.44,72.9569 394.107,72.6236 393.5,72.5C 392.503,80.1378 392.169,87.8045 392.5,95.5C 391.888,111.34 390.888,127.007 389.5,142.5C 377.589,121.507 362.923,102.674 345.5,86C 325.734,71.6265 303.734,62.2931 279.5,58C 266.247,56.0285 252.914,55.0285 239.5,55C 230.396,53.6976 222.562,49.8643 216,43.5C 217.542,54.2103 223.709,60.5436 234.5,62.5C 228.072,63.2371 221.406,63.4038 214.5,63C 200.133,70.1813 185.466,76.848 170.5,83C 171.623,84.0437 172.956,84.7104 174.5,85C 178.211,85.1747 181.878,85.6747 185.5,86.5C 141.751,108.649 121.918,144.316 126,193.5C 127.496,207.812 130.329,221.812 134.5,235.5C 137.019,245.24 139.353,254.907 141.5,264.5C 146.43,284.868 149.097,305.534 149.5,326.5C 149.334,332.842 149.5,339.175 150,345.5C 150.662,343.187 151.162,340.854 151.5,338.5C 154.494,315.238 156.161,291.904 156.5,268.5C 154.406,264.922 153.406,261.255 153.5,257.5C 156.082,261.91 158.082,266.577 159.5,271.5C 158.596,272.209 158.263,273.209 158.5,274.5C 158.098,301.285 155.265,327.952 150,354.5C 148.755,358.498 147.922,358.331 147.5,354C 149.05,319.669 145.55,285.836 137,252.5C 133.115,237.853 129.448,223.186 126,208.5C 120.996,183.521 122.996,159.187 132,135.5C 134.915,130.002 138.081,124.668 141.5,119.5C 117.98,82.5279 111.98,42.8612 123.5,0.5C 123.833,1.16667 124.167,1.83333 124.5,2.5C 114.574,43.0397 120.407,81.0397 142,116.5C 142.414,116.957 142.914,117.291 143.5,117.5C 152.992,106.001 163.992,96.334 176.5,88.5C 173.578,87.2024 170.578,86.2024 167.5,85.5C 167.238,84.0222 167.571,82.6888 168.5,81.5C 175.62,78.96 182.62,76.1267 189.5,73C 162.304,55.2418 142.97,31.2418 131.5,1C 132.449,0.382767 133.282,0.549434 134,1.5C 141.032,22.5297 152.865,40.363 169.5,55C 176.167,60.3333 182.833,65.6667 189.5,71C 193.666,70.756 197.333,69.0894 200.5,66C 204.217,64.5952 207.883,63.0952 211.5,61.5C 191.458,50.7224 173.958,36.7224 159,19.5C 154.902,13.8891 151.402,7.88915 148.5,1.5C 149.167,0.166667 149.833,0.166667 150.5,1.5C 157.401,14.5764 166.401,26.0764 177.5,36C 188.812,44.9923 200.812,52.9923 213.5,60C 216.833,60.6667 220.167,60.6667 223.5,60C 216.52,54.5402 212.853,47.3736 212.5,38.5C 216.195,40.6778 219.528,43.5111 222.5,47C 226.945,49.5567 231.611,51.5567 236.5,53C 246.833,53.6667 257.167,53.6667 267.5,53C 274.295,35.5753 282.795,19.0753 293,3.5C 294.263,1.20309 296.097,0.369755 298.5,1C 286.25,17.1591 276.584,34.8257 269.5,54C 276.853,55.1216 284.186,56.2883 291.5,57.5C 293.764,36.6593 300.764,17.6593 312.5,0.5C 312.833,0.833333 313.167,1.16667 313.5,1.5C 302.306,18.9165 295.806,37.9165 294,58.5C 313.536,64.0184 331.37,72.8518 347.5,85C 353.042,90.3746 358.376,95.8746 363.5,101.5C 365.943,86.6152 366.943,71.6152 366.5,56.5C 367.151,38.3452 365.818,20.3452 362.5,2.5C 362.833,1.83333 363.167,1.16667 363.5,0.5C 367.359,19.116 369.026,37.9494 368.5,57C 368.879,72.2671 367.879,87.4338 365.5,102.5C 369.719,109.561 374.552,116.228 380,122.5C 382.917,126.666 385.584,130.999 388,135.5C 391.947,99.3906 391.28,63.3906 386,27.5C 384.459,18.6711 382.293,10.0044 379.5,1.5C 379.833,1.16667 380.167,0.833333 380.5,0.5C 384.078,9.14009 386.578,18.1401 388,27.5C 390.359,41.7501 392.192,56.0834 393.5,70.5C 400.807,73.1023 408.14,75.6023 415.5,78C 420.825,80.3271 425.825,83.1605 430.5,86.5C 425.533,87.329 420.533,87.829 415.5,88C 428.473,95.3949 438.64,105.562 446,118.5C 449.878,129.68 454.212,140.68 459,151.5C 463.021,157.021 467.854,161.688 473.5,165.5C 472.441,166.696 471.107,167.363 469.5,167.5C 467.49,166.638 465.49,166.138 463.5,166C 477.544,188.963 486.544,213.796 490.5,240.5C 489.167,240.5 487.833,240.5 486.5,240.5C 486.144,231.118 482.978,222.785 477,215.5C 480.075,249.416 480.242,283.416 477.5,317.5C 477.825,345.788 482.992,373.121 493,399.5C 496.671,406.65 500.505,413.65 504.5,420.5C 504.333,421.167 504.167,421.833 504,422.5C 497.345,420.34 491.678,416.674 487,411.5C 490.632,426.611 493.632,441.944 496,457.5C 499.908,490.281 493.742,520.948 477.5,549.5C 476.635,550.583 475.635,550.749 474.5,550C 490.828,522.032 497.328,491.865 494,459.5C 491.229,436.475 485.729,414.141 477.5,392.5C 478.167,391.167 478.833,391.167 479.5,392.5C 481.762,401.53 486.429,409.03 493.5,415C 496.377,416.946 499.377,418.279 502.5,419C 495.987,411.145 491.154,402.312 488,392.5C 480.061,368.165 475.894,343.165 475.5,317.5C 477.857,286.841 478.024,256.174 476,225.5C 474.891,214.284 471.891,203.617 467,193.5C 465.315,191.983 463.815,190.316 462.5,188.5C 463.002,187.479 463.668,187.312 464.5,188C 470.378,195.256 474.545,203.422 477,212.5C 480.419,216.331 483.086,220.665 485,225.5C 480.79,203.211 472.457,182.544 460,163.5C 456.651,160.318 453.484,156.985 450.5,153.5C 451.002,152.479 451.668,152.312 452.5,153C 456,156.452 459.667,159.786 463.5,163C 465.044,164.187 466.711,164.52 468.5,164C 464,160.833 460.167,157 457,152.5C 452.148,140.078 447.148,127.745 442,115.5C 433.476,103.137 422.642,93.4701 409.5,86.5C 414.467,85.671 419.467,85.171 424.5,85C 415.085,79.6941 405.085,75.8608 394.5,73.5 Z"/></g>
<g><path style="opacity:1" fill="#d6d6d6" d="M 134.5,235.5 C 135.497,235.47 136.164,235.97 136.5,237C 140.477,245.743 142.144,254.91 141.5,264.5C 139.353,254.907 137.019,245.24 134.5,235.5 Z"/></g>
<g><path style="opacity:1" fill="#f3f3f3" d="M 412.5,227.5 C 412.419,233.414 410.585,239.081 407,244.5C 400.915,254.338 394.582,264.004 388,273.5C 387.933,263.236 389.6,253.236 393,243.5C 399.108,237.546 405.608,232.213 412.5,227.5 Z"/></g>
<g><path style="opacity:1" fill="#505050" d="M 269.5,219.5 C 270.097,219.735 270.43,220.235 270.5,221C 269.464,223.774 268.631,226.607 268,229.5C 267.31,225.974 267.81,222.64 269.5,219.5 Z"/></g>
<g><path style="opacity:1" fill="#4b4b4b" d="M 282.5,206.5 C 283.239,206.369 283.906,206.536 284.5,207C 279.748,209.748 275.581,213.248 272,217.5C 271.333,216.833 271.333,216.167 272,215.5C 275.103,211.886 278.603,208.886 282.5,206.5 Z"/></g>
<g><path style="opacity:1" fill="#7c7c7c" d="M 338.5,201.5 C 337.833,206.5 337.167,211.5 336.5,216.5C 336.334,210.158 336.5,203.825 337,197.5C 337.41,198.901 337.91,200.234 338.5,201.5 Z"/></g>
<g><path style="opacity:1" fill="#fafafa" d="M 311.5,205.5 C 312.833,205.5 314.167,205.5 315.5,205.5C 316.82,210.415 317.82,215.415 318.5,220.5C 315.301,226.194 310.634,230.36 304.5,233C 297.561,235.152 290.561,237.152 283.5,239C 281.254,240.039 279.087,241.206 277,242.5C 275.664,233.832 276.664,225.498 280,217.5C 282.921,215.288 286.088,213.455 289.5,212C 297.119,210.357 304.453,208.19 311.5,205.5 Z"/></g>
<g><path style="opacity:1" fill="#757575" d="M 196.5,185.5 C 196.662,187.527 196.495,189.527 196,191.5C 195.209,190.255 194.709,188.922 194.5,187.5C 195.167,186.833 195.833,186.167 196.5,185.5 Z"/></g>
<g><path style="opacity:1" fill="#f7f7f7" d="M 405.5,179.5 C 409.49,187.99 415.157,195.157 422.5,201C 418.594,201.531 415.261,200.365 412.5,197.5C 411.479,198.002 411.312,198.668 412,199.5C 417.5,205.667 423,211.833 428.5,218C 416.223,222.804 405.223,229.637 395.5,238.5C 395.167,238 394.833,237.5 394.5,237C 399.319,222.554 402.319,207.72 403.5,192.5C 404.167,188.167 404.833,183.833 405.5,179.5 Z"/></g>
<g><path style="opacity:1" fill="#5d5d5d" d="M 405.5,179.5 C 404.833,183.833 404.167,188.167 403.5,192.5C 403.334,187.156 403.501,181.823 404,176.5C 404.513,177.527 405.013,178.527 405.5,179.5 Z"/></g>
<g><path style="opacity:1" fill="#fbfbfb" d="M 336.5,216.5 C 337.167,211.5 337.833,206.5 338.5,201.5C 342.188,211.853 348.521,220.187 357.5,226.5C 348.669,208.812 342.835,189.812 340,169.5C 339.55,160.367 338.55,151.367 337,142.5C 348.563,161.604 356.73,181.938 361.5,203.5C 361.833,200.167 362.167,196.833 362.5,193.5C 361.992,182.747 361.159,172.08 360,161.5C 365.918,169.415 370.418,178.081 373.5,187.5C 374.329,182.198 374.829,176.864 375,171.5C 378.52,176.235 380.52,181.568 381,187.5C 382.468,213.96 377.135,238.96 365,262.5C 354.373,275.462 343.373,288.129 332,300.5C 330.768,297.7 330.101,294.7 330,291.5C 329.333,282.5 329.333,273.5 330,264.5C 333.141,248.63 335.308,232.63 336.5,216.5 Z"/></g>
<g><path style="opacity:1" fill="#a2a2a2" d="M 233.5,135.5 C 232.523,138.287 232.19,141.287 232.5,144.5C 231.352,140.019 231.185,135.352 232,130.5C 232.608,132.154 233.108,133.821 233.5,135.5 Z"/></g>
<g><path style="opacity:1" fill="#777777" d="M 214.5,127.5 C 215.055,131.012 214.388,134.012 212.5,136.5C 213.088,133.39 213.755,130.39 214.5,127.5 Z"/></g>
<g><path style="opacity:1" fill="#bababa" d="M 394.5,73.5 C 393.833,80.8333 393.167,88.1667 392.5,95.5C 392.169,87.8045 392.503,80.1378 393.5,72.5C 394.107,72.6236 394.44,72.9569 394.5,73.5 Z"/></g>
<g><path style="opacity:1" fill="#f7f7f7" d="M 358.5,320.5 C 353.185,329.796 348.352,339.463 344,349.5C 326.551,371.996 311.884,396.329 300,422.5C 292.724,439.386 285.724,456.386 279,473.5C 279.704,465.344 281.37,457.344 284,449.5C 300.71,405.189 319.377,362.856 340,322.5C 344.083,315.332 348.416,308.332 353,301.5C 362.062,291.038 370.395,280.038 378,268.5C 379.89,272.17 381.39,276.003 382.5,280C 373.595,292.978 365.595,306.478 358.5,320.5 Z"/></g>
<g><path style="opacity:1" fill="#191919" d="M 268.5,252.5 C 270.028,252.517 270.528,253.184 270,254.5C 255.524,275.021 243.524,297.021 234,320.5C 233.308,319.975 232.808,319.308 232.5,318.5C 242.478,295.197 254.478,273.197 268.5,252.5 Z"/></g>
<g><path style="opacity:1" fill="#e5e5e5" d="M 353.5,278.5 C 354.525,278.897 354.692,279.563 354,280.5C 345.832,290.157 339.165,300.824 334,312.5C 332.682,309.57 332.015,306.57 332,303.5C 339.174,295.135 346.341,286.802 353.5,278.5 Z"/></g>
<g><path style="opacity:1" fill="#d8d8d8" d="M 425.5,297.5 C 426.239,297.369 426.906,297.536 427.5,298C 426.448,301.619 424.115,302.952 420.5,302C 422.618,300.951 424.284,299.451 425.5,297.5 Z"/></g>
<g><path style="opacity:1" fill="#fcfcfc" d="M 184.5,461.5 C 182.82,464.013 180.653,466.013 178,467.5C 169.73,465.903 163.397,461.903 159,455.5C 174.731,440.094 191.898,426.594 210.5,415C 227.498,405.503 244.165,395.503 260.5,385C 267.271,380.293 273.604,375.126 279.5,369.5C 291.057,360.608 300.057,349.608 306.5,336.5C 313.425,327.732 320.592,319.065 328,310.5C 329.314,312.269 330.147,314.269 330.5,316.5C 313.948,351.605 299.615,387.605 287.5,424.5C 277.261,432.904 266.594,440.738 255.5,448C 246.058,454.054 236.058,459.054 225.5,463C 211.219,468.208 196.553,469.708 181.5,467.5C 183.038,465.757 184.038,463.757 184.5,461.5 Z"/></g>
<g><path style="opacity:1" fill="#ebebeb" d="M 330.5,321.5 C 331.75,321.577 332.583,322.244 333,323.5C 334.15,325.754 334.484,328.087 334,330.5C 317.63,362.905 302.63,395.905 289,429.5C 292.973,413.911 297.973,398.578 304,383.5C 312.547,362.686 321.38,342.02 330.5,321.5 Z"/></g>
<g><path style="opacity:1" fill="#525252" d="M 149.5,326.5 C 150.167,330.5 150.833,334.5 151.5,338.5C 151.162,340.854 150.662,343.187 150,345.5C 149.5,339.175 149.334,332.842 149.5,326.5 Z"/></g>
<g><path style="opacity:1" fill="#171717" d="M 305.5,335.5 C 306.167,335.5 306.5,335.833 306.5,336.5C 300.057,349.608 291.057,360.608 279.5,369.5C 279.5,368.833 279.167,368.5 278.5,368.5C 284.135,363.697 289.302,358.363 294,352.5C 296.51,349.801 298.176,346.801 299,343.5C 288.959,352.6 277.126,357.434 263.5,358C 246.462,366.456 228.962,367.622 211,361.5C 183.746,377.349 172.58,401.015 177.5,432.5C 177.167,432.5 176.833,432.5 176.5,432.5C 170.881,423.383 167.715,413.383 167,402.5C 168.109,377.849 168.776,353.182 169,328.5C 167.888,310.007 164.388,292.007 158.5,274.5C 158.263,273.209 158.596,272.209 159.5,271.5C 168.195,294.833 172.528,319 172.5,344C 170.838,359.972 169.505,375.972 168.5,392C 168.168,402.844 169.834,413.344 173.5,423.5C 173.783,424.289 174.283,424.956 175,425.5C 175.499,420.177 175.666,414.844 175.5,409.5C 176.649,395.205 182.149,382.871 192,372.5C 196.877,367.954 202.044,363.787 207.5,360C 198.61,352.457 192.11,343.29 188,332.5C 187.333,329.833 187.333,327.167 188,324.5C 192.888,318.056 196.721,311.056 199.5,303.5C 199.333,302.5 199.167,301.5 199,300.5C 196.96,298.63 195.127,296.63 193.5,294.5C 193.833,294.5 194.167,294.5 194.5,294.5C 196.63,296.127 198.63,297.96 200.5,300C 201.449,300.617 202.282,300.451 203,299.5C 207.455,290.134 211.122,280.467 214,270.5C 215.191,265.233 215.691,259.899 215.5,254.5C 208.159,254.666 200.826,254.5 193.5,254C 182.143,251.476 174.809,244.642 171.5,233.5C 171.453,232 172.119,231 173.5,230.5C 181.125,231.497 188.791,232.33 196.5,233C 200.169,234.355 203.835,235.355 207.5,236C 206.874,235.25 206.374,234.416 206,233.5C 200.283,228.186 193.45,225.52 185.5,225.5C 194.9,223.477 202.734,226.144 209,233.5C 217.881,246.418 219.881,260.418 215,275.5C 209.039,292.421 201.206,308.421 191.5,323.5C 200.103,323.541 208.769,323.708 217.5,324C 227.818,324.622 230.318,329.455 225,338.5C 218.848,345.149 211.348,349.483 202.5,351.5C 205.405,355.29 209.072,358.123 213.5,360C 227.932,363.571 242.265,363.238 256.5,359C 267.186,352.844 277.519,346.51 287.5,340C 281.741,345.762 275.408,350.762 268.5,355C 273.218,354.655 277.885,353.655 282.5,352C 291.161,347.832 298.828,342.332 305.5,335.5 Z"/></g>
<g><path style="opacity:1" fill="#f9f9f9" d="M 190.5,326.5 C 201.172,326.333 211.839,326.5 222.5,327C 226.32,330.275 226.487,333.775 223,337.5C 218.31,343.03 212.477,346.697 205.5,348.5C 194.586,345.372 189.586,338.039 190.5,326.5 Z"/></g>
<g><path style="opacity:1" fill="#f8f8f8" d="M 174.5,235.5 C 183.472,233.946 192.472,234.446 201.5,237C 207.361,240.028 211.694,244.528 214.5,250.5C 201.279,254.86 189.445,252.527 179,243.5C 177.726,240.609 176.226,237.942 174.5,235.5 Z"/></g>
<g><path style="opacity:1" fill="#fbfbfb" d="M 278.5,368.5 C 267.552,377.942 255.886,386.442 243.5,394C 221.855,405.487 201.188,418.487 181.5,433C 180.072,433.579 178.738,433.412 177.5,432.5C 172.58,401.015 183.746,377.349 211,361.5C 228.962,367.622 246.462,366.456 263.5,358C 277.126,357.434 288.959,352.6 299,343.5C 298.176,346.801 296.51,349.801 294,352.5C 289.302,358.363 284.135,363.697 278.5,368.5 Z"/></g>
<g><path style="opacity:1" fill="#626262" d="M 175.5,409.5 C 175.666,414.844 175.499,420.177 175,425.5C 174.283,424.956 173.783,424.289 173.5,423.5C 174.167,418.833 174.833,414.167 175.5,409.5 Z"/></g>
<g><path style="opacity:1" fill="#3f3f3f" d="M 207.5,438.5 C 209.281,435.954 211.614,434.454 214.5,434C 212.449,436.02 210.116,437.52 207.5,438.5 Z"/></g>
<g><path style="opacity:1" fill="#383838" d="M 207.5,438.5 C 206.738,440.262 205.404,441.262 203.5,441.5C 204.262,439.738 205.596,438.738 207.5,438.5 Z"/></g>
<g><path style="opacity:1" fill="#515151" d="M 203.5,441.5 C 198.833,446.833 193.833,451.833 188.5,456.5C 192.5,450.5 197.5,445.5 203.5,441.5 Z"/></g>
<g><path style="opacity:1" fill="#3b3b3b" d="M 188.5,456.5 C 187.92,458.749 186.587,460.415 184.5,461.5C 185.08,459.251 186.413,457.585 188.5,456.5 Z"/></g>
<g><path style="opacity:1" fill="#4f4f4f" d="M 173.5,479.5 C 174.621,481.089 174.454,482.756 173,484.5C 172.616,482.803 172.782,481.137 173.5,479.5 Z"/></g>
<g><path style="opacity:1" fill="#565656" d="M 168.5,518.5 C 171.307,527.726 173.807,537.06 176,546.5C 171.938,537.587 169.438,528.254 168.5,518.5 Z"/></g>
<g><path style="opacity:1" fill="#ffa9a9" d="M 10.5,542.5 C 9.56552,541.432 9.23219,540.099 9.5,538.5C 8.20895,538.737 7.20895,538.404 6.5,537.5C 4.40171,536.086 3.40171,536.752 3.5,539.5C 2.88258,539.389 2.38258,539.056 2,538.5C 0.423663,530.743 3.59033,527.576 11.5,529C 12.1078,530.231 12.4411,531.564 12.5,533C 11.1411,535.958 10.4744,539.124 10.5,542.5 Z"/></g>
<g><path style="opacity:1" fill="#ffecec" d="M 6.5,537.5 C 5.37023,535.685 4.70356,533.685 4.5,531.5C 6.5,531.5 8.5,531.5 10.5,531.5C 11.1128,534.969 9.77945,536.969 6.5,537.5 Z"/></g>
<g><path style="opacity:1" fill="#ff9998" d="M 22.5,540.5 C 24.2884,541.622 26.2884,541.789 28.5,541C 27.6634,539.989 27.33,538.822 27.5,537.5C 29.5,537.5 31.5,537.5 33.5,537.5C 33.8928,540.513 33.2261,543.18 31.5,545.5C 31.1667,545.5 30.8333,545.5 30.5,545.5C 27.4816,545.665 24.4816,545.498 21.5,545C 20.9473,543.122 19.9473,541.622 18.5,540.5C 17.3046,536.213 17.3046,531.88 18.5,527.5C 19.5,527.5 20.5,527.5 21.5,527.5C 21.1818,532.032 21.5151,536.366 22.5,540.5 Z"/></g>
<g><path style="opacity:1" fill="#ffcaca" d="M 31.5,545.5 C 33.2261,543.18 33.8928,540.513 33.5,537.5C 31.5,537.5 29.5,537.5 27.5,537.5C 27.33,538.822 27.6634,539.989 28.5,541C 26.2884,541.789 24.2884,541.622 22.5,540.5C 23.5,540.5 24.5,540.5 25.5,540.5C 25.33,539.178 25.6634,538.011 26.5,537C 29.146,536.503 31.8127,536.336 34.5,536.5C 34.6641,539.187 34.4974,541.854 34,544.5C 33.3292,545.252 32.4959,545.586 31.5,545.5 Z"/></g>
<g><path style="opacity:1" fill="#ff7e7d" d="M 6.5,537.5 C 7.20895,538.404 8.20895,538.737 9.5,538.5C 9.23219,540.099 9.56552,541.432 10.5,542.5C 11.9061,545.414 13.9061,547.914 16.5,550C 15.5,550.667 14.5,550.667 13.5,550C 9.93487,546.604 6.60153,543.104 3.5,539.5C 3.40171,536.752 4.40171,536.086 6.5,537.5 Z"/></g>
<g><path style="opacity:1" fill="#ffc6c5" d="M 18.5,540.5 C 19.9473,541.622 20.9473,543.122 21.5,545C 24.4816,545.498 27.4816,545.665 30.5,545.5C 27.3601,546.641 24.0267,546.808 20.5,546C 19.536,544.275 18.8693,542.441 18.5,540.5 Z"/></g>
</svg>
