<svg id="svg" xmlns="http://www.w3.org/2000/svg" xmlns:xlink="http://www.w3.org/1999/xlink" width="400" height="376.5633802816901" viewBox="0, 0, 400,376.5633802816901"><g id="svgg"><path id="path0" d="M15.355 0.245 C 10.923 1.598,8.729 4.978,7.890 11.752 C 6.345 24.222,7.019 32.774,10.052 39.154 C 10.597 40.300,11.041 41.314,11.039 41.408 C 11.038 41.501,9.846 42.229,8.392 43.024 C 0.152 47.532,-1.107 49.406,0.827 54.286 C 2.445 58.370,4.456 60.163,11.825 64.094 C 18.390 67.596,20.405 69.488,23.989 75.518 C 30.112 85.820,32.439 92.932,34.706 108.282 C 37.041 124.087,39.354 130.011,53.624 156.732 C 64.868 177.787,67.313 182.243,70.094 186.756 C 72.911 191.327,75.379 194.504,79.421 198.761 C 85.983 205.672,88.118 208.785,96.118 223.099 C 103.580 236.452,106.486 240.925,109.240 243.301 C 112.528 246.138,113.479 247.471,116.450 253.408 C 126.314 273.123,138.841 308.749,143.193 329.465 C 146.994 347.560,145.443 352.606,134.206 358.708 C 127.290 362.463,126.083 364.735,128.244 369.926 L 128.953 371.629 143.744 371.553 C 160.629 371.465,160.128 371.517,161.938 369.655 C 165.566 365.922,166.603 358.942,165.297 347.042 C 164.567 340.391,164.541 339.317,164.903 330.817 C 165.058 327.161,165.439 312.811,165.748 298.930 C 166.305 273.957,166.668 262.050,166.905 260.958 C 167.304 259.125,167.548 259.163,168.718 261.239 C 174.294 271.140,187.703 305.207,193.117 323.224 C 199.868 345.691,198.915 354.932,189.521 358.097 C 183.680 360.064,182.066 362.453,182.046 369.156 C 182.035 373.100,181.828 373.018,192.040 373.138 C 206.597 373.310,212.269 372.571,214.466 370.218 C 218.980 365.383,217.891 343.289,211.758 315.268 C 207.477 295.708,207.080 278.066,210.586 263.137 C 211.490 259.291,211.401 259.355,218.623 257.340 C 241.669 250.912,261.132 242.113,271.437 233.466 C 274.813 230.632,276.910 229.256,277.505 229.484 C 277.659 229.543,279.448 231.502,281.481 233.838 C 299.602 254.661,312.108 267.170,318.917 271.282 C 322.643 273.533,323.556 274.962,329.169 287.324 C 340.139 311.486,343.464 325.584,340.840 336.815 C 337.974 349.086,332.968 356.145,326.472 357.077 C 321.804 357.747,318.727 360.139,316.863 364.547 C 313.421 372.689,317.519 375.986,331.042 375.954 C 347.540 375.916,349.276 374.281,355.641 352.789 C 358.750 342.292,359.177 341.639,361.784 343.403 C 364.082 344.958,369.776 352.495,370.514 354.958 C 370.911 356.284,370.015 357.613,365.787 361.972 C 361.192 366.707,360.938 367.169,361.050 370.582 C 361.120 372.712,361.177 372.977,361.690 373.525 C 365.456 377.555,383.599 377.579,389.567 373.562 C 391.946 371.961,392.802 370.012,392.957 365.834 C 393.322 356.042,389.872 348.137,379.657 335.353 C 372.561 326.474,370.460 321.622,373.100 320.210 C 373.891 319.786,374.173 320.021,375.918 322.558 C 378.677 326.569,381.162 329.223,381.677 328.708 C 381.750 328.635,382.598 324.643,383.562 319.837 C 387.268 301.356,389.247 295.102,395.133 283.268 C 401.217 271.033,401.337 268.675,396.813 250.141 C 393.400 236.155,392.846 232.238,393.100 223.887 C 393.250 218.954,393.373 216.992,394.188 206.535 C 398.175 155.391,384.239 127.156,350.648 118.323 C 333.278 113.756,310.247 112.101,237.634 110.203 C 192.683 109.028,185.684 108.045,170.592 100.787 C 160.019 95.702,156.043 93.058,149.551 86.795 C 145.903 83.275,143.077 80.818,141.836 80.086 C 141.289 79.763,142.928 79.231,151.211 77.039 C 168.924 72.353,169.240 72.103,159.845 70.210 C 144.969 67.213,135.059 62.533,126.197 54.321 C 121.495 49.963,118.950 48.068,113.993 45.235 C 111.009 43.529,109.332 42.141,106.238 38.821 C 94.607 26.337,85.224 20.130,74.479 17.812 C 70.691 16.995,69.368 16.886,60.732 16.682 C 50.163 16.432,48.535 16.119,40.225 12.740 C 32.975 9.791,27.953 6.968,23.213 3.177 C 19.776 0.428,17.518 -0.414,15.355 0.245 M18.691 2.267 C 20.905 3.271,24.338 7.736,24.338 9.611 C 24.338 11.858,20.201 14.104,15.269 14.534 C 11.733 14.842,11.651 16.367,15.173 16.306 C 20.573 16.214,24.814 14.002,26.158 10.578 C 26.957 8.543,26.150 8.392,34.354 12.106 C 48.447 18.484,52.383 19.244,67.042 18.413 L 70.197 18.234 71.435 20.554 C 72.462 22.480,73.037 23.236,74.825 25.014 C 78.309 28.478,79.790 31.011,83.736 40.249 C 84.026 40.928,83.987 41.023,82.341 43.629 C 78.481 49.741,77.451 53.605,78.682 57.354 C 79.554 60.010,82.083 62.219,84.732 62.637 C 87.581 63.087,93.883 65.435,94.609 66.317 C 95.744 67.694,85.780 80.878,75.010 92.252 C 67.589 100.088,66.777 102.114,68.050 109.613 C 71.887 132.214,86.717 163.238,96.451 169.027 C 99.456 170.814,100.876 170.968,104.477 169.897 C 107.465 169.009,107.791 169.101,110.352 171.559 C 114.719 175.752,117.207 180.091,123.042 193.690 C 135.132 221.866,144.493 229.603,161.894 225.799 C 168.227 224.415,169.839 225.699,175.901 236.958 C 180.531 245.557,182.610 247.998,186.559 249.475 C 190.967 251.125,194.766 248.331,196.547 242.131 C 199.065 233.370,193.734 220.021,178.216 196.221 C 173.965 189.703,170.440 183.834,170.247 182.956 C 169.639 180.187,179.161 168.367,183.917 165.988 C 186.503 164.694,187.400 164.860,193.564 167.771 C 206.228 173.752,215.584 177.277,228.169 180.810 C 253.440 187.905,259.793 186.319,283.155 167.085 C 293.332 158.706,294.136 158.342,298.882 159.967 C 302.367 161.160,304.941 162.730,311.681 167.772 C 314.086 169.571,316.156 171.010,316.281 170.970 C 316.405 170.930,316.966 169.529,317.526 167.858 C 321.093 157.219,333.728 144.327,356.813 127.771 L 361.965 124.077 363.461 124.846 C 373.059 129.776,379.957 137.258,385.339 148.573 C 391.549 161.628,392.964 174.122,389.726 187.317 C 386.105 202.073,375.468 226.990,361.704 252.958 C 351.986 271.291,351.978 274.644,361.582 302.310 C 368.166 321.276,368.158 320.390,361.845 333.183 C 357.789 341.401,355.770 346.291,353.798 352.676 C 347.568 372.845,344.729 375.310,328.915 374.279 C 320.133 373.707,316.995 372.029,317.846 368.361 C 319.278 362.185,321.677 359.876,328.170 358.425 C 333.748 357.178,335.599 355.429,338.666 348.507 C 343.921 336.644,344.754 328.511,341.961 316.339 C 338.568 301.551,327.124 276.410,319.046 265.995 C 312.735 257.860,304.346 243.339,301.645 235.878 C 296.885 222.727,296.799 204.225,301.406 184.225 C 301.977 181.746,302.800 178.164,303.235 176.263 C 304.056 172.673,304.150 171.155,303.549 171.155 C 302.081 171.155,297.466 190.648,296.533 200.789 C 295.899 207.689,296.224 222.042,297.137 227.403 C 298.379 234.699,303.858 246.422,312.344 259.944 C 315.953 265.694,317.230 267.944,316.884 267.944 C 316.457 267.944,311.440 263.171,305.255 256.882 C 295.684 247.150,291.565 242.657,281.313 230.761 C 279.337 228.468,277.540 226.558,277.321 226.516 C 276.708 226.398,274.752 227.812,271.721 230.565 C 265.515 236.204,263.461 237.535,253.183 242.586 C 242.256 247.956,223.607 254.592,214.490 256.354 C 211.589 256.915,211.814 257.340,211.376 250.479 C 210.354 234.492,202.454 213.655,190.498 195.412 C 182.581 183.331,182.046 185.416,189.823 198.043 C 201.407 216.850,207.589 232.800,209.709 249.352 C 210.223 253.365,210.056 255.714,208.814 261.972 C 207.131 270.447,207.011 272.131,206.997 287.437 C 206.983 304.019,207.014 304.345,209.546 314.486 C 214.752 335.339,216.666 359.262,213.836 368.113 C 213.039 370.606,206.916 371.604,192.394 371.605 L 183.887 371.606 183.887 368.906 C 183.887 363.275,185.827 360.489,190.146 359.915 C 197.342 358.959,200.898 349.911,198.771 337.964 C 195.686 320.636,184.550 290.210,169.595 258.254 C 165.546 249.600,165.462 249.500,156.394 242.588 C 148.265 236.391,130.423 222.218,118.986 212.872 C 116.445 210.796,113.852 208.755,113.223 208.338 C 110.947 206.826,110.114 207.157,111.718 208.935 C 113.950 211.410,144.712 236.128,161.443 248.892 L 165.253 251.798 165.102 257.110 C 165.020 260.032,164.703 270.687,164.398 280.789 C 163.079 324.565,162.908 342.470,163.732 350.648 C 164.594 359.199,163.715 363.954,160.492 368.187 L 159.234 369.839 151.786 369.693 C 129.864 369.265,129.622 369.236,129.248 366.955 C 128.822 364.350,130.193 362.776,135.006 360.341 C 139.052 358.294,140.838 357.140,142.423 355.550 C 149.808 348.136,148.279 334.478,135.843 296.789 C 125.773 266.269,118.113 249.715,110.072 241.097 C 107.038 237.845,103.644 232.562,97.131 220.958 C 89.152 206.739,87.918 204.933,82.017 198.852 C 75.097 191.720,72.750 188.128,62.152 168.451 C 40.592 128.420,38.434 123.199,36.159 105.577 C 34.416 92.077,31.002 82.380,24.636 72.850 C 22.548 69.724,21.907 68.591,22.120 68.407 C 22.163 68.370,24.225 68.627,26.704 68.977 C 39.229 70.746,45.889 71.347,50.992 71.169 C 58.219 70.917,54.379 69.697,44.394 69.073 C 22.057 67.676,5.719 61.622,2.676 53.615 C 2.031 51.917,2.155 51.876,5.796 52.576 C 21.832 55.659,36.322 53.621,34.937 48.477 C 34.470 46.744,33.231 45.480,27.815 41.216 C 20.670 35.590,16.813 31.219,15.977 27.802 C 14.938 23.550,14.095 25.160,13.872 31.825 C 13.572 40.784,13.420 41.078,11.162 37.070 C 8.085 31.610,8.598 9.706,11.925 4.459 C 13.325 2.252,16.437 1.244,18.691 2.267 M76.249 19.964 C 81.257 21.259,87.448 24.586,92.731 28.820 C 97.387 32.552,106.272 41.134,105.676 41.325 C 105.498 41.382,104.372 41.597,103.174 41.802 C 99.364 42.455,99.350 42.976,103.117 43.859 C 112.659 46.094,116.061 47.921,124.281 55.222 C 133.618 63.515,139.382 66.705,150.986 70.003 C 157.586 71.878,158.915 72.326,158.810 72.639 C 158.339 74.053,134.807 78.908,121.014 80.436 C 112.055 81.429,109.322 81.969,110.310 82.551 C 111.166 83.056,121.456 82.841,128.492 82.171 C 137.346 81.328,139.740 81.408,142.482 82.637 C 143.848 83.249,144.372 83.758,146.633 86.665 C 153.032 94.893,175.482 106.877,188.620 109.077 C 197.979 110.644,214.640 111.538,261.972 113.012 C 319.938 114.819,338.104 116.417,355.123 121.207 C 360.234 122.646,360.054 123.177,352.691 128.397 C 334.027 141.630,324.071 151.469,317.520 163.156 C 316.374 165.201,315.397 166.917,315.349 166.970 C 315.165 167.175,313.410 166.161,308.956 163.279 C 302.209 158.911,300.675 158.218,296.676 157.737 C 292.431 157.226,291.795 157.544,283.606 164.290 C 263.007 181.257,254.902 184.599,240.901 181.899 C 227.428 179.299,211.128 173.848,196.173 166.939 C 187.794 163.067,186.198 162.761,182.839 164.373 C 177.666 166.856,169.720 176.699,168.439 182.209 L 168.148 183.461 169.180 185.524 C 169.748 186.658,171.956 190.177,174.087 193.343 C 187.366 213.076,195.443 229.603,195.457 237.070 C 195.464 241.111,192.959 246.920,190.783 247.909 C 186.559 249.827,182.700 246.109,176.620 234.263 C 171.248 223.797,170.968 223.633,160.052 224.563 C 154.859 225.005,150.499 225.018,149.161 224.595 C 142.917 222.622,135.673 214.883,129.725 203.831 C 127.987 200.602,126.958 198.347,123.714 190.648 C 118.143 177.431,112.298 168.850,108.058 167.662 C 107.071 167.386,106.775 167.416,104.014 168.076 C 99.082 169.256,98.766 169.163,95.098 165.445 C 89.218 159.484,82.945 148.528,77.336 134.423 C 72.385 121.972,70.343 114.099,69.394 103.805 L 69.148 101.130 73.397 96.819 C 83.094 86.980,90.142 78.302,94.746 70.535 C 98.036 64.983,97.707 64.500,88.676 61.636 C 80.909 59.174,80.008 58.271,80.287 53.228 C 80.489 49.566,81.359 47.675,84.532 43.996 L 86.246 42.008 84.377 37.340 C 81.650 30.530,80.382 28.347,76.523 23.815 C 72.842 19.494,72.812 19.075,76.249 19.964 M49.385 23.629 C 48.668 24.347,48.670 24.351,51.775 27.073 C 57.427 32.029,58.428 32.578,63.622 33.571 C 70.052 34.800,74.016 36.015,75.831 37.313 C 77.193 38.288,78.563 38.049,78.048 36.926 C 77.366 35.438,72.267 29.164,70.414 27.532 C 67.775 25.210,50.931 22.083,49.385 23.629 M58.016 25.693 C 65.421 26.745,70.029 28.818,72.187 32.069 C 73.533 34.097,73.575 34.067,70.606 33.203 C 69.142 32.777,66.625 32.177,65.014 31.870 C 63.403 31.562,61.559 31.206,60.917 31.079 C 59.338 30.766,57.522 29.525,55.216 27.181 L 53.306 25.239 54.089 25.243 C 54.521 25.245,56.287 25.447,58.016 25.693 M18.295 35.592 C 20.558 37.337,30.515 45.892,31.614 47.035 C 36.369 51.982,21.584 54.168,6.310 50.776 C 0.311 49.444,0.885 48.609,11.044 43.893 C 14.834 42.134,15.372 41.313,15.649 36.869 C 15.848 33.678,15.827 33.688,18.295 35.592 M104.776 50.242 C 102.527 50.924,102.652 52.686,104.904 52.056 C 108.059 51.172,110.590 52.913,120.789 62.985 C 130.089 72.170,130.171 72.228,133.859 72.204 C 138.766 72.171,139.256 70.707,134.488 70.325 C 130.759 70.027,130.565 69.886,121.690 61.039 C 111.158 50.540,108.785 49.025,104.776 50.242 M393.120 192.113 C 392.528 214.616,391.290 223.395,387.085 234.930 C 385.775 238.524,383.016 246.282,380.954 252.169 C 375.567 267.553,372.004 276.926,371.051 278.221 C 370.407 279.095,367.296 276.645,361.014 270.319 L 357.070 266.348 363.414 253.794 C 380.377 220.222,383.771 212.534,390.227 193.058 C 393.367 183.584,393.345 183.592,393.120 192.113 M391.410 235.437 C 391.826 237.513,393.262 243.623,394.602 249.014 C 399.647 269.324,399.628 269.588,391.817 286.096 C 387.788 294.611,386.631 298.145,382.825 313.577 C 381.327 319.651,380.029 324.702,379.940 324.803 C 379.567 325.230,374.786 316.458,372.164 310.535 C 367.768 300.607,357.503 271.605,358.155 270.953 C 358.266 270.842,359.611 272.042,363.697 275.901 C 368.235 280.186,371.429 281.677,372.807 280.154 C 373.265 279.648,375.090 274.664,381.031 257.690 C 388.025 237.706,390.227 231.662,390.511 231.662 C 390.589 231.662,390.993 233.361,391.410 235.437 M357.062 276.113 C 357.474 277.011,358.994 281.144,360.439 285.296 C 365.181 298.927,369.812 310.770,371.958 314.758 C 373.245 317.149,373.241 317.602,371.926 318.883 C 368.926 321.803,369.247 324.115,373.534 330.479 C 375.203 332.956,375.489 333.326,379.289 337.915 C 386.765 346.942,389.761 352.975,390.560 360.612 C 391.780 372.263,389.194 374.327,373.408 374.301 C 364.810 374.288,363.025 373.546,362.968 369.963 C 362.931 367.621,363.334 367.076,369.244 361.465 C 374.716 356.270,374.061 353.746,364.642 343.733 L 360.787 339.635 363.892 333.367 C 369.878 321.284,369.895 320.119,364.324 304.113 C 359.264 289.573,356.781 280.937,356.176 275.775 C 355.976 274.072,356.155 274.140,357.062 276.113 " stroke="none" fill="#000000" fill-rule="evenodd"></path></g></svg>