<svg id="svg" xmlns="http://www.w3.org/2000/svg" xmlns:xlink="http://www.w3.org/1999/xlink" width="400" height="380.95238095238096" viewBox="0, 0, 400,380.95238095238096"><g id="svgg"><path id="path0" d="M195.827 26.509 C 193.732 30.393,187.683 41.714,182.384 51.667 C 170.702 73.610,170.979 73.164,168.245 74.374 C 164.763 75.914,163.062 75.388,150.059 68.747 C 143.675 65.486,138.338 62.932,138.200 63.070 C 138.062 63.208,141.413 81.806,145.648 104.399 C 149.883 126.991,153.343 146.012,153.338 146.667 C 153.304 150.876,151.140 153.810,148.070 153.810 C 143.872 153.810,144.904 154.814,117.857 124.384 C 108.530 113.891,105.877 111.167,105.606 111.805 C 105.415 112.253,104.046 116.905,102.562 122.143 C 99.150 134.191,98.315 135.420,93.571 135.373 C 92.138 135.359,55.626 127.942,49.210 126.362 C 48.017 126.068,47.157 122.490,56.374 156.151 C 59.416 167.260,61.905 177.161,61.905 178.152 C 61.905 182.058,61.172 182.573,45.264 189.840 L 41.719 191.459 42.883 192.578 C 43.524 193.193,53.905 201.713,65.952 211.510 C 125.345 259.808,120.044 255.197,121.015 259.403 C 121.600 261.938,121.600 261.938,115.990 280.407 L 114.348 285.813 116.341 285.524 C 118.254 285.246,149.364 281.648,177.442 278.459 C 192.133 276.790,192.997 276.839,193.643 279.389 C 193.998 280.790,193.652 288.122,191.433 326.190 C 190.678 339.155,189.910 352.494,189.727 355.833 L 189.395 361.905 199.697 361.905 L 210.000 361.905 210.000 360.075 C 210.000 359.069,209.472 349.266,208.826 338.290 C 205.087 274.765,205.194 278.789,207.219 277.656 C 208.705 276.825,205.248 276.498,252.353 281.932 C 270.278 284.000,284.980 285.643,285.026 285.584 C 285.071 285.525,283.753 281.083,282.098 275.714 C 278.025 262.507,277.799 261.438,278.550 258.929 C 279.567 255.526,280.194 254.959,307.477 232.742 C 322.033 220.888,339.206 206.905,345.638 201.667 C 352.071 196.429,357.344 191.955,357.357 191.726 C 357.370 191.496,353.236 189.353,348.171 186.964 C 335.062 180.780,335.385 184.143,344.673 150.476 C 348.322 137.250,351.263 126.375,351.209 126.309 C 351.155 126.244,340.980 128.335,328.599 130.957 C 298.979 137.228,301.399 137.906,296.944 122.093 C 295.402 116.620,294.013 111.891,293.856 111.582 C 293.693 111.261,286.975 118.440,278.095 128.426 C 254.506 154.955,255.699 153.810,251.651 153.810 C 249.244 153.810,248.152 153.084,247.113 150.795 C 245.733 147.756,245.680 148.122,253.876 104.399 C 258.111 81.807,261.457 63.203,261.311 63.057 C 261.165 62.911,256.471 65.173,250.880 68.083 C 236.317 75.663,233.869 76.312,229.908 73.642 C 228.308 72.564,228.398 72.724,208.263 35.000 C 203.929 26.881,200.216 20.060,200.010 19.842 C 199.804 19.624,197.922 22.624,195.827 26.509 " stroke="none" fill="#000000" fill-rule="evenodd"></path></g></svg>