<svg id="svg" xmlns="http://www.w3.org/2000/svg" xmlns:xlink="http://www.w3.org/1999/xlink" width="400" height="400" viewBox="0, 0, 400,400"><g id="svgg"><path id="path0" d="M182.725 55.054 C 173.486 68.635,163.632 83.115,160.829 87.231 C 154.443 96.609,157.366 96.210,132.098 91.145 C 120.198 88.760,110.154 86.928,109.778 87.075 C 109.402 87.222,112.076 97.405,115.721 109.705 C 133.842 170.856,136.905 181.520,136.475 181.950 C 136.219 182.206,124.110 174.397,109.566 164.597 L 83.122 146.779 82.895 164.331 L 82.668 181.883 57.157 184.715 C 43.126 186.273,30.266 187.786,28.579 188.077 L 25.512 188.608 44.402 208.251 C 54.791 219.055,63.291 228.177,63.291 228.522 C 63.291 228.867,56.253 234.413,47.651 240.847 C 39.049 247.281,32.165 252.699,32.352 252.886 C 32.540 253.074,49.356 258.353,69.722 264.617 C 115.464 278.687,112.320 277.664,111.902 278.338 C 111.709 278.649,103.553 283.820,93.777 289.830 C 84.001 295.839,76.100 300.854,76.219 300.973 C 76.339 301.093,84.396 302.002,94.125 302.994 C 103.854 303.985,111.954 304.933,112.125 305.100 C 112.296 305.267,107.881 313.302,102.312 322.955 C 91.231 342.166,91.567 341.378,95.031 340.018 C 114.546 332.356,141.004 322.659,141.241 323.082 C 141.408 323.383,142.229 329.800,143.064 337.342 C 143.900 344.884,144.813 351.055,145.094 351.055 C 145.375 351.055,154.521 340.840,165.418 328.356 C 176.316 315.871,185.348 306.151,185.489 306.756 C 185.723 307.753,183.319 326.111,178.880 357.241 C 177.964 363.660,177.215 369.261,177.215 369.688 C 177.215 370.141,186.725 370.464,200.074 370.464 L 222.933 370.464 222.437 367.300 C 220.749 356.547,214.294 306.921,214.508 306.349 C 214.651 305.968,223.684 315.871,234.582 328.356 C 245.479 340.840,254.625 351.055,254.906 351.055 C 255.187 351.055,256.097 344.884,256.928 337.342 C 257.759 329.800,258.676 323.396,258.966 323.111 C 259.256 322.827,269.747 326.523,282.278 331.324 C 311.308 342.447,308.660 341.613,307.024 339.117 C 303.938 334.406,287.592 305.377,287.876 305.110 C 288.046 304.949,296.144 304.004,305.870 303.009 C 315.596 302.014,323.645 301.109,323.756 300.997 C 323.868 300.886,315.971 295.874,306.209 289.860 C 296.447 283.845,288.295 278.658,288.094 278.333 C 287.708 277.708,289.644 277.085,336.287 262.819 C 352.532 257.851,366.303 253.533,366.890 253.224 C 367.555 252.873,362.083 248.242,352.333 240.903 C 343.740 234.436,336.709 228.863,336.709 228.519 C 336.709 228.176,345.212 219.055,355.604 208.251 C 371.299 191.935,374.193 188.554,372.693 188.291 C 371.699 188.117,358.924 186.598,344.304 184.916 L 317.722 181.857 317.300 164.314 L 316.878 146.772 290.420 164.579 C 275.868 174.374,263.779 182.204,263.555 181.980 C 263.073 181.498,264.678 175.839,278.898 127.848 C 284.812 107.890,289.959 90.517,290.336 89.241 C 291.211 86.277,292.808 86.141,267.932 91.139 C 256.382 93.460,246.455 95.359,245.873 95.359 C 245.292 95.359,239.764 87.950,233.589 78.894 C 227.415 69.839,217.505 55.314,211.569 46.616 C 205.632 37.918,200.493 30.703,200.149 30.582 C 199.806 30.461,191.965 41.473,182.725 55.054 M212.307 68.801 C 228.518 92.715,238.504 107.196,239.410 108.102 C 239.867 108.559,246.922 107.507,256.939 105.490 C 266.159 103.633,273.784 102.207,273.883 102.322 C 273.982 102.438,266.887 126.798,258.117 156.458 C 249.346 186.117,242.297 210.511,242.452 210.666 C 242.607 210.821,256.853 201.449,274.109 189.840 L 305.485 168.733 305.485 180.569 C 305.485 187.079,305.770 192.410,306.118 192.415 C 308.078 192.446,348.750 197.414,348.987 197.651 C 349.144 197.808,345.224 202.103,340.277 207.196 C 335.329 212.289,328.316 219.511,324.691 223.246 L 318.101 230.036 329.924 238.857 C 336.427 243.709,341.753 247.905,341.760 248.181 C 341.766 248.457,323.449 254.301,301.055 261.169 C 278.660 268.037,260.061 273.898,259.723 274.193 C 259.385 274.489,265.565 278.696,273.455 283.542 C 289.560 293.435,289.472 293.132,276.546 294.101 C 272.041 294.439,268.354 294.941,268.354 295.216 C 268.354 295.491,271.013 300.328,274.262 305.965 C 277.511 311.601,280.169 316.594,280.169 317.060 C 280.169 317.526,273.299 315.301,264.902 312.116 C 247.150 305.382,248.463 305.225,247.718 314.174 C 247.396 318.038,246.843 321.667,246.490 322.239 C 246.067 322.923,238.089 314.349,223.135 297.141 C 210.643 282.765,200.232 271.004,200.000 271.005 C 199.768 271.006,189.374 282.746,176.902 297.094 C 164.431 311.441,153.928 322.996,153.563 322.770 C 153.198 322.545,152.630 318.753,152.299 314.345 C 151.968 309.936,151.357 306.329,150.940 306.329 C 150.523 306.329,143.353 308.938,135.007 312.127 C 126.660 315.317,119.831 317.544,119.831 317.077 C 119.831 316.610,122.278 312.007,125.269 306.848 C 132.973 293.562,133.148 294.828,123.504 294.105 C 111.214 293.184,111.172 293.110,119.847 287.761 C 138.682 276.146,141.301 274.352,140.071 273.900 C 138.039 273.154,59.002 248.945,58.598 248.945 C 57.033 248.945,59.797 246.513,70.018 238.893 L 81.803 230.106 66.199 213.865 L 50.594 197.623 53.778 197.122 C 56.342 196.717,93.360 192.405,94.265 192.405 C 94.402 192.405,94.515 187.278,94.515 181.013 C 94.515 174.747,94.806 169.620,95.162 169.620 C 95.519 169.620,109.636 178.920,126.535 190.287 C 143.434 201.653,157.400 210.814,157.570 210.644 C 157.740 210.474,155.233 201.459,151.999 190.610 C 148.765 179.762,141.705 155.915,136.310 137.617 C 130.915 119.319,126.323 104.060,126.106 103.709 C 125.146 102.156,128.003 102.462,143.432 105.566 C 156.533 108.201,160.048 108.655,160.839 107.810 C 161.883 106.695,170.447 94.254,188.544 67.563 C 194.543 58.716,199.702 51.477,200.007 51.477 C 200.313 51.477,205.848 59.273,212.307 68.801 M201.946 304.008 C 202.748 310.158,204.724 324.873,206.337 336.709 C 207.950 348.544,209.272 358.323,209.276 358.439 C 209.280 358.555,205.058 358.650,199.895 358.650 L 190.506 358.650 190.948 356.329 C 191.191 355.053,193.232 340.243,195.484 323.419 C 197.736 306.595,199.783 292.829,200.033 292.828 C 200.283 292.827,201.144 297.859,201.946 304.008 " stroke="none" fill="#000000" fill-rule="evenodd"></path></g></svg>