<svg id="svg" xmlns="http://www.w3.org/2000/svg" xmlns:xlink="http://www.w3.org/1999/xlink" width="400" height="483.1168831168831" viewBox="0, 0, 400,483.1168831168831"><g id="svgg"><path id="path0" d="M247.619 13.901 C 244.921 14.479,241.736 14.964,240.543 14.980 C 239.061 14.998,236.244 16.104,231.652 18.470 C 222.833 23.014,220.093 23.073,218.257 18.759 C 216.773 15.274,214.501 14.154,208.680 14.037 C 205.811 13.979,200.976 13.749,197.935 13.525 C 191.803 13.073,189.082 13.665,178.653 17.719 C 174.621 19.286,173.246 19.596,172.470 19.111 C 171.717 18.641,171.536 18.663,171.736 19.200 C 172.012 19.942,163.321 24.396,160.264 25.079 C 158.403 25.495,148.811 30.773,147.882 31.892 C 147.547 32.295,146.694 34.181,145.986 36.082 C 144.606 39.791,144.001 40.470,134.670 48.773 C 131.066 51.981,127.099 54.879,124.301 56.349 C 120.743 58.218,119.202 59.458,117.129 62.121 C 115.353 64.404,113.277 66.213,110.780 67.655 C 108.740 68.833,105.642 71.330,103.896 73.203 C 102.150 75.076,99.683 77.212,98.413 77.948 C 97.143 78.684,94.935 80.241,93.506 81.406 C 90.251 84.063,86.726 86.279,84.848 86.850 C 84.055 87.092,82.098 88.265,80.499 89.457 C 78.901 90.649,76.563 92.155,75.305 92.804 C 67.520 96.814,60.029 115.551,60.029 131.015 C 60.029 139.171,59.593 140.786,56.445 144.289 C 55.083 145.804,53.525 147.695,52.983 148.489 C 52.413 149.326,51.198 150.086,50.097 150.294 C 49.052 150.492,47.040 151.420,45.628 152.358 C 42.551 154.400,41.843 154.046,41.300 150.198 C 40.712 146.035,40.437 145.455,39.051 145.455 C 34.012 145.455,32.297 152.752,34.303 165.657 C 34.939 169.746,34.937 170.851,34.292 172.294 C 31.301 178.986,32.087 192.258,35.625 194.805 C 38.622 196.963,40.688 199.556,42.893 203.926 L 45.093 208.287 43.607 210.532 C 40.773 214.814,38.362 232.567,40.020 236.948 C 40.511 238.246,41.010 242.018,41.165 245.599 C 41.590 255.470,43.874 260.307,48.114 260.315 C 49.470 260.317,49.683 260.497,49.314 261.328 C 46.670 267.273,45.964 270.841,46.645 274.813 C 47.022 277.011,47.330 279.499,47.330 280.343 C 47.330 282.059,51.369 290.760,53.510 293.656 C 55.225 295.975,58.064 297.433,62.748 298.399 C 66.868 299.248,67.736 300.009,68.694 303.608 C 70.029 308.624,70.613 309.223,77.164 312.289 C 84.210 315.588,83.694 315.442,83.694 314.141 C 83.694 313.586,82.720 312.260,81.530 311.195 C 79.651 309.513,79.594 309.395,81.097 310.300 C 82.049 310.873,83.941 311.937,85.301 312.664 C 86.661 313.391,89.157 315.402,90.848 317.135 C 96.086 322.500,99.819 321.800,103.563 314.748 C 106.197 309.789,106.282 307.337,103.901 305.055 C 102.087 303.317,97.137 302.848,95.442 304.255 C 93.028 306.259,86.294 304.110,83.966 300.593 C 82.086 297.751,81.958 297.825,87.157 298.746 C 92.230 299.644,93.715 299.403,93.195 297.765 C 92.330 295.038,93.444 292.270,95.416 292.246 C 96.429 292.234,98.413 291.884,99.825 291.467 L 102.392 290.711 105.042 293.669 C 107.824 296.775,111.708 298.956,114.496 298.977 C 117.800 299.003,124.675 304.031,124.675 306.422 C 124.675 307.768,120.942 309.395,112.687 311.647 C 110.647 312.203,109.858 312.866,108.118 315.487 C 106.349 318.152,105.275 319.040,101.362 321.076 C 98.803 322.407,95.923 324.180,94.963 325.016 C 92.515 327.147,90.492 328.047,84.762 329.555 L 79.770 330.869 73.218 329.541 C 61.950 327.256,56.310 327.706,52.708 331.176 C 51.381 332.455,48.783 334.192,46.936 335.036 C 45.090 335.880,42.799 337.308,41.847 338.210 C 40.895 339.112,38.687 340.558,36.941 341.423 C 35.195 342.289,32.322 344.365,30.558 346.037 C 28.213 348.259,26.445 349.363,23.995 350.135 C 21.152 351.031,20.058 351.821,16.814 355.320 C 14.709 357.590,12.207 359.844,11.254 360.328 C 10.301 360.813,9.043 361.738,8.458 362.384 C 7.873 363.030,7.095 363.443,6.728 363.302 C 5.887 362.980,5.786 366.071,6.618 366.645 C 7.019 366.922,7.264 383.577,7.363 417.439 C 7.480 457.274,7.661 467.778,8.229 467.615 C 9.072 467.374,9.976 467.387,17.454 467.752 C 23.477 468.045,28.490 468.868,31.746 470.097 C 33.255 470.666,38.805 470.887,53.680 470.969 C 79.424 471.111,77.768 471.120,89.339 470.774 C 104.564 470.317,128.398 470.746,165.003 472.133 C 185.121 472.895,196.143 472.609,219.625 470.715 C 234.035 469.552,237.075 469.575,237.409 470.851 C 237.621 471.662,237.686 471.621,237.740 470.646 C 237.816 469.263,261.473 467.880,262.775 469.182 C 263.170 469.577,263.598 469.529,264.094 469.033 C 265.279 467.848,330.901 467.365,362.416 468.308 L 373.029 468.626 372.751 455.648 C 372.599 448.510,372.640 442.567,372.844 442.442 C 373.047 442.316,372.961 440.226,372.654 437.797 C 372.207 434.274,372.249 433.285,372.863 432.906 C 373.498 432.513,373.502 432.115,372.887 430.628 C 372.294 429.196,372.226 423.933,372.556 405.033 C 372.857 387.777,372.759 377.356,372.200 367.100 C 371.274 350.127,371.318 313.668,372.272 306.917 C 372.972 301.970,373.168 295.315,372.952 283.909 C 372.864 279.244,373.184 275.128,374.003 270.414 C 375.911 259.423,376.169 259.962,368.195 258.285 C 366.085 257.841,363.481 256.973,362.410 256.356 C 361.338 255.739,359.636 255.063,358.626 254.853 C 357.616 254.643,356.480 254.098,356.102 253.643 C 355.724 253.187,355.056 252.814,354.619 252.814 C 354.182 252.814,353.824 252.539,353.824 252.203 C 353.824 251.866,353.558 251.755,353.234 251.956 C 352.909 252.157,351.416 251.935,349.915 251.464 C 348.414 250.993,346.461 250.447,345.575 250.251 C 344.123 249.929,344.051 249.806,344.853 249.004 C 345.343 248.514,345.743 247.535,345.743 246.827 C 345.743 246.120,346.045 245.239,346.415 244.870 C 347.645 243.639,347.055 240.055,345.324 238.243 C 344.443 237.322,343.723 236.002,343.723 235.311 C 343.723 233.102,340.378 232.762,333.772 234.301 C 321.478 237.165,315.152 237.876,315.152 236.394 C 315.152 231.507,322.881 228.213,332.529 228.987 C 337.898 229.418,339.592 228.438,340.828 224.189 C 342.309 219.094,340.455 217.467,336.384 220.288 C 333.802 222.077,332.521 221.521,335.034 219.702 C 338.460 217.222,339.510 215.733,339.140 213.882 C 338.640 211.382,338.075 211.048,333.892 210.781 C 330.251 210.550,329.491 209.816,330.974 207.963 C 331.026 207.898,333.362 207.065,336.165 206.111 C 340.419 204.665,341.604 203.978,343.330 201.962 C 344.467 200.633,347.044 198.187,349.056 196.528 C 353.621 192.763,357.287 187.958,357.287 185.742 C 357.287 181.896,351.609 182.366,350.304 186.319 C 349.406 189.039,344.902 193.833,341.991 195.166 C 335.524 198.127,333.205 193.990,339.497 190.716 C 340.348 190.274,341.192 189.454,341.374 188.895 C 341.556 188.336,343.062 187.359,344.720 186.724 C 350.135 184.651,349.286 178.524,342.667 171.905 C 341.767 171.005,340.400 169.082,339.629 167.631 C 338.858 166.181,337.415 164.311,336.423 163.476 C 334.006 161.443,333.047 158.922,333.032 154.564 C 333.018 150.497,331.430 146.208,329.750 145.703 C 326.756 144.801,325.823 143.928,325.451 141.681 C 325.242 140.423,324.536 137.446,323.882 135.065 C 323.227 132.684,322.149 127.229,321.485 122.944 C 319.847 112.358,319.769 112.176,315.388 108.543 C 311.354 105.199,309.108 101.724,309.536 99.488 C 309.824 97.978,309.120 97.618,308.589 99.003 C 307.840 100.953,310.848 105.829,314.794 109.063 C 319.089 112.584,319.128 112.673,320.623 122.367 C 323.114 138.518,325.218 145.188,328.054 145.923 C 330.812 146.638,331.957 149.179,332.448 155.677 L 332.868 161.226 335.302 163.497 C 336.641 164.746,338.523 167.236,339.486 169.031 C 340.448 170.826,341.814 172.944,342.522 173.737 C 348.292 180.204,348.632 184.237,343.562 186.069 C 341.774 186.715,340.446 187.582,340.237 188.240 C 340.046 188.842,339.193 189.698,338.343 190.142 C 337.492 190.587,336.029 191.757,335.091 192.744 L 333.386 194.537 334.675 195.826 C 338.396 199.546,349.816 193.434,351.238 186.961 C 351.896 183.967,356.133 183.076,356.133 185.931 C 356.133 187.526,352.104 192.794,349.309 194.853 C 348.141 195.713,345.608 198.074,343.679 200.099 C 340.525 203.411,339.684 203.946,335.310 205.423 C 330.575 207.022,329.040 208.268,329.013 210.534 C 329.003 211.396,328.975 211.390,333.265 211.521 C 339.084 211.700,339.875 214.669,335.068 218.295 C 331.609 220.906,331.444 221.256,333.281 222.093 C 334.480 222.640,335.027 222.520,336.785 221.327 C 340.315 218.932,341.043 219.648,339.716 224.213 C 338.604 228.040,338.500 228.080,329.228 228.278 C 321.035 228.453,317.604 229.648,315.297 233.130 C 311.563 238.766,316.430 239.327,333.597 235.241 C 340.203 233.668,342.118 233.784,342.620 235.787 C 342.802 236.511,343.709 237.829,344.635 238.717 C 346.368 240.377,346.816 242.629,345.805 244.597 C 345.522 245.148,345.008 246.313,344.663 247.186 C 344.230 248.282,343.621 248.773,342.696 248.773 C 341.959 248.773,341.110 249.016,340.808 249.312 C 340.469 249.645,338.423 249.614,335.442 249.230 L 330.624 248.610 327.367 251.866 C 323.491 255.743,324.035 256.221,328.114 252.523 C 332.808 248.267,339.541 248.799,336.212 253.163 C 334.420 255.513,333.263 256.034,327.064 257.284 C 323.312 258.040,322.202 258.532,320.656 260.124 C 319.628 261.183,318.374 262.049,317.869 262.049 C 315.116 262.049,316.242 265.174,319.516 266.623 C 323.181 268.244,322.492 270.222,318.218 270.354 C 316.384 270.410,315.863 270.098,314.214 267.955 L 312.318 265.491 311.594 267.907 C 311.008 269.865,310.154 270.848,307.095 273.088 C 304.594 274.919,302.794 276.796,301.766 278.643 C 299.487 282.737,288.268 289.752,283.992 289.756 C 283.193 289.757,280.981 290.698,279.076 291.846 C 272.482 295.824,261.304 298.482,256.135 297.302 C 253.724 296.752,253.266 296.806,252.319 297.753 C 249.772 300.300,241.601 300.613,238.631 298.277 L 237.093 297.067 233.554 298.202 C 230.381 299.219,229.685 299.259,226.840 298.587 C 220.404 297.069,220.001 297.435,217.882 306.727 C 215.857 315.605,212.976 321.074,209.235 323.138 C 208.600 323.488,208.367 323.782,208.717 323.792 C 211.793 323.877,215.366 318.449,217.636 310.243 C 218.338 307.705,219.366 304.069,219.920 302.165 L 220.928 298.701 223.894 298.864 C 225.526 298.953,227.537 299.284,228.364 299.598 C 229.515 300.036,230.661 299.887,233.261 298.964 L 236.655 297.759 238.530 299.096 C 240.898 300.786,247.077 300.870,251.082 299.268 C 252.692 298.624,254.912 298.270,256.919 298.338 C 263.651 298.564,273.861 295.973,279.214 292.679 C 280.852 291.671,283.139 290.692,284.296 290.505 C 289.809 289.610,300.150 283.337,302.191 279.648 C 303.607 277.091,304.955 275.614,307.385 273.959 C 309.190 272.729,311.091 270.977,311.610 270.065 C 312.761 268.042,312.876 268.033,314.574 269.841 C 316.304 271.682,319.543 271.794,321.711 270.088 C 323.896 268.370,323.611 267.549,320.346 266.144 C 317.385 264.871,316.200 262.626,318.488 262.626 C 319.053 262.626,320.373 261.717,321.421 260.606 C 322.469 259.495,323.889 258.572,324.578 258.555 C 329.190 258.440,335.249 255.965,337.216 253.391 C 339.997 249.752,346.271 250.042,355.267 254.224 C 362.250 257.470,365.343 258.635,369.238 259.488 C 374.754 260.695,374.820 260.951,372.542 272.314 C 372.016 274.936,371.748 279.171,371.829 283.569 C 372.031 294.518,371.809 302.393,371.184 306.494 C 370.184 313.056,369.787 344.485,370.576 354.690 C 371.725 369.541,371.858 429.437,370.743 429.437 C 369.829 429.437,366.522 426.225,366.522 425.337 C 366.522 423.603,362.567 416.869,360.334 414.802 C 355.645 410.462,348.689 398.920,346.633 392.067 C 346.398 391.282,344.722 389.882,342.383 388.516 C 337.260 385.524,336.896 385.049,334.577 378.343 C 330.645 366.968,329.608 364.584,327.760 362.678 C 326.733 361.618,325.575 360.750,325.187 360.750 C 324.799 360.750,323.151 360.082,321.525 359.265 C 316.066 356.523,307.579 354.828,301.136 355.191 C 298.031 355.366,294.135 355.278,292.478 354.995 C 290.821 354.712,286.349 354.060,282.540 353.546 C 278.730 353.032,274.055 352.376,272.150 352.087 C 270.245 351.799,265.051 351.404,260.606 351.209 C 256.162 351.015,251.616 350.782,250.505 350.693 C 247.210 350.427,238.525 351.467,232.035 352.906 C 211.675 357.420,181.875 360.291,180.387 357.883 C 179.080 355.768,180.809 354.969,186.071 355.257 C 195.736 355.785,206.632 354.720,215.296 352.401 C 234.108 347.366,233.912 347.389,258.297 347.241 C 270.361 347.167,281.659 347.314,283.405 347.566 C 285.152 347.818,292.035 348.555,298.701 349.203 C 313.126 350.604,321.495 352.833,323.432 355.789 C 323.873 356.463,326.239 358.031,328.690 359.275 C 333.933 361.937,336.268 364.504,335.668 366.949 C 335.302 368.444,335.329 368.473,336.111 367.421 C 336.906 366.350,336.963 366.384,337.351 368.151 C 337.575 369.170,338.840 371.277,340.163 372.833 C 341.486 374.390,343.196 377.308,343.963 379.318 C 344.730 381.328,345.947 383.882,346.667 384.993 C 347.387 386.104,349.056 389.740,350.376 393.074 C 353.840 401.826,356.878 407.117,361.695 412.791 C 364.030 415.541,366.875 419.632,368.018 421.882 C 369.162 424.133,370.353 425.974,370.667 425.974 C 370.980 425.974,371.136 425.779,371.014 425.541 C 370.891 425.303,369.974 423.391,368.976 421.293 C 367.978 419.195,365.265 415.264,362.946 412.558 C 357.963 406.741,355.308 402.177,351.447 392.785 C 349.880 388.975,348.134 385.209,347.566 384.416 C 346.998 383.622,345.812 381.154,344.931 378.932 C 344.050 376.710,342.215 373.535,340.852 371.877 C 337.074 367.280,336.969 365.457,340.241 361.292 C 344.027 356.472,345.998 351.847,348.599 341.678 C 349.854 336.771,351.946 329.639,353.249 325.830 C 354.551 322.020,356.243 316.117,357.007 312.712 C 357.979 308.384,359.108 305.225,360.759 302.217 C 362.356 299.306,363.190 297.013,363.333 295.133 C 363.449 293.603,363.832 291.602,364.184 290.685 C 364.535 289.768,364.704 288.898,364.559 288.753 C 364.275 288.469,362.321 294.508,361.620 297.835 C 361.386 298.947,360.334 301.414,359.282 303.319 C 358.079 305.498,357.035 308.562,356.468 311.582 C 355.971 314.223,354.151 320.716,352.423 326.012 C 350.695 331.309,348.378 339.177,347.273 343.497 C 345.071 352.112,343.089 356.567,339.405 361.183 C 336.627 364.664,336.410 364.745,335.322 362.712 C 334.821 361.775,332.850 360.372,330.074 358.976 C 327.629 357.747,324.895 355.978,323.998 355.046 C 320.895 351.822,312.473 349.504,300.433 348.560 C 291.501 347.860,289.995 347.699,283.405 346.745 C 279.326 346.154,275.262 346.061,267.532 346.380 C 261.818 346.616,252.987 346.665,247.908 346.490 C 237.540 346.132,233.668 346.704,217.605 350.963 C 206.251 353.974,203.187 354.388,191.949 354.432 C 179.639 354.481,179.152 354.006,186.775 349.385 C 192.941 345.647,194.228 342.976,194.228 333.911 C 194.228 325.683,194.018 326.095,199.673 323.252 C 203.189 321.484,204.368 320.565,205.101 319.019 C 206.456 316.164,207.393 311.274,207.022 308.991 C 206.575 306.234,208.228 302.855,211.982 298.852 C 215.826 294.754,219.040 285.660,219.858 276.566 C 220.649 267.768,219.634 264.996,213.481 259.163 C 210.383 256.226,208.736 254.190,208.358 252.831 L 207.800 250.829 209.659 253.120 C 215.471 260.283,218.938 261.455,232.900 260.974 C 241.787 260.668,250.639 253.293,254.819 242.713 C 257.100 236.940,258.375 234.585,260.536 232.153 C 263.355 228.981,267.419 220.100,268.647 214.430 C 268.853 213.478,269.943 210.750,271.070 208.369 C 273.130 204.015,273.736 202.827,277.057 196.621 C 279.752 191.585,281.100 183.612,281.157 172.368 C 281.212 161.507,280.628 159.922,277.778 163.191 C 273.059 168.602,257.622 168.837,254.955 163.538 C 252.517 158.693,253.542 156.806,256.978 159.811 C 264.216 166.140,269.362 166.401,274.079 160.678 C 276.843 157.326,276.490 156.159,273.226 157.861 C 271.337 158.846,268.975 159.008,268.975 158.153 C 268.975 157.835,269.226 157.576,269.532 157.576 C 270.679 157.576,271.390 155.247,270.779 153.494 C 270.237 151.939,270.330 151.730,271.938 150.898 C 273.097 150.299,273.574 149.699,273.351 149.120 C 273.167 148.639,273.016 148.013,273.016 147.728 C 273.016 144.493,256.729 143.987,252.376 147.087 C 251.469 147.733,249.573 148.708,248.163 149.253 C 241.722 151.746,244.435 153.056,257.765 153.890 C 262.880 154.210,263.908 154.110,266.277 153.062 C 269.857 151.479,272.033 154.446,268.900 156.640 C 266.690 158.188,267.928 159.499,271.294 159.176 C 272.876 159.024,274.170 158.951,274.170 159.014 C 274.170 160.563,268.697 163.925,266.176 163.925 C 264.603 163.925,263.542 163.328,256.676 158.581 C 252.985 156.030,251.675 158.169,253.751 163.358 C 256.182 169.433,272.084 169.881,278.338 164.051 C 283.593 159.153,280.152 190.733,274.489 199.378 C 273.433 200.990,272.380 202.958,272.150 203.752 C 271.919 204.545,270.995 206.623,270.096 208.369 C 269.197 210.115,268.177 212.713,267.829 214.141 C 267.481 215.570,266.949 217.258,266.648 217.893 C 266.347 218.528,265.430 220.866,264.611 223.088 C 263.792 225.310,262.020 228.557,260.674 230.303 C 257.256 234.734,256.092 236.808,253.924 242.328 C 250.210 251.788,242.291 259.240,235.664 259.512 C 233.509 259.601,230.532 259.965,229.048 260.321 C 220.361 262.409,214.031 258.406,205.898 245.682 C 203.289 241.601,199.828 236.741,198.208 234.881 C 196.587 233.021,194.280 229.477,193.081 227.005 C 191.883 224.533,189.616 220.952,188.044 219.048 C 184.540 214.801,180.450 207.591,178.755 202.674 C 178.059 200.653,176.554 197.926,175.409 196.614 C 172.539 193.321,171.703 191.490,170.628 186.147 C 169.639 181.234,168.435 170.766,168.815 170.387 C 169.405 169.797,173.955 171.102,175.158 172.206 C 176.705 173.626,178.999 185.000,178.510 188.832 C 178.081 192.205,181.629 194.866,183.010 192.208 C 183.258 191.732,183.768 189.062,184.144 186.274 L 184.829 181.207 186.931 181.368 C 188.741 181.507,189.059 181.346,189.221 180.206 C 189.359 179.232,189.681 178.968,190.439 179.209 C 193.050 180.038,194.262 177.678,193.442 173.369 C 193.027 171.190,192.480 167.980,192.226 166.234 C 191.972 164.488,191.569 162.050,191.330 160.816 L 190.895 158.572 192.252 159.929 L 193.609 161.285 193.936 159.898 C 194.248 158.577,194.387 158.654,196.843 161.506 C 200.744 166.036,204.946 165.196,204.101 160.055 C 202.761 151.897,202.925 151.012,205.521 152.401 C 206.973 153.178,206.952 154.113,205.483 154.113 C 204.848 154.113,204.329 154.372,204.329 154.690 C 204.329 155.399,204.662 155.372,207.191 154.458 L 209.187 153.737 206.036 152.049 C 203.665 150.778,202.846 150.004,202.723 148.918 L 202.560 147.475 204.074 149.155 C 205.201 150.406,205.706 150.645,206.049 150.092 C 206.302 149.681,206.862 149.533,207.295 149.761 C 207.727 149.989,207.103 149.235,205.907 148.087 C 204.711 146.939,202.974 145.847,202.046 145.662 C 198.068 144.866,191.327 133.397,191.991 128.554 C 192.461 125.126,191.361 124.831,190.816 128.239 C 190.325 131.311,193.839 138.919,197.967 143.723 C 201.510 147.845,201.813 148.493,202.282 152.958 C 202.499 155.022,202.943 157.568,203.269 158.617 C 204.888 163.827,201.553 165.513,197.661 161.451 L 195.143 158.824 195.374 153.727 C 195.537 150.106,195.485 149.497,195.192 151.624 C 194.965 153.271,194.597 154.802,194.373 155.026 C 193.614 155.785,193.207 153.469,193.851 152.056 C 194.596 150.420,194.122 150.197,193.011 151.659 C 191.990 153.005,192.014 154.388,193.074 155.267 C 194.463 156.420,194.097 157.163,192.352 156.732 C 190.014 156.154,189.877 155.823,190.678 152.683 C 191.247 150.452,191.719 149.733,192.818 149.426 C 193.931 149.116,193.719 149.021,191.809 148.975 C 190.478 148.944,189.229 149.177,189.033 149.495 C 188.837 149.812,189.110 150.072,189.639 150.072 C 190.400 150.072,190.518 150.403,190.203 151.658 C 189.685 153.724,189.386 153.973,188.668 152.941 C 188.233 152.316,188.171 152.548,188.434 153.824 C 188.630 154.776,188.820 155.945,188.855 156.421 C 188.890 156.898,189.161 157.446,189.457 157.639 C 189.752 157.833,190.471 160.690,191.054 163.988 C 191.637 167.287,192.413 171.504,192.778 173.360 C 193.546 177.268,192.522 179.450,190.441 178.336 C 188.877 177.499,188.083 177.659,188.198 178.788 C 188.399 180.768,188.161 181.040,186.446 180.788 C 184.457 180.496,183.892 181.464,183.285 186.200 C 182.551 191.924,182.328 192.785,181.574 192.785 C 180.113 192.785,179.400 191.078,179.232 187.177 C 179.060 183.195,178.178 177.154,177.312 174.036 C 176.704 171.844,174.148 170.337,170.263 169.877 C 167.495 169.549,167.280 169.608,167.581 170.619 C 167.761 171.223,168.074 173.665,168.277 176.046 C 169.225 187.161,170.892 192.827,174.317 196.582 C 175.523 197.904,176.913 200.309,177.487 202.066 C 179.030 206.786,184.005 215.761,187.061 219.336 C 188.553 221.082,190.872 224.719,192.214 227.417 C 193.556 230.115,195.857 233.650,197.327 235.271 C 201.087 239.418,205.153 246.118,206.841 250.950 C 208.752 256.420,208.755 256.425,212.717 259.593 C 220.130 265.521,221.118 273.776,216.224 288.898 C 214.391 294.562,213.836 295.599,211.015 298.628 C 206.913 303.030,205.853 305.287,206.199 308.884 C 206.503 312.046,206.300 312.392,205.450 310.157 C 204.141 306.716,195.983 295.386,192.532 292.217 C 190.538 290.387,188.376 287.850,187.728 286.580 C 185.944 283.089,184.126 281.731,178.543 279.722 L 173.449 277.889 173.629 274.731 C 174.005 268.154,171.484 261.677,165.926 254.939 C 164.269 252.930,162.717 250.655,162.477 249.885 C 162.238 249.115,161.563 247.804,160.977 246.973 C 160.392 246.141,159.222 243.024,158.378 240.046 C 157.533 237.068,156.630 234.216,156.369 233.709 C 156.109 233.201,155.349 230.733,154.680 228.225 C 154.011 225.717,153.075 223.066,152.599 222.334 C 150.945 219.787,146.508 207.466,145.180 201.732 C 143.763 195.608,143.092 181.123,144.312 182.973 C 144.940 183.926,146.871 189.721,148.061 194.228 C 148.480 195.815,149.627 199.971,150.611 203.463 C 151.594 206.955,152.833 211.483,153.365 213.526 C 153.896 215.568,154.433 216.932,154.558 216.556 C 154.789 215.863,150.497 198.483,149.506 196.102 C 149.210 195.389,148.406 192.727,147.720 190.188 C 144.619 178.703,143.146 178.224,143.146 188.701 C 143.146 199.726,146.625 213.344,151.857 222.799 C 152.472 223.911,153.324 226.118,153.750 227.706 C 155.975 235.998,159.355 246.065,160.415 247.553 C 161.828 249.538,161.978 250.369,160.736 249.339 C 158.396 247.397,159.525 249.720,162.465 252.895 C 167.307 258.125,170.787 263.649,171.731 267.601 C 173.347 274.367,172.417 279.089,169.614 278.356 C 168.646 278.103,167.646 278.761,165.136 281.302 C 156.922 289.619,149.442 293.939,150.341 289.847 C 151.146 286.180,144.832 284.853,141.988 288.091 C 136.482 294.360,135.065 296.277,135.065 297.458 C 135.065 299.740,128.766 307.071,126.805 307.071 C 126.646 307.071,125.628 305.837,124.543 304.329 C 122.347 301.275,118.213 298.718,114.574 298.164 C 111.134 297.639,109.115 296.490,105.938 293.252 C 102.833 290.087,101.217 289.665,97.835 291.139 C 96.683 291.641,95.638 291.721,94.711 291.380 C 92.797 290.674,92.371 291.311,92.206 295.124 C 92.040 298.964,91.611 299.105,84.909 297.526 C 80.347 296.450,80.332 296.467,82.568 300.101 C 85.453 304.789,91.050 306.958,95.483 305.106 C 103.324 301.830,106.774 306.449,102.654 314.709 C 99.502 321.028,96.317 321.419,91.120 316.122 C 89.417 314.386,86.839 312.413,85.391 311.738 C 83.943 311.062,81.381 309.216,79.698 307.636 C 74.409 302.671,73.846 304.527,79.013 309.891 C 80.883 311.832,82.247 313.422,82.043 313.425 C 77.371 313.484,70.684 307.815,69.302 302.623 C 68.419 299.303,67.782 298.819,62.729 297.628 C 55.120 295.833,49.747 289.182,48.444 279.942 C 48.153 277.879,47.674 275.189,47.381 273.966 C 46.769 271.411,47.755 266.812,49.788 262.740 C 51.159 259.996,50.758 259.190,48.014 259.172 C 43.831 259.144,42.974 256.657,41.252 239.538 C 40.402 231.086,40.342 227.399,40.994 223.665 C 42.439 215.393,43.328 212.284,44.795 210.359 L 46.299 208.388 44.073 203.905 C 42.543 200.825,40.739 198.340,38.305 195.960 C 33.046 190.818,31.420 179.353,35.062 173.098 C 35.848 171.748,35.839 170.814,34.975 164.015 C 33.672 153.752,34.468 148.241,37.486 146.626 C 39.331 145.639,39.679 145.917,40.099 148.721 C 40.977 154.572,42.151 155.596,45.469 153.403 C 46.651 152.621,48.658 151.628,49.928 151.197 C 52.381 150.364,54.834 148.535,54.834 147.538 C 54.834 147.208,56.040 145.713,57.513 144.217 C 60.456 141.229,61.054 138.506,61.147 127.657 C 61.256 114.985,69.017 96.872,75.827 93.397 C 77.116 92.740,79.478 91.217,81.077 90.012 C 82.675 88.808,84.633 87.661,85.428 87.463 C 86.223 87.265,88.691 85.816,90.912 84.243 C 93.132 82.670,96.673 80.221,98.779 78.802 C 100.886 77.382,103.688 74.931,105.007 73.356 C 106.410 71.681,108.962 69.622,111.156 68.394 C 113.812 66.909,115.730 65.250,117.725 62.711 C 120.001 59.815,121.382 58.705,124.900 56.943 C 127.705 55.538,131.258 52.974,134.875 49.747 C 144.108 41.508,145.897 39.552,146.686 36.834 C 148.052 32.129,153.376 28.057,161.759 25.305 C 163.673 24.677,166.571 23.411,168.200 22.491 C 169.829 21.572,172.066 20.746,173.171 20.655 C 174.276 20.565,175.440 20.206,175.758 19.858 C 176.075 19.510,177.244 18.887,178.355 18.473 C 179.466 18.059,181.154 17.392,182.107 16.991 C 188.151 14.446,192.338 13.690,197.935 14.131 C 200.976 14.371,205.497 14.515,207.982 14.452 C 213.001 14.324,216.513 15.879,217.336 18.593 C 218.879 23.675,222.575 23.790,232.035 19.048 C 235.834 17.143,239.597 15.584,240.395 15.584 C 241.193 15.584,244.249 15.131,247.186 14.578 C 254.438 13.211,258.263 13.274,261.472 14.812 C 262.900 15.497,264.978 16.179,266.089 16.327 C 277.718 17.880,292.443 27.744,298.413 37.979 C 299.206 39.340,300.573 41.286,301.449 42.305 C 303.287 44.440,303.257 44.336,304.527 53.102 C 305.371 58.934,306.563 84.661,306.025 85.425 C 305.913 85.583,305.454 85.209,305.003 84.593 C 304.231 83.537,304.185 83.575,304.185 85.248 C 304.185 86.470,304.508 87.107,305.221 87.294 C 305.979 87.492,306.441 88.547,306.936 91.212 C 307.309 93.217,307.855 95.099,308.148 95.392 C 308.442 95.686,308.315 94.278,307.865 92.263 C 307.364 90.015,306.939 83.694,306.765 75.902 C 306.610 68.918,306.215 61.126,305.889 58.586 C 305.562 56.046,305.053 51.921,304.757 49.419 C 304.460 46.917,303.812 44.319,303.316 43.647 C 302.820 42.974,301.776 41.515,300.994 40.404 C 300.213 39.293,298.598 36.999,297.406 35.307 C 290.397 25.359,274.644 15.584,265.620 15.584 C 265.005 15.584,263.033 14.935,261.239 14.141 C 257.394 12.441,254.661 12.393,247.619 13.901 M280.926 30.978 C 280.744 31.272,280.834 31.890,281.126 32.351 C 283.713 36.441,279.155 52.691,273.899 58.118 C 272.266 59.804,271.216 61.183,271.564 61.183 C 275.648 61.183,282.457 46.229,282.470 37.229 C 282.476 32.932,281.689 29.744,280.926 30.978 M289.755 35.049 C 289.755 35.402,290.930 37.679,292.366 40.109 C 293.803 42.538,295.615 46.724,296.394 49.411 C 297.172 52.097,298.484 55.446,299.308 56.853 C 300.976 59.699,302.048 67.867,300.851 68.607 C 300.410 68.879,300.448 70.084,300.982 72.735 C 301.396 74.794,301.767 77.639,301.806 79.057 C 301.887 82.001,302.321 83.694,302.995 83.694 C 303.250 83.694,303.236 82.506,302.965 81.054 C 302.694 79.601,302.240 74.030,301.957 68.673 C 301.478 59.606,301.335 58.749,299.880 56.266 C 299.020 54.799,297.812 51.776,297.194 49.548 C 296.577 47.320,295.430 44.231,294.647 42.685 C 292.723 38.888,289.755 34.255,289.755 35.049 M259.203 40.545 C 260.464 44.942,259.244 48.772,254.730 54.580 C 250.659 59.818,245.193 69.916,245.995 70.718 C 246.151 70.875,247.267 68.898,248.474 66.326 C 249.681 63.754,252.281 59.401,254.252 56.654 C 260.165 48.412,261.182 45.840,260.249 41.490 C 259.917 39.940,259.425 38.672,259.156 38.672 C 258.887 38.672,258.908 39.515,259.203 40.545 M177.462 41.509 C 172.038 44.620,169.678 47.996,165.930 58.009 C 163.246 65.179,162.156 66.795,157.518 70.481 C 152.899 74.152,151.377 75.677,153.824 74.185 C 161.432 69.545,164.689 65.266,167.677 55.988 C 170.200 48.151,175.897 41.705,181.479 40.371 C 183.064 39.992,183.102 39.939,181.818 39.891 C 181.025 39.862,179.064 40.590,177.462 41.509 M185.909 52.478 C 181.931 56.194,177.218 75.905,177.188 88.950 C 177.162 100.835,168.500 114.464,159.596 116.632 C 158.019 117.016,157.993 117.058,159.307 117.100 C 167.630 117.368,177.616 102.173,178.092 88.516 C 178.298 82.581,181.123 63.844,182.439 59.684 C 183.449 56.488,186.370 52.498,188.318 51.651 C 189.804 51.006,189.934 50.834,188.950 50.816 C 188.269 50.804,186.901 51.551,185.909 52.478 M212.609 51.621 C 205.412 53.872,195.328 63.443,194.772 68.550 L 194.474 71.284 195.877 67.646 C 198.808 60.044,210.035 52.161,218.312 51.893 C 221.836 51.779,231.147 54.734,233.716 56.781 C 234.353 57.290,234.469 57.243,234.246 56.568 C 233.123 53.172,218.407 49.808,212.609 51.621 M150.543 57.143 C 149.226 64.445,137.704 78.948,129.870 83.164 C 128.124 84.104,125.657 85.805,124.387 86.944 C 123.117 88.083,122.727 88.591,123.521 88.073 C 128.881 84.570,131.585 82.813,133.463 81.610 C 134.646 80.853,136.686 78.869,137.998 77.202 C 139.310 75.535,141.787 72.913,143.502 71.377 C 147.935 67.407,151.668 60.074,151.109 56.435 C 150.952 55.412,150.827 55.568,150.543 57.143 M279.149 59.307 C 276.514 68.376,275.346 84.653,276.950 89.957 C 278.110 93.794,278.351 92.449,277.306 87.964 C 276.007 82.385,278.047 62.407,280.286 58.785 C 280.452 58.517,280.330 58.297,280.015 58.297 C 279.700 58.297,279.311 58.752,279.149 59.307 M229.139 66.349 C 228.657 66.631,226.060 67.423,223.367 68.109 C 217.489 69.606,214.704 71.162,214.755 72.919 L 214.792 74.170 215.303 72.902 C 215.965 71.257,218.356 70.052,223.175 68.934 C 225.311 68.439,227.950 67.661,229.040 67.206 C 233.904 65.173,241.682 67.735,237.845 70.106 C 237.549 70.289,237.000 71.928,236.624 73.747 C 235.835 77.571,234.367 80.673,232.678 82.084 C 232.028 82.627,230.728 84.595,229.788 86.457 C 228.220 89.563,224.906 92.929,223.415 92.929 C 223.076 92.929,222.799 93.189,222.799 93.506 C 222.799 95.557,228.339 90.754,230.371 86.941 C 231.399 85.014,232.842 82.835,233.577 82.099 C 235.446 80.230,236.397 78.188,237.270 74.170 C 237.683 72.266,238.363 70.499,238.780 70.245 C 240.384 69.269,239.688 66.552,237.734 66.162 C 235.134 65.641,230.161 65.750,229.139 66.349 M211.452 74.170 C 210.843 75.702,210.926 79.662,211.663 84.271 C 212.124 87.151,212.280 87.526,212.337 85.887 C 212.377 84.712,212.149 82.504,211.830 80.981 C 211.467 79.248,211.448 77.562,211.780 76.479 C 212.162 75.232,212.332 75.070,212.386 75.902 C 212.427 76.537,212.851 78.095,213.328 79.365 C 213.806 80.635,214.291 83.172,214.408 85.004 C 214.854 92.009,218.455 97.264,225.974 101.882 C 228.514 103.442,230.799 105.053,231.053 105.462 C 231.307 105.870,231.793 106.205,232.134 106.205 C 233.360 106.205,231.467 104.658,226.611 101.691 C 220.984 98.252,218.083 95.141,216.461 90.805 C 215.105 87.181,214.273 82.332,215.240 83.694 C 216.234 85.094,215.963 83.825,214.767 81.480 C 214.158 80.287,213.476 78.285,213.250 77.029 C 212.649 73.691,212.032 72.710,211.452 74.170 M197.250 74.256 C 192.239 75.685,194.416 85.870,201.095 92.244 C 202.745 93.819,204.572 96.240,205.157 97.626 C 208.010 104.393,208.647 105.521,210.981 107.937 C 219.203 116.446,220.443 130.373,213.294 133.912 C 212.014 134.546,211.383 135.064,211.892 135.064 C 217.897 135.067,220.673 124.907,217.012 116.323 C 215.005 111.617,215.078 111.977,216.129 111.977 C 217.310 111.977,220.906 109.768,221.270 108.819 C 221.438 108.381,220.383 108.827,218.926 109.811 L 216.276 111.599 214.638 109.624 C 213.737 108.537,212.023 106.529,210.829 105.161 C 208.662 102.678,206.061 97.633,206.061 95.913 C 206.061 95.413,205.254 94.172,204.268 93.155 C 202.911 91.755,202.219 90.205,201.418 86.778 C 200.410 82.459,198.627 77.487,198.580 78.860 C 198.567 79.217,198.958 80.645,199.448 82.034 C 199.938 83.423,200.675 86.191,201.085 88.185 L 201.831 91.809 200.338 90.378 C 193.069 83.409,194.044 72.840,201.760 74.970 C 202.960 75.302,203.705 75.335,203.414 75.045 C 202.760 74.392,198.629 73.864,197.250 74.256 M208.643 76.868 L 207.504 79.942 207.211 77.056 L 206.918 74.170 206.539 77.056 C 205.704 83.424,207.048 93.125,209.397 97.692 C 209.520 97.930,209.144 97.974,208.562 97.789 C 207.294 97.386,209.901 99.562,212.925 101.431 C 217.142 104.037,224.382 107.268,229.437 108.800 C 237.088 111.119,236.907 111.005,238.611 114.603 C 240.210 117.981,240.134 118.633,238.095 118.997 C 234.828 119.581,236.432 121.974,239.824 121.576 C 242.779 121.228,243.266 121.332,244.826 122.644 C 245.776 123.444,246.891 124.098,247.304 124.098 C 247.717 124.098,248.393 124.506,248.807 125.004 C 249.220 125.502,250.007 125.793,250.555 125.649 C 251.450 125.415,253.308 132.344,254.153 139.065 C 254.214 139.551,252.714 140.673,250.505 141.793 C 248.442 142.840,245.775 144.779,244.578 146.104 C 242.439 148.473,242.026 149.979,244.008 148.186 C 244.566 147.682,246.989 146.742,249.393 146.098 C 251.797 145.453,254.461 144.661,255.312 144.338 C 258.516 143.120,267.155 142.353,268.171 143.197 C 268.987 143.874,269.081 143.827,268.898 142.839 C 268.496 140.674,262.895 138.445,258.779 138.811 L 255.220 139.128 254.587 137.212 C 253.455 133.780,251.746 123.227,249.848 107.937 C 249.408 104.390,249.420 101.910,249.893 98.990 C 250.985 92.236,251.125 90.760,250.551 92.063 C 248.813 96.013,248.487 107.821,249.954 113.709 C 251.510 119.953,250.950 126.357,249.016 124.424 C 248.520 123.927,247.791 123.521,247.397 123.521 C 247.003 123.521,245.934 122.742,245.022 121.789 C 244.109 120.837,243.639 120.058,243.978 120.058 C 246.787 120.058,245.571 111.291,242.363 108.416 C 239.752 106.077,238.637 93.822,240.539 88.373 C 240.776 87.694,240.683 87.610,240.193 88.059 C 237.752 90.296,239.021 106.910,241.790 108.957 C 244.371 110.865,245.647 117.330,243.806 119.171 C 242.574 120.403,241.270 119.361,241.270 117.146 C 241.270 115.112,237.961 110.680,236.049 110.154 C 227.337 107.755,214.569 102.366,211.433 99.763 C 208.054 96.960,206.586 83.910,208.969 77.866 C 209.616 76.224,210.064 74.636,209.964 74.337 C 209.865 74.039,209.270 75.178,208.643 76.868 M237.229 79.049 C 237.229 79.389,236.279 81.642,235.118 84.056 C 232.458 89.585,231.780 104.988,234.094 107.303 C 234.752 107.960,234.828 106.783,234.261 104.730 C 233.915 103.478,233.598 99.467,233.555 95.816 C 233.473 88.746,233.349 89.206,237.603 80.697 C 238.099 79.703,238.172 79.014,237.805 78.787 C 237.488 78.591,237.229 78.709,237.229 79.049 M212.630 90.287 C 212.688 92.222,214.141 94.220,214.141 92.366 C 214.141 92.003,213.898 91.857,213.600 92.042 C 213.302 92.226,212.946 91.397,212.809 90.200 L 212.561 88.023 212.630 90.287 M114.564 98.670 C 107.406 101.573,105.577 144.300,112.611 144.300 C 112.990 144.300,112.634 143.683,111.819 142.928 C 106.063 137.593,109.203 101.764,115.673 98.947 C 117.568 98.122,116.545 97.866,114.564 98.670 M133.911 100.722 C 131.847 101.802,130.362 102.698,130.611 102.714 C 130.859 102.729,132.418 102.027,134.074 101.154 C 136.687 99.777,137.962 99.524,143.723 99.242 L 150.361 98.918 144.012 98.837 C 137.839 98.760,137.558 98.812,133.911 100.722 M127.596 104.159 C 126.539 104.939,124.393 107.341,122.826 109.498 C 121.259 111.655,119.248 114.199,118.357 115.152 C 115.266 118.453,112.554 122.461,112.567 123.709 C 112.576 124.625,112.865 124.341,113.636 122.655 C 114.217 121.385,115.849 119.048,117.262 117.460 C 118.676 115.873,121.081 112.886,122.606 110.823 C 124.132 108.759,126.456 106.097,127.770 104.908 C 130.501 102.435,130.418 102.077,127.596 104.159 M199.855 107.390 C 203.328 110.253,206.126 120.819,204.933 126.567 C 204.206 130.067,202.605 132.274,202.589 129.797 C 202.552 124.153,200.627 127.492,200.084 134.140 C 199.879 136.647,199.420 139.049,199.064 139.479 C 198.615 140.019,198.607 140.260,199.036 140.260 C 199.845 140.260,200.840 136.813,201.276 132.500 C 201.545 129.849,201.730 129.357,202.092 130.336 C 202.743 132.095,203.559 131.917,204.666 129.777 C 206.338 126.543,206.332 122.117,204.647 115.516 C 202.841 108.438,202.909 108.222,205.820 111.818 C 207.047 113.334,209.551 116.066,211.385 117.889 C 214.631 121.118,214.719 121.287,214.719 124.349 C 214.719 126.078,214.978 127.654,215.296 127.850 C 216.188 128.401,215.997 122.549,215.064 120.744 C 214.619 119.884,212.995 117.994,211.456 116.545 C 209.917 115.096,207.668 112.693,206.458 111.204 C 205.247 109.715,202.984 107.852,201.426 107.062 C 197.682 105.165,197.262 105.253,199.855 107.390 M78.648 113.853 C 75.241 118.166,73.274 130.348,75.221 135.079 C 78.828 143.846,82.920 148.966,89.466 152.903 C 91.212 153.953,93.291 155.421,94.086 156.166 C 95.600 157.584,101.586 160.488,106.494 162.186 C 108.081 162.735,109.899 163.367,110.534 163.590 C 111.169 163.813,110.779 163.471,109.668 162.830 C 108.557 162.189,107.297 161.654,106.867 161.640 C 105.322 161.592,96.480 157.096,93.626 154.906 C 92.022 153.676,89.263 151.811,87.495 150.761 C 83.836 148.588,82.649 147.166,78.670 140.185 C 74.031 132.047,73.784 130.009,76.450 121.875 C 77.662 118.177,79.008 114.944,79.442 114.690 C 80.321 114.175,80.510 113.131,79.724 113.131 C 79.446 113.131,78.961 113.456,78.648 113.853 M295.241 113.705 C 294.748 114.502,295.885 115.399,300.433 117.799 C 302.338 118.805,305.124 120.397,306.624 121.337 C 308.124 122.277,310.851 123.436,312.684 123.914 C 314.517 124.391,316.348 125.054,316.753 125.388 C 317.157 125.721,317.636 125.846,317.817 125.666 C 318.299 125.184,315.152 123.682,312.695 123.221 C 311.525 123.001,309.372 122.064,307.911 121.137 C 306.451 120.211,303.475 118.556,301.300 117.461 C 299.124 116.365,296.962 114.924,296.495 114.258 C 295.926 113.445,295.513 113.263,295.241 113.705 M275.528 115.584 C 276.307 116.616,277.748 119.174,278.732 121.268 C 280.768 125.605,283.719 128.926,286.609 130.133 C 289.249 131.237,291.486 133.550,291.490 135.183 C 291.494 136.855,292.635 141.035,292.991 140.679 C 293.223 140.447,292.854 138.292,291.759 133.476 C 291.572 132.654,290.291 131.514,288.276 130.377 C 283.926 127.922,281.974 125.823,279.551 120.993 C 277.150 116.209,275.478 113.709,274.679 113.709 C 274.367 113.709,274.749 114.553,275.528 115.584 M167.544 118.402 C 167.117 118.828,167.004 120.410,167.219 122.970 L 167.547 126.885 164.501 130.106 C 162.825 131.878,160.127 133.980,158.505 134.776 C 153.925 137.025,151.563 141.400,152.429 146.032 C 152.757 147.786,152.816 147.629,152.882 144.832 C 152.979 140.738,155.459 136.627,158.422 135.649 C 159.487 135.297,162.089 133.378,164.205 131.384 L 168.051 127.758 167.891 123.465 C 167.803 121.104,167.929 118.852,168.171 118.461 C 168.721 117.571,168.404 117.541,167.544 118.402 M241.012 120.585 C 240.463 121.474,237.070 121.401,237.368 120.507 C 237.659 119.635,240.222 118.918,240.902 119.518 C 241.176 119.759,241.226 120.240,241.012 120.585 M192.871 124.497 C 192.824 127.097,192.980 129.346,193.218 129.494 C 193.456 129.642,193.578 128.164,193.489 126.209 C 193.218 120.234,192.962 119.526,192.871 124.497 M137.662 125.460 C 130.910 128.619,123.509 141.050,124.811 147.045 C 124.931 147.599,125.336 146.375,125.710 144.326 C 127.262 135.831,132.122 128.905,138.719 125.784 C 140.677 124.857,141.890 124.101,141.414 124.104 C 140.938 124.107,139.250 124.717,137.662 125.460 M197.403 132.949 C 197.403 136.017,197.597 138.528,197.835 138.528 C 198.396 138.527,198.389 128.355,197.828 127.794 C 197.594 127.560,197.403 129.880,197.403 132.949 M207.873 131.024 C 204.135 131.907,203.004 135.132,206.475 135.007 C 207.974 134.954,207.992 134.925,206.748 134.574 C 206.015 134.368,205.431 134.004,205.449 133.766 C 205.468 133.528,205.483 133.102,205.483 132.818 C 205.483 132.535,206.977 131.912,208.802 131.433 C 212.191 130.544,211.392 130.192,207.873 131.024 M262.895 139.919 C 266.253 141.088,266.036 141.850,262.226 142.267 C 260.383 142.469,256.797 143.245,254.257 143.992 C 247.127 146.088,245.468 146.367,246.334 145.323 C 247.457 143.971,256.351 139.749,258.586 139.508 C 259.697 139.388,260.606 139.252,260.606 139.206 C 260.606 139.160,261.636 139.481,262.895 139.919 M165.079 141.637 C 165.079 141.760,165.859 141.975,166.811 142.114 C 167.763 142.254,168.543 142.154,168.543 141.891 C 168.543 141.629,167.763 141.414,166.811 141.414 C 165.859 141.414,165.079 141.515,165.079 141.637 M162.193 143.146 C 159.640 145.700,161.271 150.822,165.657 154.022 C 167.671 155.492,167.670 155.489,165.291 152.929 C 161.196 148.521,160.568 145.873,163.033 143.408 C 163.812 142.629,164.202 141.991,163.899 141.991 C 163.596 141.991,162.828 142.511,162.193 143.146 M214.206 145.699 C 216.078 146.771,217.082 149.103,217.102 152.428 C 217.111 153.831,217.156 157.186,217.203 159.885 C 217.362 168.999,216.897 178.045,216.057 182.156 C 215.214 186.287,214.607 187.538,211.641 191.257 C 209.709 193.679,209.919 195.052,212.504 196.892 C 213.735 197.769,214.383 197.945,214.670 197.481 C 214.946 197.035,215.730 197.402,217.064 198.600 C 218.764 200.126,219.336 200.326,221.068 199.996 C 224.143 199.410,224.994 199.537,226.638 200.831 C 228.618 202.388,229.799 202.332,231.680 200.588 C 234.590 197.891,238.326 196.850,239.800 198.324 C 240.714 199.238,241.847 198.973,241.847 197.847 C 241.847 197.494,242.192 196.795,242.613 196.294 C 246.057 192.198,245.431 172.919,241.521 162.672 C 239.203 156.599,239.143 155.925,240.735 153.902 C 242.022 152.265,241.630 151.926,239.936 153.210 C 238.360 154.405,238.625 157.781,240.708 163.059 C 242.609 167.874,244.154 176.003,244.109 180.952 C 244.087 183.383,243.995 183.620,243.530 182.456 C 242.600 180.132,242.503 181.330,243.285 185.466 C 244.259 190.612,242.732 197.687,241.228 194.998 C 240.540 193.768,237.818 194.867,237.811 196.378 C 237.808 197.155,237.458 197.305,236.219 197.060 C 234.973 196.813,234.116 197.188,232.231 198.806 C 229.479 201.168,228.471 201.325,226.420 199.711 C 224.816 198.450,222.757 198.230,221.057 199.140 C 220.185 199.607,219.571 199.376,217.988 197.986 C 216.896 197.027,215.351 196.248,214.539 196.248 C 211.148 196.248,210.490 193.877,213.093 191.038 C 216.869 186.919,217.394 184.181,218.149 164.660 C 218.762 148.808,218.238 146.262,214.141 145.207 L 212.698 144.835 214.206 145.699 M265.117 146.250 C 265.541 147.357,264.553 151.450,263.801 151.701 C 263.461 151.814,262.816 152.273,262.369 152.721 C 261.597 153.493,259.740 153.864,259.740 153.247 C 259.740 153.088,260.260 152.439,260.895 151.804 C 262.117 150.581,262.496 147.186,261.410 147.186 C 261.055 147.186,260.933 147.607,261.135 148.133 C 261.818 149.913,259.951 151.875,258.293 151.120 C 255.121 149.674,256.943 146.164,261.013 145.881 C 262.694 145.764,264.236 145.620,264.440 145.561 C 264.645 145.503,264.949 145.813,265.117 146.250 M269.757 146.636 C 273.332 148.745,273.028 149.699,268.219 151.477 C 265.010 152.663,264.686 152.535,265.496 150.403 C 265.822 149.545,266.089 148.080,266.089 147.149 C 266.089 145.111,266.965 144.989,269.757 146.636 M204.906 148.052 C 205.652 148.846,206.022 149.487,205.728 149.477 C 205.235 149.460,202.856 146.609,203.336 146.609 C 203.454 146.609,204.161 147.258,204.906 148.052 M255.700 148.563 C 255.700 150.010,256.074 150.762,257.143 151.462 C 259.255 152.846,258.912 153.368,256.133 152.997 C 253.446 152.638,252.530 150.450,253.954 147.790 C 254.904 146.015,255.700 146.367,255.700 148.563 M252.814 150.361 C 252.814 152.563,252.165 152.800,248.268 152.020 C 245.408 151.448,245.753 151.164,252.670 148.398 C 252.749 148.367,252.814 149.250,252.814 150.361 M309.852 157.143 C 308.329 159.277,308.126 163.741,309.041 174.899 L 309.538 180.966 307.727 183.909 C 306.024 186.678,305.922 187.156,306.018 191.983 L 306.119 197.114 306.450 191.872 C 306.737 187.341,307.012 186.285,308.481 184.080 C 310.383 181.226,310.646 177.208,309.422 169.697 C 308.337 163.032,308.864 158.966,311.129 156.535 C 311.779 155.837,312.058 155.267,311.750 155.267 C 311.442 155.267,310.588 156.111,309.852 157.143 M193.362 158.730 C 193.362 159.365,193.241 159.885,193.094 159.885 C 192.946 159.885,192.548 159.365,192.208 158.730 C 191.715 157.809,191.769 157.576,192.476 157.576 C 192.977 157.576,193.362 158.077,193.362 158.730 M128.245 160.797 C 128.082 165.269,121.081 176.471,115.057 181.896 C 113.871 182.964,111.069 185.553,108.831 187.648 C 106.593 189.743,103.148 192.539,101.175 193.860 C 97.742 196.160,93.125 201.254,93.833 201.962 C 94.018 202.147,94.443 201.811,94.777 201.215 C 96.063 198.917,99.571 195.565,103.248 193.121 C 105.356 191.719,108.149 189.447,109.454 188.071 C 110.759 186.695,113.290 184.320,115.079 182.793 C 116.868 181.265,119.413 178.408,120.734 176.444 C 122.056 174.479,123.757 172.120,124.515 171.202 C 127.332 167.789,128.789 164.067,128.563 160.857 L 128.352 157.864 128.245 160.797 M77.892 162.566 C 82.737 167.175,85.237 168.471,89.860 168.769 C 91.707 168.888,92.569 168.876,91.775 168.743 C 84.629 167.542,84.177 167.343,80.249 163.653 C 78.131 161.664,75.798 159.715,75.065 159.323 C 74.332 158.930,75.604 160.390,77.892 162.566 M156.255 161.398 C 156.029 161.624,155.895 164.557,155.957 167.917 L 156.070 174.026 156.398 167.965 L 156.726 161.905 157.741 164.082 C 158.698 166.135,163.631 169.177,165.873 169.097 C 166.230 169.084,165.197 168.499,163.578 167.798 C 160.281 166.370,158.736 165.254,158.717 164.287 C 158.697 163.268,156.713 160.940,156.255 161.398 M74.309 164.069 C 73.455 166.320,74.473 183.214,75.584 185.224 C 76.215 186.366,78.323 190.362,80.268 194.102 C 83.553 200.418,91.236 209.678,92.305 208.609 C 92.453 208.461,90.742 206.566,88.504 204.397 C 85.768 201.747,83.912 199.339,82.842 197.053 C 81.967 195.182,79.883 191.183,78.211 188.167 L 75.172 182.684 74.906 173.936 C 74.760 169.125,74.872 164.774,75.156 164.268 C 75.467 163.712,75.455 163.348,75.127 163.348 C 74.827 163.348,74.459 163.672,74.309 164.069 M149.235 166.546 C 146.602 169.387,144.869 174.014,144.968 177.938 L 145.059 181.530 145.427 177.778 C 145.933 172.620,149.706 165.005,151.275 165.975 C 152.246 166.575,153.980 173.550,154.929 180.664 C 156.499 192.449,158.747 204.882,160.200 209.812 C 160.948 212.352,161.738 215.549,161.956 216.917 C 162.174 218.285,162.848 219.973,163.455 220.669 L 164.559 221.934 163.742 220.202 C 163.293 219.250,162.742 217.431,162.519 216.162 C 162.296 214.892,161.507 211.775,160.765 209.235 C 159.271 204.115,156.817 190.424,155.799 181.530 C 154.253 168.025,152.203 163.344,149.235 166.546 M97.258 169.667 C 102.868 170.434,109.222 170.867,106.494 170.297 C 105.224 170.031,101.847 169.674,98.990 169.504 C 94.797 169.254,94.463 169.285,97.258 169.667 M207.328 172.126 C 209.116 174.041,209.456 179.577,208.063 184.127 C 207.820 184.921,207.821 185.387,208.065 185.164 C 210.994 182.480,209.315 170.274,206.017 170.274 C 205.786 170.274,206.376 171.108,207.328 172.126 M259.141 174.855 C 257.478 176.105,255.636 177.858,255.047 178.751 C 253.326 181.360,253.808 181.635,255.649 179.095 C 257.162 177.005,260.246 174.315,261.127 174.315 C 261.316 174.315,260.542 175.678,259.408 177.345 C 258.046 179.346,257.899 179.701,258.976 178.389 C 259.872 177.296,261.424 175.543,262.424 174.493 C 265.068 171.716,263.018 171.942,259.141 174.855 M291.496 179.365 C 291.506 185.185,292.129 189.572,293.816 195.684 C 294.208 197.105,294.636 197.971,294.767 197.608 C 294.898 197.244,294.432 194.777,293.731 192.124 C 292.773 188.496,292.444 185.550,292.405 180.231 C 292.376 176.343,292.157 173.161,291.919 173.161 C 291.681 173.160,291.491 175.952,291.496 179.365 M156.579 176.623 C 156.579 178.052,156.691 178.636,156.829 177.922 C 156.966 177.208,156.966 176.039,156.829 175.325 C 156.691 174.610,156.579 175.195,156.579 176.623 M123.521 203.794 C 121.457 204.403,118.983 204.903,118.021 204.904 C 117.060 204.905,114.333 205.844,111.961 206.990 C 109.589 208.136,105.662 209.919,103.234 210.952 C 100.806 211.985,97.293 213.901,95.427 215.210 C 90.453 218.699,75.577 223.292,68.841 223.417 C 67.645 223.440,66.147 223.683,65.512 223.958 C 64.749 224.289,65.335 224.362,67.244 224.174 C 79.511 222.964,90.533 219.562,96.877 215.029 C 98.357 213.972,101.255 212.411,103.319 211.559 C 105.382 210.708,108.764 209.147,110.833 208.090 C 113.182 206.890,116.434 205.848,119.491 205.317 C 122.184 204.848,125.296 204.066,126.407 203.578 C 129.146 202.376,128.042 202.459,123.521 203.794 M245.022 210.675 C 240.260 210.893,235.415 211.463,233.226 212.060 C 230.393 212.834,229.187 212.927,228.148 212.453 C 224.940 210.992,217.151 212.007,214.064 214.290 C 212.710 215.291,211.555 215.494,206.984 215.535 C 202.376 215.577,201.718 215.694,202.781 216.285 C 204.038 216.985,204.037 216.987,202.597 217.016 C 201.804 217.032,200.765 217.323,200.289 217.664 C 199.580 218.169,199.641 218.235,200.623 218.023 C 201.283 217.881,202.306 218.118,202.898 218.550 C 203.489 218.983,204.467 219.336,205.071 219.336 C 209.076 219.336,214.150 221.786,217.030 225.111 C 222.356 231.260,234.557 231.407,240.115 225.390 C 240.909 224.531,243.571 222.266,246.032 220.356 C 248.492 218.446,250.505 216.499,250.505 216.029 C 250.505 215.371,250.206 215.447,249.206 216.355 C 248.492 217.005,246.219 218.899,244.156 220.566 C 242.092 222.232,239.625 224.351,238.672 225.274 C 235.613 228.239,232.146 229.160,226.529 228.498 C 220.500 227.788,220.136 227.627,218.075 224.757 C 217.026 223.297,215.167 221.591,213.944 220.967 C 211.305 219.621,211.407 219.154,214.174 219.913 C 221.627 221.957,235.996 221.313,240.848 218.716 C 247.953 214.914,253.141 212.542,253.666 212.856 C 253.991 213.050,253.900 212.769,253.465 212.232 C 252.769 211.374,252.817 211.255,253.864 211.255 C 254.519 211.255,255.215 210.996,255.411 210.678 C 255.615 210.348,255.197 210.144,254.435 210.202 C 253.702 210.258,249.466 210.471,245.022 210.675 M251.566 212.124 C 251.686 212.244,250.133 213.091,248.114 214.007 C 246.096 214.923,243.405 216.327,242.136 217.127 C 237.213 220.228,222.215 221.322,214.453 219.146 C 212.561 218.616,209.654 218.182,207.994 218.182 C 201.997 218.182,203.744 216.723,210.263 216.287 C 212.569 216.133,214.148 215.658,215.374 214.752 C 217.964 212.837,224.748 212.003,227.700 213.236 C 229.646 214.049,230.211 214.058,232.837 213.313 C 238.808 211.619,239.941 211.475,245.588 211.688 C 248.756 211.808,251.446 212.004,251.566 212.124 M289.044 225.431 C 287.389 227.099,297.792 248.773,300.247 248.773 C 300.494 248.773,299.305 246.631,297.606 244.012 C 292.863 236.699,290.537 231.684,289.822 227.221 C 289.626 226.002,289.276 225.197,289.044 225.431 M132.756 239.013 C 132.756 241.402,134.375 246.850,136.130 250.365 C 138.340 254.792,138.586 256.027,138.578 262.643 C 138.567 271.803,139.884 277.056,142.190 277.056 C 142.518 277.056,142.230 276.538,141.550 275.904 C 140.018 274.477,139.780 272.991,139.521 263.194 C 139.314 255.420,139.305 255.374,136.861 250.069 C 135.314 246.709,134.317 243.635,134.159 241.737 C 133.898 238.591,132.756 236.375,132.756 239.013 M275.084 238.884 C 274.412 239.970,276.552 249.228,278.292 252.771 C 280.540 257.346,283.741 260.597,288.456 263.093 C 292.913 265.452,293.236 265.130,288.879 262.671 C 281.799 258.675,277.765 252.705,276.261 243.996 C 275.584 240.075,275.823 237.570,276.673 239.679 C 276.849 240.116,276.983 240.003,277.011 239.394 C 277.057 238.359,275.640 237.984,275.084 238.884 M67.896 244.300 C 66.353 250.059,67.988 253.059,73.944 255.396 C 76.835 256.530,79.154 257.977,81.427 260.067 C 88.375 266.455,95.643 265.789,105.729 257.841 C 107.827 256.187,110.026 254.506,110.616 254.104 C 111.206 253.703,110.848 253.773,109.820 254.259 C 108.793 254.746,107.104 255.878,106.068 256.775 C 96.411 265.137,89.041 265.993,81.946 259.576 C 79.741 257.581,77.366 256.098,74.907 255.180 C 68.674 252.853,66.829 249.815,68.586 244.773 C 68.926 243.799,68.988 243.001,68.724 243.001 C 68.460 243.001,68.088 243.586,67.896 244.300 M61.183 251.592 C 61.183 251.910,62.185 253.808,63.408 255.811 C 64.632 257.813,66.350 260.718,67.227 262.265 C 68.103 263.813,69.699 266.052,70.774 267.241 C 73.330 270.072,73.165 271.311,68.743 282.410 C 67.046 286.671,66.527 288.644,67.309 287.861 C 67.679 287.492,69.559 282.508,71.922 275.634 C 73.794 270.189,73.704 269.249,71.032 266.350 C 69.782 264.994,68.059 262.498,67.202 260.802 C 66.346 259.107,64.901 256.634,63.992 255.307 C 63.082 253.980,62.338 252.632,62.338 252.311 C 62.338 251.990,62.078 251.567,61.760 251.371 C 61.443 251.175,61.183 251.274,61.183 251.592 M351.804 268.296 C 338.373 275.779,337.850 276.323,331.270 289.641 C 323.477 305.412,322.205 309.046,321.485 317.575 C 320.512 329.101,319.793 334.151,318.268 340.184 C 317.476 343.317,316.953 346.006,317.106 346.159 C 318.000 347.053,320.770 332.564,321.765 321.789 C 322.853 310.004,322.912 309.694,325.076 304.520 C 328.408 296.550,337.586 278.481,338.913 277.279 C 340.228 276.087,350.669 269.460,354.113 267.632 C 355.065 267.127,355.584 266.707,355.267 266.700 C 354.949 266.693,353.391 267.411,351.804 268.296 M254.545 268.046 C 254.545 271.467,264.585 280.519,268.380 280.519 C 269.732 280.519,268.837 279.409,266.995 278.801 C 263.248 277.564,255.439 269.746,257.318 269.113 C 257.871 268.926,257.795 268.650,257.029 268.070 C 255.677 267.044,254.545 267.034,254.545 268.046 M65.848 277.806 C 64.382 283.449,63.499 288.017,63.643 289.209 L 63.885 291.198 63.977 289.063 C 64.028 287.889,65.127 282.865,66.421 277.898 C 67.714 272.932,68.665 268.761,68.533 268.630 C 68.402 268.498,67.194 272.628,65.848 277.806 M239.718 269.421 C 235.289 272.916,232.248 284.680,234.700 288.825 C 235.197 289.666,235.292 288.673,235.112 284.496 C 234.869 278.886,237.722 270.996,239.992 270.996 C 240.715 270.996,241.820 269.700,241.838 268.831 C 241.852 268.134,241.073 268.351,239.718 269.421 M61.852 276.012 C 57.818 281.387,56.845 288.600,60.154 288.600 C 60.439 288.600,60.267 288.023,59.773 287.317 C 57.690 284.343,58.563 281.205,63.071 275.469 C 64.652 273.458,65.824 271.692,65.676 271.544 C 65.528 271.396,63.807 273.407,61.852 276.012 M245.581 277.345 C 245.432 277.821,245.178 278.628,245.016 279.138 C 244.612 280.412,245.749 284.449,247.160 286.755 C 248.788 289.412,249.022 288.731,247.592 285.499 C 246.883 283.895,246.543 282.276,246.757 281.514 C 247.041 280.502,246.988 280.414,246.506 281.097 C 246.058 281.731,245.992 281.230,246.258 279.221 C 246.601 276.637,246.172 275.451,245.581 277.345 M183.710 282.960 C 184.592 283.578,185.936 285.295,186.696 286.775 C 187.457 288.255,189.534 290.895,191.312 292.641 C 197.162 298.386,202.402 306.663,203.731 312.255 L 204.213 314.286 204.318 311.977 L 204.423 309.668 205.226 311.502 C 205.937 313.123,205.904 313.716,204.942 316.630 C 203.735 320.289,203.845 320.182,198.456 322.954 C 196.336 324.043,194.438 325.201,194.237 325.527 C 193.633 326.504,193.010 326.204,192.271 324.583 C 191.886 323.738,189.724 321.337,187.466 319.247 C 184.741 316.724,182.927 314.475,182.069 312.557 C 180.277 308.553,179.073 307.463,173.599 304.893 C 169.861 303.138,168.342 302.040,166.568 299.812 C 163.626 296.118,162.593 295.263,158.518 293.154 L 155.132 291.402 156.787 289.661 C 157.697 288.703,159.481 287.302,160.750 286.547 C 162.020 285.792,164.177 283.867,165.544 282.270 C 167.620 279.843,168.351 279.365,169.984 279.365 C 171.058 279.365,172.081 279.133,172.257 278.849 C 172.644 278.222,181.471 281.390,183.710 282.960 M147.983 287.419 C 151.082 288.598,149.271 295.155,145.091 297.889 C 141.922 299.962,136.783 303.246,134.941 304.377 C 131.588 306.436,130.649 305.627,133.026 302.727 C 134.203 301.291,135.430 299.158,135.753 297.989 C 136.076 296.819,137.417 294.591,138.733 293.037 C 144.300 286.463,144.749 286.190,147.983 287.419 M159.328 294.344 C 161.829 295.830,163.973 297.693,165.481 299.690 C 167.719 302.655,169.145 303.601,176.190 306.797 C 177.381 307.338,178.355 308.188,178.355 308.687 C 178.355 309.185,178.854 310.130,179.463 310.785 C 180.073 311.441,181.653 313.988,182.974 316.446 C 185.268 320.712,186.436 322.246,186.436 320.992 C 186.436 320.674,186.176 320.254,185.859 320.058 C 185.541 319.862,185.292 319.392,185.305 319.014 C 185.339 318.063,189.132 322.446,190.028 324.469 C 190.821 326.260,191.787 326.750,191.287 325.108 C 191.118 324.553,191.398 324.819,191.908 325.699 C 192.419 326.580,192.685 327.544,192.501 327.843 C 192.316 328.141,192.581 329.990,193.089 331.951 C 195.052 339.525,192.446 344.990,184.579 349.801 C 182.655 350.977,181.314 352.427,180.007 354.741 C 178.479 357.449,177.349 358.539,173.491 361.028 C 170.062 363.240,168.355 364.790,167.058 366.868 C 165.747 368.970,164.264 370.305,161.290 372.064 C 156.589 374.843,154.395 377.502,150.369 385.295 C 148.786 388.358,147.322 390.970,147.114 391.098 C 146.907 391.226,146.577 391.967,146.382 392.744 C 145.571 395.976,137.615 409.620,135.036 412.202 C 133.565 413.675,131.572 416.273,130.609 417.974 C 128.433 421.816,127.294 422.849,122.777 425.074 C 119.492 426.692,119.011 427.178,117.028 430.880 C 114.835 434.977,109.231 440.981,107.602 440.981 C 102.667 440.981,77.345 463.912,77.345 468.380 C 77.345 469.298,78.424 468.489,78.708 467.358 C 79.751 463.200,105.717 440.475,107.890 441.819 C 108.717 442.329,114.057 437.681,115.729 434.995 C 120.510 427.315,120.910 426.846,123.909 425.397 C 127.715 423.557,128.993 422.387,131.469 418.470 C 132.573 416.724,134.708 413.997,136.214 412.410 C 138.902 409.576,146.048 397.118,146.874 393.826 C 147.096 392.943,147.487 392.087,147.742 391.925 C 147.997 391.763,149.567 389.034,151.230 385.860 C 155.709 377.312,156.962 375.735,161.286 373.206 C 165.109 370.970,167.558 368.624,168.711 366.094 C 169.044 365.365,171.438 363.370,174.033 361.661 L 178.750 358.555 183.658 359.127 C 192.309 360.135,220.252 356.811,234.343 353.097 C 239.828 351.651,262.962 351.335,270.352 352.604 C 277.934 353.907,285.755 354.978,287.674 354.978 C 288.781 354.978,289.850 355.242,290.049 355.565 C 290.249 355.888,290.637 356.012,290.912 355.842 C 291.188 355.672,293.260 355.838,295.517 356.210 C 298.618 356.722,299.783 356.725,300.286 356.222 C 301.326 355.182,304.332 355.424,311.460 357.124 L 318.038 358.692 318.112 362.174 L 318.186 365.657 318.833 362.392 L 319.481 359.127 321.608 360.222 C 322.778 360.824,323.897 361.579,324.095 361.899 C 324.293 362.220,324.955 362.482,325.567 362.482 C 326.966 362.482,329.270 365.947,330.172 369.408 C 330.544 370.837,331.086 372.295,331.375 372.649 C 331.665 373.003,332.668 375.675,333.604 378.587 C 335.751 385.267,336.761 386.660,341.159 389.004 C 344.187 390.618,344.878 391.295,345.832 393.573 C 346.447 395.045,347.246 396.768,347.607 397.403 C 347.969 398.038,348.617 399.336,349.047 400.289 C 352.048 406.927,355.548 412.156,358.800 414.856 C 360.821 416.535,362.054 418.364,364.235 422.918 C 366.506 427.659,367.427 428.998,368.954 429.780 C 371.715 431.195,371.660 430.895,371.765 445.016 C 371.819 452.162,371.884 460.087,371.910 462.626 L 371.957 467.244 362.746 467.350 C 357.680 467.408,352.600 467.249,351.457 466.997 C 350.313 466.745,343.690 466.724,336.738 466.951 C 329.786 467.177,320.657 467.234,316.450 467.077 L 308.802 466.792 308.813 463.555 C 308.818 461.774,309.212 457.850,309.687 454.834 C 310.161 451.818,310.800 445.714,311.106 441.270 C 311.412 436.825,312.181 429.683,312.816 425.397 C 314.735 412.435,315.728 403.170,315.739 398.138 C 315.745 395.511,316.130 390.895,316.595 387.879 C 317.100 384.599,317.404 378.916,317.352 373.737 L 317.264 365.079 316.844 374.892 C 316.614 380.289,316.140 386.263,315.791 388.167 C 315.443 390.072,315.159 393.709,315.160 396.248 C 315.162 401.284,314.003 412.193,312.217 423.952 C 311.590 428.077,310.816 435.350,310.496 440.113 C 310.176 444.876,309.534 451.304,309.070 454.397 C 308.605 457.490,308.225 461.171,308.225 462.575 C 308.225 466.973,308.284 466.935,301.386 466.905 C 298.005 466.890,288.030 467.064,279.221 467.290 L 263.203 467.702 263.217 465.453 C 263.231 463.220,263.841 460.092,264.642 458.153 C 264.879 457.577,264.804 457.143,264.467 457.143 C 263.761 457.143,262.626 462.085,262.626 465.160 L 262.626 467.349 253.824 468.022 C 235.041 469.457,236.072 469.909,232.283 458.586 C 227.648 444.735,227.227 435.993,231.138 434.792 C 233.933 433.935,243.970 437.573,249.206 441.342 C 249.936 441.867,250.505 442.005,250.505 441.656 C 250.505 439.283,234.387 433.072,230.921 434.111 C 226.033 435.575,227.972 453.268,234.409 465.922 C 235.008 467.100,235.498 468.192,235.498 468.349 C 235.498 468.828,232.231 469.153,220.491 469.842 C 214.300 470.206,207.677 470.732,205.772 471.012 C 201.609 471.623,173.126 471.869,164.214 471.371 C 153.130 470.752,106.891 469.709,96.392 469.842 C 67.138 470.212,33.432 469.774,31.225 468.995 C 28.937 468.188,22.153 467.304,13.276 466.657 L 8.369 466.299 8.369 420.595 C 8.369 395.458,8.168 372.714,7.921 370.052 C 7.404 364.474,7.818 363.423,11.370 361.303 C 12.577 360.582,15.382 358.113,17.605 355.816 C 20.909 352.400,22.224 351.458,24.820 350.645 C 27.107 349.929,28.882 348.798,31.169 346.602 C 32.915 344.924,35.902 342.830,37.807 341.946 C 39.711 341.063,41.939 339.629,42.756 338.760 C 43.574 337.890,45.969 336.364,48.078 335.367 C 50.188 334.370,52.635 332.791,53.516 331.857 C 54.398 330.923,55.553 330.159,56.083 330.159 C 56.613 330.159,57.137 329.886,57.248 329.554 C 57.672 328.281,63.668 328.296,69.553 329.584 C 81.276 332.149,88.877 330.976,95.815 325.529 C 96.926 324.656,99.784 322.909,102.165 321.645 C 105.696 319.771,106.899 318.750,108.693 316.108 C 110.521 313.414,111.299 312.766,113.310 312.259 C 114.640 311.923,117.677 310.976,120.058 310.155 C 122.439 309.333,126.744 307.952,129.625 307.087 C 136.868 304.912,147.959 297.885,149.444 294.530 C 150.866 291.320,154.133 291.258,159.328 294.344 M300.866 373.803 C 297.779 376.488,297.271 377.265,298.557 377.337 C 298.954 377.359,300.107 377.561,301.119 377.787 C 302.845 378.171,303.018 378.060,303.878 376.001 C 306.247 370.330,305.492 369.780,300.866 373.803 M291.486 374.463 C 291.486 375.338,291.245 376.896,290.949 377.926 C 290.653 378.960,290.637 379.798,290.914 379.798 C 291.595 379.798,289.815 384.968,288.587 386.560 C 287.416 388.077,286.622 394.039,287.335 395.965 C 287.722 397.011,287.924 396.277,288.220 392.744 C 288.486 389.578,288.952 387.696,289.731 386.638 C 290.351 385.797,291.034 384.368,291.250 383.463 C 292.855 376.719,302.453 381.688,302.453 389.264 C 302.453 391.426,294.583 398.534,292.903 397.890 C 292.505 397.737,292.009 397.890,291.799 398.229 C 289.917 401.275,299.332 395.698,302.597 391.832 C 305.301 388.632,299.808 379.221,295.236 379.221 C 293.969 379.221,293.795 378.973,293.795 377.163 C 293.795 374.950,292.946 372.872,292.043 372.872 C 291.737 372.872,291.486 373.588,291.486 374.463 M303.203 374.892 C 302.226 376.940,301.130 377.462,300.374 376.239 C 300.130 375.845,300.654 375.010,301.638 374.222 C 303.954 372.369,304.329 372.530,303.203 374.892 M292.742 377.693 C 292.218 378.774,292.139 378.638,292.120 376.623 C 292.102 374.703,292.203 374.494,292.720 375.384 C 293.154 376.130,293.160 376.827,292.742 377.693 M291.631 385.072 C 288.191 390.459,289.452 395.960,294.127 395.960 C 296.021 395.960,298.990 391.219,298.981 388.208 C 298.962 381.540,294.973 379.838,291.631 385.072 M328.968 391.486 C 327.342 396.645,325.125 403.496,324.040 406.712 C 321.264 414.940,320.116 426.309,319.531 451.371 L 319.322 460.317 319.752 453.102 C 321.966 415.973,321.946 416.144,325.614 404.434 C 328.575 394.978,331.916 384.965,332.726 383.117 C 332.993 382.506,332.922 382.107,332.546 382.107 C 332.204 382.107,330.594 386.328,328.968 391.486 M296.928 383.591 C 297.427 384.090,297.835 385.148,297.835 385.942 L 297.835 387.385 296.315 386.189 C 294.742 384.952,293.795 384.668,293.795 385.433 C 293.795 385.675,294.378 386.130,295.090 386.443 C 296.757 387.176,297.055 388.818,295.776 390.231 C 294.394 391.758,293.599 391.624,294.023 389.934 C 294.448 388.241,293.513 387.493,292.265 388.528 C 291.591 389.088,291.448 389.902,291.702 391.753 C 292.032 394.161,291.387 395.150,290.682 393.315 C 288.979 388.877,294.156 380.818,296.928 383.591 M281.789 383.954 C 280.778 384.965,280.941 386.023,282.213 386.704 C 283.756 387.530,284.320 387.459,285.488 386.291 C 286.043 385.736,286.772 385.281,287.108 385.281 C 287.444 385.281,287.806 384.827,287.913 384.271 C 288.149 383.048,282.964 382.779,281.789 383.954 M306.494 385.920 C 306.494 387.582,306.678 387.932,307.407 387.652 C 307.909 387.459,309.337 387.302,310.581 387.302 C 313.487 387.302,313.438 386.749,310.390 385.134 C 307.023 383.351,306.494 383.458,306.494 385.920 M285.334 385.312 C 284.937 386.346,282.748 386.216,282.392 385.137 C 282.237 384.666,282.765 384.416,283.916 384.416 C 285.272 384.416,285.599 384.622,285.334 385.312 M309.044 385.343 C 310.333 385.838,310.178 386.724,308.802 386.724 C 308.161 386.724,307.648 386.340,307.648 385.859 C 307.648 384.887,307.754 384.848,309.044 385.343 M293.067 390.308 C 292.873 392.107,294.725 392.331,296.444 390.716 C 298.588 388.702,298.268 390.809,296.046 393.340 C 294.269 395.364,292.937 395.632,293.630 393.826 C 293.853 393.244,293.759 393.028,293.382 393.261 C 292.706 393.679,292.006 391.008,292.473 389.791 C 292.920 388.628,293.220 388.890,293.067 390.308 M283.091 391.962 C 281.912 394.233,279.864 400.691,280.212 401.040 C 280.341 401.168,281.631 400.282,283.080 399.071 C 285.971 396.655,286.330 395.249,284.916 391.884 L 284.117 389.985 283.091 391.962 M306.679 390.669 C 305.377 391.517,304.597 393.768,305.424 394.293 C 306.796 395.162,309.380 394.897,309.380 393.886 C 309.380 392.584,307.386 390.209,306.679 390.669 M308.225 393.703 C 308.225 393.972,307.835 394.042,307.359 393.860 C 306.883 393.677,306.494 393.134,306.494 392.653 C 306.494 391.940,306.654 391.911,307.359 392.496 C 307.835 392.892,308.225 393.435,308.225 393.703 M284.560 394.739 C 284.560 396.525,284.250 397.184,283.038 397.978 L 281.516 398.976 281.903 397.323 C 283.043 392.462,284.560 390.987,284.560 394.739 M200.722 394.874 C 202.945 395.516,202.996 395.749,201.314 397.540 C 200.292 398.628,200.189 399.005,200.811 399.389 C 201.240 399.654,201.412 400.160,201.194 400.513 C 200.954 400.902,201.252 401.154,201.952 401.154 C 202.587 401.154,203.267 401.414,203.463 401.732 C 204.218 402.953,206.035 402.326,206.386 400.722 C 207.082 397.546,207.236 397.302,207.855 398.405 C 208.608 399.746,207.680 401.399,205.253 403.037 C 201.655 405.466,195.093 411.213,194.776 412.215 C 194.596 412.779,193.025 413.739,191.168 414.418 C 184.907 416.708,184.576 416.906,183.767 418.840 C 182.819 421.109,182.742 423.887,183.583 425.458 C 184.058 426.346,183.930 427.022,183.005 428.518 C 181.584 430.818,181.482 431.589,182.736 430.548 C 184.091 429.424,194.403 429.285,196.104 430.368 C 198.044 431.604,197.700 432.717,195.238 433.174 C 194.048 433.395,192.636 433.968,192.102 434.447 C 190.667 435.735,187.052 436.887,184.357 436.916 C 182.991 436.930,180.856 437.544,179.306 438.368 C 173.741 441.327,156.999 443.620,156.999 441.423 C 156.999 440.875,158.012 440.279,159.740 439.810 C 161.248 439.401,163.716 438.454,165.224 437.706 L 167.965 436.344 167.887 433.324 C 167.844 431.662,167.702 430.952,167.571 431.746 C 166.863 436.061,165.110 437.622,159.163 439.234 C 154.519 440.492,155.751 443.535,160.599 442.783 C 160.833 442.747,163.431 442.585,166.371 442.422 C 172.026 442.110,175.124 441.308,179.752 438.959 C 181.313 438.167,183.391 437.512,184.369 437.504 C 187.124 437.483,190.511 436.552,192.156 435.365 C 192.978 434.772,194.755 433.964,196.104 433.570 C 200.952 432.155,197.364 428.367,191.791 429.017 C 187.460 429.522,183.369 428.907,184.222 427.880 C 184.754 427.238,184.743 426.594,184.171 425.012 C 182.490 420.364,186.563 415.041,191.821 415.013 C 192.402 415.010,194.387 413.514,196.232 411.688 C 198.077 409.863,200.930 407.330,202.572 406.061 C 208.868 401.190,209.778 399.898,208.419 397.751 C 207.589 396.441,206.153 397.475,205.740 399.681 C 205.279 402.136,204.952 402.197,202.955 400.200 C 201.572 398.817,201.509 398.575,202.299 397.702 C 203.557 396.312,203.378 394.994,201.876 394.592 C 199.753 394.023,198.681 394.285,200.722 394.874 M196.647 396.970 C 196.163 398.160,195.226 399.586,194.565 400.139 C 193.903 400.691,193.362 401.737,193.362 402.463 C 193.362 404.309,191.711 406.552,190.857 405.866 C 189.211 404.543,186.538 404.513,185.388 405.803 C 177.044 415.168,173.703 418.713,172.583 419.390 C 171.210 420.220,167.388 424.750,167.391 425.543 C 167.393 425.939,168.021 425.483,168.788 424.531 L 170.181 422.799 169.039 426.199 C 168.331 428.308,168.102 429.804,168.436 430.139 C 168.771 430.473,169.125 429.680,169.370 428.051 C 169.586 426.606,170.008 425.272,170.308 425.088 C 170.607 424.903,170.851 424.121,170.851 423.350 C 170.851 422.435,171.690 421.192,173.263 419.776 C 176.838 416.557,183.226 409.721,185.774 406.388 C 186.842 404.991,186.858 404.990,188.991 406.002 C 192.148 407.500,193.229 406.710,194.189 402.203 C 194.371 401.351,195.038 400.489,195.672 400.288 C 196.307 400.087,196.825 399.537,196.825 399.067 C 196.825 398.596,197.222 397.445,197.706 396.508 C 198.190 395.572,198.348 394.805,198.057 394.805 C 197.766 394.805,197.132 395.779,196.647 396.970 M298.869 399.791 C 298.006 400.654,299.905 405.195,301.128 405.195 C 302.650 405.195,302.997 403.353,301.886 401.174 C 300.562 398.580,300.232 398.428,298.869 399.791 M147.042 402.482 C 145.157 403.226,145.056 404.245,146.611 406.796 C 148.528 409.940,147.957 412.460,145.786 410.442 C 144.401 409.154,140.564 408.275,140.039 409.126 C 139.831 409.462,140.535 409.697,141.750 409.697 C 143.114 409.697,144.297 410.151,145.238 411.034 C 148.155 413.775,149.897 410.543,147.685 406.495 C 145.686 402.834,148.383 401.705,154.000 403.850 C 156.341 404.744,156.504 404.942,156.258 406.591 C 155.815 409.557,156.727 411.159,158.595 410.697 C 160.633 410.194,163.294 407.652,163.735 405.788 C 164.097 404.256,165.522 402.309,166.281 402.309 C 167.077 402.309,167.201 404.293,166.498 405.772 C 166.120 406.566,165.490 408.582,165.098 410.252 C 164.277 413.745,162.791 415.212,156.474 418.771 C 152.990 420.733,152.409 421.303,151.810 423.349 C 150.603 427.475,148.437 430.484,144.856 433.009 C 141.145 435.626,140.942 436.085,142.318 438.745 C 143.142 440.339,143.138 440.618,142.274 441.938 C 141.149 443.654,141.511 445.022,143.089 445.022 C 144.622 445.022,145.269 447.186,144.089 448.366 C 143.264 449.191,143.076 449.178,142.015 448.217 C 140.877 447.187,140.818 447.199,139.646 448.689 C 137.790 451.049,136.797 450.676,136.797 447.619 C 136.797 444.978,136.242 444.477,134.525 445.564 C 133.841 445.996,133.827 446.246,134.445 446.991 C 134.857 447.487,135.035 448.307,134.841 448.812 C 134.201 450.481,128.139 448.601,128.139 446.734 C 128.139 446.195,127.609 445.082,126.963 444.260 C 126.079 443.136,125.929 442.508,126.359 441.729 C 128.774 437.355,129.664 434.055,128.427 434.055 C 127.906 434.055,127.561 434.589,127.561 435.397 C 127.561 436.882,125.601 438.980,123.810 439.414 C 122.814 439.655,122.799 439.702,123.703 439.760 C 124.280 439.797,125.228 439.572,125.811 439.260 C 126.936 438.657,126.888 440.616,125.760 441.313 C 124.917 441.834,125.186 443.312,126.407 444.864 C 127.042 445.671,127.561 446.772,127.561 447.311 C 127.561 448.356,129.144 449.329,131.779 449.902 C 132.851 450.136,133.366 450.590,133.300 451.246 C 133.012 454.112,134.175 454.685,134.771 451.971 C 135.104 450.458,135.334 450.299,136.777 450.588 C 137.981 450.829,138.741 450.581,139.680 449.642 C 140.605 448.716,141.126 448.543,141.587 449.004 C 142.664 450.081,144.293 449.709,144.966 448.233 C 145.788 446.427,145.279 445.146,143.464 444.456 C 142.044 443.916,142.037 443.881,143.001 442.201 C 143.924 440.593,143.922 440.374,142.966 438.368 C 142.011 436.365,142.328 434.632,143.649 434.632 C 144.716 434.633,148.027 443.208,148.213 446.449 C 148.796 456.625,147.541 459.175,141.765 459.555 L 138.941 459.740 137.975 456.890 C 136.474 452.461,135.642 452.838,135.642 457.947 C 135.642 464.217,131.132 466.420,128.459 461.456 C 127.885 460.391,127.073 459.388,126.653 459.227 C 124.230 458.297,121.851 446.214,122.066 435.931 C 122.145 432.133,121.975 429.437,121.655 429.437 C 120.283 429.437,122.053 453.824,123.640 456.789 C 128.697 466.238,137.457 467.351,136.535 458.428 L 136.193 455.123 137.231 457.720 C 138.426 460.714,139.278 461.014,143.870 460.054 C 148.228 459.143,148.206 459.176,148.799 452.633 C 149.412 445.861,148.977 442.601,146.891 438.326 C 145.156 434.771,145.066 433.102,146.582 432.620 C 148.238 432.095,151.628 427.181,152.379 424.217 C 152.992 421.799,153.327 421.472,157.960 418.759 C 163.627 415.441,165.348 413.673,165.921 410.575 C 166.146 409.362,166.726 407.527,167.211 406.498 C 168.302 404.183,167.815 401.732,166.265 401.732 C 165.005 401.732,162.771 404.297,162.771 405.742 C 162.771 406.961,159.974 409.652,158.442 409.908 C 157.424 410.078,157.287 409.780,157.287 407.390 C 157.287 404.187,157.071 403.948,153.036 402.694 C 149.559 401.613,149.266 401.603,147.042 402.482 M293.200 403.128 C 293.957 405.119,294.097 411.473,293.399 412.171 C 293.001 412.569,292.683 411.216,292.412 407.970 C 292.193 405.337,291.731 402.920,291.386 402.601 C 290.938 402.186,290.863 402.826,291.123 404.842 C 291.323 406.395,291.486 409.187,291.486 411.047 C 291.486 414.772,292.393 415.515,294.051 413.147 C 295.494 411.087,294.995 401.732,293.442 401.732 C 292.863 401.732,292.802 402.082,293.200 403.128 M282.828 403.185 C 282.828 403.427,283.260 403.940,283.788 404.326 C 284.937 405.166,284.516 406.600,282.861 407.486 C 281.761 408.075,281.674 407.962,281.674 405.965 C 281.674 404.442,281.494 403.990,281.060 404.424 C 280.722 404.762,280.527 406.133,280.627 407.472 L 280.808 409.905 283.298 408.097 C 284.761 407.034,285.713 405.914,285.607 405.378 C 285.421 404.442,282.828 402.395,282.828 403.185 M140.021 413.908 C 141.099 415.100,141.096 415.133,139.777 416.201 C 138.421 417.299,135.642 416.453,135.642 414.941 C 135.642 414.660,135.353 414.430,134.999 414.430 C 134.614 414.430,134.754 415.039,135.347 415.944 C 136.522 417.738,135.812 419.676,133.613 420.678 C 132.840 421.030,132.127 422.010,131.904 423.024 C 131.325 425.664,129.469 427.637,126.042 429.260 C 124.338 430.067,122.944 430.926,122.944 431.170 C 122.944 431.413,124.604 430.731,126.633 429.654 C 130.400 427.654,131.827 426.135,132.515 423.392 C 132.762 422.409,133.614 421.506,134.850 420.916 C 136.005 420.366,136.797 419.562,136.797 418.941 C 136.797 418.365,137.211 417.893,137.718 417.893 C 140.711 417.893,142.710 415.259,140.936 413.654 C 139.419 412.281,138.724 412.475,140.021 413.908 M278.713 414.823 C 278.379 416.946,278.228 418.923,278.032 423.726 C 277.683 432.259,274.170 433.809,274.170 425.430 C 274.170 422.553,272.962 421.459,270.964 422.528 C 269.862 423.118,269.372 423.138,268.848 422.615 C 266.864 420.630,263.781 422.106,263.781 425.040 C 263.781 425.744,263.456 426.650,263.059 427.052 C 262.481 427.638,262.555 427.944,263.433 428.592 C 264.324 429.250,264.396 429.562,263.817 430.260 C 263.138 431.077,263.398 432.323,264.248 432.323 C 264.781 432.323,264.760 429.070,264.224 428.534 C 263.992 428.302,263.927 427.501,264.080 426.754 C 264.233 426.008,264.493 424.747,264.657 423.954 C 265.017 422.220,267.556 421.928,268.698 423.489 C 269.365 424.402,269.510 424.403,270.873 423.510 C 272.676 422.329,273.933 423.388,273.373 425.617 C 272.815 427.842,274.488 431.169,276.164 431.169 C 278.109 431.169,278.162 430.998,278.792 422.748 C 279.365 415.244,279.488 414.658,280.375 415.207 C 281.121 415.668,280.717 436.586,279.958 436.840 C 278.712 437.255,277.633 438.795,277.633 440.159 C 277.633 440.931,277.114 442.532,276.479 443.716 C 275.844 444.901,275.325 446.881,275.325 448.116 C 275.325 449.350,274.686 451.822,273.905 453.607 C 272.267 457.356,271.247 462.498,271.688 464.784 C 272.192 467.395,272.981 465.978,272.656 463.043 C 272.441 461.096,272.711 459.328,273.599 456.854 C 275.373 451.913,276.479 447.868,276.479 446.319 C 276.479 445.583,276.840 444.406,277.280 443.703 C 277.721 443.000,278.252 441.450,278.461 440.260 C 278.669 439.069,279.070 438.095,279.350 438.095 C 281.926 438.095,282.651 414.898,280.087 414.534 C 279.372 414.433,278.754 414.563,278.713 414.823 M249.158 426.359 C 248.314 427.203,248.853 429.654,250.247 431.311 C 251.075 432.295,251.574 433.445,251.385 433.937 C 251.018 434.895,252.739 440.671,253.242 440.168 C 253.413 439.997,254.231 440.232,255.059 440.690 C 259.556 443.175,264.000 443.995,265.397 442.597 C 266.435 441.559,266.298 443.272,265.161 445.551 C 263.888 448.103,261.765 449.044,260.440 447.646 C 259.501 446.654,259.516 446.617,260.750 446.912 C 261.587 447.112,262.049 446.957,262.049 446.476 C 262.049 446.066,261.335 445.596,260.462 445.433 C 259.589 445.270,257.372 444.551,255.536 443.836 L 252.197 442.535 250.539 444.123 C 249.627 444.997,248.662 445.714,248.394 445.717 C 247.445 445.728,243.283 448.070,242.828 448.850 C 242.573 449.285,241.433 450.120,240.293 450.705 C 237.294 452.243,235.028 459.481,236.815 461.811 C 237.991 463.345,243.859 463.656,246.078 462.303 C 247.085 461.689,248.442 461.187,249.096 461.185 C 251.660 461.181,252.486 459.850,252.376 455.908 C 252.319 453.889,252.616 451.457,253.035 450.505 L 253.797 448.773 255.989 451.070 C 258.305 453.498,261.429 454.335,263.075 452.970 C 263.680 452.467,263.993 452.507,264.393 453.140 C 264.816 453.809,264.919 453.761,264.926 452.891 C 264.933 452.032,264.672 451.899,263.636 452.238 C 260.842 453.150,258.569 452.590,256.600 450.502 C 253.375 447.083,251.515 448.785,251.551 455.122 C 251.575 459.137,250.812 460.606,248.704 460.606 C 248.076 460.606,246.730 461.051,245.714 461.595 C 243.652 462.699,238.390 462.672,237.671 461.554 C 236.078 459.076,238.269 452.550,241.259 450.869 C 242.535 450.152,243.579 449.370,243.579 449.132 C 243.579 448.728,247.247 446.753,247.998 446.753 C 248.185 446.753,248.014 447.143,247.619 447.619 C 247.224 448.095,247.102 448.485,247.349 448.485 C 247.595 448.485,248.703 447.426,249.811 446.132 C 251.317 444.373,251.948 443.972,252.311 444.544 C 252.684 445.133,252.798 445.084,252.805 444.332 C 252.819 442.836,258.509 445.323,259.194 447.124 C 260.342 450.143,264.267 449.321,265.826 445.735 C 266.342 444.549,267.002 443.128,267.292 442.576 C 268.034 441.171,267.968 440.981,266.737 440.981 C 266.141 440.981,265.330 441.371,264.935 441.847 C 262.674 444.572,252.814 439.853,252.814 436.045 C 252.814 435.268,253.043 434.632,253.324 434.632 C 253.604 434.632,253.969 434.113,254.135 433.478 C 254.582 431.771,255.974 432.069,258.183 434.343 C 260.240 436.461,261.839 437.210,260.026 435.206 C 258.226 433.217,259.635 433.181,262.420 435.144 C 265.061 437.006,267.572 437.012,268.717 435.161 C 269.342 434.149,268.262 431.746,267.181 431.746 C 266.538 431.746,266.089 431.342,266.089 430.765 C 266.089 430.044,265.919 429.954,265.447 430.426 C 264.617 431.256,265.284 432.323,266.633 432.323 C 268.350 432.323,268.524 434.523,266.891 435.593 C 265.644 436.410,265.369 436.418,264.487 435.660 C 263.045 434.419,259.129 432.465,257.287 432.067 C 256.235 431.840,255.700 431.355,255.700 430.631 C 255.700 428.788,250.273 425.244,249.158 426.359 M254.388 429.585 C 255.623 430.946,255.022 431.387,252.559 430.925 C 250.402 430.520,249.123 428.970,249.702 427.462 C 250.093 426.443,252.545 427.553,254.388 429.585 M136.179 447.186 C 136.143 448.593,136.082 448.642,135.642 447.619 C 134.965 446.042,134.965 445.599,135.642 445.599 C 135.960 445.599,136.201 446.313,136.179 447.186 " stroke="none" fill="#000000" fill-rule="evenodd"></path></g></svg>