<svg id="svg" xmlns="http://www.w3.org/2000/svg" xmlns:xlink="http://www.w3.org/1999/xlink" width="400" height="213.42756183745584" viewBox="0, 0, 400,213.42756183745584"><g id="svgg"><path id="path0" d="M151.237 21.983 C 149.099 23.545,146.543 25.592,145.557 26.533 C 142.915 29.055,140.229 29.321,135.157 27.566 C 132.741 26.730,130.157 26.239,129.414 26.475 C 128.671 26.710,126.720 26.365,125.076 25.708 C 122.205 24.559,122.060 24.565,121.349 25.860 C 120.942 26.602,119.312 28.486,117.725 30.047 C 116.139 31.608,113.597 34.311,112.077 36.054 C 106.228 42.760,98.483 50.602,96.114 52.218 C 92.698 54.547,90.505 56.745,90.922 57.421 C 91.115 57.732,92.227 57.184,93.393 56.202 C 94.560 55.220,95.967 54.417,96.521 54.417 C 97.074 54.417,97.527 54.099,97.527 53.710 C 97.527 52.503,100.413 50.048,101.391 50.423 C 101.901 50.619,102.976 50.167,103.780 49.418 C 104.584 48.669,105.493 48.055,105.801 48.052 C 106.109 48.050,106.908 47.175,107.577 46.109 C 109.664 42.781,110.520 41.654,113.251 38.627 C 114.708 37.011,115.901 35.451,115.901 35.159 C 115.901 34.256,117.804 34.576,118.676 35.626 C 119.257 36.327,119.277 36.763,118.743 37.093 C 118.326 37.351,118.030 37.936,118.086 38.393 C 118.350 40.533,117.929 42.394,116.961 43.362 C 116.378 43.945,115.901 44.626,115.901 44.876 C 115.901 45.572,113.967 47.350,113.211 47.350 C 111.678 47.350,110.656 49.536,111.533 50.941 C 112.262 52.109,112.183 52.297,110.960 52.297 C 110.179 52.297,109.541 52.615,109.541 53.004 C 109.541 53.392,109.045 53.710,108.439 53.710 C 107.833 53.710,107.547 54.050,107.803 54.465 C 108.060 54.879,107.605 55.393,106.793 55.605 C 105.981 55.817,105.490 56.273,105.703 56.617 C 105.916 56.962,105.595 57.244,104.989 57.244 C 104.358 57.244,103.887 57.848,103.887 58.657 C 103.887 60.706,104.672 60.421,107.774 57.244 C 109.954 55.011,111.054 54.417,113.006 54.417 C 114.928 54.417,115.289 54.229,114.629 53.569 C 113.209 52.149,113.576 49.470,115.191 49.470 C 115.966 49.470,118.225 47.880,120.209 45.936 C 122.194 43.993,124.104 42.403,124.453 42.403 C 124.803 42.403,125.088 42.110,125.088 41.752 C 125.088 41.394,126.081 40.884,127.294 40.617 C 128.629 40.324,129.642 39.589,129.861 38.754 C 130.078 37.922,130.619 37.528,131.225 37.761 C 131.782 37.975,132.036 37.835,131.796 37.446 C 131.558 37.061,132.098 36.461,132.996 36.112 C 133.894 35.763,135.563 34.492,136.705 33.287 C 137.846 32.081,139.338 31.095,140.020 31.095 C 140.702 31.095,141.439 30.804,141.660 30.448 C 142.215 29.548,146.734 29.998,148.041 31.082 C 149.442 32.245,149.412 33.216,147.974 33.216 C 147.180 33.216,146.944 33.646,147.201 34.629 C 147.405 35.406,147.340 36.042,147.058 36.042 C 146.052 36.042,142.186 39.969,140.879 42.318 C 140.148 43.631,139.273 44.637,138.935 44.554 C 138.597 44.471,138.126 44.683,137.888 45.027 C 137.650 45.370,136.343 46.416,134.982 47.350 C 133.622 48.285,131.994 49.621,131.366 50.320 C 130.737 51.018,129.863 51.590,129.422 51.590 C 128.982 51.590,128.622 51.871,128.622 52.214 C 128.622 52.558,127.986 53.005,127.208 53.208 C 125.396 53.682,125.365 55.124,127.167 55.124 C 127.921 55.124,128.735 55.442,128.975 55.830 C 129.626 56.884,130.754 56.685,130.334 55.590 C 129.633 53.763,131.906 52.729,134.375 53.751 L 136.596 54.671 134.861 56.163 C 133.907 56.984,132.918 58.199,132.663 58.863 C 132.408 59.527,131.649 60.071,130.976 60.071 C 130.025 60.071,129.941 60.259,130.601 60.919 C 132.070 62.388,131.532 63.642,128.975 64.710 C 127.615 65.278,126.502 65.989,126.502 66.288 C 126.502 66.588,125.557 67.391,124.401 68.074 C 123.246 68.756,121.779 70.415,121.141 71.760 C 120.502 73.105,119.699 74.205,119.354 74.205 C 117.534 74.205,119.436 75.760,125.795 79.470 C 133.648 84.052,133.961 84.442,130.330 85.123 C 128.585 85.451,127.913 85.901,128.170 86.570 C 128.375 87.104,128.164 87.667,127.702 87.821 C 127.239 87.976,126.860 88.553,126.858 89.104 C 126.856 89.655,126.574 90.106,126.229 90.106 C 125.885 90.106,125.325 90.858,124.986 91.777 C 124.548 92.961,123.973 93.344,123.014 93.093 C 122.097 92.854,121.775 93.038,122.016 93.665 C 122.211 94.175,121.701 94.950,120.883 95.388 C 119.428 96.166,119.486 97.527,120.974 97.527 C 121.385 97.527,124.324 94.903,127.503 91.696 C 136.543 82.579,140.541 81.212,145.504 85.545 C 147.838 87.583,148.410 87.936,148.410 87.339 C 148.410 85.417,140.581 81.217,134.425 79.837 C 129.421 78.716,127.123 77.840,125.943 76.605 C 125.053 75.674,123.701 74.912,122.940 74.912 C 120.642 74.912,121.190 74.196,130.928 64.478 C 141.388 54.040,140.529 54.469,146.059 56.915 C 152.354 59.698,152.550 58.671,146.494 54.639 C 142.416 51.924,140.205 50.916,137.961 50.752 L 134.932 50.530 143.933 41.343 C 148.883 36.290,152.856 31.758,152.761 31.272 C 152.661 30.759,153.314 30.389,154.320 30.389 C 155.874 30.389,156.102 30.009,156.552 26.678 C 156.827 24.638,157.192 22.733,157.362 22.445 C 157.910 21.520,170.779 28.525,176.073 32.632 C 177.647 33.852,179.511 34.629,180.866 34.629 C 182.086 34.629,184.108 35.058,185.358 35.582 C 187.742 36.581,188.927 37.371,200.807 45.879 C 204.833 48.763,214.647 55.729,222.615 61.360 C 230.583 66.990,238.534 72.796,240.283 74.260 C 244.022 77.391,247.128 78.670,254.610 80.156 C 257.631 80.756,261.765 82.167,263.797 83.292 C 270.018 86.735,285.771 94.560,287.456 95.044 C 290.561 95.937,288.957 94.069,282.257 88.989 C 276.194 84.392,274.264 82.283,271.638 77.385 C 271.221 76.608,270.118 75.879,269.186 75.766 C 264.101 75.147,263.343 73.241,266.055 67.889 C 268.202 63.653,267.396 62.450,262.894 63.170 C 259.682 63.683,259.349 63.102,261.822 61.303 C 263.758 59.895,265.826 59.632,268.905 60.401 C 271.020 60.929,271.021 60.927,269.435 59.754 C 267.173 58.080,267.454 56.367,270.536 53.063 C 273.987 49.362,274.621 49.414,282.024 54.015 C 290.200 59.097,290.495 58.256,282.660 52.201 C 273.223 44.907,270.494 35.944,276.175 30.898 C 277.537 29.689,285.906 33.771,288.596 36.957 C 289.320 37.814,290.751 38.558,291.776 38.610 C 301.082 39.078,301.451 39.253,321.173 52.535 C 329.159 57.914,337.608 63.242,339.948 64.375 C 342.288 65.509,346.765 68.025,349.896 69.967 C 353.027 71.909,355.708 73.498,355.854 73.498 C 356.000 73.498,359.712 75.659,364.102 78.299 C 373.511 83.958,377.136 85.736,378.300 85.263 C 378.794 85.063,378.656 84.894,377.974 84.861 C 377.326 84.831,376.690 84.552,376.561 84.241 C 376.431 83.931,371.312 80.571,365.184 76.774 L 354.044 69.870 356.324 66.695 C 358.863 63.160,358.454 62.202,354.417 62.224 C 352.400 62.235,352.364 62.286,353.669 63.273 C 355.011 64.289,355.008 64.311,353.514 64.311 C 352.448 64.311,352.110 64.630,352.395 65.371 C 353.083 67.164,347.223 65.262,346.408 63.428 C 346.278 63.136,345.834 62.898,345.422 62.898 C 344.485 62.898,338.519 59.167,338.517 58.580 C 338.514 57.451,344.844 58.647,347.703 60.317 C 351.296 62.415,351.938 62.564,351.957 61.307 C 351.971 60.397,362.458 55.124,364.254 55.124 C 364.809 55.124,366.639 56.157,368.320 57.420 C 372.795 60.782,376.338 62.919,382.686 66.085 C 385.795 67.636,388.445 69.143,388.575 69.435 C 388.704 69.726,389.141 69.965,389.545 69.965 C 389.988 69.965,389.930 69.545,389.399 68.905 C 388.915 68.322,388.081 67.845,387.546 67.845 C 387.011 67.845,386.572 67.527,386.572 67.138 C 386.572 66.749,386.175 66.411,385.689 66.385 C 385.203 66.360,381.466 63.969,377.385 61.071 C 373.304 58.173,368.559 55.133,366.841 54.316 C 363.398 52.679,364.394 52.642,345.936 55.101 C 331.872 56.974,331.800 56.970,326.855 53.841 C 324.523 52.365,322.138 50.932,321.555 50.656 C 320.972 50.380,319.159 49.284,317.527 48.222 C 307.493 41.689,300.643 37.881,296.257 36.397 C 290.039 34.293,285.649 32.308,281.301 29.633 C 276.860 26.900,276.857 26.900,270.318 31.804 C 267.208 34.136,263.551 36.555,262.191 37.181 C 260.830 37.807,257.248 39.748,254.231 41.494 L 248.744 44.668 243.249 44.182 L 237.753 43.695 228.120 48.350 C 222.821 50.909,218.021 53.004,217.453 53.004 C 216.141 53.004,196.664 41.139,191.552 37.226 C 186.337 33.234,185.272 32.683,183.438 33.034 C 181.177 33.466,178.268 32.053,167.274 25.181 C 156.054 18.167,156.374 18.231,151.237 21.983 M132.553 30.117 C 134.925 31.926,135.010 32.114,133.683 32.605 C 132.894 32.897,131.898 33.790,131.470 34.589 C 131.042 35.388,130.286 36.042,129.790 36.042 C 129.294 36.042,128.206 36.678,127.371 37.456 C 126.537 38.233,125.345 38.869,124.723 38.869 C 124.101 38.869,123.788 39.187,124.028 39.576 C 124.268 39.965,123.821 40.283,123.035 40.283 C 122.248 40.283,121.264 39.647,120.848 38.869 C 120.432 38.092,120.358 37.456,120.683 37.456 C 121.008 37.456,121.307 36.310,121.347 34.909 C 121.387 33.508,121.768 32.013,122.194 31.587 C 122.620 31.161,122.968 30.267,122.968 29.600 C 122.968 27.002,128.888 27.322,132.553 30.117 M267.491 39.410 C 269.221 40.681,270.879 43.227,271.062 44.895 C 271.171 45.893,271.641 47.168,272.105 47.728 C 273.211 49.060,272.476 50.883,270.835 50.883 C 269.151 50.883,267.855 52.208,268.329 53.443 C 268.551 54.021,268.241 54.417,267.567 54.417 C 266.942 54.417,266.431 54.894,266.431 55.477 C 266.431 56.060,265.969 56.537,265.403 56.537 C 264.838 56.537,263.580 57.332,262.608 58.304 C 261.637 59.276,260.509 60.071,260.103 60.071 C 259.696 60.071,259.364 60.533,259.364 61.098 C 259.364 62.264,255.125 63.657,253.148 63.140 C 252.431 62.953,251.430 63.298,250.924 63.908 C 250.418 64.519,249.486 65.028,248.853 65.040 C 247.432 65.068,245.230 66.678,245.230 67.689 C 245.230 68.157,246.272 68.028,248.016 67.343 C 250.537 66.353,250.907 66.354,251.908 67.355 C 252.869 68.316,253.262 68.333,254.896 67.486 C 256.866 66.464,258.246 66.827,260.339 68.920 C 261.563 70.145,261.136 72.085,259.642 72.085 C 258.213 72.085,258.435 73.330,260.016 74.175 C 260.763 74.575,261.804 75.302,262.330 75.790 C 264.195 77.523,269.182 81.272,269.621 81.272 C 269.867 81.272,269.404 80.428,268.593 79.397 C 267.150 77.564,267.069 76.469,268.439 77.316 C 269.861 78.194,274.136 84.765,273.530 85.140 C 272.797 85.592,264.311 80.784,264.311 79.916 C 264.311 79.065,259.262 74.307,256.511 72.565 C 254.005 70.978,254.098 71.772,256.765 74.735 C 258.330 76.473,257.956 76.756,255.696 75.547 C 254.170 74.730,252.016 74.273,248.314 73.981 C 245.853 73.787,240.110 70.214,234.812 65.581 C 232.902 63.911,230.190 61.607,228.785 60.462 C 226.314 58.448,227.122 55.308,229.701 56.902 C 230.098 57.148,230.378 57.087,230.323 56.766 C 230.076 55.347,230.495 55.130,231.979 55.909 C 232.853 56.368,233.823 57.174,234.134 57.700 C 234.445 58.227,235.240 58.652,235.901 58.646 C 236.782 58.638,236.490 58.095,234.806 56.609 C 230.969 53.227,233.812 52.268,238.163 55.477 C 241.130 57.667,242.001 57.723,240.899 55.654 C 240.130 54.212,240.161 54.154,241.227 55.034 C 242.567 56.139,242.732 55.646,241.680 53.680 C 241.077 52.554,241.157 52.405,242.156 52.789 C 243.069 53.139,243.247 52.967,242.901 52.066 C 242.467 50.935,243.446 50.316,243.934 51.413 C 244.335 52.315,248.853 55.270,249.239 54.883 C 249.594 54.528,248.475 53.423,245.583 51.273 C 244.806 50.695,244.543 50.212,244.999 50.199 C 245.455 50.187,246.773 50.972,247.928 51.943 C 249.082 52.915,250.379 53.710,250.809 53.710 C 252.307 53.710,251.574 51.702,249.412 49.883 C 248.214 48.875,247.355 47.687,247.503 47.243 C 247.659 46.775,248.847 47.380,250.331 48.684 C 253.047 51.068,254.885 50.526,252.610 48.012 C 251.122 46.368,252.074 46.213,254.260 47.743 C 256.417 49.254,256.244 48.104,254.028 46.199 C 252.885 45.217,252.508 44.476,252.999 44.173 C 253.424 43.910,254.210 44.058,254.746 44.503 C 255.538 45.160,255.640 45.008,255.295 43.687 C 254.882 42.108,254.934 42.117,257.216 44.038 C 258.526 45.140,260.026 45.834,260.613 45.608 C 261.190 45.387,262.111 45.577,262.658 46.031 C 263.421 46.664,264.059 46.638,265.399 45.921 L 267.146 44.986 264.845 43.017 C 263.241 41.644,262.893 41.038,263.694 41.018 C 264.327 41.002,265.241 41.466,265.724 42.049 C 267.111 43.720,268.048 43.285,266.825 41.539 C 265.198 39.217,265.578 38.005,267.491 39.410 M184.158 40.506 C 182.408 41.785,185.022 44.361,193.091 49.309 C 199.215 53.065,201.725 54.022,200.000 51.943 C 199.516 51.360,198.762 50.883,198.325 50.883 C 197.887 50.883,195.105 48.339,192.143 45.230 C 186.422 39.226,186.138 39.058,184.158 40.506 M259.364 43.110 C 260.988 45.390,260.386 46.056,258.593 43.962 C 256.861 41.940,256.401 40.989,257.154 40.989 C 257.539 40.989,258.534 41.943,259.364 43.110 M80.330 44.994 C 80.071 45.253,79.859 46.535,79.859 47.843 C 79.859 50.561,78.596 51.392,76.320 50.174 C 75.479 49.724,74.603 49.544,74.373 49.773 C 73.758 50.388,76.375 52.161,78.670 52.683 C 80.917 53.195,81.867 54.811,80.642 56.037 C 80.022 56.657,79.487 56.645,78.437 55.989 C 75.446 54.121,75.527 56.000,78.574 59.143 C 81.107 61.757,80.950 62.658,78.180 61.396 C 75.192 60.034,75.035 61.421,77.915 63.734 C 80.495 65.805,81.402 67.845,79.744 67.845 C 78.691 67.845,72.594 64.316,71.947 63.333 C 71.676 62.921,71.220 62.820,70.934 63.106 C 70.647 63.393,70.789 64.004,71.249 64.464 C 72.689 65.905,72.167 66.561,69.965 66.078 C 65.272 65.047,68.822 68.103,74.079 69.619 C 74.982 69.879,75.570 70.484,75.387 70.963 C 75.203 71.441,75.737 72.267,76.572 72.798 L 78.092 73.763 76.329 74.192 C 74.047 74.746,73.488 77.032,75.634 77.032 C 77.312 77.032,81.272 79.124,81.272 80.011 C 81.272 80.782,80.773 80.706,79.121 79.682 C 77.967 78.967,77.583 78.979,77.108 79.742 C 76.785 80.261,76.317 80.659,76.069 80.626 C 75.821 80.593,75.501 80.565,75.358 80.565 C 75.215 80.565,76.566 82.059,78.362 83.884 C 82.011 87.595,80.860 89.533,77.129 85.958 C 75.722 84.611,70.317 81.979,68.957 81.979 C 68.889 81.979,68.834 83.092,68.834 84.452 C 68.834 86.098,69.164 86.926,69.821 86.926 C 72.114 86.926,78.570 89.256,78.939 90.217 C 79.787 92.427,77.878 92.918,74.915 91.253 C 72.554 89.926,72.010 89.831,71.680 90.692 C 71.388 91.452,70.547 91.627,68.504 91.353 C 63.897 90.735,65.285 92.288,71.438 94.638 C 74.581 95.838,77.477 96.820,77.875 96.820 C 78.284 96.820,78.377 97.355,78.089 98.057 C 77.127 100.401,77.377 101.412,78.975 101.639 C 80.878 101.910,81.128 103.887,79.260 103.887 C 78.542 103.887,77.221 103.251,76.325 102.473 C 75.429 101.696,74.277 101.060,73.765 101.060 C 73.254 101.060,71.568 100.400,70.020 99.593 C 66.535 97.776,63.352 97.896,65.239 99.773 C 66.970 101.495,66.710 101.999,64.338 101.525 C 63.187 101.295,62.056 101.414,61.823 101.790 C 61.591 102.166,62.037 102.473,62.814 102.473 C 63.591 102.473,64.399 102.750,64.608 103.089 C 64.817 103.427,65.877 103.882,66.964 104.099 C 68.050 104.317,70.203 105.499,71.749 106.728 C 73.294 107.956,75.033 109.227,75.612 109.551 C 78.200 111.000,75.217 111.092,72.494 109.648 C 69.621 108.123,69.297 108.092,66.878 109.103 C 63.414 110.550,63.642 111.661,67.402 111.661 C 72.506 111.661,79.840 114.922,78.740 116.702 C 78.056 117.809,75.156 117.342,73.867 115.918 C 72.284 114.169,71.234 114.729,71.809 117.017 C 72.310 119.015,70.941 118.750,66.377 115.968 C 65.046 115.157,63.719 114.492,63.428 114.490 C 62.099 114.484,63.164 115.714,66.079 117.556 C 69.369 119.635,70.316 121.290,67.845 120.643 C 67.068 120.440,66.254 120.562,66.037 120.914 C 65.819 121.267,65.984 121.555,66.403 121.555 C 68.263 121.555,72.792 125.166,72.792 126.649 C 72.792 128.091,72.638 128.044,70.461 125.934 C 69.179 124.691,67.622 123.675,67.001 123.675 C 66.379 123.675,64.894 122.562,63.699 121.201 C 61.237 118.398,60.445 118.089,60.982 120.141 C 61.557 122.341,59.876 121.839,57.434 119.081 C 55.313 116.685,53.710 115.907,53.710 117.273 C 53.710 117.639,55.756 119.627,58.256 121.690 C 60.757 123.753,62.824 125.801,62.850 126.239 C 62.876 126.678,63.874 127.441,65.068 127.936 C 66.927 128.706,67.172 129.097,66.778 130.668 C 66.001 133.761,65.020 134.497,63.503 133.124 C 62.682 132.381,62.191 132.252,62.191 132.778 C 62.191 134.199,59.625 132.416,54.968 127.760 C 51.230 124.022,50.726 123.711,51.037 125.340 C 51.233 126.368,51.120 127.208,50.785 127.208 C 49.288 127.208,50.472 129.182,54.049 132.646 C 57.660 136.144,57.788 137.493,54.333 135.644 C 53.561 135.231,52.390 135.010,51.730 135.152 C 48.116 135.933,65.376 142.038,71.292 142.072 C 74.747 142.091,75.104 142.217,74.028 143.033 C 73.348 143.550,72.792 144.335,72.792 144.778 C 72.792 145.756,73.219 145.787,68.551 144.466 C 66.413 143.860,63.657 143.108,62.426 142.795 L 60.188 142.225 60.586 144.787 C 60.805 146.197,61.596 148.224,62.342 149.293 C 64.928 152.993,59.687 150.205,52.449 144.030 C 49.528 141.538,48.216 141.463,49.799 143.878 C 51.504 146.480,50.817 146.638,46.751 144.578 C 42.465 142.406,41.360 143.302,44.948 146.039 C 46.362 147.118,47.163 148.119,46.728 148.264 C 43.908 149.204,47.242 151.943,51.205 151.943 C 53.635 151.943,67.845 158.637,67.845 159.782 C 67.845 161.879,61.619 160.181,57.535 156.968 C 55.116 155.065,53.726 155.033,54.212 156.890 C 54.656 158.587,54.280 158.635,51.555 157.226 C 48.698 155.748,48.941 156.794,52.192 159.968 C 54.756 162.472,58.455 168.636,57.791 169.299 C 57.624 169.466,55.763 168.308,53.656 166.726 C 48.279 162.689,47.021 162.036,48.174 163.883 C 49.664 166.269,48.394 166.280,44.209 163.918 C 42.014 162.680,40.020 161.865,39.777 162.108 C 39.162 162.722,42.321 165.976,44.876 167.361 C 46.945 168.483,46.956 168.517,45.333 168.766 L 43.670 169.022 45.187 170.085 C 46.021 170.669,48.837 171.361,51.444 171.623 C 56.536 172.133,56.426 171.999,55.444 176.502 C 54.981 178.623,54.421 178.529,49.750 175.541 C 46.702 173.591,45.628 173.207,45.193 173.911 C 44.741 174.642,44.244 174.658,42.774 173.988 C 40.150 172.793,39.031 172.936,38.151 174.579 C 37.471 175.851,37.688 176.139,40.070 177.120 C 41.547 177.729,43.710 178.639,44.876 179.144 C 46.042 179.648,47.573 180.252,48.278 180.485 C 50.906 181.354,48.694 182.120,45.601 181.412 C 41.978 180.583,41.261 180.905,42.320 182.884 C 42.871 183.913,44.128 184.385,47.261 184.739 C 49.572 185.001,51.807 185.629,52.227 186.135 C 53.327 187.461,52.432 188.002,50.411 187.234 C 48.290 186.427,40.283 186.351,40.283 187.138 C 40.283 187.449,40.659 188.080,41.119 188.539 C 42.599 190.019,41.040 190.397,39.397 188.956 C 35.813 185.816,35.170 185.678,37.442 188.536 C 39.666 191.335,42.598 192.973,43.597 191.975 C 43.828 191.743,43.639 191.097,43.176 190.539 C 41.682 188.739,43.542 188.601,49.613 190.061 C 60.783 192.748,64.687 193.515,69.611 193.988 C 78.787 194.869,79.372 194.972,79.881 195.796 C 80.248 196.389,80.523 196.400,80.872 195.835 C 81.138 195.405,82.434 195.053,83.752 195.053 C 85.211 195.053,86.396 194.612,86.779 193.926 C 87.256 193.075,89.723 192.544,96.885 191.754 C 107.536 190.579,108.521 190.727,117.070 194.778 C 122.039 197.132,125.795 197.859,125.795 196.466 C 125.795 196.078,125.239 195.748,124.558 195.735 C 123.878 195.721,122.527 195.232,121.555 194.649 C 118.899 193.054,124.113 193.725,129.615 195.686 C 138.016 198.680,165.563 195.779,158.127 192.683 C 156.606 192.049,159.498 190.299,162.913 189.787 C 165.788 189.356,167.410 188.376,166.596 187.561 C 166.294 187.260,161.121 188.212,158.127 189.119 C 156.087 189.738,156.730 188.385,159.159 186.951 C 162.880 184.753,160.451 184.986,153.155 187.527 C 147.363 189.544,146.106 189.773,145.057 189.001 C 143.605 187.931,143.879 187.786,149.470 186.662 C 154.147 185.722,157.995 184.075,156.980 183.447 C 155.526 182.549,156.148 181.900,159.993 180.307 C 162.088 179.438,164.394 178.071,165.117 177.270 L 166.431 175.811 163.604 177.013 C 157.110 179.774,156.058 180.055,157.456 178.657 C 160.357 175.756,156.784 176.522,151.400 179.957 C 147.294 182.576,145.405 183.067,147.240 181.040 C 149.860 178.145,148.273 178.077,144.099 180.906 C 140.580 183.291,139.564 183.566,140.509 181.878 C 140.866 181.240,141.003 180.127,140.815 179.405 C 140.546 178.379,140.865 178.092,142.274 178.092 C 144.828 178.092,147.703 176.878,147.703 175.800 C 147.703 175.297,149.525 174.100,151.751 173.139 C 154.426 171.984,155.353 171.306,154.486 171.139 C 153.764 170.999,152.976 171.155,152.735 171.485 C 152.061 172.408,149.117 172.626,149.117 171.754 C 149.117 171.328,149.673 170.803,150.353 170.585 C 153.229 169.666,154.797 168.581,154.473 167.735 C 154.282 167.237,154.400 166.660,154.735 166.453 C 155.070 166.246,155.182 165.455,154.983 164.696 C 154.655 163.439,154.295 163.564,150.922 166.111 C 147.206 168.916,145.189 169.666,145.785 168.021 C 145.961 167.535,145.631 166.593,145.052 165.927 C 144.091 164.824,144.284 164.543,147.242 162.747 C 149.026 161.664,150.495 160.500,150.508 160.161 C 150.520 159.822,150.133 159.867,149.647 160.262 C 148.607 161.106,142.049 161.729,142.049 160.984 C 142.049 160.703,142.696 160.128,143.485 159.705 C 144.275 159.283,144.832 158.439,144.722 157.831 C 144.613 157.222,145.159 156.371,145.936 155.938 C 146.714 155.506,148.781 154.293,150.530 153.244 C 152.279 152.195,154.585 151.121,155.654 150.857 C 156.723 150.593,157.597 149.960,157.597 149.451 C 157.597 148.942,157.804 147.985,158.058 147.325 C 158.452 146.298,158.306 146.239,157.044 146.914 C 155.016 148.000,154.770 147.924,154.770 146.208 C 154.770 144.865,154.475 144.978,151.892 147.312 C 149.492 149.481,148.837 149.764,147.943 149.023 C 146.998 148.238,147.025 148.076,148.171 147.642 C 148.885 147.372,150.235 146.327,151.171 145.320 L 152.871 143.490 149.926 144.647 C 146.448 146.013,145.401 145.459,147.698 143.467 C 149.745 141.692,149.362 141.695,144.807 143.490 C 139.186 145.706,139.157 144.773,144.740 141.328 C 149.286 138.522,152.112 135.833,149.434 136.861 C 148.261 137.311,148.065 136.316,149.120 135.262 C 150.227 134.154,144.822 134.540,142.756 135.717 C 140.759 136.854,138.516 137.189,138.516 136.351 C 138.516 136.044,140.233 134.810,142.331 133.610 C 146.046 131.485,147.413 129.868,146.604 128.558 C 145.971 127.534,145.141 127.779,141.582 130.035 C 137.410 132.681,134.608 132.368,138.300 129.669 C 139.425 128.846,139.425 128.683,138.300 126.966 L 137.103 125.139 141.489 123.793 C 147.700 121.886,147.465 120.166,141.072 120.744 C 138.130 121.010,136.791 118.304,139.525 117.618 C 142.642 116.835,142.264 114.549,138.658 112.384 C 137.535 111.709,137.540 111.597,138.735 110.669 C 139.544 110.041,139.739 109.506,139.265 109.213 C 138.853 108.959,138.516 108.152,138.516 107.420 C 138.516 105.072,137.177 105.174,136.525 107.572 C 136.175 108.858,135.495 109.803,135.001 109.689 C 134.361 109.543,134.248 110.039,134.600 111.443 C 134.870 112.520,135.146 113.725,135.214 114.121 C 135.283 114.533,134.050 114.784,132.332 114.707 C 128.581 114.540,128.591 114.648,132.686 118.367 C 136.561 121.887,136.325 123.104,132.186 120.947 C 128.669 119.113,128.638 119.414,131.932 123.434 C 134.046 126.014,134.345 126.732,133.522 127.252 C 132.131 128.132,131.758 128.079,130.742 126.855 C 130.258 126.272,129.057 125.795,128.072 125.795 C 127.087 125.795,125.175 124.951,123.823 123.920 C 122.471 122.888,121.492 122.332,121.648 122.683 C 122.563 124.749,125.328 128.622,125.888 128.622 C 128.513 128.622,131.749 130.873,130.477 131.814 C 129.723 132.371,129.329 133.258,129.564 133.868 C 129.992 134.984,128.802 139.223,128.061 139.223 C 127.829 139.223,126.704 138.348,125.561 137.279 L 123.482 135.336 123.901 138.067 C 124.297 140.654,124.252 140.738,123.058 139.657 C 120.446 137.294,119.322 138.772,120.974 142.397 C 121.498 143.548,122.187 144.078,122.834 143.830 C 124.056 143.361,132.862 147.501,132.862 148.544 C 132.862 148.942,132.372 149.080,131.774 148.850 C 131.037 148.568,130.752 148.798,130.890 149.564 C 131.208 151.318,128.930 152.476,127.239 151.420 C 126.475 150.943,125.340 150.749,124.715 150.989 C 124.091 151.228,122.806 151.011,121.862 150.505 C 120.917 149.999,119.939 149.790,119.688 150.041 C 118.935 150.794,120.775 152.489,124.088 154.092 C 127.096 155.549,127.753 157.382,125.009 156.665 C 123.135 156.175,123.313 156.535,126.325 159.335 C 128.652 161.499,128.792 161.802,127.472 161.818 C 126.645 161.829,125.588 161.379,125.123 160.819 C 124.658 160.259,123.850 159.966,123.327 160.166 C 122.804 160.367,121.545 159.987,120.530 159.322 C 118.583 158.046,117.174 158.446,118.598 159.870 C 119.934 161.206,119.569 161.973,117.845 161.454 C 116.584 161.074,116.804 161.487,118.905 163.445 C 120.362 164.803,121.555 166.251,121.555 166.661 C 121.555 167.072,122.843 167.665,124.418 167.980 C 128.018 168.699,128.080 169.849,124.528 170.031 C 122.163 170.153,121.622 169.861,120.104 167.645 C 117.745 164.201,116.620 163.160,115.801 163.666 C 115.420 163.901,114.094 162.930,112.855 161.506 L 110.601 158.919 106.714 161.072 C 102.364 163.482,100.310 163.946,101.767 162.191 C 103.322 160.317,101.358 161.058,98.024 163.604 C 94.120 166.585,93.435 166.707,95.052 164.134 C 96.678 161.547,100.064 158.304,101.140 158.304 C 101.614 158.304,101.797 158.099,101.547 157.849 C 101.297 157.598,99.634 157.950,97.853 158.630 C 94.648 159.854,93.046 159.675,94.470 158.251 C 95.352 157.369,100.824 155.966,108.304 154.706 C 113.594 153.814,114.940 153.050,112.721 152.199 C 111.042 151.555,111.441 150.974,114.841 149.117 C 116.590 148.161,118.021 147.094,118.021 146.744 C 118.021 145.958,112.268 146.816,111.343 147.739 C 110.314 148.766,108.834 148.537,108.834 147.350 C 108.834 145.284,106.489 146.442,101.129 151.157 C 98.970 153.055,98.386 153.036,98.106 151.060 C 97.961 150.038,97.312 149.389,96.290 149.244 C 94.571 149.000,94.271 147.704,95.431 145.537 C 96.043 144.393,95.928 144.170,94.725 144.170 C 91.069 144.170,94.865 140.652,99.062 140.151 C 102.578 139.731,106.007 138.452,106.007 137.560 C 106.007 137.224,105.212 137.149,104.240 137.393 C 103.221 137.648,102.473 137.531,102.473 137.116 C 102.473 136.720,102.887 136.396,103.393 136.396 C 105.188 136.396,108.116 134.612,108.122 133.515 C 108.125 132.903,108.912 131.664,109.872 130.763 C 112.179 128.595,111.405 127.498,108.852 129.316 C 106.283 131.145,106.007 131.112,106.007 128.975 C 106.007 126.523,104.405 126.740,102.090 129.505 C 96.214 136.526,96.065 136.651,94.918 135.504 C 93.954 134.539,94.001 134.268,95.367 132.902 C 96.266 132.003,96.732 130.874,96.503 130.151 C 96.235 129.305,96.770 128.538,98.234 127.674 C 100.431 126.376,100.860 125.485,99.647 124.735 C 98.326 123.919,98.934 123.084,103.004 120.126 C 106.461 117.613,106.751 117.244,104.947 117.652 C 103.781 117.916,102.283 118.621,101.619 119.220 C 100.816 119.943,99.782 120.151,98.540 119.840 C 97.338 119.538,96.066 119.766,94.978 120.479 C 92.225 122.283,93.044 120.500,96.466 117.238 C 100.788 113.119,100.477 112.792,94.876 115.569 C 89.255 118.355,84.806 119.330,84.806 117.775 C 84.806 116.589,86.296 115.901,88.865 115.901 C 90.827 115.901,96.820 112.718,96.820 111.675 C 96.820 111.047,94.022 111.296,88.781 112.391 C 87.275 112.706,85.378 112.718,84.566 112.417 C 81.790 111.390,88.239 108.046,92.020 108.551 C 95.133 108.967,98.940 107.989,98.940 106.772 C 98.940 106.396,97.588 105.978,95.936 105.843 L 92.933 105.599 96.667 103.932 C 102.051 101.529,101.364 99.791,95.936 102.081 C 93.501 103.109,93.286 103.106,93.286 102.047 C 93.286 101.190,92.880 101.011,91.696 101.348 C 87.260 102.611,86.029 102.692,86.357 101.697 C 86.537 101.153,88.567 100.176,90.869 99.527 C 93.651 98.742,94.416 98.327,93.151 98.290 C 92.105 98.259,91.075 97.951,90.862 97.607 C 90.246 96.609,92.435 95.204,93.977 95.607 C 95.729 96.065,100.301 91.300,98.925 90.450 C 98.458 90.162,97.476 90.083,96.742 90.275 C 95.823 90.515,95.406 90.253,95.406 89.434 C 95.406 88.074,93.962 88.351,89.604 90.550 C 86.543 92.094,85.443 92.218,85.689 90.989 C 85.803 90.417,85.181 90.178,83.922 90.309 C 81.715 90.540,81.681 90.472,82.786 88.046 C 83.520 86.437,83.878 86.313,86.673 86.696 C 88.748 86.980,89.753 86.856,89.753 86.315 C 89.753 85.874,89.276 85.512,88.693 85.512 C 86.296 85.512,87.837 83.519,90.894 82.663 L 94.156 81.749 91.778 80.962 C 89.860 80.327,89.248 80.371,88.621 81.187 C 87.749 82.322,83.577 82.446,82.499 81.368 C 80.890 79.759,82.574 77.175,85.559 76.671 C 87.255 76.384,88.617 75.705,88.875 75.018 C 89.115 74.376,89.808 73.464,90.416 72.991 C 91.380 72.238,91.327 72.127,89.995 72.107 C 88.824 72.090,88.557 71.758,88.841 70.671 C 89.324 68.825,88.729 68.889,85.990 70.978 L 83.735 72.698 82.953 71.041 C 82.008 69.038,82.284 68.582,85.689 66.513 C 87.147 65.627,88.339 64.610,88.339 64.253 C 88.339 63.219,87.257 63.493,85.320 65.018 C 81.762 67.816,80.680 64.294,84.184 61.326 C 86.046 59.750,85.646 57.538,83.540 57.766 C 81.192 58.019,81.541 55.495,84.181 53.136 L 86.383 51.168 84.358 51.203 C 82.437 51.235,82.321 51.063,82.117 47.880 C 81.914 44.714,81.415 43.909,80.330 44.994 M300.049 46.563 C 299.518 47.423,311.137 55.143,315.335 56.721 C 317.533 57.546,315.951 55.547,312.867 53.602 C 311.232 52.571,308.022 50.424,305.735 48.832 C 301.392 45.808,300.689 45.528,300.049 46.563 M357.244 55.830 C 357.508 56.257,356.544 56.537,354.812 56.537 C 353.234 56.537,351.943 56.219,351.943 55.830 C 351.943 55.442,353.038 55.124,354.375 55.124 C 355.713 55.124,357.004 55.442,357.244 55.830 M232.509 59.364 C 233.405 60.141,234.457 60.777,234.845 60.777 C 235.234 60.777,234.819 60.141,233.922 59.364 C 233.026 58.587,231.975 57.951,231.586 57.951 C 231.197 57.951,231.613 58.587,232.509 59.364 M101.237 60.622 C 100.362 60.761,99.647 61.294,99.647 61.804 C 99.647 62.315,98.931 62.969,98.057 63.258 L 96.466 63.784 98.098 64.102 C 99.203 64.317,100.322 63.828,101.562 62.588 C 103.602 60.548,103.553 60.252,101.237 60.622 M319.531 72.615 C 319.429 75.039,318.845 75.453,317.468 74.075 C 315.854 72.462,315.756 74.156,317.316 76.680 C 318.989 79.388,318.177 81.146,315.194 81.272 C 313.878 81.328,317.648 84.806,319.025 84.806 C 320.854 84.806,323.559 82.041,323.173 80.566 C 322.970 79.788,322.382 79.152,321.867 79.152 C 320.280 79.152,320.034 77.876,321.191 75.639 C 322.141 73.801,322.152 73.498,321.269 73.498 C 320.703 73.498,320.102 72.783,319.933 71.908 C 319.712 70.758,319.600 70.954,319.531 72.615 M57.951 75.618 C 57.093 76.172,57.195 76.306,58.481 76.314 C 59.355 76.320,60.071 76.007,60.071 75.618 C 60.071 74.733,59.321 74.733,57.951 75.618 M114.231 77.482 C 112.293 79.419,111.863 80.565,113.074 80.565 C 113.463 80.565,113.781 80.247,113.781 79.859 C 113.781 79.470,114.258 79.152,114.841 79.152 C 115.424 79.152,115.901 78.834,115.901 78.445 C 115.901 78.057,116.378 77.739,116.961 77.739 C 117.544 77.739,118.021 77.261,118.021 76.678 C 118.021 75.051,116.296 75.416,114.231 77.482 M52.473 78.196 C 49.691 79.568,49.377 80.886,52.120 79.681 C 53.189 79.212,54.223 78.630,54.417 78.389 C 54.611 78.148,55.247 77.769,55.830 77.547 C 56.773 77.188,56.773 77.139,55.830 77.104 C 55.247 77.082,53.737 77.573,52.473 78.196 M163.958 80.891 L 162.191 81.872 164.180 82.632 C 166.866 83.658,167.522 83.589,167.040 82.332 C 166.816 81.749,166.777 81.272,166.954 81.272 C 167.329 81.272,171.502 83.166,173.390 84.193 C 174.534 84.816,175.994 84.532,175.206 83.841 C 171.260 80.379,166.924 79.242,163.958 80.891 M109.642 81.195 C 108.973 81.618,108.920 81.949,109.465 82.286 C 110.362 82.840,111.661 82.215,111.661 81.230 C 111.661 80.409,110.903 80.395,109.642 81.195 M45.304 82.039 C 44.373 82.411,43.892 82.948,44.235 83.231 C 44.579 83.514,45.043 83.988,45.268 84.283 C 45.492 84.579,46.426 84.022,47.343 83.046 C 49.124 81.151,48.408 80.797,45.304 82.039 M40.989 84.017 C 40.989 84.360,41.602 84.801,42.350 84.997 C 43.304 85.246,43.598 85.060,43.334 84.372 C 42.924 83.302,40.989 83.008,40.989 84.017 M308.834 83.924 C 308.834 84.305,310.106 85.460,311.661 86.489 C 314.766 88.543,315.455 90.145,312.898 89.360 C 311.343 88.884,311.346 88.907,313.052 90.413 C 314.819 91.973,314.279 93.245,311.837 93.275 C 311.352 93.281,310.954 93.604,310.954 93.993 C 310.954 94.382,312.226 94.700,313.781 94.700 C 316.451 94.700,316.608 94.817,316.608 96.820 C 316.608 97.986,316.436 98.940,316.226 98.940 C 315.423 98.940,310.322 96.099,309.900 95.416 C 309.106 94.131,308.020 94.663,308.481 96.113 C 308.738 96.924,308.608 97.527,308.175 97.527 C 306.625 97.527,307.503 98.717,309.894 99.858 C 311.254 100.506,312.367 101.360,312.367 101.755 C 312.367 102.629,309.775 102.717,309.246 101.862 C 308.686 100.956,305.300 101.785,305.300 102.828 C 305.300 103.967,308.374 106.007,310.090 106.007 C 311.580 106.007,315.463 109.743,314.733 110.473 C 313.930 111.277,313.279 111.035,310.933 109.061 C 309.696 108.020,308.002 107.126,307.169 107.075 C 306.335 107.023,304.890 106.725,303.957 106.413 C 302.562 105.945,302.338 106.047,302.698 106.986 C 303.015 107.812,302.728 108.127,301.658 108.127 C 297.036 108.127,306.925 113.316,313.958 114.581 C 317.020 115.131,318.728 115.775,318.728 116.377 C 318.728 117.639,320.291 117.557,323.267 116.138 C 326.305 114.689,327.318 112.842,324.716 113.495 C 321.194 114.379,322.342 110.089,326.035 108.566 C 330.405 106.763,333.810 103.947,331.661 103.912 C 330.805 103.898,329.804 103.348,329.435 102.688 C 328.843 101.632,328.536 101.761,326.838 103.778 C 324.714 106.302,323.574 106.384,323.216 104.038 C 323.054 102.976,323.583 102.115,324.918 101.265 C 328.894 98.735,328.620 97.680,324.424 99.359 C 322.516 100.122,321.219 100.301,320.779 99.860 C 319.763 98.844,320.801 96.820,322.337 96.820 C 324.109 96.820,324.054 95.670,322.259 95.201 C 320.396 94.714,321.156 92.599,323.220 92.526 C 326.943 92.394,329.817 90.771,328.026 89.812 C 326.662 89.082,326.175 89.122,325.151 90.050 C 323.826 91.248,320.848 91.580,320.848 90.529 C 320.848 90.179,321.961 89.236,323.322 88.433 C 324.682 87.630,325.795 86.606,325.795 86.156 C 325.795 85.577,325.478 85.603,324.703 86.246 C 323.249 87.453,318.951 87.234,316.832 85.846 C 315.896 85.233,314.523 84.924,313.781 85.159 C 313.032 85.397,311.632 85.063,310.633 84.408 C 309.643 83.760,308.834 83.542,308.834 83.924 M33.569 87.392 C 30.848 88.811,27.909 90.320,27.037 90.746 C 25.395 91.547,24.903 92.580,26.162 92.580 C 26.559 92.580,28.069 91.844,29.519 90.946 C 32.126 89.331,36.772 87.234,37.456 87.364 C 37.650 87.400,38.366 86.840,39.046 86.118 C 40.972 84.074,39.095 84.511,33.569 87.392 M47.350 90.762 C 47.350 91.553,49.702 93.284,50.757 93.271 C 51.676 93.258,51.545 92.943,50.177 91.873 C 48.493 90.556,47.350 90.107,47.350 90.762 M190.106 91.777 C 190.106 92.412,195.517 94.700,197.020 94.700 C 197.493 94.700,197.880 94.382,197.880 93.993 C 197.880 93.604,197.323 93.284,196.643 93.282 C 195.963 93.279,194.495 92.802,193.382 92.222 C 191.085 91.024,190.106 90.891,190.106 91.777 M34.516 98.410 C 36.093 99.673,37.399 101.104,37.419 101.590 C 37.461 102.610,39.576 102.815,39.576 101.799 C 39.576 101.011,33.335 96.113,32.331 96.113 C 31.956 96.113,32.939 97.147,34.516 98.410 M155.495 105.633 C 154.978 106.256,154.830 107.497,155.117 108.805 C 155.416 110.164,155.309 110.954,154.826 110.954 C 154.407 110.954,154.064 110.636,154.064 110.247 C 154.064 109.859,153.746 109.541,153.357 109.541 C 152.205 109.541,152.551 111.352,153.943 112.611 C 155.519 114.038,157.182 114.148,156.662 112.790 C 156.431 112.189,156.854 111.650,157.739 111.419 C 159.035 111.080,159.078 110.921,158.133 109.976 C 157.524 109.367,157.212 108.178,157.401 107.190 C 157.796 105.120,156.678 104.207,155.495 105.633 M32.509 111.283 C 32.509 112.187,34.508 113.781,35.643 113.781 C 36.642 113.781,35.901 111.635,34.675 110.979 C 32.856 110.005,32.509 110.054,32.509 111.283 M205.654 111.519 C 205.654 113.148,204.314 114.488,202.686 114.488 C 200.971 114.488,201.079 116.086,202.905 117.735 L 204.396 119.081 202.375 119.439 C 200.039 119.853,199.286 122.202,201.026 123.647 C 202.449 124.828,202.420 125.663,200.959 125.540 C 198.887 125.365,199.181 126.991,201.387 127.904 C 203.870 128.933,204.327 130.433,201.943 129.734 C 201.069 129.477,198.545 128.990,196.334 128.651 C 189.746 127.641,188.637 125.088,194.787 125.088 C 195.381 125.088,195.631 124.745,195.358 124.304 C 195.074 123.844,193.885 123.680,192.487 123.906 C 190.019 124.307,189.627 122.251,191.676 119.644 C 192.117 119.083,191.912 118.060,191.073 116.641 C 189.606 114.157,188.693 113.873,188.693 115.901 C 188.693 116.678,188.375 117.314,187.986 117.314 C 187.597 117.314,187.279 117.792,187.279 118.375 C 187.279 118.958,186.882 119.455,186.396 119.479 C 185.910 119.504,186.228 119.812,187.102 120.163 C 188.165 120.590,188.693 121.397,188.693 122.592 C 188.693 124.671,187.269 124.921,184.288 123.365 C 182.499 122.432,180.713 123.027,182.321 124.021 C 182.716 124.265,183.039 125.082,183.039 125.837 C 183.039 126.726,183.524 127.208,184.417 127.208 C 185.175 127.208,186.050 127.639,186.361 128.165 C 187.121 129.452,189.680 130.742,191.473 130.742 C 192.291 130.742,192.933 131.202,192.933 131.789 C 192.933 132.615,192.228 132.761,189.576 132.482 C 186.973 132.209,186.536 132.294,187.633 132.863 C 188.790 133.463,188.597 133.533,186.572 133.251 L 184.099 132.905 185.766 134.120 C 186.683 134.789,188.188 136.092,189.110 137.016 C 190.563 138.471,190.847 138.542,191.229 137.546 C 191.480 136.893,192.463 136.396,193.503 136.396 C 194.928 136.396,195.147 136.207,194.488 135.548 C 192.548 133.608,196.265 130.135,198.776 131.541 C 200.467 132.487,200.307 133.427,198.410 133.696 C 197.388 133.842,196.739 134.490,196.594 135.512 C 196.418 136.748,195.907 137.102,194.297 137.102 C 193.158 137.102,192.226 137.455,192.226 137.887 C 192.226 138.376,193.218 138.555,194.863 138.363 C 196.729 138.145,200.126 138.948,206.490 141.112 C 211.434 142.794,216.410 144.170,217.547 144.170 C 218.684 144.170,220.011 144.647,220.495 145.230 C 220.979 145.813,222.105 146.290,222.997 146.290 C 230.736 146.290,226.250 149.337,217.314 150.149 C 214.594 150.397,211.572 150.872,210.601 151.205 C 208.845 151.807,206.330 152.739,205.654 153.038 C 205.459 153.123,204.585 153.426,203.710 153.711 C 199.472 155.090,203.352 156.066,207.779 154.734 C 212.486 153.318,220.164 151.867,224.735 151.528 C 227.261 151.341,230.760 150.854,232.509 150.445 C 235.532 149.739,246.182 148.967,265.724 148.038 C 276.340 147.533,284.099 146.431,284.099 145.428 C 284.099 144.939,282.859 144.890,280.389 145.281 C 276.836 145.843,274.417 145.889,268.198 145.511 C 266.643 145.417,263.447 145.592,261.095 145.901 C 256.125 146.553,251.590 143.580,251.590 139.669 C 251.590 138.646,251.323 137.809,250.997 137.809 C 250.165 137.809,248.659 141.309,249.149 142.102 C 249.731 143.044,248.491 142.908,247.505 141.922 C 246.865 141.282,246.275 141.301,244.958 142.006 C 244.015 142.510,242.896 142.708,242.470 142.444 C 241.058 141.572,241.668 140.113,243.816 139.223 C 244.982 138.740,245.936 138.065,245.936 137.723 C 245.936 136.871,244.001 136.938,243.463 137.809 C 242.673 139.087,241.696 138.548,241.696 136.836 C 241.696 135.912,242.173 134.759,242.756 134.276 C 243.339 133.792,243.816 133.117,243.816 132.776 C 243.816 132.435,243.339 132.155,242.756 132.155 C 241.556 132.155,241.335 131.049,242.403 130.389 C 243.334 129.813,243.316 127.208,242.381 127.208 C 241.980 127.208,241.465 127.695,241.237 128.290 C 240.980 128.959,240.329 129.214,239.528 128.960 C 238.311 128.574,238.299 128.677,239.324 130.733 C 240.783 133.658,240.165 135.157,237.749 134.551 C 235.853 134.075,236.170 136.224,238.178 137.465 C 239.500 138.282,238.094 139.232,236.176 138.818 C 234.316 138.416,234.328 138.453,236.749 140.563 C 239.587 143.035,239.407 143.200,235.599 141.622 C 232.302 140.257,230.389 138.363,230.389 136.468 C 230.389 135.366,229.836 135.021,227.793 134.848 C 225.013 134.613,223.547 132.862,226.131 132.862 C 226.964 132.862,227.449 132.544,227.208 132.155 C 226.968 131.767,226.136 131.449,225.358 131.449 C 223.136 131.449,224.451 130.246,227.246 129.722 C 230.067 129.192,230.229 127.702,227.506 127.325 C 224.972 126.975,224.095 125.830,225.984 125.336 C 227.551 124.926,228.208 123.675,226.855 123.675 C 226.466 123.675,226.148 123.198,226.148 122.615 C 226.148 122.032,225.671 121.555,225.088 121.555 C 223.734 121.555,223.729 120.230,225.077 118.740 C 225.943 117.783,225.978 117.188,225.276 115.328 C 224.149 112.342,223.322 112.473,223.322 115.636 C 223.322 118.106,223.245 118.183,221.201 117.774 C 218.618 117.257,218.515 117.949,220.848 120.141 C 223.647 122.771,223.155 125.555,219.965 125.141 C 218.139 124.904,219.102 127.890,221.201 128.975 C 222.367 129.578,223.322 130.222,223.322 130.407 C 223.322 131.192,220.507 130.653,219.536 129.682 C 218.151 128.297,217.602 128.336,218.156 129.778 C 218.463 130.579,218.293 130.825,217.604 130.577 C 217.056 130.381,216.121 130.642,215.525 131.157 C 214.124 132.371,209.609 130.952,208.124 128.831 C 206.906 127.093,207.375 126.502,209.970 126.502 C 211.048 126.502,212.122 126.193,212.355 125.816 C 212.861 124.996,209.619 124.065,208.180 124.617 C 206.097 125.416,205.429 123.148,207.373 121.874 C 209.672 120.368,209.690 119.007,207.420 118.438 C 205.283 117.901,205.137 116.422,207.092 115.104 C 208.375 114.239,208.432 113.925,207.622 112.196 C 206.581 109.976,205.654 109.657,205.654 111.519 M156.184 114.987 C 152.933 116.530,152.882 116.584,154.022 117.289 C 154.836 117.792,154.803 118.090,153.825 119.068 C 152.368 120.524,152.331 121.477,153.710 122.006 C 154.293 122.230,154.770 122.687,154.770 123.022 C 154.770 123.357,154.293 123.447,153.710 123.224 C 153.127 123.000,152.650 123.130,152.650 123.513 C 152.650 123.895,153.127 124.604,153.710 125.088 C 155.455 126.536,154.991 127.754,152.827 127.410 L 150.883 127.101 152.650 128.624 L 154.417 130.147 152.473 129.724 C 150.044 129.196,149.931 130.242,152.301 131.322 C 153.275 131.766,153.991 132.488,153.891 132.926 C 153.544 134.457,162.652 136.669,169.081 136.615 C 170.150 136.606,171.025 136.820,171.025 137.090 C 171.025 137.678,174.973 137.454,177.208 136.740 C 178.083 136.460,178.799 135.950,178.799 135.607 C 178.799 134.466,180.321 134.961,181.574 136.508 C 182.326 137.436,183.154 137.821,183.689 137.491 C 184.312 137.106,183.884 136.367,182.213 134.945 L 179.859 132.943 182.170 132.458 C 185.265 131.809,185.606 131.008,183.011 130.489 C 180.601 130.007,179.628 128.306,180.742 126.522 C 181.175 125.829,181.242 124.905,180.900 124.352 C 180.573 123.822,180.470 122.560,180.673 121.548 C 180.909 120.366,180.640 119.377,179.920 118.778 C 178.927 117.954,178.799 118.184,178.799 120.786 C 178.799 123.995,177.129 127.208,175.461 127.208 C 174.791 127.208,174.563 127.615,174.835 128.325 C 175.958 131.250,174.577 132.862,170.948 132.862 C 168.928 132.862,167.491 133.182,167.491 133.631 C 167.491 134.881,161.634 133.632,160.311 132.100 C 159.665 131.353,158.772 130.742,158.326 130.742 C 157.879 130.742,157.710 130.424,157.951 130.035 C 158.191 129.647,158.982 129.329,159.709 129.329 C 160.435 129.329,161.541 128.818,162.165 128.194 C 163.811 126.547,162.244 124.830,159.580 125.363 C 156.830 125.913,156.751 123.255,159.486 122.215 C 161.268 121.537,161.307 121.428,160.168 120.289 C 159.168 119.290,158.856 119.249,158.357 120.055 C 158.026 120.591,157.402 120.811,156.969 120.544 C 155.599 119.697,156.119 117.389,157.951 116.189 C 161.342 113.967,160.106 113.126,156.184 114.987 M328.272 117.311 C 325.437 120.215,323.495 121.257,322.299 120.518 C 321.245 119.866,322.260 118.021,323.672 118.021 C 324.986 118.021,328.808 115.259,327.551 115.218 C 327.157 115.205,325.584 115.865,324.055 116.684 C 322.021 117.774,320.466 118.082,318.258 117.833 C 315.518 117.525,315.303 117.611,315.924 118.771 C 317.288 121.319,316.543 121.517,313.267 119.478 C 311.064 118.107,309.763 117.662,309.447 118.173 C 309.124 118.696,308.131 118.453,306.387 117.424 C 303.149 115.514,301.861 115.466,303.537 117.319 C 305.334 119.304,304.364 119.863,301.984 118.214 C 298.444 115.761,298.122 115.659,298.363 117.067 C 298.540 118.101,298.179 118.347,296.643 118.242 C 295.574 118.168,294.705 118.327,294.710 118.595 C 294.747 120.226,296.748 121.199,303.189 122.718 C 307.174 123.657,311.230 125.052,312.203 125.817 C 313.176 126.582,314.864 127.208,315.955 127.208 C 319.731 127.208,319.614 131.039,315.833 131.174 C 314.622 131.218,313.379 131.663,313.069 132.164 C 312.634 132.867,312.062 132.724,310.548 131.534 C 309.156 130.439,308.442 130.233,308.078 130.821 C 307.712 131.414,306.962 131.219,305.441 130.135 C 302.921 128.341,302.473 128.273,302.473 129.682 C 302.473 131.282,301.363 130.956,300.065 128.975 C 298.678 126.858,297.527 126.686,297.527 128.595 C 297.527 129.357,298.838 131.279,300.440 132.866 C 303.549 135.944,303.699 137.361,300.709 135.402 C 299.714 134.750,298.563 134.425,298.152 134.679 C 297.741 134.933,296.318 134.088,294.991 132.802 C 292.228 130.125,289.936 130.731,291.763 133.655 C 293.073 135.754,292.154 136.199,290.234 134.396 C 288.362 132.637,287.633 132.467,287.633 133.790 C 287.633 136.239,296.162 141.210,298.201 139.949 C 299.886 138.908,307.527 141.656,306.971 143.104 C 306.777 143.612,306.957 144.237,307.372 144.493 C 307.788 144.750,308.127 145.955,308.127 147.170 L 308.127 149.381 306.145 147.482 C 303.741 145.179,302.693 145.002,304.200 147.154 C 306.727 150.761,302.976 151.453,298.676 148.173 C 296.099 146.207,293.594 145.719,293.136 147.093 C 292.944 147.669,292.445 147.631,291.368 146.959 C 289.713 145.925,287.211 147.156,288.087 148.573 C 289.149 150.292,304.140 156.804,306.123 156.408 C 308.411 155.950,312.084 157.253,312.648 158.722 C 313.105 159.914,311.197 160.043,308.467 159.006 C 305.443 157.856,304.980 159.016,307.720 160.878 C 310.242 162.591,310.993 163.958,309.413 163.958 C 308.955 163.958,307.153 162.447,305.410 160.601 C 303.666 158.754,302.452 157.800,302.710 158.481 C 302.969 159.161,303.373 160.194,303.609 160.777 C 304.194 162.223,302.948 162.108,299.618 160.410 C 296.412 158.774,295.997 157.597,298.628 157.597 C 300.842 157.597,300.334 156.510,297.828 155.880 C 296.820 155.628,294.756 154.638,293.242 153.682 C 290.134 151.720,289.189 151.473,290.407 152.941 C 291.041 153.704,291.036 154.061,290.387 154.462 C 289.809 154.819,290.392 155.745,292.218 157.370 C 293.692 158.682,294.724 159.929,294.511 160.141 C 293.952 160.701,290.330 158.700,288.758 156.963 C 286.407 154.364,286.128 155.364,288.349 158.430 C 289.799 160.431,290.229 161.543,289.684 161.880 C 288.919 162.352,290.575 165.324,293.143 168.086 C 294.566 169.617,293.647 169.834,291.168 168.552 C 288.267 167.052,286.547 167.583,287.648 169.640 C 288.904 171.987,288.165 172.777,284.929 172.543 C 282.651 172.379,281.979 172.578,281.979 173.419 C 281.979 174.830,284.491 176.167,286.152 175.640 C 286.864 175.414,288.327 175.564,289.404 175.974 C 291.816 176.891,292.601 176.306,290.762 174.962 C 288.340 173.191,290.200 173.030,293.378 174.736 C 296.829 176.588,305.760 176.776,305.072 174.983 C 304.824 174.337,306.782 174.142,312.972 174.198 C 317.498 174.238,321.678 174.062,322.261 173.806 C 325.105 172.558,327.208 172.421,327.208 173.485 C 327.208 174.836,327.135 174.843,331.189 173.105 C 333.054 172.305,336.181 171.331,338.138 170.940 C 343.080 169.951,345.495 168.929,347.409 167.014 C 348.313 166.110,349.385 165.371,349.791 165.371 C 350.198 165.371,350.530 164.888,350.530 164.297 C 350.530 163.178,348.092 163.411,345.406 164.787 C 344.089 165.462,343.608 164.388,344.876 163.604 C 345.265 163.364,345.583 162.861,345.583 162.486 C 345.583 162.111,344.867 162.256,343.993 162.808 C 341.280 164.518,338.941 165.003,339.420 163.755 C 340.280 161.514,338.924 161.987,336.253 164.861 L 333.479 167.845 333.810 164.841 C 334.159 161.672,333.406 160.914,332.181 163.203 C 331.244 164.954,329.261 165.574,327.125 164.784 C 325.000 163.997,323.681 164.444,323.652 165.960 C 323.629 167.183,322.077 169.611,321.318 169.611 C 320.741 169.611,321.588 165.230,322.355 164.246 C 322.685 163.821,322.762 163.280,322.525 163.044 C 322.288 162.807,323.007 162.427,324.122 162.200 C 328.309 161.346,333.403 159.399,339.223 156.427 C 342.527 154.740,345.926 153.359,346.778 153.358 C 348.710 153.357,349.495 152.240,347.975 151.656 C 347.000 151.282,347.099 150.882,348.685 148.803 C 351.281 145.400,350.978 144.872,348.055 147.705 C 346.132 149.568,345.391 149.914,344.734 149.257 C 343.289 147.812,342.137 148.294,338.862 151.712 C 337.121 153.528,335.522 154.839,335.308 154.625 C 335.094 154.411,335.887 153.267,337.071 152.084 C 339.288 149.867,339.697 148.786,338.580 148.096 C 337.502 147.430,335.924 148.393,335.088 150.226 C 333.276 154.204,329.356 154.230,331.018 150.253 C 332.189 147.451,331.889 147.085,329.899 148.887 C 327.678 150.896,325.182 150.575,325.247 148.288 C 325.298 146.473,325.519 146.343,328.905 146.142 C 332.491 145.929,332.499 145.923,330.565 144.936 C 326.738 142.980,328.090 141.797,333.569 142.306 C 337.312 142.654,338.518 142.550,338.524 141.878 C 338.528 141.389,339.801 140.382,341.351 139.639 C 343.013 138.843,344.170 137.793,344.170 137.080 C 344.170 136.415,345.281 135.115,346.638 134.190 C 347.996 133.265,349.109 132.270,349.112 131.979 C 349.120 131.102,347.357 131.380,345.895 132.486 C 343.971 133.942,342.756 133.814,342.756 132.155 C 342.756 131.370,342.285 130.742,341.696 130.742 C 341.113 130.742,340.636 131.060,340.636 131.449 C 340.636 131.837,339.864 132.155,338.920 132.155 C 337.211 132.155,334.982 133.784,334.982 135.033 C 334.982 136.123,333.433 135.770,332.435 134.452 C 331.566 133.304,331.378 133.364,329.805 135.296 C 328.144 137.337,328.097 137.349,327.324 135.906 C 326.606 134.563,326.859 134.296,330.230 132.849 C 332.261 131.978,334.717 130.625,335.689 129.843 L 337.456 128.421 335.190 128.851 C 333.363 129.198,333.004 129.076,333.332 128.221 C 333.682 127.308,333.465 127.286,331.766 128.060 C 330.235 128.758,329.730 128.767,329.509 128.102 C 329.297 127.468,328.789 127.530,327.550 128.341 C 325.719 129.541,322.880 129.445,322.461 128.170 C 322.315 127.726,323.377 127.085,324.824 126.743 C 329.172 125.715,328.469 124.605,323.690 124.950 C 320.877 125.154,319.435 124.994,319.435 124.480 C 319.435 123.444,321.393 123.089,328.857 122.773 C 332.290 122.628,335.312 122.191,335.571 121.804 C 335.830 121.416,336.678 120.839,337.456 120.523 C 338.787 119.980,338.766 119.919,337.102 119.473 C 335.342 119.000,335.345 118.993,337.977 117.273 C 339.430 116.324,340.622 115.309,340.627 115.018 C 340.641 114.188,338.890 114.396,337.951 115.336 C 337.318 115.969,336.899 115.980,336.300 115.381 C 335.701 114.782,335.224 114.852,334.420 115.656 C 333.454 116.622,333.277 116.617,332.714 115.611 C 331.807 113.990,331.340 114.169,328.272 117.311 M114.622 130.806 C 115.006 131.973,119.435 132.606,119.435 131.494 C 119.435 131.080,118.825 130.742,118.079 130.742 C 117.333 130.742,116.177 130.532,115.509 130.276 C 114.657 129.949,114.392 130.107,114.622 130.806 M39.292 131.806 C 38.037 132.755,38.095 132.812,40.173 132.666 C 41.398 132.579,42.301 132.211,42.180 131.846 C 41.817 130.747,40.713 130.732,39.292 131.806 M222.899 132.338 C 224.413 133.853,223.496 135.031,221.508 134.126 C 219.242 133.093,219.346 132.103,221.782 131.505 C 221.907 131.474,222.409 131.849,222.899 132.338 M204.107 134.460 C 204.437 136.171,203.043 136.000,202.086 134.213 C 201.410 132.948,201.481 132.772,202.583 132.984 C 203.291 133.120,203.977 133.785,204.107 134.460 M220.495 135.980 C 222.743 136.671,223.338 137.094,222.524 137.426 C 221.027 138.036,216.786 136.929,216.420 135.833 C 216.062 134.758,216.573 134.776,220.495 135.980 M372.066 137.383 C 370.872 138.255,371.367 138.359,376.347 138.279 C 379.445 138.229,383.608 138.630,385.598 139.169 C 387.770 139.758,389.749 139.915,390.545 139.562 C 391.733 139.036,391.687 138.947,390.106 138.715 C 389.134 138.573,386.411 137.993,384.054 137.426 C 378.646 136.126,373.808 136.108,372.066 137.383 M229.293 138.595 C 229.699 138.974,229.372 139.223,228.468 139.223 C 226.313 139.223,224.677 138.475,225.152 137.706 C 225.589 137.000,228.181 137.556,229.293 138.595 M332.023 139.046 C 331.892 139.737,331.012 140.393,330.030 140.531 C 328.287 140.778,328.283 140.768,329.617 139.295 C 331.253 137.487,332.342 137.374,332.023 139.046 M359.011 138.885 C 357.650 139.400,355.742 139.868,354.770 139.925 C 353.293 140.012,353.215 140.112,354.293 140.537 C 355.003 140.816,357.388 140.795,359.594 140.488 C 361.800 140.182,365.144 139.748,367.026 139.524 C 371.292 139.016,371.071 138.814,365.724 138.331 C 363.022 138.087,360.587 138.288,359.011 138.885 M247.840 144.501 C 249.960 146.366,249.265 146.810,246.323 145.470 C 245.333 145.019,244.523 144.223,244.523 143.703 C 244.523 142.287,245.626 142.552,247.840 144.501 M89.753 146.565 C 89.753 147.733,87.202 151.038,86.693 150.530 C 86.498 150.336,86.773 149.143,87.305 147.880 C 88.283 145.554,89.753 144.764,89.753 146.565 M66.019 147.678 C 67.800 148.442,69.258 149.396,69.258 149.798 C 69.258 150.869,68.889 150.745,65.192 148.423 C 61.274 145.963,61.513 145.747,66.019 147.678 M146.290 148.679 C 146.290 150.244,141.933 154.064,140.149 154.064 C 137.740 154.064,138.165 152.341,140.766 151.560 C 144.717 150.373,144.207 148.882,140.047 149.454 C 136.231 149.979,134.085 149.413,135.790 148.332 C 137.469 147.268,146.290 147.560,146.290 148.679 M326.659 153.514 C 325.817 154.356,324.880 154.797,324.578 154.494 C 324.276 154.190,324.789 153.325,325.718 152.572 C 327.914 150.792,328.647 151.526,326.659 153.514 M68.722 154.659 C 70.292 156.228,68.566 156.304,64.532 154.844 L 60.424 153.357 64.176 153.611 C 66.239 153.750,68.285 154.222,68.722 154.659 M191.911 154.709 C 191.650 155.131,190.699 155.477,189.797 155.477 C 188.896 155.477,187.722 156.034,187.189 156.714 C 186.315 157.828,186.339 157.857,187.427 157.005 C 188.215 156.387,189.406 156.228,190.857 156.547 C 193.685 157.168,200.863 156.302,200.310 155.406 C 200.081 155.036,198.884 154.768,197.650 154.810 C 196.416 154.853,194.727 154.674,193.896 154.414 C 193.053 154.150,192.176 154.280,191.911 154.709 M103.534 156.890 C 103.293 157.279,103.752 157.597,104.552 157.597 C 105.352 157.597,106.007 157.279,106.007 156.890 C 106.007 156.502,105.549 156.184,104.989 156.184 C 104.429 156.184,103.774 156.502,103.534 156.890 M245.230 157.597 C 244.372 158.151,244.474 158.284,245.760 158.293 C 246.634 158.299,247.350 157.986,247.350 157.597 C 247.350 156.712,246.600 156.712,245.230 157.597 M234.323 158.977 C 233.394 159.315,233.222 159.638,233.787 159.987 C 234.244 160.269,235.138 160.209,235.774 159.853 C 237.263 159.020,236.114 158.326,234.323 158.977 M296.950 166.175 C 297.605 166.510,298.956 166.784,299.954 166.784 C 301.699 166.784,302.389 167.730,301.187 168.473 C 300.347 168.992,295.239 167.344,293.236 165.906 L 291.519 164.675 293.640 165.121 C 294.806 165.366,296.295 165.841,296.950 166.175 M97.527 169.645 C 97.527 170.468,93.138 172.525,92.580 171.964 C 92.072 171.455,95.377 168.905,96.545 168.905 C 97.085 168.905,97.527 169.238,97.527 169.645 M108.127 172.463 C 108.127 173.482,107.251 174.278,105.124 175.191 C 103.472 175.899,100.579 177.182,98.694 178.041 C 96.810 178.900,95.082 179.417,94.855 179.189 C 94.135 178.469,95.736 177.405,98.927 176.481 C 103.004 175.300,103.814 173.443,99.935 174.170 C 98.439 174.451,95.934 175.106,94.367 175.626 C 90.463 176.921,88.419 177.162,88.320 176.339 C 88.198 175.331,101.595 171.134,105.124 171.075 C 107.690 171.032,108.127 171.234,108.127 172.463 M279.152 172.659 C 279.152 173.919,280.655 176.678,281.341 176.678 C 281.939 176.678,281.945 176.430,281.365 175.730 C 280.932 175.208,280.742 174.618,280.942 174.417 C 281.142 174.217,280.822 173.651,280.229 173.159 C 279.637 172.667,279.152 172.442,279.152 172.659 M259.011 178.799 C 260.128 179.965,261.360 180.919,261.749 180.919 C 262.137 180.919,261.541 179.965,260.424 178.799 C 259.307 177.633,258.075 176.678,257.686 176.678 C 257.297 176.678,257.893 177.633,259.011 178.799 M247.033 180.019 C 246.482 181.455,247.528 182.538,249.160 182.222 C 251.092 181.847,251.109 180.542,249.194 179.669 C 247.780 179.025,247.390 179.088,247.033 180.019 M27.562 185.104 C 27.562 185.490,28.697 186.694,30.085 187.779 C 31.473 188.865,33.271 190.309,34.081 190.989 C 37.280 193.679,36.829 192.030,33.539 189.009 C 29.545 185.341,27.562 184.046,27.562 185.104 M66.744 186.225 C 73.277 186.683,76.286 187.601,75.110 188.777 C 74.521 189.366,62.999 188.041,58.168 186.829 C 56.123 186.315,56.786 185.043,58.877 185.468 C 59.728 185.641,63.268 185.982,66.744 186.225 M120.141 187.279 C 122.446 188.541,122.494 188.635,120.848 188.653 C 118.038 188.685,115.901 187.903,115.901 186.843 C 115.901 185.525,117.177 185.656,120.141 187.279 M26.148 188.668 C 26.148 189.043,26.864 189.725,27.739 190.184 C 29.320 191.014,29.321 191.010,27.982 189.502 C 26.487 187.818,26.148 187.664,26.148 188.668 M22.615 190.813 C 23.511 191.590,24.404 192.226,24.599 192.226 C 24.794 192.226,24.378 191.590,23.675 190.813 C 22.971 190.035,22.078 189.399,21.690 189.399 C 21.303 189.399,21.719 190.035,22.615 190.813 M19.081 191.501 C 19.081 192.281,23.278 194.626,23.778 194.126 C 24.168 193.735,20.564 190.813,19.693 190.813 C 19.356 190.813,19.081 191.123,19.081 191.501 " stroke="none" fill="#000000" fill-rule="evenodd"></path></g></svg>