<svg id="svg" xmlns="http://www.w3.org/2000/svg" xmlns:xlink="http://www.w3.org/1999/xlink" width="500" height="500" viewBox="0, 0, 500,500"><g id="svgg"><path id="path0" d="M59.245 3.125 L 56.128 6.250 31.189 6.250 L 6.250 6.250 6.250 31.181 L 6.250 56.112 3.064 59.306 L -0.122 62.500 3.064 65.694 L 6.250 68.888 6.250 93.819 L 6.250 118.750 31.189 118.750 L 56.128 118.750 59.245 121.875 L 62.362 125.000 59.245 128.125 L 56.128 131.250 31.189 131.250 L 6.250 131.250 6.250 156.181 L 6.250 181.112 3.064 184.306 L -0.122 187.500 3.064 190.694 L 6.250 193.888 6.250 218.819 L 6.250 243.750 31.189 243.750 L 56.128 243.750 59.245 246.875 L 62.362 250.000 59.245 253.125 L 56.128 256.250 31.189 256.250 L 6.250 256.250 6.250 281.181 L 6.250 306.112 3.064 309.306 L -0.122 312.500 3.064 315.694 L 6.250 318.888 6.250 343.819 L 6.250 368.750 31.189 368.750 L 56.128 368.750 59.245 371.875 L 62.362 375.000 59.245 378.125 L 56.128 381.250 31.189 381.250 L 6.250 381.250 6.250 406.181 L 6.250 431.112 3.064 434.306 L -0.122 437.500 3.064 440.694 L 6.250 443.888 6.250 468.819 L 6.250 493.750 31.181 493.750 L 56.112 493.750 59.306 496.936 L 62.500 500.122 65.694 496.936 L 68.888 493.750 93.819 493.750 L 118.750 493.750 118.750 468.811 L 118.750 443.872 121.875 440.755 L 125.000 437.638 128.125 440.755 L 131.250 443.872 131.250 468.811 L 131.250 493.750 156.181 493.750 L 181.112 493.750 184.306 496.936 L 187.500 500.122 190.694 496.936 L 193.888 493.750 218.819 493.750 L 243.750 493.750 243.750 468.811 L 243.750 443.872 246.875 440.755 L 250.000 437.638 253.125 440.755 L 256.250 443.872 256.250 468.811 L 256.250 493.750 281.181 493.750 L 306.112 493.750 309.306 496.936 L 312.500 500.122 315.694 496.936 L 318.888 493.750 343.819 493.750 L 368.750 493.750 368.750 468.811 L 368.750 443.872 371.875 440.755 L 375.000 437.638 378.125 440.755 L 381.250 443.872 381.250 468.811 L 381.250 493.750 406.181 493.750 L 431.112 493.750 434.306 496.936 L 437.500 500.122 440.694 496.936 L 443.888 493.750 468.819 493.750 L 493.750 493.750 493.750 468.819 L 493.750 443.888 496.936 440.694 L 500.122 437.500 496.936 434.306 L 493.750 431.112 493.750 406.181 L 493.750 381.250 468.811 381.250 L 443.872 381.250 440.755 378.125 L 437.638 375.000 440.755 371.875 L 443.872 368.750 468.811 368.750 L 493.750 368.750 493.750 343.819 L 493.750 318.888 496.936 315.694 L 500.122 312.500 496.936 309.306 L 493.750 306.112 493.750 281.181 L 493.750 256.250 468.811 256.250 L 443.872 256.250 440.755 253.125 L 437.638 250.000 440.755 246.875 L 443.872 243.750 468.811 243.750 L 493.750 243.750 493.750 218.819 L 493.750 193.888 496.936 190.694 L 500.122 187.500 496.936 184.306 L 493.750 181.112 493.750 156.181 L 493.750 131.250 468.811 131.250 L 443.872 131.250 440.755 128.125 L 437.638 125.000 440.755 121.875 L 443.872 118.750 468.811 118.750 L 493.750 118.750 493.750 93.819 L 493.750 68.888 496.936 65.694 L 500.122 62.500 496.936 59.306 L 493.750 56.112 493.750 31.181 L 493.750 6.250 468.819 6.250 L 443.888 6.250 440.694 3.064 L 437.500 -0.122 434.306 3.064 L 431.112 6.250 406.181 6.250 L 381.250 6.250 381.250 31.189 L 381.250 56.128 378.125 59.245 L 375.000 62.362 371.875 59.245 L 368.750 56.128 368.750 31.189 L 368.750 6.250 343.819 6.250 L 318.888 6.250 315.694 3.064 L 312.500 -0.122 309.306 3.064 L 306.112 6.250 281.181 6.250 L 256.250 6.250 256.250 31.189 L 256.250 56.128 253.125 59.245 L 250.000 62.362 246.875 59.245 L 243.750 56.128 243.750 31.189 L 243.750 6.250 218.819 6.250 L 193.888 6.250 190.694 3.064 L 187.500 -0.122 184.306 3.064 L 181.112 6.250 156.181 6.250 L 131.250 6.250 131.250 31.189 L 131.250 56.128 128.125 59.245 L 125.000 62.362 121.875 59.245 L 118.750 56.128 118.750 31.189 L 118.750 6.250 93.811 6.250 L 68.872 6.250 65.755 3.125 C 64.041 1.406,62.576 -0.000,62.500 -0.000 C 62.424 -0.000,60.959 1.406,59.245 3.125 M56.250 31.380 L 56.250 56.250 31.319 56.250 L 6.388 56.250 9.505 53.125 L 12.622 50.000 31.311 50.000 L 50.000 50.000 50.000 31.319 L 50.000 12.638 53.056 9.574 C 54.737 7.889,56.143 6.510,56.181 6.510 C 56.219 6.510,56.250 17.702,56.250 31.380 M75.000 31.311 L 75.000 50.000 93.689 50.000 L 112.378 50.000 115.495 53.125 L 118.612 56.250 93.681 56.250 L 68.750 56.250 68.750 31.319 L 68.750 6.388 71.875 9.505 L 75.000 12.622 75.000 31.311 M181.250 31.380 L 181.250 56.250 156.319 56.250 L 131.388 56.250 134.505 53.125 L 137.622 50.000 156.311 50.000 L 175.000 50.000 175.000 31.319 L 175.000 12.638 178.056 9.574 C 179.737 7.889,181.143 6.510,181.181 6.510 C 181.219 6.510,181.250 17.702,181.250 31.380 M200.000 31.311 L 200.000 50.000 218.689 50.000 L 237.378 50.000 240.495 53.125 L 243.612 56.250 218.681 56.250 L 193.750 56.250 193.750 31.319 L 193.750 6.388 196.875 9.505 L 200.000 12.622 200.000 31.311 M306.250 31.380 L 306.250 56.250 281.319 56.250 L 256.388 56.250 259.505 53.125 L 262.622 50.000 281.311 50.000 L 300.000 50.000 300.000 31.319 L 300.000 12.638 303.056 9.574 C 304.737 7.889,306.143 6.510,306.181 6.510 C 306.219 6.510,306.250 17.702,306.250 31.380 M325.000 31.311 L 325.000 50.000 343.689 50.000 L 362.378 50.000 365.495 53.125 L 368.612 56.250 343.681 56.250 L 318.750 56.250 318.750 31.319 L 318.750 6.388 321.875 9.505 L 325.000 12.622 325.000 31.311 M431.250 31.380 L 431.250 56.250 406.319 56.250 L 381.388 56.250 384.505 53.125 L 387.622 50.000 406.311 50.000 L 425.000 50.000 425.000 31.319 L 425.000 12.638 428.056 9.574 C 429.737 7.889,431.143 6.510,431.181 6.510 C 431.219 6.510,431.250 17.702,431.250 31.380 M450.000 31.311 L 450.000 50.000 468.689 50.000 L 487.378 50.000 490.495 53.125 L 493.612 56.250 468.681 56.250 L 443.750 56.250 443.750 31.319 L 443.750 6.388 446.875 9.505 L 450.000 12.622 450.000 31.311 M46.745 15.625 L 43.628 18.750 31.189 18.750 L 18.750 18.750 18.750 31.189 L 18.750 43.628 15.625 46.745 L 12.500 49.862 12.500 31.181 L 12.500 12.500 31.181 12.500 L 49.862 12.500 46.745 15.625 M112.500 31.181 L 112.500 49.862 109.375 46.745 L 106.250 43.628 106.250 31.189 L 106.250 18.750 93.811 18.750 L 81.372 18.750 78.255 15.625 L 75.138 12.500 93.819 12.500 L 112.500 12.500 112.500 31.181 M171.745 15.625 L 168.628 18.750 156.189 18.750 L 143.750 18.750 143.750 31.189 L 143.750 43.628 140.625 46.745 L 137.500 49.862 137.500 31.181 L 137.500 12.500 156.181 12.500 L 174.862 12.500 171.745 15.625 M237.500 31.181 L 237.500 49.862 234.375 46.745 L 231.250 43.628 231.250 31.189 L 231.250 18.750 218.811 18.750 L 206.372 18.750 203.255 15.625 L 200.138 12.500 218.819 12.500 L 237.500 12.500 237.500 31.181 M296.745 15.625 L 293.628 18.750 281.189 18.750 L 268.750 18.750 268.750 31.189 L 268.750 43.628 265.625 46.745 L 262.500 49.862 262.500 31.181 L 262.500 12.500 281.181 12.500 L 299.862 12.500 296.745 15.625 M362.500 31.181 L 362.500 49.862 359.375 46.745 L 356.250 43.628 356.250 31.189 L 356.250 18.750 343.811 18.750 L 331.372 18.750 328.255 15.625 L 325.138 12.500 343.819 12.500 L 362.500 12.500 362.500 31.181 M421.745 15.625 L 418.628 18.750 406.189 18.750 L 393.750 18.750 393.750 31.189 L 393.750 43.628 390.625 46.745 L 387.500 49.862 387.500 31.181 L 387.500 12.500 406.181 12.500 L 424.862 12.500 421.745 15.625 M487.500 31.181 L 487.500 49.862 484.375 46.745 L 481.250 43.628 481.250 31.189 L 481.250 18.750 468.811 18.750 L 456.372 18.750 453.255 15.625 L 450.138 12.500 468.819 12.500 L 487.500 12.500 487.500 31.181 M43.750 31.380 L 43.750 43.750 31.319 43.750 L 18.888 43.750 22.005 40.625 L 25.122 37.500 31.311 37.500 L 37.500 37.500 37.500 31.319 L 37.500 25.138 40.556 22.074 C 42.237 20.389,43.643 19.010,43.681 19.010 C 43.719 19.010,43.750 24.577,43.750 31.380 M87.500 31.311 L 87.500 37.500 93.689 37.500 L 99.878 37.500 102.995 40.625 L 106.112 43.750 93.681 43.750 L 81.250 43.750 81.250 31.319 L 81.250 18.888 84.375 22.005 L 87.500 25.122 87.500 31.311 M168.750 31.380 L 168.750 43.750 156.319 43.750 L 143.888 43.750 147.005 40.625 L 150.122 37.500 156.311 37.500 L 162.500 37.500 162.500 31.319 L 162.500 25.138 165.556 22.074 C 167.237 20.389,168.643 19.010,168.681 19.010 C 168.719 19.010,168.750 24.577,168.750 31.380 M212.500 31.311 L 212.500 37.500 218.689 37.500 L 224.878 37.500 227.995 40.625 L 231.112 43.750 218.681 43.750 L 206.250 43.750 206.250 31.319 L 206.250 18.888 209.375 22.005 L 212.500 25.122 212.500 31.311 M293.750 31.380 L 293.750 43.750 281.319 43.750 L 268.888 43.750 272.005 40.625 L 275.122 37.500 281.311 37.500 L 287.500 37.500 287.500 31.319 L 287.500 25.138 290.556 22.074 C 292.237 20.389,293.643 19.010,293.681 19.010 C 293.719 19.010,293.750 24.577,293.750 31.380 M337.500 31.311 L 337.500 37.500 343.689 37.500 L 349.878 37.500 352.995 40.625 L 356.112 43.750 343.681 43.750 L 331.250 43.750 331.250 31.319 L 331.250 18.888 334.375 22.005 L 337.500 25.122 337.500 31.311 M418.750 31.380 L 418.750 43.750 406.319 43.750 L 393.888 43.750 397.005 40.625 L 400.122 37.500 406.311 37.500 L 412.500 37.500 412.500 31.319 L 412.500 25.138 415.556 22.074 C 417.237 20.389,418.643 19.010,418.681 19.010 C 418.719 19.010,418.750 24.577,418.750 31.380 M462.500 31.311 L 462.500 37.500 468.689 37.500 L 474.878 37.500 477.995 40.625 L 481.112 43.750 468.681 43.750 L 456.250 43.750 456.250 31.319 L 456.250 18.888 459.375 22.005 L 462.500 25.122 462.500 31.311 M37.240 25.067 C 37.240 25.104,34.486 27.886,31.120 31.250 L 25.000 37.366 25.000 31.183 L 25.000 25.000 31.120 25.000 C 34.486 25.000,37.240 25.030,37.240 25.067 M100.000 31.120 C 100.000 34.486,99.970 37.240,99.933 37.240 C 99.896 37.240,97.114 34.486,93.750 31.120 L 87.634 25.000 93.817 25.000 L 100.000 25.000 100.000 31.120 M162.240 25.067 C 162.240 25.104,159.486 27.886,156.120 31.250 L 150.000 37.366 150.000 31.183 L 150.000 25.000 156.120 25.000 C 159.486 25.000,162.240 25.030,162.240 25.067 M225.000 31.120 C 225.000 34.486,224.970 37.240,224.933 37.240 C 224.896 37.240,222.114 34.486,218.750 31.120 L 212.634 25.000 218.817 25.000 L 225.000 25.000 225.000 31.120 M287.240 25.067 C 287.240 25.104,284.486 27.886,281.120 31.250 L 275.000 37.366 275.000 31.183 L 275.000 25.000 281.120 25.000 C 284.486 25.000,287.240 25.030,287.240 25.067 M350.000 31.120 C 350.000 34.486,349.970 37.240,349.933 37.240 C 349.896 37.240,347.114 34.486,343.750 31.120 L 337.634 25.000 343.817 25.000 L 350.000 25.000 350.000 31.120 M412.240 25.067 C 412.240 25.104,409.486 27.886,406.120 31.250 L 400.000 37.366 400.000 31.183 L 400.000 25.000 406.120 25.000 C 409.486 25.000,412.240 25.030,412.240 25.067 M475.000 31.120 C 475.000 34.486,474.970 37.240,474.933 37.240 C 474.896 37.240,472.114 34.486,468.750 31.120 L 462.634 25.000 468.817 25.000 L 475.000 25.000 475.000 31.120 M128.194 65.824 L 131.250 68.888 131.250 93.819 L 131.250 118.750 156.189 118.750 L 181.128 118.750 184.245 121.875 L 187.362 125.000 184.245 128.125 L 181.128 131.250 156.189 131.250 L 131.250 131.250 131.250 156.189 L 131.250 181.128 128.125 184.245 L 125.000 187.362 121.875 184.245 L 118.750 181.128 118.750 156.189 L 118.750 131.250 93.811 131.250 L 68.872 131.250 65.755 128.125 L 62.638 125.000 65.755 121.875 L 68.872 118.750 93.811 118.750 L 118.750 118.750 118.750 93.819 L 118.750 68.888 121.806 65.824 C 123.487 64.139,124.924 62.760,125.000 62.760 C 125.076 62.760,126.513 64.139,128.194 65.824 M253.194 65.824 L 256.250 68.888 256.250 93.819 L 256.250 118.750 281.189 118.750 L 306.128 118.750 309.245 121.875 L 312.362 125.000 309.245 128.125 L 306.128 131.250 281.189 131.250 L 256.250 131.250 256.250 156.189 L 256.250 181.128 253.125 184.245 L 250.000 187.362 246.875 184.245 L 243.750 181.128 243.750 156.189 L 243.750 131.250 218.811 131.250 L 193.872 131.250 190.755 128.125 L 187.638 125.000 190.755 121.875 L 193.872 118.750 218.811 118.750 L 243.750 118.750 243.750 93.819 L 243.750 68.888 246.806 65.824 C 248.487 64.139,249.924 62.760,250.000 62.760 C 250.076 62.760,251.513 64.139,253.194 65.824 M378.194 65.824 L 381.250 68.888 381.250 93.819 L 381.250 118.750 406.189 118.750 L 431.128 118.750 434.245 121.875 L 437.362 125.000 434.245 128.125 L 431.128 131.250 406.189 131.250 L 381.250 131.250 381.250 156.189 L 381.250 181.128 378.125 184.245 L 375.000 187.362 371.875 184.245 L 368.750 181.128 368.750 156.189 L 368.750 131.250 343.811 131.250 L 318.872 131.250 315.755 128.125 L 312.638 125.000 315.755 121.875 L 318.872 118.750 343.811 118.750 L 368.750 118.750 368.750 93.819 L 368.750 68.888 371.806 65.824 C 373.487 64.139,374.924 62.760,375.000 62.760 C 375.076 62.760,376.513 64.139,378.194 65.824 M56.250 93.681 L 56.250 118.612 53.125 115.495 L 50.000 112.378 50.000 93.689 L 50.000 75.000 31.311 75.000 L 12.622 75.000 9.505 71.875 L 6.388 68.750 31.319 68.750 L 56.250 68.750 56.250 93.681 M115.495 71.875 L 112.378 75.000 93.689 75.000 L 75.000 75.000 75.000 93.689 L 75.000 112.378 71.875 115.495 L 68.750 118.612 68.750 93.854 C 68.750 80.238,68.828 69.019,68.924 68.924 C 69.019 68.828,80.238 68.750,93.854 68.750 L 118.612 68.750 115.495 71.875 M181.250 93.681 L 181.250 118.612 178.125 115.495 L 175.000 112.378 175.000 93.689 L 175.000 75.000 156.311 75.000 L 137.622 75.000 134.505 71.875 L 131.388 68.750 156.319 68.750 L 181.250 68.750 181.250 93.681 M240.495 71.875 L 237.378 75.000 218.689 75.000 L 200.000 75.000 200.000 93.689 L 200.000 112.378 196.875 115.495 L 193.750 118.612 193.750 93.854 C 193.750 80.238,193.828 69.019,193.924 68.924 C 194.019 68.828,205.238 68.750,218.854 68.750 L 243.612 68.750 240.495 71.875 M306.250 93.681 L 306.250 118.612 303.125 115.495 L 300.000 112.378 300.000 93.689 L 300.000 75.000 281.311 75.000 L 262.622 75.000 259.505 71.875 L 256.388 68.750 281.319 68.750 L 306.250 68.750 306.250 93.681 M365.495 71.875 L 362.378 75.000 343.689 75.000 L 325.000 75.000 325.000 93.689 L 325.000 112.378 321.875 115.495 L 318.750 118.612 318.750 93.854 C 318.750 80.238,318.828 69.019,318.924 68.924 C 319.019 68.828,330.238 68.750,343.854 68.750 L 368.612 68.750 365.495 71.875 M431.250 93.681 L 431.250 118.612 428.125 115.495 L 425.000 112.378 425.000 93.689 L 425.000 75.000 406.311 75.000 L 387.622 75.000 384.505 71.875 L 381.388 68.750 406.319 68.750 L 431.250 68.750 431.250 93.681 M490.495 71.875 L 487.378 75.000 468.689 75.000 L 450.000 75.000 450.000 93.689 L 450.000 112.378 446.875 115.495 L 443.750 118.612 443.750 93.854 C 443.750 80.238,443.828 69.019,443.924 68.924 C 444.019 68.828,455.238 68.750,468.854 68.750 L 493.612 68.750 490.495 71.875 M18.750 93.811 L 18.750 106.250 31.189 106.250 L 43.628 106.250 46.745 109.375 L 49.862 112.500 31.181 112.500 L 12.500 112.500 12.500 93.819 L 12.500 75.138 15.625 78.255 L 18.750 81.372 18.750 93.811 M112.500 93.880 L 112.500 112.500 93.819 112.500 L 75.138 112.500 78.255 109.375 L 81.372 106.250 93.811 106.250 L 106.250 106.250 106.250 93.819 L 106.250 81.388 109.306 78.324 C 110.987 76.639,112.393 75.260,112.431 75.260 C 112.469 75.260,112.500 83.639,112.500 93.880 M143.750 93.811 L 143.750 106.250 156.189 106.250 L 168.628 106.250 171.745 109.375 L 174.862 112.500 156.181 112.500 L 137.500 112.500 137.500 93.819 L 137.500 75.138 140.625 78.255 L 143.750 81.372 143.750 93.811 M237.500 93.880 L 237.500 112.500 218.819 112.500 L 200.138 112.500 203.255 109.375 L 206.372 106.250 218.811 106.250 L 231.250 106.250 231.250 93.819 L 231.250 81.388 234.306 78.324 C 235.987 76.639,237.393 75.260,237.431 75.260 C 237.469 75.260,237.500 83.639,237.500 93.880 M268.750 93.811 L 268.750 106.250 281.189 106.250 L 293.628 106.250 296.745 109.375 L 299.862 112.500 281.181 112.500 L 262.500 112.500 262.500 93.819 L 262.500 75.138 265.625 78.255 L 268.750 81.372 268.750 93.811 M362.500 93.880 L 362.500 112.500 343.819 112.500 L 325.138 112.500 328.255 109.375 L 331.372 106.250 343.811 106.250 L 356.250 106.250 356.250 93.819 L 356.250 81.388 359.306 78.324 C 360.987 76.639,362.393 75.260,362.431 75.260 C 362.469 75.260,362.500 83.639,362.500 93.880 M393.750 93.811 L 393.750 106.250 406.189 106.250 L 418.628 106.250 421.745 109.375 L 424.862 112.500 406.181 112.500 L 387.500 112.500 387.500 93.819 L 387.500 75.138 390.625 78.255 L 393.750 81.372 393.750 93.811 M487.500 93.880 L 487.500 112.500 468.819 112.500 L 450.138 112.500 453.255 109.375 L 456.372 106.250 468.811 106.250 L 481.250 106.250 481.250 93.819 L 481.250 81.388 484.306 78.324 C 485.987 76.639,487.393 75.260,487.431 75.260 C 487.469 75.260,487.500 83.639,487.500 93.880 M43.750 93.681 L 43.750 106.112 40.625 102.995 L 37.500 99.878 37.500 93.689 L 37.500 87.500 31.311 87.500 L 25.122 87.500 22.005 84.375 L 18.888 81.250 31.319 81.250 L 43.750 81.250 43.750 93.681 M102.995 84.375 L 99.878 87.500 93.689 87.500 L 87.500 87.500 87.500 93.689 L 87.500 99.878 84.375 102.995 L 81.250 106.112 81.250 93.854 C 81.250 87.113,81.328 81.519,81.424 81.424 C 81.519 81.328,87.113 81.250,93.854 81.250 L 106.112 81.250 102.995 84.375 M168.750 93.681 L 168.750 106.112 165.625 102.995 L 162.500 99.878 162.500 93.689 L 162.500 87.500 156.311 87.500 L 150.122 87.500 147.005 84.375 L 143.888 81.250 156.319 81.250 L 168.750 81.250 168.750 93.681 M227.995 84.375 L 224.878 87.500 218.689 87.500 L 212.500 87.500 212.500 93.689 L 212.500 99.878 209.375 102.995 L 206.250 106.112 206.250 93.854 C 206.250 87.113,206.328 81.519,206.424 81.424 C 206.519 81.328,212.113 81.250,218.854 81.250 L 231.112 81.250 227.995 84.375 M293.750 93.681 L 293.750 106.112 290.625 102.995 L 287.500 99.878 287.500 93.689 L 287.500 87.500 281.311 87.500 L 275.122 87.500 272.005 84.375 L 268.888 81.250 281.319 81.250 L 293.750 81.250 293.750 93.681 M352.995 84.375 L 349.878 87.500 343.689 87.500 L 337.500 87.500 337.500 93.689 L 337.500 99.878 334.375 102.995 L 331.250 106.112 331.250 93.854 C 331.250 87.113,331.328 81.519,331.424 81.424 C 331.519 81.328,337.113 81.250,343.854 81.250 L 356.112 81.250 352.995 84.375 M418.750 93.681 L 418.750 106.112 415.625 102.995 L 412.500 99.878 412.500 93.689 L 412.500 87.500 406.311 87.500 L 400.122 87.500 397.005 84.375 L 393.888 81.250 406.319 81.250 L 418.750 81.250 418.750 93.681 M477.995 84.375 L 474.878 87.500 468.689 87.500 L 462.500 87.500 462.500 93.689 L 462.500 99.878 459.375 102.995 L 456.250 106.112 456.250 93.854 C 456.250 87.113,456.328 81.519,456.424 81.424 C 456.519 81.328,462.113 81.250,468.854 81.250 L 481.112 81.250 477.995 84.375 M31.250 93.880 L 37.366 100.000 31.183 100.000 L 25.000 100.000 25.000 93.880 C 25.000 90.514,25.030 87.760,25.067 87.760 C 25.104 87.760,27.886 90.514,31.250 93.880 M100.000 93.880 L 100.000 100.000 93.817 100.000 L 87.634 100.000 93.750 93.880 C 97.114 90.514,99.896 87.760,99.933 87.760 C 99.970 87.760,100.000 90.514,100.000 93.880 M156.250 93.880 L 162.366 100.000 156.183 100.000 L 150.000 100.000 150.000 93.880 C 150.000 90.514,150.030 87.760,150.067 87.760 C 150.104 87.760,152.886 90.514,156.250 93.880 M225.000 93.880 L 225.000 100.000 218.817 100.000 L 212.634 100.000 218.750 93.880 C 222.114 90.514,224.896 87.760,224.933 87.760 C 224.970 87.760,225.000 90.514,225.000 93.880 M281.250 93.880 L 287.366 100.000 281.183 100.000 L 275.000 100.000 275.000 93.880 C 275.000 90.514,275.030 87.760,275.067 87.760 C 275.104 87.760,277.886 90.514,281.250 93.880 M350.000 93.880 L 350.000 100.000 343.817 100.000 L 337.634 100.000 343.750 93.880 C 347.114 90.514,349.896 87.760,349.933 87.760 C 349.970 87.760,350.000 90.514,350.000 93.880 M406.250 93.880 L 412.366 100.000 406.183 100.000 L 400.000 100.000 400.000 93.880 C 400.000 90.514,400.030 87.760,400.067 87.760 C 400.104 87.760,402.886 90.514,406.250 93.880 M475.000 93.880 L 475.000 100.000 468.817 100.000 L 462.634 100.000 468.750 93.880 C 472.114 90.514,474.896 87.760,474.933 87.760 C 474.970 87.760,475.000 90.514,475.000 93.880 M56.250 156.380 L 56.250 181.250 31.319 181.250 L 6.388 181.250 9.505 178.125 L 12.622 175.000 31.311 175.000 L 50.000 175.000 50.000 156.319 L 50.000 137.638 53.056 134.574 C 54.737 132.889,56.143 131.510,56.181 131.510 C 56.219 131.510,56.250 142.702,56.250 156.380 M75.000 156.311 L 75.000 175.000 93.689 175.000 L 112.378 175.000 115.495 178.125 L 118.612 181.250 93.681 181.250 L 68.750 181.250 68.750 156.319 L 68.750 131.388 71.875 134.505 L 75.000 137.622 75.000 156.311 M181.250 156.380 L 181.250 181.250 156.319 181.250 L 131.388 181.250 134.505 178.125 L 137.622 175.000 156.311 175.000 L 175.000 175.000 175.000 156.319 L 175.000 137.638 178.056 134.574 C 179.737 132.889,181.143 131.510,181.181 131.510 C 181.219 131.510,181.250 142.702,181.250 156.380 M200.000 156.311 L 200.000 175.000 218.689 175.000 L 237.378 175.000 240.495 178.125 L 243.612 181.250 218.681 181.250 L 193.750 181.250 193.750 156.319 L 193.750 131.388 196.875 134.505 L 200.000 137.622 200.000 156.311 M306.250 156.380 L 306.250 181.250 281.319 181.250 L 256.388 181.250 259.505 178.125 L 262.622 175.000 281.311 175.000 L 300.000 175.000 300.000 156.319 L 300.000 137.638 303.056 134.574 C 304.737 132.889,306.143 131.510,306.181 131.510 C 306.219 131.510,306.250 142.702,306.250 156.380 M325.000 156.311 L 325.000 175.000 343.689 175.000 L 362.378 175.000 365.495 178.125 L 368.612 181.250 343.681 181.250 L 318.750 181.250 318.750 156.319 L 318.750 131.388 321.875 134.505 L 325.000 137.622 325.000 156.311 M431.250 156.380 L 431.250 181.250 406.319 181.250 L 381.388 181.250 384.505 178.125 L 387.622 175.000 406.311 175.000 L 425.000 175.000 425.000 156.319 L 425.000 137.638 428.056 134.574 C 429.737 132.889,431.143 131.510,431.181 131.510 C 431.219 131.510,431.250 142.702,431.250 156.380 M450.000 156.311 L 450.000 175.000 468.689 175.000 L 487.378 175.000 490.495 178.125 L 493.612 181.250 468.681 181.250 L 443.750 181.250 443.750 156.319 L 443.750 131.388 446.875 134.505 L 450.000 137.622 450.000 156.311 M46.745 140.625 L 43.628 143.750 31.189 143.750 L 18.750 143.750 18.750 156.189 L 18.750 168.628 15.625 171.745 L 12.500 174.862 12.500 156.181 L 12.500 137.500 31.181 137.500 L 49.862 137.500 46.745 140.625 M112.500 156.181 L 112.500 174.862 109.375 171.745 L 106.250 168.628 106.250 156.189 L 106.250 143.750 93.811 143.750 L 81.372 143.750 78.255 140.625 L 75.138 137.500 93.819 137.500 L 112.500 137.500 112.500 156.181 M171.745 140.625 L 168.628 143.750 156.189 143.750 L 143.750 143.750 143.750 156.189 L 143.750 168.628 140.625 171.745 L 137.500 174.862 137.500 156.181 L 137.500 137.500 156.181 137.500 L 174.862 137.500 171.745 140.625 M237.500 156.181 L 237.500 174.862 234.375 171.745 L 231.250 168.628 231.250 156.189 L 231.250 143.750 218.811 143.750 L 206.372 143.750 203.255 140.625 L 200.138 137.500 218.819 137.500 L 237.500 137.500 237.500 156.181 M296.745 140.625 L 293.628 143.750 281.189 143.750 L 268.750 143.750 268.750 156.189 L 268.750 168.628 265.625 171.745 L 262.500 174.862 262.500 156.181 L 262.500 137.500 281.181 137.500 L 299.862 137.500 296.745 140.625 M362.500 156.181 L 362.500 174.862 359.375 171.745 L 356.250 168.628 356.250 156.189 L 356.250 143.750 343.811 143.750 L 331.372 143.750 328.255 140.625 L 325.138 137.500 343.819 137.500 L 362.500 137.500 362.500 156.181 M421.745 140.625 L 418.628 143.750 406.189 143.750 L 393.750 143.750 393.750 156.189 L 393.750 168.628 390.625 171.745 L 387.500 174.862 387.500 156.181 L 387.500 137.500 406.181 137.500 L 424.862 137.500 421.745 140.625 M487.500 156.181 L 487.500 174.862 484.375 171.745 L 481.250 168.628 481.250 156.189 L 481.250 143.750 468.811 143.750 L 456.372 143.750 453.255 140.625 L 450.138 137.500 468.819 137.500 L 487.500 137.500 487.500 156.181 M43.750 156.380 L 43.750 168.750 31.319 168.750 L 18.888 168.750 22.005 165.625 L 25.122 162.500 31.311 162.500 L 37.500 162.500 37.500 156.319 L 37.500 150.138 40.556 147.074 C 42.237 145.389,43.643 144.010,43.681 144.010 C 43.719 144.010,43.750 149.577,43.750 156.380 M87.500 156.311 L 87.500 162.500 93.689 162.500 L 99.878 162.500 102.995 165.625 L 106.112 168.750 93.681 168.750 L 81.250 168.750 81.250 156.319 L 81.250 143.888 84.375 147.005 L 87.500 150.122 87.500 156.311 M168.750 156.380 L 168.750 168.750 156.319 168.750 L 143.888 168.750 147.005 165.625 L 150.122 162.500 156.311 162.500 L 162.500 162.500 162.500 156.319 L 162.500 150.138 165.556 147.074 C 167.237 145.389,168.643 144.010,168.681 144.010 C 168.719 144.010,168.750 149.577,168.750 156.380 M212.500 156.311 L 212.500 162.500 218.689 162.500 L 224.878 162.500 227.995 165.625 L 231.112 168.750 218.681 168.750 L 206.250 168.750 206.250 156.319 L 206.250 143.888 209.375 147.005 L 212.500 150.122 212.500 156.311 M293.750 156.380 L 293.750 168.750 281.319 168.750 L 268.888 168.750 272.005 165.625 L 275.122 162.500 281.311 162.500 L 287.500 162.500 287.500 156.319 L 287.500 150.138 290.556 147.074 C 292.237 145.389,293.643 144.010,293.681 144.010 C 293.719 144.010,293.750 149.577,293.750 156.380 M337.500 156.311 L 337.500 162.500 343.689 162.500 L 349.878 162.500 352.995 165.625 L 356.112 168.750 343.681 168.750 L 331.250 168.750 331.250 156.319 L 331.250 143.888 334.375 147.005 L 337.500 150.122 337.500 156.311 M418.750 156.380 L 418.750 168.750 406.319 168.750 L 393.888 168.750 397.005 165.625 L 400.122 162.500 406.311 162.500 L 412.500 162.500 412.500 156.319 L 412.500 150.138 415.556 147.074 C 417.237 145.389,418.643 144.010,418.681 144.010 C 418.719 144.010,418.750 149.577,418.750 156.380 M462.500 156.311 L 462.500 162.500 468.689 162.500 L 474.878 162.500 477.995 165.625 L 481.112 168.750 468.681 168.750 L 456.250 168.750 456.250 156.319 L 456.250 143.888 459.375 147.005 L 462.500 150.122 462.500 156.311 M37.240 150.067 C 37.240 150.104,34.486 152.886,31.120 156.250 L 25.000 162.366 25.000 156.183 L 25.000 150.000 31.120 150.000 C 34.486 150.000,37.240 150.030,37.240 150.067 M100.000 156.120 C 100.000 159.486,99.970 162.240,99.933 162.240 C 99.896 162.240,97.114 159.486,93.750 156.120 L 87.634 150.000 93.817 150.000 L 100.000 150.000 100.000 156.120 M162.240 150.067 C 162.240 150.104,159.486 152.886,156.120 156.250 L 150.000 162.366 150.000 156.183 L 150.000 150.000 156.120 150.000 C 159.486 150.000,162.240 150.030,162.240 150.067 M225.000 156.120 C 225.000 159.486,224.970 162.240,224.933 162.240 C 224.896 162.240,222.114 159.486,218.750 156.120 L 212.634 150.000 218.817 150.000 L 225.000 150.000 225.000 156.120 M287.240 150.067 C 287.240 150.104,284.486 152.886,281.120 156.250 L 275.000 162.366 275.000 156.183 L 275.000 150.000 281.120 150.000 C 284.486 150.000,287.240 150.030,287.240 150.067 M350.000 156.120 C 350.000 159.486,349.970 162.240,349.933 162.240 C 349.896 162.240,347.114 159.486,343.750 156.120 L 337.634 150.000 343.817 150.000 L 350.000 150.000 350.000 156.120 M412.240 150.067 C 412.240 150.104,409.486 152.886,406.120 156.250 L 400.000 162.366 400.000 156.183 L 400.000 150.000 406.120 150.000 C 409.486 150.000,412.240 150.030,412.240 150.067 M475.000 156.120 C 475.000 159.486,474.970 162.240,474.933 162.240 C 474.896 162.240,472.114 159.486,468.750 156.120 L 462.634 150.000 468.817 150.000 L 475.000 150.000 475.000 156.120 M128.194 190.824 L 131.250 193.888 131.250 218.819 L 131.250 243.750 156.189 243.750 L 181.128 243.750 184.245 246.875 L 187.362 250.000 184.245 253.125 L 181.128 256.250 156.189 256.250 L 131.250 256.250 131.250 281.189 L 131.250 306.128 128.125 309.245 L 125.000 312.362 121.875 309.245 L 118.750 306.128 118.750 281.189 L 118.750 256.250 93.811 256.250 L 68.872 256.250 65.755 253.125 L 62.638 250.000 65.755 246.875 L 68.872 243.750 93.811 243.750 L 118.750 243.750 118.750 218.819 L 118.750 193.888 121.806 190.824 C 123.487 189.139,124.924 187.760,125.000 187.760 C 125.076 187.760,126.513 189.139,128.194 190.824 M253.194 190.824 L 256.250 193.888 256.250 218.819 L 256.250 243.750 281.189 243.750 L 306.128 243.750 309.245 246.875 L 312.362 250.000 309.245 253.125 L 306.128 256.250 281.189 256.250 L 256.250 256.250 256.250 281.189 L 256.250 306.128 253.125 309.245 L 250.000 312.362 246.875 309.245 L 243.750 306.128 243.750 281.189 L 243.750 256.250 218.811 256.250 L 193.872 256.250 190.755 253.125 L 187.638 250.000 190.755 246.875 L 193.872 243.750 218.811 243.750 L 243.750 243.750 243.750 218.819 L 243.750 193.888 246.806 190.824 C 248.487 189.139,249.924 187.760,250.000 187.760 C 250.076 187.760,251.513 189.139,253.194 190.824 M378.194 190.824 L 381.250 193.888 381.250 218.819 L 381.250 243.750 406.189 243.750 L 431.128 243.750 434.245 246.875 L 437.362 250.000 434.245 253.125 L 431.128 256.250 406.189 256.250 L 381.250 256.250 381.250 281.189 L 381.250 306.128 378.125 309.245 L 375.000 312.362 371.875 309.245 L 368.750 306.128 368.750 281.189 L 368.750 256.250 343.811 256.250 L 318.872 256.250 315.755 253.125 L 312.638 250.000 315.755 246.875 L 318.872 243.750 343.811 243.750 L 368.750 243.750 368.750 218.819 L 368.750 193.888 371.806 190.824 C 373.487 189.139,374.924 187.760,375.000 187.760 C 375.076 187.760,376.513 189.139,378.194 190.824 M56.250 218.681 L 56.250 243.612 53.125 240.495 L 50.000 237.378 50.000 218.689 L 50.000 200.000 31.311 200.000 L 12.622 200.000 9.505 196.875 L 6.388 193.750 31.319 193.750 L 56.250 193.750 56.250 218.681 M115.495 196.875 L 112.378 200.000 93.689 200.000 L 75.000 200.000 75.000 218.689 L 75.000 237.378 71.875 240.495 L 68.750 243.612 68.750 218.854 C 68.750 205.238,68.828 194.019,68.924 193.924 C 69.019 193.828,80.238 193.750,93.854 193.750 L 118.612 193.750 115.495 196.875 M181.250 218.681 L 181.250 243.612 178.125 240.495 L 175.000 237.378 175.000 218.689 L 175.000 200.000 156.311 200.000 L 137.622 200.000 134.505 196.875 L 131.388 193.750 156.319 193.750 L 181.250 193.750 181.250 218.681 M240.495 196.875 L 237.378 200.000 218.689 200.000 L 200.000 200.000 200.000 218.689 L 200.000 237.378 196.875 240.495 L 193.750 243.612 193.750 218.854 C 193.750 205.238,193.828 194.019,193.924 193.924 C 194.019 193.828,205.238 193.750,218.854 193.750 L 243.612 193.750 240.495 196.875 M306.250 218.681 L 306.250 243.612 303.125 240.495 L 300.000 237.378 300.000 218.689 L 300.000 200.000 281.311 200.000 L 262.622 200.000 259.505 196.875 L 256.388 193.750 281.319 193.750 L 306.250 193.750 306.250 218.681 M365.495 196.875 L 362.378 200.000 343.689 200.000 L 325.000 200.000 325.000 218.689 L 325.000 237.378 321.875 240.495 L 318.750 243.612 318.750 218.854 C 318.750 205.238,318.828 194.019,318.924 193.924 C 319.019 193.828,330.238 193.750,343.854 193.750 L 368.612 193.750 365.495 196.875 M431.250 218.681 L 431.250 243.612 428.125 240.495 L 425.000 237.378 425.000 218.689 L 425.000 200.000 406.311 200.000 L 387.622 200.000 384.505 196.875 L 381.388 193.750 406.319 193.750 L 431.250 193.750 431.250 218.681 M490.495 196.875 L 487.378 200.000 468.689 200.000 L 450.000 200.000 450.000 218.689 L 450.000 237.378 446.875 240.495 L 443.750 243.612 443.750 218.854 C 443.750 205.238,443.828 194.019,443.924 193.924 C 444.019 193.828,455.238 193.750,468.854 193.750 L 493.612 193.750 490.495 196.875 M18.750 218.811 L 18.750 231.250 31.189 231.250 L 43.628 231.250 46.745 234.375 L 49.862 237.500 31.181 237.500 L 12.500 237.500 12.500 218.819 L 12.500 200.138 15.625 203.255 L 18.750 206.372 18.750 218.811 M112.500 218.880 L 112.500 237.500 93.819 237.500 L 75.138 237.500 78.255 234.375 L 81.372 231.250 93.811 231.250 L 106.250 231.250 106.250 218.819 L 106.250 206.388 109.306 203.324 C 110.987 201.639,112.393 200.260,112.431 200.260 C 112.469 200.260,112.500 208.639,112.500 218.880 M143.750 218.811 L 143.750 231.250 156.189 231.250 L 168.628 231.250 171.745 234.375 L 174.862 237.500 156.181 237.500 L 137.500 237.500 137.500 218.819 L 137.500 200.138 140.625 203.255 L 143.750 206.372 143.750 218.811 M237.500 218.880 L 237.500 237.500 218.819 237.500 L 200.138 237.500 203.255 234.375 L 206.372 231.250 218.811 231.250 L 231.250 231.250 231.250 218.819 L 231.250 206.388 234.306 203.324 C 235.987 201.639,237.393 200.260,237.431 200.260 C 237.469 200.260,237.500 208.639,237.500 218.880 M268.750 218.811 L 268.750 231.250 281.189 231.250 L 293.628 231.250 296.745 234.375 L 299.862 237.500 281.181 237.500 L 262.500 237.500 262.500 218.819 L 262.500 200.138 265.625 203.255 L 268.750 206.372 268.750 218.811 M362.500 218.880 L 362.500 237.500 343.819 237.500 L 325.138 237.500 328.255 234.375 L 331.372 231.250 343.811 231.250 L 356.250 231.250 356.250 218.819 L 356.250 206.388 359.306 203.324 C 360.987 201.639,362.393 200.260,362.431 200.260 C 362.469 200.260,362.500 208.639,362.500 218.880 M393.750 218.811 L 393.750 231.250 406.189 231.250 L 418.628 231.250 421.745 234.375 L 424.862 237.500 406.181 237.500 L 387.500 237.500 387.500 218.819 L 387.500 200.138 390.625 203.255 L 393.750 206.372 393.750 218.811 M487.500 218.880 L 487.500 237.500 468.819 237.500 L 450.138 237.500 453.255 234.375 L 456.372 231.250 468.811 231.250 L 481.250 231.250 481.250 218.819 L 481.250 206.388 484.306 203.324 C 485.987 201.639,487.393 200.260,487.431 200.260 C 487.469 200.260,487.500 208.639,487.500 218.880 M43.750 218.681 L 43.750 231.112 40.625 227.995 L 37.500 224.878 37.500 218.689 L 37.500 212.500 31.311 212.500 L 25.122 212.500 22.005 209.375 L 18.888 206.250 31.319 206.250 L 43.750 206.250 43.750 218.681 M102.995 209.375 L 99.878 212.500 93.689 212.500 L 87.500 212.500 87.500 218.689 L 87.500 224.878 84.375 227.995 L 81.250 231.112 81.250 218.854 C 81.250 212.113,81.328 206.519,81.424 206.424 C 81.519 206.328,87.113 206.250,93.854 206.250 L 106.112 206.250 102.995 209.375 M168.750 218.681 L 168.750 231.112 165.625 227.995 L 162.500 224.878 162.500 218.689 L 162.500 212.500 156.311 212.500 L 150.122 212.500 147.005 209.375 L 143.888 206.250 156.319 206.250 L 168.750 206.250 168.750 218.681 M227.995 209.375 L 224.878 212.500 218.689 212.500 L 212.500 212.500 212.500 218.689 L 212.500 224.878 209.375 227.995 L 206.250 231.112 206.250 218.854 C 206.250 212.113,206.328 206.519,206.424 206.424 C 206.519 206.328,212.113 206.250,218.854 206.250 L 231.112 206.250 227.995 209.375 M293.750 218.681 L 293.750 231.112 290.625 227.995 L 287.500 224.878 287.500 218.689 L 287.500 212.500 281.311 212.500 L 275.122 212.500 272.005 209.375 L 268.888 206.250 281.319 206.250 L 293.750 206.250 293.750 218.681 M352.995 209.375 L 349.878 212.500 343.689 212.500 L 337.500 212.500 337.500 218.689 L 337.500 224.878 334.375 227.995 L 331.250 231.112 331.250 218.854 C 331.250 212.113,331.328 206.519,331.424 206.424 C 331.519 206.328,337.113 206.250,343.854 206.250 L 356.112 206.250 352.995 209.375 M418.750 218.681 L 418.750 231.112 415.625 227.995 L 412.500 224.878 412.500 218.689 L 412.500 212.500 406.311 212.500 L 400.122 212.500 397.005 209.375 L 393.888 206.250 406.319 206.250 L 418.750 206.250 418.750 218.681 M477.995 209.375 L 474.878 212.500 468.689 212.500 L 462.500 212.500 462.500 218.689 L 462.500 224.878 459.375 227.995 L 456.250 231.112 456.250 218.854 C 456.250 212.113,456.328 206.519,456.424 206.424 C 456.519 206.328,462.113 206.250,468.854 206.250 L 481.112 206.250 477.995 209.375 M31.250 218.880 L 37.366 225.000 31.183 225.000 L 25.000 225.000 25.000 218.880 C 25.000 215.514,25.030 212.760,25.067 212.760 C 25.104 212.760,27.886 215.514,31.250 218.880 M100.000 218.880 L 100.000 225.000 93.817 225.000 L 87.634 225.000 93.750 218.880 C 97.114 215.514,99.896 212.760,99.933 212.760 C 99.970 212.760,100.000 215.514,100.000 218.880 M156.250 218.880 L 162.366 225.000 156.183 225.000 L 150.000 225.000 150.000 218.880 C 150.000 215.514,150.030 212.760,150.067 212.760 C 150.104 212.760,152.886 215.514,156.250 218.880 M225.000 218.880 L 225.000 225.000 218.817 225.000 L 212.634 225.000 218.750 218.880 C 222.114 215.514,224.896 212.760,224.933 212.760 C 224.970 212.760,225.000 215.514,225.000 218.880 M281.250 218.880 L 287.366 225.000 281.183 225.000 L 275.000 225.000 275.000 218.880 C 275.000 215.514,275.030 212.760,275.067 212.760 C 275.104 212.760,277.886 215.514,281.250 218.880 M350.000 218.880 L 350.000 225.000 343.817 225.000 L 337.634 225.000 343.750 218.880 C 347.114 215.514,349.896 212.760,349.933 212.760 C 349.970 212.760,350.000 215.514,350.000 218.880 M406.250 218.880 L 412.366 225.000 406.183 225.000 L 400.000 225.000 400.000 218.880 C 400.000 215.514,400.030 212.760,400.067 212.760 C 400.104 212.760,402.886 215.514,406.250 218.880 M475.000 218.880 L 475.000 225.000 468.817 225.000 L 462.634 225.000 468.750 218.880 C 472.114 215.514,474.896 212.760,474.933 212.760 C 474.970 212.760,475.000 215.514,475.000 218.880 M56.250 281.380 L 56.250 306.250 31.319 306.250 L 6.388 306.250 9.505 303.125 L 12.622 300.000 31.311 300.000 L 50.000 300.000 50.000 281.319 L 50.000 262.638 53.056 259.574 C 54.737 257.889,56.143 256.510,56.181 256.510 C 56.219 256.510,56.250 267.702,56.250 281.380 M75.000 281.311 L 75.000 300.000 93.689 300.000 L 112.378 300.000 115.495 303.125 L 118.612 306.250 93.681 306.250 L 68.750 306.250 68.750 281.319 L 68.750 256.388 71.875 259.505 L 75.000 262.622 75.000 281.311 M181.250 281.380 L 181.250 306.250 156.319 306.250 L 131.388 306.250 134.505 303.125 L 137.622 300.000 156.311 300.000 L 175.000 300.000 175.000 281.319 L 175.000 262.638 178.056 259.574 C 179.737 257.889,181.143 256.510,181.181 256.510 C 181.219 256.510,181.250 267.702,181.250 281.380 M200.000 281.311 L 200.000 300.000 218.689 300.000 L 237.378 300.000 240.495 303.125 L 243.612 306.250 218.681 306.250 L 193.750 306.250 193.750 281.319 L 193.750 256.388 196.875 259.505 L 200.000 262.622 200.000 281.311 M306.250 281.380 L 306.250 306.250 281.319 306.250 L 256.388 306.250 259.505 303.125 L 262.622 300.000 281.311 300.000 L 300.000 300.000 300.000 281.319 L 300.000 262.638 303.056 259.574 C 304.737 257.889,306.143 256.510,306.181 256.510 C 306.219 256.510,306.250 267.702,306.250 281.380 M325.000 281.311 L 325.000 300.000 343.689 300.000 L 362.378 300.000 365.495 303.125 L 368.612 306.250 343.681 306.250 L 318.750 306.250 318.750 281.319 L 318.750 256.388 321.875 259.505 L 325.000 262.622 325.000 281.311 M431.250 281.380 L 431.250 306.250 406.319 306.250 L 381.388 306.250 384.505 303.125 L 387.622 300.000 406.311 300.000 L 425.000 300.000 425.000 281.319 L 425.000 262.638 428.056 259.574 C 429.737 257.889,431.143 256.510,431.181 256.510 C 431.219 256.510,431.250 267.702,431.250 281.380 M450.000 281.311 L 450.000 300.000 468.689 300.000 L 487.378 300.000 490.495 303.125 L 493.612 306.250 468.681 306.250 L 443.750 306.250 443.750 281.319 L 443.750 256.388 446.875 259.505 L 450.000 262.622 450.000 281.311 M46.745 265.625 L 43.628 268.750 31.189 268.750 L 18.750 268.750 18.750 281.189 L 18.750 293.628 15.625 296.745 L 12.500 299.862 12.500 281.181 L 12.500 262.500 31.181 262.500 L 49.862 262.500 46.745 265.625 M112.500 281.181 L 112.500 299.862 109.375 296.745 L 106.250 293.628 106.250 281.189 L 106.250 268.750 93.811 268.750 L 81.372 268.750 78.255 265.625 L 75.138 262.500 93.819 262.500 L 112.500 262.500 112.500 281.181 M171.745 265.625 L 168.628 268.750 156.189 268.750 L 143.750 268.750 143.750 281.189 L 143.750 293.628 140.625 296.745 L 137.500 299.862 137.500 281.181 L 137.500 262.500 156.181 262.500 L 174.862 262.500 171.745 265.625 M237.500 281.181 L 237.500 299.862 234.375 296.745 L 231.250 293.628 231.250 281.189 L 231.250 268.750 218.811 268.750 L 206.372 268.750 203.255 265.625 L 200.138 262.500 218.819 262.500 L 237.500 262.500 237.500 281.181 M296.745 265.625 L 293.628 268.750 281.189 268.750 L 268.750 268.750 268.750 281.189 L 268.750 293.628 265.625 296.745 L 262.500 299.862 262.500 281.181 L 262.500 262.500 281.181 262.500 L 299.862 262.500 296.745 265.625 M362.500 281.181 L 362.500 299.862 359.375 296.745 L 356.250 293.628 356.250 281.189 L 356.250 268.750 343.811 268.750 L 331.372 268.750 328.255 265.625 L 325.138 262.500 343.819 262.500 L 362.500 262.500 362.500 281.181 M421.745 265.625 L 418.628 268.750 406.189 268.750 L 393.750 268.750 393.750 281.189 L 393.750 293.628 390.625 296.745 L 387.500 299.862 387.500 281.181 L 387.500 262.500 406.181 262.500 L 424.862 262.500 421.745 265.625 M487.500 281.181 L 487.500 299.862 484.375 296.745 L 481.250 293.628 481.250 281.189 L 481.250 268.750 468.811 268.750 L 456.372 268.750 453.255 265.625 L 450.138 262.500 468.819 262.500 L 487.500 262.500 487.500 281.181 M43.750 281.380 L 43.750 293.750 31.319 293.750 L 18.888 293.750 22.005 290.625 L 25.122 287.500 31.311 287.500 L 37.500 287.500 37.500 281.319 L 37.500 275.138 40.556 272.074 C 42.237 270.389,43.643 269.010,43.681 269.010 C 43.719 269.010,43.750 274.577,43.750 281.380 M87.500 281.311 L 87.500 287.500 93.689 287.500 L 99.878 287.500 102.995 290.625 L 106.112 293.750 93.681 293.750 L 81.250 293.750 81.250 281.319 L 81.250 268.888 84.375 272.005 L 87.500 275.122 87.500 281.311 M168.750 281.380 L 168.750 293.750 156.319 293.750 L 143.888 293.750 147.005 290.625 L 150.122 287.500 156.311 287.500 L 162.500 287.500 162.500 281.319 L 162.500 275.138 165.556 272.074 C 167.237 270.389,168.643 269.010,168.681 269.010 C 168.719 269.010,168.750 274.577,168.750 281.380 M212.500 281.311 L 212.500 287.500 218.689 287.500 L 224.878 287.500 227.995 290.625 L 231.112 293.750 218.681 293.750 L 206.250 293.750 206.250 281.319 L 206.250 268.888 209.375 272.005 L 212.500 275.122 212.500 281.311 M293.750 281.380 L 293.750 293.750 281.319 293.750 L 268.888 293.750 272.005 290.625 L 275.122 287.500 281.311 287.500 L 287.500 287.500 287.500 281.319 L 287.500 275.138 290.556 272.074 C 292.237 270.389,293.643 269.010,293.681 269.010 C 293.719 269.010,293.750 274.577,293.750 281.380 M337.500 281.311 L 337.500 287.500 343.689 287.500 L 349.878 287.500 352.995 290.625 L 356.112 293.750 343.681 293.750 L 331.250 293.750 331.250 281.319 L 331.250 268.888 334.375 272.005 L 337.500 275.122 337.500 281.311 M418.750 281.380 L 418.750 293.750 406.319 293.750 L 393.888 293.750 397.005 290.625 L 400.122 287.500 406.311 287.500 L 412.500 287.500 412.500 281.319 L 412.500 275.138 415.556 272.074 C 417.237 270.389,418.643 269.010,418.681 269.010 C 418.719 269.010,418.750 274.577,418.750 281.380 M462.500 281.311 L 462.500 287.500 468.689 287.500 L 474.878 287.500 477.995 290.625 L 481.112 293.750 468.681 293.750 L 456.250 293.750 456.250 281.319 L 456.250 268.888 459.375 272.005 L 462.500 275.122 462.500 281.311 M37.240 275.067 C 37.240 275.104,34.486 277.886,31.120 281.250 L 25.000 287.366 25.000 281.183 L 25.000 275.000 31.120 275.000 C 34.486 275.000,37.240 275.030,37.240 275.067 M100.000 281.120 C 100.000 284.486,99.970 287.240,99.933 287.240 C 99.896 287.240,97.114 284.486,93.750 281.120 L 87.634 275.000 93.817 275.000 L 100.000 275.000 100.000 281.120 M162.240 275.067 C 162.240 275.104,159.486 277.886,156.120 281.250 L 150.000 287.366 150.000 281.183 L 150.000 275.000 156.120 275.000 C 159.486 275.000,162.240 275.030,162.240 275.067 M225.000 281.120 C 225.000 284.486,224.970 287.240,224.933 287.240 C 224.896 287.240,222.114 284.486,218.750 281.120 L 212.634 275.000 218.817 275.000 L 225.000 275.000 225.000 281.120 M287.240 275.067 C 287.240 275.104,284.486 277.886,281.120 281.250 L 275.000 287.366 275.000 281.183 L 275.000 275.000 281.120 275.000 C 284.486 275.000,287.240 275.030,287.240 275.067 M350.000 281.120 C 350.000 284.486,349.970 287.240,349.933 287.240 C 349.896 287.240,347.114 284.486,343.750 281.120 L 337.634 275.000 343.817 275.000 L 350.000 275.000 350.000 281.120 M412.240 275.067 C 412.240 275.104,409.486 277.886,406.120 281.250 L 400.000 287.366 400.000 281.183 L 400.000 275.000 406.120 275.000 C 409.486 275.000,412.240 275.030,412.240 275.067 M475.000 281.120 C 475.000 284.486,474.970 287.240,474.933 287.240 C 474.896 287.240,472.114 284.486,468.750 281.120 L 462.634 275.000 468.817 275.000 L 475.000 275.000 475.000 281.120 M128.194 315.824 L 131.250 318.888 131.250 343.819 L 131.250 368.750 156.189 368.750 L 181.128 368.750 184.245 371.875 L 187.362 375.000 184.245 378.125 L 181.128 381.250 156.189 381.250 L 131.250 381.250 131.250 406.189 L 131.250 431.128 128.125 434.245 L 125.000 437.362 121.875 434.245 L 118.750 431.128 118.750 406.189 L 118.750 381.250 93.811 381.250 L 68.872 381.250 65.755 378.125 L 62.638 375.000 65.755 371.875 L 68.872 368.750 93.811 368.750 L 118.750 368.750 118.750 343.819 L 118.750 318.888 121.806 315.824 C 123.487 314.139,124.924 312.760,125.000 312.760 C 125.076 312.760,126.513 314.139,128.194 315.824 M253.194 315.824 L 256.250 318.888 256.250 343.819 L 256.250 368.750 281.189 368.750 L 306.128 368.750 309.245 371.875 L 312.362 375.000 309.245 378.125 L 306.128 381.250 281.189 381.250 L 256.250 381.250 256.250 406.189 L 256.250 431.128 253.125 434.245 L 250.000 437.362 246.875 434.245 L 243.750 431.128 243.750 406.189 L 243.750 381.250 218.811 381.250 L 193.872 381.250 190.755 378.125 L 187.638 375.000 190.755 371.875 L 193.872 368.750 218.811 368.750 L 243.750 368.750 243.750 343.819 L 243.750 318.888 246.806 315.824 C 248.487 314.139,249.924 312.760,250.000 312.760 C 250.076 312.760,251.513 314.139,253.194 315.824 M378.194 315.824 L 381.250 318.888 381.250 343.819 L 381.250 368.750 406.189 368.750 L 431.128 368.750 434.245 371.875 L 437.362 375.000 434.245 378.125 L 431.128 381.250 406.189 381.250 L 381.250 381.250 381.250 406.189 L 381.250 431.128 378.125 434.245 L 375.000 437.362 371.875 434.245 L 368.750 431.128 368.750 406.189 L 368.750 381.250 343.811 381.250 L 318.872 381.250 315.755 378.125 L 312.638 375.000 315.755 371.875 L 318.872 368.750 343.811 368.750 L 368.750 368.750 368.750 343.819 L 368.750 318.888 371.806 315.824 C 373.487 314.139,374.924 312.760,375.000 312.760 C 375.076 312.760,376.513 314.139,378.194 315.824 M56.250 343.681 L 56.250 368.612 53.125 365.495 L 50.000 362.378 50.000 343.689 L 50.000 325.000 31.311 325.000 L 12.622 325.000 9.505 321.875 L 6.388 318.750 31.319 318.750 L 56.250 318.750 56.250 343.681 M115.495 321.875 L 112.378 325.000 93.689 325.000 L 75.000 325.000 75.000 343.689 L 75.000 362.378 71.875 365.495 L 68.750 368.612 68.750 343.854 C 68.750 330.238,68.828 319.019,68.924 318.924 C 69.019 318.828,80.238 318.750,93.854 318.750 L 118.612 318.750 115.495 321.875 M181.250 343.681 L 181.250 368.612 178.125 365.495 L 175.000 362.378 175.000 343.689 L 175.000 325.000 156.311 325.000 L 137.622 325.000 134.505 321.875 L 131.388 318.750 156.319 318.750 L 181.250 318.750 181.250 343.681 M240.495 321.875 L 237.378 325.000 218.689 325.000 L 200.000 325.000 200.000 343.689 L 200.000 362.378 196.875 365.495 L 193.750 368.612 193.750 343.854 C 193.750 330.238,193.828 319.019,193.924 318.924 C 194.019 318.828,205.238 318.750,218.854 318.750 L 243.612 318.750 240.495 321.875 M306.250 343.681 L 306.250 368.612 303.125 365.495 L 300.000 362.378 300.000 343.689 L 300.000 325.000 281.311 325.000 L 262.622 325.000 259.505 321.875 L 256.388 318.750 281.319 318.750 L 306.250 318.750 306.250 343.681 M365.495 321.875 L 362.378 325.000 343.689 325.000 L 325.000 325.000 325.000 343.689 L 325.000 362.378 321.875 365.495 L 318.750 368.612 318.750 343.854 C 318.750 330.238,318.828 319.019,318.924 318.924 C 319.019 318.828,330.238 318.750,343.854 318.750 L 368.612 318.750 365.495 321.875 M431.250 343.681 L 431.250 368.612 428.125 365.495 L 425.000 362.378 425.000 343.689 L 425.000 325.000 406.311 325.000 L 387.622 325.000 384.505 321.875 L 381.388 318.750 406.319 318.750 L 431.250 318.750 431.250 343.681 M490.495 321.875 L 487.378 325.000 468.689 325.000 L 450.000 325.000 450.000 343.689 L 450.000 362.378 446.875 365.495 L 443.750 368.612 443.750 343.854 C 443.750 330.238,443.828 319.019,443.924 318.924 C 444.019 318.828,455.238 318.750,468.854 318.750 L 493.612 318.750 490.495 321.875 M18.750 343.811 L 18.750 356.250 31.189 356.250 L 43.628 356.250 46.745 359.375 L 49.862 362.500 31.181 362.500 L 12.500 362.500 12.500 343.819 L 12.500 325.138 15.625 328.255 L 18.750 331.372 18.750 343.811 M112.500 343.880 L 112.500 362.500 93.819 362.500 L 75.138 362.500 78.255 359.375 L 81.372 356.250 93.811 356.250 L 106.250 356.250 106.250 343.819 L 106.250 331.388 109.306 328.324 C 110.987 326.639,112.393 325.260,112.431 325.260 C 112.469 325.260,112.500 333.639,112.500 343.880 M143.750 343.811 L 143.750 356.250 156.189 356.250 L 168.628 356.250 171.745 359.375 L 174.862 362.500 156.181 362.500 L 137.500 362.500 137.500 343.819 L 137.500 325.138 140.625 328.255 L 143.750 331.372 143.750 343.811 M237.500 343.880 L 237.500 362.500 218.819 362.500 L 200.138 362.500 203.255 359.375 L 206.372 356.250 218.811 356.250 L 231.250 356.250 231.250 343.819 L 231.250 331.388 234.306 328.324 C 235.987 326.639,237.393 325.260,237.431 325.260 C 237.469 325.260,237.500 333.639,237.500 343.880 M268.750 343.811 L 268.750 356.250 281.189 356.250 L 293.628 356.250 296.745 359.375 L 299.862 362.500 281.181 362.500 L 262.500 362.500 262.500 343.819 L 262.500 325.138 265.625 328.255 L 268.750 331.372 268.750 343.811 M362.500 343.880 L 362.500 362.500 343.819 362.500 L 325.138 362.500 328.255 359.375 L 331.372 356.250 343.811 356.250 L 356.250 356.250 356.250 343.819 L 356.250 331.388 359.306 328.324 C 360.987 326.639,362.393 325.260,362.431 325.260 C 362.469 325.260,362.500 333.639,362.500 343.880 M393.750 343.811 L 393.750 356.250 406.189 356.250 L 418.628 356.250 421.745 359.375 L 424.862 362.500 406.181 362.500 L 387.500 362.500 387.500 343.819 L 387.500 325.138 390.625 328.255 L 393.750 331.372 393.750 343.811 M487.500 343.880 L 487.500 362.500 468.819 362.500 L 450.138 362.500 453.255 359.375 L 456.372 356.250 468.811 356.250 L 481.250 356.250 481.250 343.819 L 481.250 331.388 484.306 328.324 C 485.987 326.639,487.393 325.260,487.431 325.260 C 487.469 325.260,487.500 333.639,487.500 343.880 M43.750 343.681 L 43.750 356.112 40.625 352.995 L 37.500 349.878 37.500 343.689 L 37.500 337.500 31.311 337.500 L 25.122 337.500 22.005 334.375 L 18.888 331.250 31.319 331.250 L 43.750 331.250 43.750 343.681 M102.995 334.375 L 99.878 337.500 93.689 337.500 L 87.500 337.500 87.500 343.689 L 87.500 349.878 84.375 352.995 L 81.250 356.112 81.250 343.854 C 81.250 337.113,81.328 331.519,81.424 331.424 C 81.519 331.328,87.113 331.250,93.854 331.250 L 106.112 331.250 102.995 334.375 M168.750 343.681 L 168.750 356.112 165.625 352.995 L 162.500 349.878 162.500 343.689 L 162.500 337.500 156.311 337.500 L 150.122 337.500 147.005 334.375 L 143.888 331.250 156.319 331.250 L 168.750 331.250 168.750 343.681 M227.995 334.375 L 224.878 337.500 218.689 337.500 L 212.500 337.500 212.500 343.689 L 212.500 349.878 209.375 352.995 L 206.250 356.112 206.250 343.854 C 206.250 337.113,206.328 331.519,206.424 331.424 C 206.519 331.328,212.113 331.250,218.854 331.250 L 231.112 331.250 227.995 334.375 M293.750 343.681 L 293.750 356.112 290.625 352.995 L 287.500 349.878 287.500 343.689 L 287.500 337.500 281.311 337.500 L 275.122 337.500 272.005 334.375 L 268.888 331.250 281.319 331.250 L 293.750 331.250 293.750 343.681 M352.995 334.375 L 349.878 337.500 343.689 337.500 L 337.500 337.500 337.500 343.689 L 337.500 349.878 334.375 352.995 L 331.250 356.112 331.250 343.854 C 331.250 337.113,331.328 331.519,331.424 331.424 C 331.519 331.328,337.113 331.250,343.854 331.250 L 356.112 331.250 352.995 334.375 M418.750 343.681 L 418.750 356.112 415.625 352.995 L 412.500 349.878 412.500 343.689 L 412.500 337.500 406.311 337.500 L 400.122 337.500 397.005 334.375 L 393.888 331.250 406.319 331.250 L 418.750 331.250 418.750 343.681 M477.995 334.375 L 474.878 337.500 468.689 337.500 L 462.500 337.500 462.500 343.689 L 462.500 349.878 459.375 352.995 L 456.250 356.112 456.250 343.854 C 456.250 337.113,456.328 331.519,456.424 331.424 C 456.519 331.328,462.113 331.250,468.854 331.250 L 481.112 331.250 477.995 334.375 M31.250 343.880 L 37.366 350.000 31.183 350.000 L 25.000 350.000 25.000 343.880 C 25.000 340.514,25.030 337.760,25.067 337.760 C 25.104 337.760,27.886 340.514,31.250 343.880 M100.000 343.880 L 100.000 350.000 93.817 350.000 L 87.634 350.000 93.750 343.880 C 97.114 340.514,99.896 337.760,99.933 337.760 C 99.970 337.760,100.000 340.514,100.000 343.880 M156.250 343.880 L 162.366 350.000 156.183 350.000 L 150.000 350.000 150.000 343.880 C 150.000 340.514,150.030 337.760,150.067 337.760 C 150.104 337.760,152.886 340.514,156.250 343.880 M225.000 343.880 L 225.000 350.000 218.817 350.000 L 212.634 350.000 218.750 343.880 C 222.114 340.514,224.896 337.760,224.933 337.760 C 224.970 337.760,225.000 340.514,225.000 343.880 M281.250 343.880 L 287.366 350.000 281.183 350.000 L 275.000 350.000 275.000 343.880 C 275.000 340.514,275.030 337.760,275.067 337.760 C 275.104 337.760,277.886 340.514,281.250 343.880 M350.000 343.880 L 350.000 350.000 343.817 350.000 L 337.634 350.000 343.750 343.880 C 347.114 340.514,349.896 337.760,349.933 337.760 C 349.970 337.760,350.000 340.514,350.000 343.880 M406.250 343.880 L 412.366 350.000 406.183 350.000 L 400.000 350.000 400.000 343.880 C 400.000 340.514,400.030 337.760,400.067 337.760 C 400.104 337.760,402.886 340.514,406.250 343.880 M475.000 343.880 L 475.000 350.000 468.817 350.000 L 462.634 350.000 468.750 343.880 C 472.114 340.514,474.896 337.760,474.933 337.760 C 474.970 337.760,475.000 340.514,475.000 343.880 M56.250 406.380 L 56.250 431.250 31.319 431.250 L 6.388 431.250 9.505 428.125 L 12.622 425.000 31.311 425.000 L 50.000 425.000 50.000 406.319 L 50.000 387.638 53.056 384.574 C 54.737 382.889,56.143 381.510,56.181 381.510 C 56.219 381.510,56.250 392.702,56.250 406.380 M75.000 406.311 L 75.000 425.000 93.689 425.000 L 112.378 425.000 115.496 428.126 L 118.614 431.253 93.747 431.186 L 68.880 431.120 68.814 406.253 L 68.747 381.386 71.874 384.504 L 75.000 387.622 75.000 406.311 M181.250 406.380 L 181.250 431.250 156.319 431.250 L 131.388 431.250 134.505 428.125 L 137.622 425.000 156.311 425.000 L 175.000 425.000 175.000 406.319 L 175.000 387.638 178.056 384.574 C 179.737 382.889,181.143 381.510,181.181 381.510 C 181.219 381.510,181.250 392.702,181.250 406.380 M200.000 406.311 L 200.000 425.000 218.689 425.000 L 237.378 425.000 240.496 428.126 L 243.614 431.253 218.747 431.186 L 193.880 431.120 193.814 406.253 L 193.747 381.386 196.874 384.504 L 200.000 387.622 200.000 406.311 M306.250 406.380 L 306.250 431.250 281.319 431.250 L 256.388 431.250 259.505 428.125 L 262.622 425.000 281.311 425.000 L 300.000 425.000 300.000 406.319 L 300.000 387.638 303.056 384.574 C 304.737 382.889,306.143 381.510,306.181 381.510 C 306.219 381.510,306.250 392.702,306.250 406.380 M325.000 406.311 L 325.000 425.000 343.689 425.000 L 362.378 425.000 365.496 428.126 L 368.614 431.253 343.747 431.186 L 318.880 431.120 318.814 406.253 L 318.747 381.386 321.874 384.504 L 325.000 387.622 325.000 406.311 M431.250 406.380 L 431.250 431.250 406.319 431.250 L 381.388 431.250 384.505 428.125 L 387.622 425.000 406.311 425.000 L 425.000 425.000 425.000 406.319 L 425.000 387.638 428.056 384.574 C 429.737 382.889,431.143 381.510,431.181 381.510 C 431.219 381.510,431.250 392.702,431.250 406.380 M450.000 406.311 L 450.000 425.000 468.689 425.000 L 487.378 425.000 490.496 428.126 L 493.614 431.253 468.747 431.186 L 443.880 431.120 443.814 406.253 L 443.747 381.386 446.874 384.504 L 450.000 387.622 450.000 406.311 M46.745 390.625 L 43.628 393.750 31.189 393.750 L 18.750 393.750 18.750 406.189 L 18.750 418.628 15.625 421.745 L 12.500 424.862 12.500 406.181 L 12.500 387.500 31.181 387.500 L 49.862 387.500 46.745 390.625 M112.500 406.181 L 112.500 424.862 109.375 421.745 L 106.250 418.628 106.250 406.189 L 106.250 393.750 93.811 393.750 L 81.372 393.750 78.255 390.625 L 75.138 387.500 93.819 387.500 L 112.500 387.500 112.500 406.181 M171.745 390.625 L 168.628 393.750 156.189 393.750 L 143.750 393.750 143.750 406.189 L 143.750 418.628 140.625 421.745 L 137.500 424.862 137.500 406.181 L 137.500 387.500 156.181 387.500 L 174.862 387.500 171.745 390.625 M237.500 406.181 L 237.500 424.862 234.375 421.745 L 231.250 418.628 231.250 406.189 L 231.250 393.750 218.811 393.750 L 206.372 393.750 203.255 390.625 L 200.138 387.500 218.819 387.500 L 237.500 387.500 237.500 406.181 M296.745 390.625 L 293.628 393.750 281.189 393.750 L 268.750 393.750 268.750 406.189 L 268.750 418.628 265.625 421.745 L 262.500 424.862 262.500 406.181 L 262.500 387.500 281.181 387.500 L 299.862 387.500 296.745 390.625 M362.500 406.181 L 362.500 424.862 359.375 421.745 L 356.250 418.628 356.250 406.189 L 356.250 393.750 343.811 393.750 L 331.372 393.750 328.255 390.625 L 325.138 387.500 343.819 387.500 L 362.500 387.500 362.500 406.181 M421.745 390.625 L 418.628 393.750 406.189 393.750 L 393.750 393.750 393.750 406.189 L 393.750 418.628 390.625 421.745 L 387.500 424.862 387.500 406.181 L 387.500 387.500 406.181 387.500 L 424.862 387.500 421.745 390.625 M487.500 406.181 L 487.500 424.862 484.375 421.745 L 481.250 418.628 481.250 406.189 L 481.250 393.750 468.811 393.750 L 456.372 393.750 453.255 390.625 L 450.138 387.500 468.819 387.500 L 487.500 387.500 487.500 406.181 M43.750 406.380 L 43.750 418.750 31.319 418.750 L 18.888 418.750 22.005 415.625 L 25.122 412.500 31.311 412.500 L 37.500 412.500 37.500 406.319 L 37.500 400.138 40.556 397.074 C 42.237 395.389,43.643 394.010,43.681 394.010 C 43.719 394.010,43.750 399.577,43.750 406.380 M87.500 406.311 L 87.500 412.500 93.689 412.500 L 99.878 412.500 102.995 415.625 L 106.112 418.750 93.681 418.750 L 81.250 418.750 81.250 406.319 L 81.250 393.888 84.375 397.005 L 87.500 400.122 87.500 406.311 M168.750 406.380 L 168.750 418.750 156.319 418.750 L 143.888 418.750 147.005 415.625 L 150.122 412.500 156.311 412.500 L 162.500 412.500 162.500 406.319 L 162.500 400.138 165.556 397.074 C 167.237 395.389,168.643 394.010,168.681 394.010 C 168.719 394.010,168.750 399.577,168.750 406.380 M212.500 406.311 L 212.500 412.500 218.689 412.500 L 224.878 412.500 227.995 415.625 L 231.112 418.750 218.681 418.750 L 206.250 418.750 206.250 406.319 L 206.250 393.888 209.375 397.005 L 212.500 400.122 212.500 406.311 M293.750 406.380 L 293.750 418.750 281.319 418.750 L 268.888 418.750 272.005 415.625 L 275.122 412.500 281.311 412.500 L 287.500 412.500 287.500 406.319 L 287.500 400.138 290.556 397.074 C 292.237 395.389,293.643 394.010,293.681 394.010 C 293.719 394.010,293.750 399.577,293.750 406.380 M337.500 406.311 L 337.500 412.500 343.689 412.500 L 349.878 412.500 352.995 415.625 L 356.112 418.750 343.681 418.750 L 331.250 418.750 331.250 406.319 L 331.250 393.888 334.375 397.005 L 337.500 400.122 337.500 406.311 M418.750 406.380 L 418.750 418.750 406.319 418.750 L 393.888 418.750 397.005 415.625 L 400.122 412.500 406.311 412.500 L 412.500 412.500 412.500 406.319 L 412.500 400.138 415.556 397.074 C 417.237 395.389,418.643 394.010,418.681 394.010 C 418.719 394.010,418.750 399.577,418.750 406.380 M462.500 406.311 L 462.500 412.500 468.689 412.500 L 474.878 412.500 477.995 415.625 L 481.112 418.750 468.681 418.750 L 456.250 418.750 456.250 406.319 L 456.250 393.888 459.375 397.005 L 462.500 400.122 462.500 406.311 M37.240 400.067 C 37.240 400.104,34.486 402.886,31.120 406.250 L 25.000 412.366 25.000 406.183 L 25.000 400.000 31.120 400.000 C 34.486 400.000,37.240 400.030,37.240 400.067 M100.000 406.120 C 100.000 409.486,99.970 412.240,99.933 412.240 C 99.896 412.240,97.114 409.486,93.750 406.120 L 87.634 400.000 93.817 400.000 L 100.000 400.000 100.000 406.120 M162.240 400.067 C 162.240 400.104,159.486 402.886,156.120 406.250 L 150.000 412.366 150.000 406.183 L 150.000 400.000 156.120 400.000 C 159.486 400.000,162.240 400.030,162.240 400.067 M225.000 406.120 C 225.000 409.486,224.970 412.240,224.933 412.240 C 224.896 412.240,222.114 409.486,218.750 406.120 L 212.634 400.000 218.817 400.000 L 225.000 400.000 225.000 406.120 M287.240 400.067 C 287.240 400.104,284.486 402.886,281.120 406.250 L 275.000 412.366 275.000 406.183 L 275.000 400.000 281.120 400.000 C 284.486 400.000,287.240 400.030,287.240 400.067 M350.000 406.120 C 350.000 409.486,349.970 412.240,349.933 412.240 C 349.896 412.240,347.114 409.486,343.750 406.120 L 337.634 400.000 343.817 400.000 L 350.000 400.000 350.000 406.120 M412.240 400.067 C 412.240 400.104,409.486 402.886,406.120 406.250 L 400.000 412.366 400.000 406.183 L 400.000 400.000 406.120 400.000 C 409.486 400.000,412.240 400.030,412.240 400.067 M475.000 406.120 C 475.000 409.486,474.970 412.240,474.933 412.240 C 474.896 412.240,472.114 409.486,468.750 406.120 L 462.634 400.000 468.817 400.000 L 475.000 400.000 475.000 406.120 M56.250 468.681 L 56.250 493.612 53.125 490.495 L 50.000 487.378 50.000 468.689 L 50.000 450.000 31.311 450.000 L 12.622 450.000 9.505 446.875 L 6.388 443.750 31.319 443.750 L 56.250 443.750 56.250 468.681 M115.495 446.875 L 112.378 450.000 93.689 450.000 L 75.000 450.000 75.000 468.689 L 75.000 487.378 71.875 490.495 L 68.750 493.612 68.750 468.681 L 68.750 443.750 93.681 443.750 L 118.612 443.750 115.495 446.875 M181.250 468.681 L 181.250 493.612 178.125 490.495 L 175.000 487.378 175.000 468.689 L 175.000 450.000 156.311 450.000 L 137.622 450.000 134.505 446.875 L 131.388 443.750 156.319 443.750 L 181.250 443.750 181.250 468.681 M240.495 446.875 L 237.378 450.000 218.689 450.000 L 200.000 450.000 200.000 468.689 L 200.000 487.378 196.875 490.495 L 193.750 493.612 193.750 468.681 L 193.750 443.750 218.681 443.750 L 243.612 443.750 240.495 446.875 M306.250 468.681 L 306.250 493.612 303.125 490.495 L 300.000 487.378 300.000 468.689 L 300.000 450.000 281.311 450.000 L 262.622 450.000 259.505 446.875 L 256.388 443.750 281.319 443.750 L 306.250 443.750 306.250 468.681 M365.495 446.875 L 362.378 450.000 343.689 450.000 L 325.000 450.000 325.000 468.689 L 325.000 487.378 321.875 490.495 L 318.750 493.612 318.750 468.681 L 318.750 443.750 343.681 443.750 L 368.612 443.750 365.495 446.875 M431.250 468.681 L 431.250 493.612 428.125 490.495 L 425.000 487.378 425.000 468.689 L 425.000 450.000 406.311 450.000 L 387.622 450.000 384.505 446.875 L 381.388 443.750 406.319 443.750 L 431.250 443.750 431.250 468.681 M490.495 446.875 L 487.378 450.000 468.689 450.000 L 450.000 450.000 450.000 468.689 L 450.000 487.378 446.875 490.495 L 443.750 493.612 443.750 468.681 L 443.750 443.750 468.681 443.750 L 493.612 443.750 490.495 446.875 M18.750 468.811 L 18.750 481.250 31.189 481.250 L 43.628 481.250 46.745 484.375 L 49.862 487.500 31.181 487.500 L 12.500 487.500 12.500 468.819 L 12.500 450.138 15.625 453.255 L 18.750 456.372 18.750 468.811 M112.500 468.880 L 112.500 487.500 93.819 487.500 L 75.138 487.500 78.255 484.375 L 81.372 481.250 93.811 481.250 L 106.250 481.250 106.250 468.819 L 106.250 456.388 109.306 453.324 C 110.987 451.639,112.393 450.260,112.431 450.260 C 112.469 450.260,112.500 458.639,112.500 468.880 M143.750 468.811 L 143.750 481.250 156.189 481.250 L 168.628 481.250 171.745 484.375 L 174.862 487.500 156.181 487.500 L 137.500 487.500 137.500 468.819 L 137.500 450.138 140.625 453.255 L 143.750 456.372 143.750 468.811 M237.500 468.880 L 237.500 487.500 218.819 487.500 L 200.138 487.500 203.255 484.375 L 206.372 481.250 218.811 481.250 L 231.250 481.250 231.250 468.819 L 231.250 456.388 234.306 453.324 C 235.987 451.639,237.393 450.260,237.431 450.260 C 237.469 450.260,237.500 458.639,237.500 468.880 M268.750 468.811 L 268.750 481.250 281.189 481.250 L 293.628 481.250 296.745 484.375 L 299.862 487.500 281.181 487.500 L 262.500 487.500 262.500 468.819 L 262.500 450.138 265.625 453.255 L 268.750 456.372 268.750 468.811 M362.500 468.880 L 362.500 487.500 343.819 487.500 L 325.138 487.500 328.255 484.375 L 331.372 481.250 343.811 481.250 L 356.250 481.250 356.250 468.819 L 356.250 456.388 359.306 453.324 C 360.987 451.639,362.393 450.260,362.431 450.260 C 362.469 450.260,362.500 458.639,362.500 468.880 M393.750 468.811 L 393.750 481.250 406.189 481.250 L 418.628 481.250 421.745 484.375 L 424.862 487.500 406.181 487.500 L 387.500 487.500 387.500 468.819 L 387.500 450.138 390.625 453.255 L 393.750 456.372 393.750 468.811 M487.500 468.880 L 487.500 487.500 468.819 487.500 L 450.138 487.500 453.255 484.375 L 456.372 481.250 468.811 481.250 L 481.250 481.250 481.250 468.819 L 481.250 456.388 484.306 453.324 C 485.987 451.639,487.393 450.260,487.431 450.260 C 487.469 450.260,487.500 458.639,487.500 468.880 M43.750 468.681 L 43.750 481.112 40.625 477.995 L 37.500 474.878 37.500 468.689 L 37.500 462.500 31.311 462.500 L 25.122 462.500 22.005 459.375 L 18.888 456.250 31.319 456.250 L 43.750 456.250 43.750 468.681 M102.995 459.375 L 99.878 462.500 93.689 462.500 L 87.500 462.500 87.500 468.689 L 87.500 474.878 84.375 477.995 L 81.250 481.112 81.250 468.681 L 81.250 456.250 93.681 456.250 L 106.112 456.250 102.995 459.375 M168.750 468.681 L 168.750 481.112 165.625 477.995 L 162.500 474.878 162.500 468.689 L 162.500 462.500 156.311 462.500 L 150.122 462.500 147.005 459.375 L 143.888 456.250 156.319 456.250 L 168.750 456.250 168.750 468.681 M227.995 459.375 L 224.878 462.500 218.689 462.500 L 212.500 462.500 212.500 468.689 L 212.500 474.878 209.375 477.995 L 206.250 481.112 206.250 468.681 L 206.250 456.250 218.681 456.250 L 231.112 456.250 227.995 459.375 M293.750 468.681 L 293.750 481.112 290.625 477.995 L 287.500 474.878 287.500 468.689 L 287.500 462.500 281.311 462.500 L 275.122 462.500 272.005 459.375 L 268.888 456.250 281.319 456.250 L 293.750 456.250 293.750 468.681 M352.995 459.375 L 349.878 462.500 343.689 462.500 L 337.500 462.500 337.500 468.689 L 337.500 474.878 334.375 477.995 L 331.250 481.112 331.250 468.681 L 331.250 456.250 343.681 456.250 L 356.112 456.250 352.995 459.375 M418.750 468.681 L 418.750 481.112 415.625 477.995 L 412.500 474.878 412.500 468.689 L 412.500 462.500 406.311 462.500 L 400.122 462.500 397.005 459.375 L 393.888 456.250 406.319 456.250 L 418.750 456.250 418.750 468.681 M477.995 459.375 L 474.878 462.500 468.689 462.500 L 462.500 462.500 462.500 468.689 L 462.500 474.878 459.375 477.995 L 456.250 481.112 456.250 468.681 L 456.250 456.250 468.681 456.250 L 481.112 456.250 477.995 459.375 M31.250 468.880 L 37.366 475.000 31.183 475.000 L 25.000 475.000 25.000 468.880 C 25.000 465.514,25.030 462.760,25.067 462.760 C 25.104 462.760,27.886 465.514,31.250 468.880 M100.000 468.880 L 100.000 475.000 93.817 475.000 L 87.634 475.000 93.750 468.880 C 97.114 465.514,99.896 462.760,99.933 462.760 C 99.970 462.760,100.000 465.514,100.000 468.880 M156.250 468.880 L 162.366 475.000 156.183 475.000 L 150.000 475.000 150.000 468.880 C 150.000 465.514,150.030 462.760,150.067 462.760 C 150.104 462.760,152.886 465.514,156.250 468.880 M225.000 468.880 L 225.000 475.000 218.817 475.000 L 212.634 475.000 218.750 468.880 C 222.114 465.514,224.896 462.760,224.933 462.760 C 224.970 462.760,225.000 465.514,225.000 468.880 M281.250 468.880 L 287.366 475.000 281.183 475.000 L 275.000 475.000 275.000 468.880 C 275.000 465.514,275.030 462.760,275.067 462.760 C 275.104 462.760,277.886 465.514,281.250 468.880 M350.000 468.880 L 350.000 475.000 343.817 475.000 L 337.634 475.000 343.750 468.880 C 347.114 465.514,349.896 462.760,349.933 462.760 C 349.970 462.760,350.000 465.514,350.000 468.880 M406.250 468.880 L 412.366 475.000 406.183 475.000 L 400.000 475.000 400.000 468.880 C 400.000 465.514,400.030 462.760,400.067 462.760 C 400.104 462.760,402.886 465.514,406.250 468.880 M475.000 468.880 L 475.000 475.000 468.817 475.000 L 462.634 475.000 468.750 468.880 C 472.114 465.514,474.896 462.760,474.933 462.760 C 474.970 462.760,475.000 465.514,475.000 468.880 " stroke="none" fill="#000000" fill-rule="evenodd"></path></g></svg>