<svg id="svg" xmlns="http://www.w3.org/2000/svg" xmlns:xlink="http://www.w3.org/1999/xlink" width="400" height="381.40643623361143" viewBox="0, 0, 400,381.40643623361143"><g id="svgg"><path id="path0" d="M197.008 0.320 C 207.337 38.397,214.330 60.012,220.002 77.712 C 237.506 132.330,242.607 147.590,243.687 148.570 C 245.427 150.146,243.370 150.142,333.969 148.762 C 354.422 148.450,374.582 148.266,378.770 148.353 L 386.383 148.510 379.246 153.797 C 371.223 159.741,353.031 172.905,314.184 200.877 C 273.361 230.273,271.752 231.520,271.752 233.784 C 271.752 235.419,274.479 243.637,290.675 290.822 C 312.716 355.035,317.107 368.149,316.434 367.759 C 314.661 366.733,281.613 342.728,240.019 312.253 C 214.810 293.783,205.173 286.892,202.914 285.722 C 199.892 284.157,204.167 281.202,142.789 327.284 C 88.649 367.933,86.293 369.667,86.293 368.869 C 86.293 368.103,95.138 340.818,112.520 287.962 C 130.443 233.458,130.113 234.595,128.590 232.620 C 127.560 231.283,117.704 224.198,84.863 201.184 C 25.235 159.398,13.655 151.144,14.072 150.727 C 14.243 150.557,45.956 150.417,84.545 150.417 C 123.135 150.417,155.068 150.239,155.508 150.022 C 157.251 149.160,156.627 151.076,182.083 68.415 C 197.174 19.411,198.916 13.826,199.104 13.826 C 199.178 13.826,201.590 20.959,204.464 29.678 C 201.590 20.959 204.337 30.397 207.337 38.397 M 0 0" stroke="none" fill="#000000" fill-rule="evenodd"></path></g></svg>