<svg id="svg" xmlns="http://www.w3.org/2000/svg" xmlns:xlink="http://www.w3.org/1999/xlink" width="400" height="185.11422254974207" viewBox="0, 0, 400,185.11422254974207"><g id="svgg"><path id="path0" d="M118.644 3.881 C 105.764 4.970,105.232 5.032,105.232 5.451 C 105.232 5.690,106.163 5.922,107.959 6.129 L 110.685 6.443 107.885 6.321 C 104.768 6.184,103.989 6.420,104.553 7.330 C 104.882 7.862,104.831 7.888,103.742 7.742 C 102.800 7.616,102.579 7.677,102.579 8.067 C 102.579 8.332,102.811 8.560,103.095 8.574 C 103.379 8.588,103.213 8.719,102.727 8.866 C 102.240 9.012,101.212 9.050,100.442 8.950 C 99.310 8.802,99.042 8.852,99.042 9.211 C 99.042 9.901,100.647 10.419,102.146 10.214 C 103.068 10.088,103.767 10.177,104.464 10.509 C 105.436 10.972,105.510 10.961,107.310 10.061 C 108.327 9.553,109.339 9.138,109.559 9.138 C 109.779 9.138,110.705 8.740,111.617 8.254 C 112.528 7.767,113.579 7.369,113.951 7.369 C 116.265 7.369,123.508 4.754,123.508 3.918 C 123.508 3.498,123.205 3.495,118.644 3.881 L 123.205 3.495 107.885 6.321 M147.532 3.851 C 147.046 3.996,145.985 4.037,145.174 3.941 C 144.247 3.832,142.221 4.011,139.720 4.423 C 137.031 4.865,134.785 5.052,132.793 4.999 C 125.516 4.805,125.073 4.852,122.034 6.149 C 119.638 7.172,116.148 7.959,114.009 7.959 C 113.883 7.959,113.780 8.418,113.780 8.979 C 113.780 10.250,114.812 10.606,118.251 10.520 C 121.103 10.450,122.918 11.894,122.918 14.234 C 122.918 14.689,123.166 15.051,123.616 15.257 C 125.200 15.978,124.693 17.697,122.521 18.970 C 121.013 19.854,120.307 21.171,120.782 22.213 C 120.985 22.658,120.989 23.057,120.795 23.404 C 120.031 24.770,121.140 26.805,123.224 27.861 C 125.759 29.146,126.626 28.817,128.778 25.753 C 130.571 23.199,131.577 22.540,134.553 21.971 C 135.977 21.699,137.194 21.267,137.767 20.832 C 139.462 19.543,140.715 19.050,142.373 19.017 C 145.203 18.962,149.219 17.971,149.061 17.367 C 148.959 16.977,149.165 16.810,149.924 16.667 C 151.474 16.377,151.108 15.435,149.033 14.375 L 148.176 13.937 149.286 13.729 C 150.563 13.489,152.985 12.376,152.985 12.028 C 152.985 11.898,153.459 11.267,154.040 10.624 C 154.754 9.834,155.039 9.280,154.922 8.912 C 154.629 7.989,156.124 6.873,157.984 6.626 C 161.219 6.197,161.876 4.811,158.704 5.107 C 157.129 5.254,156.553 5.183,155.668 4.732 C 153.851 3.805,149.329 3.315,147.532 3.851 M153.132 21.511 C 152.808 21.646,152.237 21.687,151.864 21.602 C 150.739 21.344,148.060 22.336,147.860 23.084 C 147.589 24.092,147.630 24.171,148.426 24.171 C 148.837 24.171,149.501 24.386,149.902 24.648 C 151.150 25.466,156.522 23.757,156.522 22.542 C 156.522 21.544,154.516 20.933,153.132 21.511 L 154.516 20.933 152.808 21.646 M163.714 31.176 C 162.407 32.049,162.545 35.000,163.905 35.272 C 165.111 35.513,165.270 36.512,164.164 36.898 C 163.618 37.088,163.301 37.404,163.301 37.759 C 163.301 38.068,163.169 38.320,163.007 38.320 C 162.289 38.320,162.802 39.211,163.645 39.429 L 164.579 39.671 163.350 40.039 C 161.806 40.502,161.585 41.427,163.080 41.169 C 163.607 41.079,165.202 40.835,166.625 40.628 C 168.795 40.312,169.198 40.169,169.130 39.742 C 169.086 39.461,169.303 39.046,169.613 38.819 C 170.348 38.279,170.032 37.436,169.094 37.436 C 168.567 37.436,168.287 37.189,168.006 36.478 C 167.457 35.085,166.292 33.604,165.746 33.604 C 165.318 33.604,165.319 33.553,165.761 33.064 C 166.418 32.339,166.376 31.835,165.660 31.835 C 165.332 31.835,165.070 31.638,165.070 31.393 C 165.070 30.931,164.272 30.803,163.714 31.176 M164.882 31.688 C 163.182 34.841,162.745 33.015,163.425 31.977 C 163.964 31.155,164.627 31.023,164.882 31.688 M162.417 35.313 C 162.417 35.605,162.270 35.991,162.091 36.170 C 161.911 36.350,161.678 36.920,161.572 37.437 C 161.237 39.072,157.782 40.050,157.931 38.467 C 157.977 37.981,158.015 37.213,158.016 36.761 C 158.017 36.168,158.212 35.865,158.715 35.674 C 159.098 35.528,159.499 35.268,159.606 35.096 C 159.963 34.517,162.417 34.707,162.417 35.313 M252.353 8.711 L 252.353 8.711 252.353 8.711 C 242.233 12.698,241.524 12.737,240.758 12.775 C 239.846 12.821,239.081 13.070,238.547 13.495 C 237.075 14.666,235.979 15.134,234.856 15.071 C 233.833 15.014,233.751 15.069,233.751 15.816 C 233.751 16.603,233.728 16.592,232.840 15.385 C 231.864 14.057,230.990 13.670,229.698 13.992 C 227.331 14.583,227.308 16.789,229.658 17.849 C 230.754 18.343,231.355 19.163,230.287 18.708 C 228.205 17.821,224.544 17.294,223.632 17.751 C 222.291 18.423,218.710 18.931,218.214 18.519 C 217.631 18.035,215.275 18.459,213.825 19.308 C 212.303 20.201,211.471 20.248,211.263 19.455 C 210.941 18.222,208.884 18.646,209.118 19.897 C 209.259 20.644,209.207 20.929,208.930 20.930 C 207.710 20.935,206.338 21.581,206.338 22.149 C 206.338 22.704,206.218 22.736,204.864 22.550 C 203.238 22.326,202.762 22.894,204.053 23.516 L 204.716 23.836 203.979 23.855 C 203.014 23.880,201.431 22.900,201.185 22.127 C 201.078 21.791,200.636 21.313,200.201 21.065 C 199.284 20.543,201.550 20.728,202.560 21.258 C 203.266 21.628,205.584 21.580,206.471 21.176 C 207.263 20.815,207.330 20.669,207.045 19.925 C 206.826 19.356,201.572 17.628,200.310 17.709 C 199.815 17.741,198.623 17.396,197.660 16.943 C 195.524 15.936,191.383 15.638,189.215 16.335 C 185.965 17.379,183.788 18.276,183.674 18.618 C 183.606 18.822,183.026 19.459,182.386 20.033 C 181.746 20.606,181.050 21.410,180.838 21.819 C 180.362 22.737,177.570 24.694,176.193 25.074 C 174.564 25.524,173.514 26.670,173.732 27.762 C 173.832 28.259,173.913 28.921,173.913 29.233 C 173.913 30.812,176.310 31.698,178.091 30.777 C 179.118 30.246,179.425 30.418,180.226 31.976 C 180.655 32.809,180.645 32.872,180.022 33.218 C 179.039 33.764,178.924 33.696,178.924 32.572 C 178.924 31.331,178.451 31.239,177.346 32.263 C 176.506 33.041,176.416 33.525,176.836 34.990 C 177.162 36.128,176.887 36.410,175.239 36.627 C 174.369 36.742,173.676 37.138,172.591 38.143 C 171.782 38.891,170.862 39.586,170.546 39.686 C 170.230 39.786,169.549 40.316,169.033 40.863 C 168.383 41.553,167.831 41.857,167.231 41.857 C 166.756 41.857,166.207 42.017,166.012 42.212 C 165.817 42.407,165.027 42.640,164.258 42.728 C 162.253 42.958,162.124 43.910,164.000 44.627 C 165.491 45.197,166.059 46.236,165.755 47.841 C 165.334 50.066,165.460 50.035,159.747 49.351 C 157.749 49.112,156.976 49.644,157.191 51.108 C 157.264 51.604,157.142 52.787,156.921 53.735 C 156.220 56.740,156.461 58.173,157.701 58.376 C 158.268 58.469,159.108 58.792,159.568 59.094 C 160.279 59.562,160.546 59.592,161.358 59.299 C 161.882 59.109,162.742 58.954,163.268 58.954 C 164.895 58.954,167.132 57.344,167.134 56.172 C 167.136 55.510,168.165 53.648,168.529 53.647 C 168.653 53.647,169.140 53.316,169.611 52.910 C 170.082 52.505,170.661 52.174,170.898 52.174 C 171.200 52.174,171.286 51.951,171.186 51.427 C 171.000 50.456,171.658 50.101,173.246 50.314 C 174.211 50.444,174.750 50.317,175.847 49.705 C 177.644 48.700,177.952 48.728,178.534 49.947 C 179.038 51.005,180.558 52.243,182.663 53.310 C 184.966 54.477,185.850 57.149,183.805 56.766 C 181.313 56.298,180.542 57.297,182.617 58.305 C 184.332 59.139,184.440 59.126,184.672 58.069 C 184.779 57.583,185.034 57.185,185.239 57.185 C 185.984 57.185,186.673 56.064,186.491 55.150 C 186.320 54.296,186.338 54.282,187.336 54.444 C 189.047 54.721,188.631 53.795,186.581 52.760 C 184.726 51.823,180.839 48.231,181.145 47.735 C 181.410 47.307,182.167 47.407,182.167 47.871 C 182.167 48.098,182.577 48.427,183.080 48.603 C 183.582 48.778,184.449 49.321,185.006 49.810 C 185.563 50.300,186.313 50.702,186.672 50.705 C 187.828 50.713,188.946 52.040,188.946 53.405 C 188.946 55.106,189.742 55.956,191.746 56.397 C 192.273 56.513,192.265 56.531,191.673 56.561 C 190.704 56.611,191.118 58.189,192.319 59.023 C 193.589 59.905,194.579 57.721,193.708 55.960 C 193.028 54.586,193.088 54.219,193.958 54.447 C 194.282 54.531,194.547 54.457,194.547 54.282 C 194.547 53.604,195.687 53.313,196.536 53.773 C 196.982 54.016,197.181 54.219,196.979 54.225 C 196.395 54.244,196.550 55.237,197.200 55.643 C 197.524 55.845,197.789 56.284,197.789 56.617 C 197.789 57.361,198.316 58.389,198.943 58.871 C 199.364 59.194,199.360 59.231,198.895 59.239 C 198.172 59.252,198.244 60.133,198.968 60.133 C 199.309 60.133,199.558 59.936,199.558 59.667 C 199.558 59.299,199.751 59.244,200.477 59.403 C 201.032 59.525,201.669 59.459,202.085 59.237 C 202.658 58.930,202.897 58.949,203.513 59.353 C 203.920 59.620,204.598 59.838,205.018 59.838 C 205.453 59.838,205.704 59.965,205.601 60.133 C 205.500 60.295,205.161 60.427,204.846 60.427 C 204.168 60.427,204.043 61.536,204.693 61.786 C 205.145 61.959,206.349 61.428,206.701 60.899 C 207.079 60.334,206.945 59.838,206.411 59.826 C 206.050 59.818,206.145 59.679,206.730 59.362 C 208.067 58.638,208.331 58.941,208.082 60.915 C 207.470 65.773,206.805 66.674,204.372 65.933 C 203.772 65.751,203.035 65.751,202.309 65.935 C 200.804 66.315,196.705 65.529,194.630 64.461 C 191.912 63.062,190.125 63.486,190.125 65.530 C 190.125 66.739,189.484 67.018,187.925 66.489 C 187.178 66.235,186.381 66.028,186.152 66.028 C 185.924 66.028,185.500 65.627,185.211 65.137 C 184.700 64.272,184.054 63.974,181.655 63.494 C 180.401 63.243,179.386 62.128,179.615 61.252 C 180.273 58.735,178.937 57.352,176.680 58.214 C 175.582 58.633,174.820 58.702,172.913 58.557 C 170.091 58.342,168.220 58.752,165.861 60.102 C 164.166 61.072,162.968 61.110,161.688 60.235 C 160.758 59.599,160.151 59.767,159.485 60.844 C 159.143 61.398,158.216 62.266,157.424 62.774 C 155.951 63.719,155.048 65.226,155.048 66.737 C 155.048 67.406,153.039 69.565,152.417 69.565 C 151.856 69.565,149.777 72.013,148.839 73.777 C 148.303 74.784,147.506 76.105,147.068 76.712 C 146.046 78.128,145.758 79.611,146.299 80.684 C 147.262 82.597,146.994 85.301,145.700 86.731 C 145.281 87.194,145.262 87.418,145.571 88.272 C 145.770 88.821,145.850 89.600,145.749 90.002 C 145.548 90.804,146.312 92.262,146.933 92.262 C 147.449 92.262,149.775 95.453,150.090 96.591 C 150.984 99.832,155.908 102.407,159.374 101.446 C 161.006 100.994,161.697 100.933,162.597 101.160 C 163.603 101.413,164.155 101.303,167.104 100.262 L 170.465 99.076 171.609 99.659 C 172.454 100.090,172.800 100.479,172.934 101.148 C 173.111 102.035,173.145 102.051,174.472 101.885 C 175.945 101.701,177.698 102.308,176.748 102.673 C 176.067 102.934,176.153 103.758,176.861 103.758 C 177.185 103.758,177.450 103.618,177.450 103.446 C 177.450 103.274,177.583 103.216,177.745 103.316 C 178.184 103.587,178.102 105.311,177.558 107.269 C 176.948 109.464,177.148 110.240,178.773 111.978 C 180.044 113.336,180.606 114.365,180.885 115.838 C 180.961 116.241,181.286 116.994,181.606 117.512 C 181.960 118.085,182.124 118.722,182.023 119.139 C 181.933 119.515,182.115 120.486,182.429 121.297 L 182.999 122.771 182.171 124.392 C 180.040 128.564,179.972 130.825,181.873 134.269 C 183.145 136.573,184.087 139.754,184.375 142.716 C 184.538 144.386,184.740 144.913,185.724 146.233 C 186.362 147.087,186.883 147.911,186.883 148.066 C 186.883 148.220,187.174 148.818,187.531 149.395 C 187.964 150.095,188.152 150.813,188.099 151.558 C 187.940 153.750,189.325 154.487,192.175 153.729 C 193.405 153.401,194.071 153.374,195.009 153.610 C 197.196 154.161,201.664 150.947,204.159 147.028 C 204.542 146.427,205.126 145.790,205.457 145.613 C 205.974 145.336,206.036 145.096,205.892 143.906 C 205.694 142.267,205.816 142.052,207.389 141.255 C 209.555 140.157,210.085 138.624,209.021 136.537 L 208.400 135.320 209.727 133.825 C 210.457 133.003,211.054 132.205,211.054 132.051 C 211.054 131.897,211.750 131.422,212.601 130.996 C 215.612 129.487,216.610 127.885,216.104 125.369 C 215.930 124.500,215.862 123.415,215.954 122.957 C 216.068 122.387,215.876 121.643,215.347 120.597 C 213.394 116.743,213.764 114.250,216.789 110.891 C 217.848 109.715,218.934 108.419,219.201 108.011 C 219.469 107.603,220.757 106.413,222.063 105.368 C 225.233 102.832,229.177 95.894,228.909 93.328 C 228.718 91.507,228.680 91.477,227.331 92.086 C 223.456 93.833,219.834 93.810,219.425 92.036 C 219.126 90.739,217.922 89.183,216.063 87.692 C 214.839 86.711,214.270 86.028,214.131 85.376 C 214.022 84.867,213.505 83.920,212.982 83.272 C 211.680 81.660,211.349 80.966,211.349 79.856 C 211.349 79.291,211.043 78.505,210.593 77.915 C 210.177 77.370,209.568 76.316,209.239 75.571 C 208.909 74.827,208.188 73.448,207.636 72.505 C 206.461 70.499,206.451 70.457,207.222 70.659 C 207.707 70.786,207.815 70.664,207.832 69.968 C 207.849 69.266,207.939 69.376,208.363 70.619 C 208.813 71.938,209.615 73.126,212.326 76.492 C 212.717 76.979,213.253 78.122,213.517 79.033 C 213.845 80.167,214.368 81.073,215.178 81.907 C 215.828 82.577,216.360 83.253,216.360 83.409 C 216.360 83.566,216.741 84.129,217.207 84.662 C 217.814 85.354,218.118 86.092,218.274 87.251 C 218.841 91.447,219.896 91.822,224.831 89.580 C 228.871 87.745,229.372 87.460,229.852 86.728 C 230.373 85.932,231.684 85.188,232.565 85.188 C 233.327 85.188,235.578 82.972,236.355 81.458 C 236.674 80.834,237.281 80.003,237.702 79.610 C 239.086 78.318,238.282 76.894,235.298 75.351 C 234.772 75.079,234.332 74.760,234.322 74.642 C 234.311 74.525,234.258 73.965,234.203 73.398 L 234.103 72.367 234.737 73.131 C 235.087 73.552,235.637 73.994,235.962 74.115 C 236.831 74.439,244.170 74.583,244.652 74.285 C 245.200 73.946,246.624 74.692,246.862 75.442 C 246.963 75.760,247.287 76.096,247.581 76.190 C 247.876 76.283,248.354 76.622,248.644 76.942 C 248.933 77.262,249.448 77.539,249.788 77.558 C 250.286 77.586,250.305 77.618,249.889 77.727 C 249.161 77.918,249.249 78.606,250.115 79.471 C 251.118 80.474,252.868 80.380,253.416 79.293 C 253.833 78.462,253.942 78.831,253.818 80.662 C 253.697 82.460,254.249 83.962,257.942 91.895 C 258.565 93.233,259.160 94.780,259.263 95.334 C 259.458 96.371,260.695 97.222,261.538 96.898 C 263.160 96.276,264.659 91.158,264.098 88.155 C 263.991 87.578,264.223 87.239,265.286 86.425 C 266.013 85.868,266.833 85.043,267.108 84.590 C 267.383 84.137,267.863 83.686,268.174 83.587 C 268.485 83.489,268.889 83.078,269.073 82.674 C 269.257 82.271,269.867 81.722,270.429 81.454 C 271.221 81.076,271.471 80.763,271.540 80.062 C 271.623 79.216,271.753 79.124,273.545 78.646 C 276.153 77.950,276.122 77.943,276.843 79.426 C 277.249 80.262,277.788 80.865,278.329 81.090 C 279.326 81.503,280.749 84.027,280.667 85.238 C 280.563 86.768,282.116 87.481,283.125 86.367 C 283.988 85.413,284.334 85.667,284.870 87.650 C 285.149 88.680,285.635 89.946,285.950 90.464 C 286.478 91.332,286.497 91.619,286.196 94.092 C 285.912 96.429,285.929 96.810,286.324 97.031 C 287.758 97.834,288.538 98.829,288.884 100.297 C 289.628 103.458,291.766 106.116,293.562 106.116 C 295.229 106.116,293.309 100.798,290.964 98.917 C 289.989 98.135,289.136 97.190,289.032 96.776 C 288.930 96.369,288.588 95.684,288.272 95.254 C 287.775 94.579,287.740 94.316,288.019 93.311 C 288.197 92.672,288.271 91.711,288.184 91.174 C 288.026 90.204,288.573 89.771,289.027 90.506 C 289.132 90.674,289.708 91.123,290.309 91.502 C 290.909 91.881,291.727 92.674,292.126 93.265 C 292.682 94.087,293.025 94.320,293.589 94.259 C 294.256 94.186,294.317 94.268,294.230 95.137 C 294.073 96.706,296.172 96.529,296.679 94.931 C 296.770 94.644,297.363 94.176,297.996 93.890 C 300.676 92.682,299.873 87.159,296.662 84.709 C 295.309 83.678,294.173 82.018,294.393 81.395 C 295.068 79.480,298.305 78.367,298.305 80.049 C 298.305 80.861,299.174 80.865,299.810 80.057 C 300.607 79.043,301.885 78.398,302.681 78.606 C 303.051 78.703,303.316 78.634,303.316 78.443 C 303.316 78.262,303.558 78.113,303.853 78.113 C 306.796 78.113,308.763 75.981,309.949 71.503 C 310.825 68.200,310.788 67.504,309.737 67.497 C 309.236 67.494,309.169 67.427,309.472 67.234 C 310.109 66.831,309.648 65.649,308.617 65.040 C 308.115 64.744,307.426 63.928,307.085 63.228 C 306.745 62.527,306.166 61.817,305.799 61.650 C 304.855 61.220,305.183 60.271,306.599 59.334 C 308.030 58.387,308.039 57.886,306.632 57.495 C 305.243 57.109,304.580 57.104,304.349 57.478 C 304.239 57.657,303.725 57.544,303.025 57.187 C 301.722 56.522,301.254 55.956,301.844 55.760 C 302.065 55.686,302.669 55.163,303.187 54.598 C 304.133 53.565,304.790 53.522,304.790 54.493 C 304.790 55.775,305.535 56.206,306.686 55.591 C 308.021 54.877,309.120 55.259,309.264 56.486 C 309.335 57.089,309.573 57.350,310.201 57.517 C 311.442 57.846,312.145 58.604,312.972 60.501 C 313.814 62.436,313.760 62.413,315.541 61.548 C 317.669 60.514,317.114 58.679,314.045 56.597 C 312.011 55.218,311.842 54.967,312.748 54.680 C 313.369 54.483,313.825 53.313,313.492 52.773 C 312.968 51.926,314.037 50.670,315.127 50.852 C 318.357 51.394,320.071 43.009,317.298 40.236 C 316.741 39.679,316.291 39.054,316.297 38.845 C 316.317 38.122,319.546 41.909,320.452 43.719 C 321.633 46.081,322.092 46.573,323.111 46.573 C 324.294 46.573,324.185 45.931,322.733 44.356 C 321.888 43.439,321.663 43.036,321.996 43.036 C 323.306 43.036,322.307 41.528,319.971 39.981 C 319.322 39.551,318.454 38.703,318.043 38.097 C 317.233 36.903,315.832 36.418,315.648 37.267 C 315.572 37.618,315.247 37.482,314.226 36.671 C 313.146 35.815,312.738 35.654,312.015 35.800 C 310.633 36.079,310.037 36.025,308.905 35.514 L 307.855 35.041 308.471 33.140 C 309.370 30.365,309.944 29.903,312.390 29.985 C 313.479 30.021,314.815 29.928,315.360 29.779 C 316.089 29.578,316.651 29.628,317.498 29.967 C 319.308 30.691,320.827 30.297,320.600 29.162 C 320.168 26.999,321.527 26.295,323.599 27.608 C 324.633 28.264,325.553 28.013,325.664 27.045 C 325.780 26.042,326.149 26.013,326.768 26.957 C 327.258 27.704,327.235 27.877,326.258 30.803 C 326.096 31.290,325.899 31.895,325.821 32.148 C 325.616 32.812,328.146 36.041,329.854 37.295 C 330.655 37.882,331.586 38.751,331.924 39.226 C 332.941 40.654,334.830 40.271,334.417 38.720 C 334.034 37.283,334.014 36.118,334.368 35.899 C 334.614 35.747,334.568 35.423,334.200 34.720 C 333.921 34.187,333.566 33.403,333.411 32.977 C 333.237 32.497,332.646 31.968,331.856 31.585 C 330.540 30.946,329.612 29.869,330.042 29.480 C 330.737 28.851,333.620 28.246,334.268 28.593 C 335.062 29.018,336.216 28.533,336.494 27.658 C 336.715 26.959,338.262 26.153,338.956 26.373 C 339.713 26.613,340.457 26.260,340.457 25.662 C 340.457 25.298,339.811 24.907,338.195 24.293 C 336.604 23.689,336.132 23.405,336.602 23.336 C 337.110 23.262,337.233 23.095,337.115 22.642 C 336.940 21.973,336.958 21.974,340.015 22.851 C 342.642 23.604,343.029 23.666,343.841 23.462 C 345.853 22.957,342.346 20.117,340.165 20.486 C 339.342 20.625,338.738 20.521,337.904 20.095 C 337.278 19.776,335.972 19.418,335.001 19.299 C 334.030 19.180,332.638 18.852,331.909 18.569 C 328.865 17.391,320.413 16.410,320.413 17.235 C 320.413 17.656,320.265 17.708,319.602 17.520 C 319.156 17.393,317.133 17.272,315.107 17.250 C 312.125 17.218,311.225 17.106,310.391 16.660 C 309.554 16.213,308.573 16.091,305.201 16.016 C 301.516 15.933,300.851 15.838,299.363 15.180 C 298.439 14.771,297.326 14.441,296.889 14.446 C 296.452 14.450,295.145 14.302,293.984 14.116 C 291.436 13.708,289.671 13.948,289.826 14.682 C 290.004 15.526,289.004 15.851,287.186 15.537 C 285.889 15.314,285.358 15.349,284.609 15.705 C 283.709 16.135,283.602 16.117,282.217 15.310 C 278.619 13.213,276.373 12.748,273.630 13.535 C 272.969 13.724,272.186 13.674,271.012 13.368 C 269.853 13.065,269.009 13.009,268.272 13.187 C 267.540 13.363,266.762 13.313,265.783 13.030 C 264.654 12.702,264.083 12.687,263.021 12.954 C 261.335 13.379,261.059 13.151,262.454 12.486 C 264.954 11.294,263.171 9.895,259.101 9.856 C 257.098 9.837,256.032 9.689,255.357 9.336 L 255.357 9.336 252.353 8.711 M66.911 12.066 C 65.642 12.452,61.912 14.575,61.906 14.914 C 61.888 16.094,63.197 16.394,64.999 15.621 C 66.064 15.165,66.590 15.092,67.308 15.300 C 68.236 15.569,68.236 15.570,67.428 15.596 C 65.770 15.650,66.504 16.470,68.312 16.584 L 70.007 16.690 68.018 16.746 C 66.610 16.785,66.028 16.914,66.028 17.185 C 66.028 17.668,68.430 18.854,69.499 18.899 C 70.132 18.926,70.052 18.985,69.123 19.177 C 67.850 19.440,65.644 19.503,66.249 19.259 C 66.845 19.019,66.671 18.276,66.019 18.276 C 65.689 18.276,64.611 18.003,63.621 17.670 C 62.461 17.279,61.236 17.091,60.167 17.139 C 59.230 17.182,58.212 17.050,57.821 16.835 C 57.396 16.603,56.828 16.541,56.347 16.675 C 55.916 16.795,55.283 16.865,54.939 16.831 C 54.595 16.797,53.247 17.042,51.942 17.375 C 49.006 18.125,47.856 18.133,45.241 17.420 C 44.109 17.112,42.454 16.775,41.562 16.671 C 40.671 16.568,38.648 16.278,37.067 16.026 C 33.629 15.480,28.427 16.020,25.118 17.265 C 24.072 17.659,22.854 17.981,22.411 17.981 C 20.280 17.981,19.076 19.118,20.210 20.060 C 20.934 20.661,20.000 21.014,17.555 21.064 C 13.128 21.154,12.144 23.524,16.507 23.589 C 18.005 23.612,16.278 24.384,13.959 24.729 C 11.201 25.139,9.975 25.794,10.039 26.822 C 10.119 28.109,10.042 28.272,9.138 28.740 C 7.755 29.455,8.431 30.621,10.257 30.669 C 10.935 30.687,8.539 31.939,6.264 32.756 C 4.232 33.486,3.816 34.193,5.418 34.193 C 6.439 34.193,9.473 33.162,11.510 32.123 C 12.920 31.403,12.950 31.404,12.760 32.130 C 12.577 32.833,12.901 32.863,14.738 32.314 C 16.088 31.911,16.774 30.953,15.718 30.948 C 14.137 30.940,18.512 29.053,20.192 29.019 C 21.241 28.997,22.499 28.745,23.287 28.398 C 24.585 27.825,24.656 27.824,26.676 28.343 C 27.811 28.635,29.005 28.881,29.329 28.889 C 29.654 28.897,30.440 29.298,31.077 29.780 C 31.714 30.262,32.410 30.656,32.624 30.656 C 33.196 30.656,34.197 31.753,34.170 32.351 C 34.156 32.659,34.087 32.718,33.998 32.498 C 33.916 32.296,33.661 32.130,33.432 32.130 C 33.202 32.130,33.014 31.931,33.014 31.688 C 33.014 31.444,32.831 31.245,32.608 31.245 C 32.026 31.245,31.444 32.044,31.645 32.568 C 31.852 33.107,32.612 33.157,32.819 32.646 C 32.938 32.351,32.972 32.351,32.991 32.646 C 33.004 32.848,33.199 33.014,33.424 33.014 C 34.084 33.014,34.259 34.390,33.728 35.416 C 33.454 35.947,33.319 36.677,33.412 37.139 C 33.500 37.579,33.423 38.087,33.242 38.269 C 33.001 38.510,32.999 38.790,33.237 39.311 C 33.534 39.964,33.489 40.038,32.698 40.196 C 30.941 40.547,32.558 43.331,34.519 43.331 C 35.361 43.331,35.651 43.713,35.077 44.068 C 34.915 44.168,34.783 44.109,34.783 43.938 C 34.783 42.724,32.833 43.713,32.159 45.269 C 31.771 46.167,30.873 47.546,30.165 48.333 C 29.458 49.121,28.669 50.274,28.413 50.896 C 28.157 51.518,27.627 52.368,27.234 52.785 C 26.258 53.820,26.191 55.903,27.006 59.838 C 27.225 60.892,27.405 61.837,27.408 61.939 C 27.411 62.041,27.818 62.292,28.312 62.497 C 29.499 62.988,30.067 64.133,29.866 65.628 C 29.750 66.492,29.878 67.144,30.340 68.051 C 30.801 68.954,30.922 69.567,30.784 70.301 C 30.618 71.187,30.716 71.422,31.583 72.214 C 32.295 72.865,32.545 73.322,32.477 73.851 C 32.358 74.764,33.998 76.934,34.807 76.934 C 35.516 76.934,35.517 76.605,34.811 75.221 C 34.502 74.616,34.153 73.460,34.035 72.653 C 33.917 71.847,33.560 70.669,33.241 70.036 C 32.228 68.026,31.876 66.765,32.177 66.227 C 32.676 65.337,33.510 66.133,33.734 67.715 C 33.847 68.507,34.378 69.851,34.948 70.789 C 35.506 71.705,35.962 72.707,35.962 73.015 C 35.962 73.324,36.409 74.010,36.956 74.540 C 38.669 76.201,39.547 78.309,39.156 79.826 C 38.680 81.675,39.738 82.679,44.695 85.081 C 48.787 87.065,49.153 87.156,50.553 86.543 C 51.658 86.059,52.693 86.500,53.671 87.873 C 54.443 88.957,57.032 90.199,58.520 90.199 C 59.208 90.199,59.543 90.336,59.543 90.619 C 59.543 90.849,59.875 91.432,60.280 91.914 C 60.685 92.395,61.017 93.064,61.017 93.399 C 61.017 93.734,61.183 94.139,61.385 94.299 C 61.588 94.460,62.301 95.062,62.969 95.637 C 63.637 96.213,64.329 96.684,64.507 96.684 C 64.685 96.684,65.360 96.960,66.008 97.297 C 67.409 98.028,68.205 97.947,68.331 97.063 C 68.433 96.351,69.210 95.976,69.975 96.270 C 70.292 96.392,70.406 96.652,70.295 97.002 C 70.200 97.301,70.283 97.846,70.479 98.213 C 71.681 100.459,71.321 102.508,69.270 105.085 C 66.775 108.220,65.943 110.878,67.361 111.180 C 67.724 111.257,67.666 111.484,67.053 112.383 C 66.072 113.822,66.283 115.262,67.664 116.561 C 68.659 117.498,69.520 119.019,70.139 120.933 C 70.337 121.543,70.990 122.670,71.591 123.438 C 72.191 124.206,73.051 125.594,73.501 126.523 C 74.244 128.056,74.511 128.312,76.411 129.311 C 80.443 131.430,82.097 133.810,81.956 137.288 C 81.776 141.738,82.090 147.386,82.680 150.332 C 83.063 152.238,83.135 153.528,82.982 155.725 C 82.862 157.439,82.895 158.757,83.061 158.967 C 83.216 159.162,83.411 159.964,83.495 160.750 C 83.616 161.879,83.870 162.405,84.713 163.267 C 85.342 163.912,85.780 164.654,85.784 165.082 C 85.788 165.481,86.032 166.120,86.326 166.504 C 86.970 167.341,86.821 168.517,86.040 168.765 C 85.218 169.026,85.366 169.865,86.331 170.414 C 86.887 170.730,87.356 171.384,87.704 172.330 C 88.422 174.278,89.642 176.214,90.291 176.435 C 90.584 176.535,90.973 176.944,91.155 177.342 C 91.373 177.820,91.694 178.044,92.095 177.999 C 92.430 177.961,93.009 178.032,93.382 178.157 C 93.808 178.299,94.227 178.244,94.511 178.008 C 94.907 177.680,94.939 177.761,94.769 178.666 C 94.438 180.434,96.389 181.390,99.705 181.086 C 101.764 180.896,102.394 180.343,100.960 179.983 C 100.556 179.881,99.408 179.270,98.409 178.624 C 97.410 177.979,96.352 177.450,96.058 177.450 C 95.717 177.450,95.582 177.298,95.684 177.032 C 95.772 176.802,95.640 176.301,95.389 175.919 C 94.969 175.277,94.990 175.106,95.673 173.631 C 96.557 171.723,96.434 170.738,95.197 169.823 C 94.163 169.059,94.117 168.657,94.946 167.603 C 95.298 167.156,95.503 166.568,95.419 166.248 C 95.338 165.936,95.456 165.527,95.683 165.340 C 96.272 164.850,96.191 164.256,95.504 164.038 C 94.909 163.849,94.154 162.785,94.424 162.515 C 94.504 162.435,94.838 162.513,95.165 162.688 C 96.486 163.395,97.536 162.239,97.111 160.546 C 96.923 159.796,96.963 159.764,98.116 159.764 C 101.753 159.764,103.205 156.148,100.405 154.064 C 100.218 153.925,100.395 153.905,100.811 154.018 C 103.524 154.756,104.264 154.462,105.590 152.119 C 106.101 151.217,106.826 150.069,107.202 149.567 C 107.577 149.065,107.885 148.351,107.885 147.980 C 107.885 147.610,108.139 146.893,108.450 146.387 C 109.198 145.170,109.469 143.585,109.097 142.605 C 108.755 141.706,109.935 140.519,112.049 139.637 C 112.638 139.391,113.201 139.057,113.302 138.894 C 113.403 138.731,113.983 138.654,114.591 138.724 C 117.167 139.021,119.836 132.460,119.250 127.273 C 119.073 125.715,119.120 125.511,119.807 124.823 C 120.220 124.411,120.773 123.647,121.038 123.127 C 121.302 122.607,121.959 121.637,122.498 120.971 C 124.811 118.114,124.520 115.001,121.869 114.230 C 120.759 113.908,119.876 113.391,119.091 112.606 C 117.892 111.407,114.241 110.505,112.428 110.960 C 111.895 111.094,111.739 110.993,111.664 110.465 C 111.515 109.414,109.062 108.235,107.921 108.665 C 107.121 108.968,107.033 108.937,106.872 108.297 C 106.686 107.556,105.586 107.097,104.758 107.414 C 104.392 107.555,104.332 107.477,104.500 107.078 C 104.909 106.104,105.007 105.232,104.706 105.232 C 104.542 105.232,104.249 104.575,104.056 103.772 C 103.455 101.265,99.795 98.767,98.182 99.764 C 97.680 100.074,95.339 98.887,94.734 98.016 C 93.954 96.895,93.418 96.335,92.446 95.630 C 91.533 94.968,91.524 93.147,92.433 93.147 C 92.663 93.147,92.852 92.948,92.852 92.704 C 92.852 92.459,92.590 92.262,92.262 92.262 C 91.869 92.262,91.673 92.066,91.673 91.673 C 91.673 91.349,91.805 91.083,91.968 91.083 C 92.130 91.083,92.262 90.818,92.262 90.494 C 92.262 90.169,92.395 89.904,92.557 89.904 C 92.719 89.904,92.852 89.639,92.852 89.315 C 92.852 88.987,93.048 88.725,93.294 88.725 C 93.540 88.725,93.736 88.463,93.736 88.136 C 93.736 87.811,93.618 87.546,93.474 87.546 C 93.330 87.546,93.125 87.082,93.019 86.514 C 92.842 85.572,92.737 85.483,91.807 85.483 C 90.597 85.483,90.395 86.204,91.525 86.488 C 91.931 86.590,92.262 86.869,92.262 87.110 C 92.262 87.350,92.383 87.546,92.530 87.546 C 92.676 87.546,92.727 87.811,92.643 88.136 C 92.558 88.460,92.371 88.725,92.228 88.725 C 92.085 88.725,91.968 88.990,91.968 89.315 C 91.968 89.639,91.835 89.904,91.673 89.904 C 91.511 89.904,91.378 90.169,91.378 90.494 C 91.378 90.818,91.245 91.083,91.083 91.083 C 90.921 91.083,90.789 91.349,90.789 91.673 C 90.789 92.000,90.985 92.262,91.231 92.262 C 91.474 92.262,91.673 92.461,91.673 92.704 C 91.673 92.974,91.398 93.147,90.970 93.147 C 90.507 93.147,90.213 93.355,90.108 93.758 C 89.969 94.287,89.861 94.323,89.303 94.025 C 88.948 93.835,88.249 93.739,87.750 93.812 C 86.657 93.973,83.683 93.256,83.272 92.733 C 82.390 91.612,81.032 91.421,79.957 92.266 C 79.182 92.876,78.614 92.823,79.239 92.198 C 79.849 91.588,79.629 91.083,78.754 91.083 C 78.247 91.083,77.651 91.371,77.229 91.820 C 76.848 92.225,76.262 92.560,75.925 92.564 C 75.112 92.572,74.159 93.372,73.573 94.538 C 72.893 95.892,72.220 96.176,71.324 95.487 C 70.511 94.863,69.134 94.758,67.901 95.226 C 66.701 95.683,65.828 95.341,65.001 94.090 L 64.267 92.982 64.713 90.225 C 65.362 86.211,64.976 85.795,61.013 86.244 C 58.866 86.486,58.880 86.600,60.575 82.830 C 62.030 79.592,62.127 79.147,61.435 78.882 C 59.857 78.277,57.608 79.041,57.184 80.328 C 56.293 83.026,52.093 83.813,50.616 81.559 C 49.025 79.131,49.154 77.304,51.335 71.315 C 51.509 70.838,52.176 70.267,53.145 69.765 C 53.989 69.329,55.188 68.688,55.811 68.342 C 56.888 67.742,56.990 67.735,57.952 68.194 C 59.776 69.064,61.218 69.146,61.457 68.393 C 61.822 67.244,63.258 66.883,64.812 67.549 C 65.543 67.862,66.434 68.080,66.793 68 33 C 67.846 67.895,68.664 68.851,68.477 70.002 C 68.286 71.183,69.119 73.865,69.752 74.108 C 71.227 74.675,71.769 73.212,71.332 69.845 C 70.872 66.303,72.168 64.490,76.671 62.374 C 78.531 61.500,79.406 60.330,79.459 58.645 C 79.498 57.418,79.882 56.047,79.882 57.136 C 79.882 57.767,80.724 57.489,80.820 56.827 C 80.872 56.465,81.374 55.884,81.945 55.524 C 82.513 55.167,83.319 54.526,83.738 54.100 C 84.156 53.674,85.084 53.147,85.801 52.929 C 88.047 52.246,88.686 51.842,88.874 50.990 C 89.026 50.295,89.485 49.990,92.143 48.820 C 95.390 47.390,96.606 47.058,94.989 48.044 C 92.888 49.325,94.364 50.254,96.656 49.093 C 97.471 48.680,98.300 48.342,98.497 48.342 C 99.246 48.342,101.400 47.091,101.400 46.656 C 101.400 46.293,101.154 46.234,100.184 46.364 C 98.200 46.630,96.439 45.265,97.631 44.385 C 98.109 44.033,98.747 42.944,98.747 42.482 C 98.747 42.318,98.117 42.140,97.347 42.087 L 95.947 41.990 96.831 41.578 C 97.358 41.333,98.789 41.152,100.368 41.132 C 103.255 41.093,104.939 40.822,106.175 40.196 C 107.742 39.404,107.580 39.825,105.537 41.847 C 104.397 42.976,103.464 44.026,103.464 44.180 C 103.464 44.874,109.406 44.915,110.517 44.228 C 111.209 43.800,110.373 42.227,109.334 41.999 C 108.330 41.779,107.983 41.346,108.441 40.888 C 108.982 40.348,108.813 39.794,108.106 39.787 C 107.547 39.781,107.615 39.681,108.533 39.148 C 110.692 37.897,110.578 35.668,108.355 35.666 C 107.259 35.664,106.353 33.876,106.232 31.474 C 106.065 28.163,105.728 27.792,104.037 29.057 C 101.531 30.930,100.272 30.962,100.672 29.142 C 101.416 25.756,94.438 24.223,92.982 27.452 C 92.690 28.098,92.063 28.904,91.587 29.243 C 90.837 29.777,90.742 30.001,90.866 30.931 C 91.056 32.342,90.222 33.392,87.953 34.604 C 86.420 35.423,86.176 35.686,85.640 37.095 C 84.385 40.393,82.053 39.863,83.244 36.550 C 83.850 34.863,83.766 34.627,82.467 34.383 C 81.937 34.283,80.707 33.806,79.735 33.322 C 78.762 32.838,77.597 32.368,77.145 32.278 C 76.626 32.174,76.196 31.819,75.972 31.311 C 75.779 30.870,75.495 30.420,75.342 30.313 C 74.533 29.741,78.297 26.893,81.181 25.896 C 81.814 25.677,82.394 25.265,82.468 24.982 C 82.554 24.657,82.891 24.464,83.380 24.462 C 83.807 24.460,84.886 24.263,85.777 24.024 C 86.669 23.784,87.422 23.587,87.451 23.585 C 87.479 23.583,87.548 23.814,87.604 24.097 C 87.685 24.517,88.034 24.618,89.467 24.637 C 90.437 24.650,91.523 24.763,91.881 24.889 C 92.428 25.081,92.563 24.988,92.736 24.300 C 92.994 23.269,92.126 22.482,90.434 22.211 C 88.795 21.949,89.608 21.528,91.766 21.523 C 94.099 21.516,96.684 19.798,96.684 18.254 C 96.684 17.101,93.881 17.030,92.830 18.156 C 91.450 19.632,89.746 20.176,90.547 18.885 C 90.999 18.156,90.553 17.698,89.383 17.691 C 88.781 17.687,88.722 17.561,88.793 16.433 C 88.862 15.343,88.790 15.169,88.234 15.090 C 87.392 14.970,84.598 16.397,84.598 16.947 C 84.598 17.267,84.373 17.332,83.716 17.200 C 82.728 17.003,81.061 17.571,81.061 18.105 C 81.061 18.639,81.702 19.159,82.373 19.169 C 82.967 19.178,82.967 19.186,82.407 19.610 C 81.904 19.990,81.752 19.985,81.112 19.566 C 80.596 19.228,80.025 19.141,79.127 19.264 C 78.356 19.370,77.273 19.261,76.342 18.984 C 75.175 18.638,74.605 18.605,73.916 18.846 C 72.454 19.355,71.968 19.164,73.262 18.588 C 74.252 18.147,74.699 18.108,75.915 18.356 C 78.492 18.881,81.694 17.051,79.748 16.165 C 79.063 15.853,79.048 15.792,79.454 15.007 C 80.350 13.274,79.111 12.502,77.645 13.879 L 76.990 14.494 76.786 13.852 C 76.626 13.348,76.447 13.258,75.948 13.432 C 74.753 13.847,73.054 13.705,72.652 13.156 C 71.153 12.605,72.048 13.001,72.380 13.301 L 72.048 13.001 65.411 12.066 M70.165 19.619 C 70.131 20.639,70.902 20.964,71.560 20.207 C 71.920 19.793,72.087 19.455,71.932 19.455 C 71.776 19.455,71.495 19.742,71.307 20.094 L 70.965 20.733 70.571 20.020 C 70.353 19.628,70.171 19.448,70.165 19.619 M189.169 23.034 C 188.314 23.902,187.189 24.836,186.669 25.109 C 185.236 25.862,185.067 27.021,186.247 28.006 C 187.419 28.984,187.412 29.268,186.193 30.198 C 185.609 30.643,185.073 31.401,184.875 32.060 C 184.489 33.349,183.110 34.329,181.986 34.115 C 181.474 34.017,181.170 34.146,180.952 34.555 C 180.752 34.927,180.441 35.080,180.078 34.985 C 179.376 34.802,179.055 35.262,179.506 35.806 C 179.767 36.120,180.045 36.143,180.720 35.908 C 181.352 35.688,181.834 35.702,182.454 35.959 C 183.159 36.251,183.578 36.227,184.783 35.826 C 185.701 35.522,186.632 35.409,187.260 35.527 C 188.714 35.800,189.931 34.719,189.958 33.130 C 189.978 31.983,189.979 31.982,191.203 31.982 C 192.722 31.982,193.025 31.712,192.348 30.963 C 191.391 29.907,191.961 29.384,193.888 29.550 C 195.040 29.650,195.848 29.559,196.423 29.267 C 198.090 28.419,196.441 28.005,193.073 28.426 C 189.739 28.843,188.584 26.977,190.567 24.378 C 192.596 21.722,191.500 20.668,189.169 23.034 M191.304 22.585 C 191.304 22.828,190.840 23.635,190.273 24.378 M207.279 45.569 C 205.689 46.294,205.549 46.700,206.736 47.148 C 207.323 47.370,207.290 47.425,206.272 47.915 C 204.922 48.565,203.586 48.159,203.740 47.145 C 203.892 46.147,202.475 45.448,201.542 46.059 C 200.572 46.695,199.036 49.061,198.641 50.525 C 198.060 52.682,200.947 53.798,203.233 52.300 C 204.232 51.646,207.004 51.899,208.773 52.806 C 213.024 54.985,215.519 51.974,211.398 49.638 C 208.714 48.115,208.560 47.967,208.933 47.268 C 210.025 45.221,209.416 44.595,207.279 45.569 L 209.416 44.595 205.689 46.294 M208.979 46.057 C 208.845 46.584,208.652 47.286,208.550 47.616 C 208.392 48.127,208.739 48.426,210.888 49.633 M222.880 45.418 C 220.824 46.240,218.723 48.726,219.749 49.120 C 219.993 49.213,220.192 49.470,220.192 49.690 C 220.192 49.911,220.782 50.756,221.503 51.568 C 222.904 53.145,223.359 54.506,222.893 55.730 C 222.485 56.805,222.904 57.353,224.917 58.368 C 228.038 59.944,230.222 58.248,228.146 55.859 C 227.628 55.261,226.971 54.120,226.971 53.815 C 226.971 53.723,227.281 53.648,227.659 53.648 C 228.037 53.648,228.431 53.563,228.535 53.460 C 228.853 53.142,227.526 51.535,227.085 51.704 C 226.691 51.855,225.021 50.937,223.950 49.981 C 222.923 49.064,223.427 47.800,224.943 47.490 C 226.217 47.229,226.215 46.635,224.938 45.774 C 223.821 45.022,223.854 45.028,222.880 45.418 L 223.854 45.028 220 46.240 M225.759 68.073 C 226.043 68.226,226.524 68.900,226.827 69.571 C 227.726 71.567,231.005 72.982,232.984 72.229 C 233.462 72.048,233.793 72.048,233.905 72.229 C 234.002 72.385,233.920 72.513,233.723 72.513 C 233.526 72.513,232.902 73.054,232.336 73.716 C 230.812 75.496,228.740 75.994,228.740 74.581 C 228.740 73.644,228.404 73.102,227.824 73.102 C 227.517 73.102,227.266 72.903,227.266 72.660 C 227.266 72.035,226.385 72.107,226.369 72.734 C 226.362 73.018,226.186 72.774,225.978 72.192 C 225.770 71.609,225.245 70.668,224.811 70.100 C 223.479 68.354,224.040 67.154,225.759 68.073 M323.066 47.624 C 323.066 47.878,323.209 48.355,323.385 48.683 C 323.618 49.118,323.610 49.508,323.355 50.123 C 322.974 51.043,323.837 52.763,324.679 52.763 C 324.920 52.763,325.017 52.979,324.929 53.316 C 324.850 53.620,325.072 54.431,325.422 55.119 C 325.781 55.822,325.991 56.646,325.901 57.002 C 325.651 57.997,322.868 59.971,321.826 59.891 C 321.254 59.848,320.652 60.080,320.072 60.568 C 319.586 60.977,319.066 61.312,318.916 61.312 C 318.509 61.312,318.588 62.124,319.013 62.296 C 319.240 62.388,319.192 62.453,318.885 62.468 C 318.002 62.509,317.943 63.600,318.770 64.582 C 319.187 65.078,319.528 65.672,319.528 65.903 C 319.528 66.549,320.643 66.400,320.857 65.727 C 321.153 64.794,320.723 63.405,320.020 63.022 L 319.381 62.674 320.118 62.465 C 321.251 62.142,321.839 62.141,321.331 62.464 C 320.752 62.830,321.151 64.259,321.833 64.259 C 323.096 64.259,323.604 62.341,322.402 62.109 C 321.829 61.999,321.848 61.976,322.543 61.941 C 323.103 61.913,323.493 62.125,323.830 62.638 C 324.476 63.625,325.040 63.568,325.276 62.491 C 325.437 61.760,325.617 61.606,326.312 61.606 C 328.686 61.606,329.665 60.304,328.882 58.191 C 328.614 57.468,328.473 56.674,328.568 56.426 C 329.016 55.259,326.992 52.763,325.599 52.763 C 325.298 52.763,325.129 52.506,325.129 52.047 C 325.129 51.379,325.194 51.349,326.085 51.605 C 327.402 51.983,327.782 51.950,327.782 51.457 C 327.782 51.225,328.055 50.948,328.388 50.842 C 329.458 50.503,328.914 49.703,327.236 49.146 C 326.370 48.858,325.230 48.294,324.704 47.893 C 323.603 47.053,323.066 46.965,323.066 47.624 M312.356 83.026 C 312.248 83.134,312.159 83.592,312.159 84.044 C 312.159 84.496,312.010 85.193,311.827 85.594 C 311.366 86.607,311.701 87.657,312.825 88.717 C 313.578 89.427,313.694 89.673,313.372 89.877 C 312.737 90.279,313.208 91.629,314.058 91.842 C 314.601 91.979,314.756 92.201,314.717 92.787 C 314.681 93.317,314.869 93.658,315.326 93.892 C 315.690 94.079,315.906 94.312,315.807 94.412 C 315.479 94.740,315.993 96.094,316.445 96.094 C 317.125 96.094,317.642 94.747,317.177 94.187 C 316.972 93.939,316.632 93.736,316.423 93.736 C 316.122 93.736,316.113 93.550,316.376 92.852 C 316.560 92.366,316.880 91.968,317.087 91.968 C 317.295 91.968,317.465 91.769,317.465 91.525 C 317.465 91.280,317.203 91.083,316.875 91.083 C 316.548 91.083,316.286 91.280,316.286 91.525 C 316.286 92.312,314.900 92.070,314.745 91.256 C 314.591 90.454,315.699 90.022,316.632 90.521 C 317.437 90.952,317.760 90.834,317.760 90.111 C 317.760 89.217,317.232 88.725,316.273 88.725 C 314.958 88.725,314.349 87.770,314.797 86.413 C 315.435 84.478,313.537 81.845,312.356 83.026 M310.710 94.252 C 309.370 95.816,309.162 96.684,310.130 96.684 C 311.020 96.684,312.749 94.700,312.749 93.679 C 312.749 92.459,312.088 92.645,310.710 94.252 M312.454 93.818 C 312.454 94.601,310.928 96.389,310.260 96.389 C 309.541 96.389,309.713 95.820,310.852 94.430 C 312.031 92.992,312.454 92.830,312.454 93.818 M317.024 94.328 C 317.265 94.717,316.917 95.800,316.552 95.800 C 316.161 95.800,315.891 95.011,316.098 94.473 C 316.293 93.965,316.755 93.893,317.024 94.328 M319.528 94.782 C 319.528 95.592,318.141 96.619,317.272 96.453 C 316.728 96.348,316.368 96.468,316.092 96.844 C 315.405 97.785,315.594 98.240,316.611 98.090 C 317.454 97.967,317.569 98.057,318.075 99.236 C 318.376 99.940,318.794 100.514,319.002 100.512 C 319.869 100.503,320.707 100.125,320.707 99.745 C 320.707 99.520,320.924 99.337,321.188 99.337 C 321.795 99.337,321.618 97.618,320.809 95.649 C 320.281 94.367,319.528 93.857,319.528 94.782 M308.218 99.755 C 307.795 100.309,306.997 100.912,306.445 101.094 C 305.770 101.317,305.320 101.717,305.073 102.313 C 304.855 102.839,304.252 103.431,303.590 103.769 C 302.977 104.082,302.391 104.601,302.289 104.922 C 302.143 105.383,301.928 105.470,301.263 105.337 C 299.989 105.083,299.596 106.011,300.072 108.154 C 300.926 111.996,301.190 112.249,304.565 112.467 C 305.495 112.527,306.539 112.728,306.886 112.914 C 308.033 113.528,310.694 110.076,310.687 107.983 C 310.686 107.794,311.050 107.371,311.496 107.043 C 312.247 106.491,312.275 106.397,311.884 105.766 C 310.598 103.694,310.572 103.511,311.393 102.327 C 312.366 100.923,312.358 100.824,311.187 99.689 C 309.936 98.476,309.181 98.493,308.218 99.755 M284.948 100.827 C 286.239 101.311,287.951 102.587,288.150 103.213 C 288.248 103.524,289.316 104.521,290.521 105.429 C 291.946 106.501,292.779 107.348,292.901 107.850 C 293.005 108.275,293.339 108.887,293.643 109.211 C 295.825 111.535,296.469 112.835,296.123 114.214 C 295.480 116.775,292.199 114.934,290.359 110.980 C 289.907 110.007,289.109 108.681,288.586 108.032 C 288.063 107.384,287.394 106.389,287.100 105.822 C 286.805 105.254,286.012 104.259,285.336 103.611 C 284.263 102.581,283.272 101.173,283.272 100.678 C 283.272 100.420,284.047 100.489,284.948 100.827 M322.822 104.864 C 322.361 105.763,322.183 107.679,322.522 108.087 C 323.418 109.167,324.388 108.210,324.077 106.553 C 323.971 105.987,324.028 105.513,324.218 105.396 C 324.395 105.287,324.539 105.006,324.539 104.773 C 324.539 104.163,323.143 104.237,322.822 104.864 M318.397 105.930 C 317.879 106.217,317.301 106.243,316.080 106.032 C 313.956 105.666,313.119 106.368,312.787 108.795 C 312.667 109.673,312.325 110.761,312.028 111.213 C 311.559 111.925,311.538 112.143,311.869 112.834 C 312.080 113.274,312.223 113.985,312.187 114.414 C 312.107 115.356,312.526 115.669,313.528 115.417 C 314.235 115.240,314.264 115.155,314.078 113.800 C 313.866 112.257,314.355 111.411,314.690 112.744 C 314.888 113.534,315.833 114.370,316.529 114.370 C 316.945 114.370,316.900 112.902,316.427 111.062 C 316.253 110.385,316.340 110.206,316.990 109.910 C 318.404 109.265,317.948 108.726,316.075 108.826 C 314.664 108.902,314.373 108.833,314.285 108.402 C 314.110 107.543,315.620 107.150,316.846 107.734 C 318.073 108.319,319.272 107.946,319.785 106.820 C 320.403 105.463,319.863 105.117,318.397 105.930 M327.561 108.834 C 326.579 109.308,326.750 109.792,328.114 110.407 C 328.782 110.709,329.180 111.005,328.998 111.066 C 328.815 111.127,328.666 111.420,328.666 111.717 C 328.666 112.768,329.015 113.191,329.883 113.191 C 332.562 113.191,336.921 116.608,335.471 117.571 C 334.350 118.315,335.349 119.494,336.686 119.004 C 336.896 118.928,337.399 119.169,337.804 119.541 C 339.182 120.805,341.203 120.827,341.935 119.587 C 342.942 117.880,344.497 118.202,345.785 120.383 C 346.405 121.435,348.199 122.395,350.258 122.778 C 351.845 123.073,351.723 122.333,349.963 121.000 C 348.246 119.698,346.929 117.870,347.137 117.076 C 347.498 115.696,344.395 113.012,341.104 111.858 C 340.343 111.591,338.817 110.956,337.714 110.448 L 335.709 109.524 334.328 110.252 C 333.569 110.653,332.718 111.208,332.438 111.486 C 331.879 112.041,331.024 111.289,331.024 110.243 C 331.024 108.761,329.228 108.030,327.561 108.834 M295.873 116.144 C 294.440 117.029,297.005 118.814,299.127 118.408 C 299.557 118.326,300.377 118.429,300.949 118.637 C 302.233 119.103,307.068 119.760,307.455 119.521 C 308.199 119.061,306.607 117.612,305.358 117.612 C 305.194 117.612,304.676 117.328,304.206 116.980 C 303.451 116.422,303.183 116.382,301.911 116.633 C 300.809 116.851,300.330 116.824,299.871 116.519 C 299.067 115.985,296.518 115.746,295.873 116.144 M339.134 123.876 C 338.858 124.565,338.560 125.859,338.472 126.750 C 338.329 128.196,336.754 131.172,336.132 131.172 C 335.654 131.172,331.650 128.098,331.530 127.639 C 331.449 127.331,331.708 126.609,332.113 126.014 C 333.071 124.604,332.863 124.220,330.825 123.627 C 329.409 123.216,328.976 123.195,328.232 123.502 C 327.741 123.704,326.808 124.059,326.159 124.290 C 324.952 124.718,323.655 126.194,323.655 127.137 C 323.655 127.826,323.260 127.760,322.235 126.898 C 321.753 126.492,321.215 126.161,321.039 126.161 C 320.130 126.161,318.415 127.173,317.802 128.071 C 317.420 128.630,316.857 129.168,316.550 129.266 C 316.242 129.363,315.991 129.681,315.991 129.972 C 315.991 130.360,315.815 130.468,315.328 130.378 C 314.785 130.278,314.531 130.512,313.928 131.666 C 313.099 133.251,311.593 134.414,310.369 134.414 C 306.596 134.414,301.976 137.894,302.175 140.586 C 302.218 141.164,302.150 142.896,302.024 144.436 C 301.886 146.123,301.911 147.745,302.088 148.515 C 302.424 149.980,301.925 151.618,300.899 152.422 C 298.886 153.999,301.989 155.202,305.148 154.070 C 306.329 153.647,308.158 153.211,309.211 153.102 C 310.265 152.993,311.734 152.600,312.475 152.229 C 317.706 149.609,322.261 149.990,323.564 153.159 C 324.168 154.629,324.306 154.691,325.129 153.869 C 325.905 153.093,326.434 153.082,326.024 153.849 C 325.856 154.163,325.718 154.561,325.718 154.734 C 325.718 155.179,326.894 155.126,326.914 154.679 C 326.923 154.477,327.094 154.775,327.292 155.343 C 327.552 156.082,327.568 156.609,327.352 157.203 C 326.852 158.572,330.025 160.346,331.417 159.477 C 331.872 159.193,332.088 159.240,332.622 159.742 C 333.449 160.519,333.507 160.514,334.761 159.557 C 335.506 158.989,336.165 158.757,337.062 158.747 C 338.220 158.734,338.415 158.611,339.542 157.185 C 340.215 156.334,340.895 155.637,341.054 155.637 C 341.212 155.637,341.814 154.981,342.391 154.178 C 342.967 153.375,343.697 152.637,344.012 152.537 C 346.012 151.902,348.541 147.610,349.015 144.045 L 349.358 141.471 348.194 139.932 C 347.554 139.086,346.605 137.465,346.085 136.330 C 345.565 135.195,344.732 133.845,344.235 133.330 C 343.446 132.513,343.356 132.258,343.532 131.322 C 343.824 129.766,343.224 127.255,342.368 126.451 C 341.975 126.081,341.446 125.069,341.194 124.201 C 340.604 122.173,339.864 122.056,339.134 123.876 M225.558 125.055 C 225.114 126.259,222.387 128.673,221.168 128.941 C 219.936 129.211,219.467 130.368,219.695 132.574 C 219.851 134.085,219.779 134.392,218.966 135.714 C 218.080 137.154,217.937 139.289,218.608 141.039 C 218.913 141.834,220.387 142.182,221.785 141.791 C 223.229 141.387,223.610 140.763,224.402 137.509 C 224.639 136.536,225.458 134.016,226.223 131.909 C 227.674 127.907,227.791 126.751,226.935 124.872 C 226.461 123.832,225.985 123.896,225.558 125.055 M367.055 156.275 C 367.109 157.718,367.021 158.425,366.779 158.506 C 365.483 158.941,364.480 159.988,364.480 160.908 C 364.480 161.511,364.273 162.025,363.928 162.278 C 363.298 162.740,363.473 163.596,364.196 163.596 C 364.865 163.596,365.755 163.085,367.281 161.825 C 368.010 161.223,369.022 160.518,369.529 160.258 C 370.954 159.529,371.421 157.780,370.103 158.111 C 369.105 158.362,368.120 157.116,368.361 155.909 C 368.545 154.992,368.083 154.164,367.388 154.164 C 367.068 154.164,366.995 154.630,367.055 156.275 M359.617 163.301 C 358.563 164.104,356.573 165.236,355.195 165.816 C 350.757 167.687,349.042 169.068,350.226 169.819 C 350.538 170.016,350.512 170.073,350.111 170.077 C 349.827 170.079,349.595 170.280,349.595 170.523 C 349.595 170.769,349.857 170.965,350.184 170.965 C 350.512 170.965,350.774 170.769,350.774 170.523 C 350.774 170.203,351.103 170.081,351.965 170.081 C 353.365 170.081,355.198 169.218,356.744 167.831 C 357.352 167.285,358.116 166.839,358.441 166.839 C 358.765 166.839,359.306 166.522,359.642 166.136 C 359.978 165.749,360.770 165.200,361.402 164.915 C 362.714 164.323,363.088 163.543,362.546 162.529 C 362.033 161.571,361.814 161.629,359.617 163.301 M65.512 77.139 C 63.617 78.113,64.463 79.118,66.472 78.279 C 68.044 77.622,71.936 79.279,71.695 80.501 C 71.589 81.039,74.750 81.483,76.372 81.159 C 78.173 80.799,77.349 80.069,72.218 77.480 C 70.468 76.597,66.918 76.417,65.512 77.139  " stroke="none" fill="#000000" fill-rule="evenodd"></path></g></svg>