<svg id="svg" xmlns="http://www.w3.org/2000/svg" xmlns:xlink="http://www.w3.org/1999/xlink" width="400" height="400" viewBox="0, 0, 400,400"><g id="svgg"><path id="path0" d="M200.684 25.791 C 126.992 28.453,89.242 90.744,89.249 209.668 C 89.257 339.472,133.849 403.960,217.676 395.396 C 278.921 389.138,313.003 340.348,320.399 248.340 C 322.304 224.640,322.307 194.617,320.406 171.484 C 312.314 72.982,271.435 23.235,200.684 25.791 M207.933 53.228 C 227.834 56.647,238.533 88.186,241.888 153.320 C 243.945 193.257,243.483 249.030,240.811 283.594 C 236.010 345.676,221.727 374.638,199.016 368.344 C 181.303 363.436,171.877 332.014,169.054 268.457 C 166.958 221.285,167.617 161.468,170.614 126.855 C 175.273 73.051,187.133 49.653,207.933 53.228 " stroke="none" fill="#000000" fill-rule="evenodd"></path></g></svg>