<svg id="svg" xmlns="http://www.w3.org/2000/svg" xmlns:xlink="http://www.w3.org/1999/xlink" width="400" height="1183.157894736842" viewBox="0, 0, 400,1183.157894736842"><g id="svgg"><path id="path0" d="M181.053 57.982 C 120.831 81.669,116.252 182.214,174.120 210.228 C 224.592 234.661,287.830 212.760,303.447 165.439 C 327.462 92.674,254.874 28.946,181.053 57.982 M154.386 727.018 C 152.842 728.561,151.579 765.667,151.579 809.474 C 151.579 915.652,136.462 974.190,92.565 1037.992 C 76.782 1060.931,75.367 1058.406,121.802 1090.179 C 160.316 1116.531,159.910 1116.535,185.981 1089.474 C 264.090 1008.396,313.286 847.566,293.021 739.544 L 290.145 724.211 223.669 724.211 C 187.107 724.211,155.930 725.474,154.386 727.018 " stroke="none" fill="#000000" fill-rule="evenodd"></path></g></svg>