<svg id="svg" xmlns="http://www.w3.org/2000/svg" xmlns:xlink="http://www.w3.org/1999/xlink" width="400" height="454.32098765432096" viewBox="0, 0, 400,454.32098765432096"><g id="svgg"><path id="path0" d="M159.154 89.997 C 152.439 98.088,59.259 352.684,59.259 362.940 C 59.259 368.110,64.410 370.370,76.188 370.370 C 93.661 370.370,98.865 362.088,115.753 307.407 C 119.066 296.680,121.263 296.296,179.398 296.296 L 239.612 296.296 252.384 332.099 C 264.426 365.856,266.081 367.992,281.354 369.496 C 307.869 372.105,307.219 368.573,254.711 224.691 L 204.251 86.420 184.414 84.941 C 172.348 84.041,162.454 86.022,159.154 89.997 M204.440 195.966 C 216.936 231.772,227.160 262.328,227.160 263.867 C 227.160 265.407,204.990 266.667,177.892 266.667 L 128.624 266.667 150.820 203.704 C 163.027 169.074,174.139 137.645,175.513 133.861 C 179.151 123.839,179.614 124.834,204.440 195.966 " stroke="none" fill="#000000" fill-rule="evenodd"></path></g></svg>