<svg id="svg" version="1.1" xmlns="http://www.w3.org/2000/svg" xmlns:xlink="http://www.w3.org/1999/xlink" width="400" height="487.3563218390804" viewBox="0, 0, 400,487.3563218390804"><g id="svgg"><path id="path0" d="M55.629 55.834 C 54.435 56.156,53.220 56.618,52.929 56.859 C 52.492 57.222,52.400 91.205,52.400 252.953 L 52.400 448.608 53.251 449.139 C 56.008 450.861,50.615 450.800,200.120 450.800 C 350.155 450.800,346.008 450.849,347.792 449.065 C 348.617 448.240,348.721 406.648,347.900 405.868 C 345.849 403.921,351.059 404.000,224.863 404.000 L 107.658 404.000 106.829 402.946 L 106.000 401.892 106.000 337.484 L 106.000 273.076 107.020 271.738 L 108.041 270.400 214.197 270.400 C 284.536 270.400,320.436 270.265,320.600 270.000 C 320.736 269.780,321.192 269.600,321.613 269.600 C 323.693 269.600,323.792 268.622,323.900 247.000 L 324.001 227.000 322.791 225.087 C 322.126 224.034,321.124 222.999,320.565 222.787 C 319.920 222.541,280.912 222.400,213.836 222.400 C 113.647 222.400,108.093 222.363,107.539 221.700 C 105.982 219.836,106.000 220.512,106.002 162.681 C 106.005 105.497,106.033 104.352,107.502 102.700 C 108.091 102.037,114.018 101.999,220.962 101.976 C 283.023 101.963,334.688 101.807,335.774 101.628 C 339.436 101.027,339.222 102.531,339.103 78.251 L 339.000 57.000 337.400 56.200 C 335.244 55.122,59.595 54.764,55.629 55.834 " stroke="none" fill="
#3d4545" fill-rule="evenodd"></path>
</svg>