<svg id="svg" version="1.1" xmlns="http://www.w3.org/2000/svg" xmlns:xlink="http://www.w3.org/1999/xlink" width="400" height="493.82716049382714" viewBox="0, 0, 400,493.82716049382714"><g id="svgg"><path id="path0" d="M60.100 40.712 L 58.800 41.824 58.800 251.892 L 58.800 461.959 60.138 462.980 L 61.476 464.000 86.564 464.000 C 112.480 464.000,112.531 463.997,114.099 462.363 C 114.760 461.675,114.804 456.487,114.899 367.518 L 115.000 273.400 116.600 272.600 C 118.183 271.808,119.204 271.798,214.600 271.600 C 317.505 271.387,312.759 271.482,314.287 269.600 C 314.992 268.733,314.992 224.885,314.287 223.961 C 312.507 221.628,320.561 221.821,215.200 221.593 C 105.850 221.357,116.215 221.750,115.319 217.805 C 114.735 215.231,114.787 95.582,115.374 92.761 C 115.655 91.408,115.833 91.270,118.337 90.455 L 121.000 89.588 232.187 89.594 L 343.375 89.600 344.287 88.538 L 345.200 87.476 345.200 64.538 L 345.200 41.600 344.300 40.700 L 343.400 39.800 202.400 39.700 L 61.400 39.599 60.100 40.712 " stroke="none" fill="#3c4444" fill-rule="evenodd"></path>
</svg>