<svg id="svg" version="1.1" xmlns="http://www.w3.org/2000/svg" xmlns:xlink="http://www.w3.org/1999/xlink" width="400" height="426.9230769230769" viewBox="0, 0, 400,426.9230769230769"><g id="svgg"><path id="path0" d="M198.600 45.815 C 185.329 46.375,181.437 46.792,176.400 48.193 C 174.530 48.713,172.100 49.252,171.000 49.391 C 166.142 50.004,161.667 51.014,160.069 51.857 C 158.291 52.794,155.175 53.698,152.000 54.196 C 151.010 54.352,149.120 54.991,147.800 55.617 C 146.480 56.242,144.055 57.211,142.410 57.768 C 140.766 58.326,138.966 59.104,138.410 59.497 C 137.061 60.451,135.834 61.023,133.200 61.925 C 131.990 62.340,130.110 63.246,129.022 63.939 C 127.934 64.633,126.836 65.200,126.583 65.200 C 125.846 65.200,123.483 66.479,122.445 67.440 C 121.920 67.926,120.566 68.777,119.436 69.330 C 118.307 69.883,117.027 70.730,116.591 71.211 C 116.156 71.693,114.778 72.604,113.529 73.235 C 112.280 73.866,111.144 74.567,111.004 74.793 C 110.865 75.019,109.679 75.931,108.370 76.820 C 107.061 77.709,105.386 79.013,104.647 79.718 C 103.115 81.180,99.029 84.862,96.465 87.092 C 94.785 88.552,93.202 90.105,90.850 92.600 C 90.228 93.260,89.265 94.520,88.709 95.400 C 88.154 96.280,87.215 97.518,86.622 98.151 C 86.029 98.784,85.092 99.985,84.539 100.820 C 83.986 101.656,82.829 103.081,81.967 103.987 C 81.105 104.892,80.400 105.864,80.400 106.145 C 80.400 106.426,79.893 107.224,79.273 107.918 C 78.653 108.613,77.708 110.130,77.173 111.290 C 76.638 112.451,75.795 113.848,75.300 114.396 C 74.805 114.943,74.120 116.023,73.778 116.796 C 72.789 119.029,71.947 120.453,71.135 121.265 C 70.368 122.032,68.400 125.997,68.400 126.774 C 68.400 127.008,68.252 127.200,68.071 127.200 C 67.513 127.200,65.571 131.603,65.022 134.111 C 64.889 134.722,64.271 136.072,63.650 137.111 C 63.028 138.150,62.209 140.080,61.829 141.400 C 61.073 144.028,60.557 145.278,59.600 146.800 C 58.758 148.139,58.129 150.174,57.809 152.600 C 57.469 155.180,56.614 158.106,55.569 160.265 C 55.112 161.208,54.482 163.379,54.168 165.089 C 53.380 169.377,52.612 172.864,51.675 176.400 C 51.238 178.050,50.764 180.660,50.621 182.200 C 50.478 183.740,50.189 186.170,49.977 187.600 C 49.766 189.030,49.422 192.450,49.212 195.200 C 49.003 197.950,48.535 203.890,48.172 208.400 C 47.417 217.797,47.547 220.923,49.602 242.800 C 50.417 251.483,50.908 255.086,51.672 258.000 C 52.927 262.787,53.581 265.627,54.019 268.200 C 54.385 270.342,54.717 271.340,56.018 274.200 C 56.755 275.820,57.549 278.654,57.811 280.600 C 57.959 281.700,58.770 284.040,59.613 285.800 C 60.456 287.560,61.442 289.979,61.806 291.176 C 62.169 292.372,62.981 294.100,63.610 295.014 C 64.239 295.929,64.871 297.200,65.014 297.839 C 65.300 299.109,66.180 301.343,66.892 302.600 C 67.141 303.040,68.125 304.930,69.079 306.800 C 70.033 308.670,71.056 310.382,71.354 310.605 C 71.831 310.963,73.600 314.405,73.600 314.975 C 73.600 315.166,74.535 316.346,75.802 317.753 C 76.024 317.999,76.701 319.228,77.307 320.485 C 77.913 321.741,78.857 323.252,79.405 323.843 C 79.952 324.434,80.400 325.092,80.400 325.305 C 80.400 325.519,81.111 326.438,81.980 327.347 C 84.574 330.061,87.761 333.651,88.377 334.554 C 88.694 335.019,89.908 336.379,91.074 337.576 C 92.240 338.773,93.295 340.069,93.418 340.456 C 93.540 340.843,93.952 341.258,94.332 341.378 C 94.712 341.499,95.951 342.453,97.086 343.499 C 100.958 347.065,104.114 349.799,105.358 350.663 C 106.041 351.137,106.940 351.992,107.356 352.563 C 107.772 353.133,108.357 353.600,108.656 353.600 C 108.955 353.600,109.200 353.760,109.200 353.957 C 109.200 354.153,109.619 354.418,110.131 354.547 C 110.643 354.676,111.506 355.190,112.048 355.690 C 112.591 356.191,114.073 357.106,115.341 357.724 C 116.610 358.342,117.989 359.189,118.406 359.606 C 118.822 360.022,120.027 360.751,121.082 361.226 C 122.137 361.700,123.900 362.758,125.000 363.578 C 126.100 364.398,127.900 365.396,129.000 365.796 C 130.100 366.196,131.757 367.039,132.681 367.668 C 133.606 368.297,134.948 368.930,135.664 369.073 C 136.379 369.216,137.423 369.572,137.982 369.864 C 138.542 370.156,139.225 370.396,139.500 370.398 C 139.775 370.399,140.000 370.539,140.000 370.709 C 140.000 371.143,142.234 372.261,144.600 373.011 C 145.700 373.360,147.860 374.250,149.400 374.989 C 151.072 375.792,153.731 376.618,156.000 377.039 C 158.090 377.427,160.586 378.158,161.546 378.665 C 163.502 379.697,166.822 380.577,171.000 381.171 C 172.540 381.390,174.970 381.852,176.400 382.196 C 185.534 384.396,186.873 384.540,208.400 385.629 C 221.837 386.308,251.732 384.458,253.795 382.819 C 254.481 382.273,258.447 381.263,261.600 380.830 C 266.092 380.214,267.972 379.755,270.400 378.678 C 271.610 378.142,273.230 377.580,274.000 377.429 C 278.136 376.618,280.851 375.818,283.032 374.769 C 284.369 374.126,285.732 373.600,286.060 373.600 C 287.612 373.600,293.200 371.337,293.200 370.709 C 293.200 370.539,293.425 370.399,293.700 370.398 C 293.975 370.396,294.667 370.152,295.237 369.854 C 295.808 369.556,296.891 369.197,297.645 369.055 C 298.399 368.914,300.242 368.082,301.741 367.206 C 303.240 366.330,305.131 365.434,305.942 365.216 C 306.754 364.997,308.170 364.265,309.089 363.589 C 310.008 362.913,311.850 361.917,313.181 361.376 C 314.513 360.835,316.041 360.011,316.577 359.545 C 317.113 359.079,318.598 358.233,319.876 357.665 C 321.154 357.097,322.560 356.265,323.000 355.816 C 323.440 355.366,324.587 354.647,325.549 354.216 C 326.511 353.786,327.951 352.846,328.749 352.126 C 329.547 351.406,330.936 350.466,331.836 350.037 C 332.736 349.607,333.996 348.819,334.636 348.284 C 335.276 347.750,336.421 346.994,337.180 346.604 C 337.940 346.215,338.823 345.634,339.144 345.313 C 340.220 344.238,343.868 341.600,344.280 341.600 C 344.505 341.600,345.356 340.970,346.173 340.200 C 346.989 339.430,347.882 338.800,348.156 338.800 C 348.941 338.800,351.964 336.041,353.032 334.349 L 354.000 332.816 354.000 273.083 C 354.000 213.399,353.999 213.350,353.179 212.470 L 352.358 211.589 284.079 211.694 C 217.455 211.797,215.764 211.819,214.300 212.574 L 212.800 213.348 212.800 230.816 L 212.800 248.283 213.785 249.346 C 215.532 251.231,214.737 251.200,261.365 251.200 C 309.850 251.200,307.075 251.075,309.358 253.358 C 310.196 254.196,310.201 254.334,310.308 282.723 C 310.426 313.911,310.491 312.957,308.125 314.666 C 307.566 315.070,306.365 316.081,305.455 316.914 C 304.545 317.747,302.799 318.947,301.576 319.582 C 300.353 320.216,299.119 321.015,298.835 321.358 C 298.551 321.701,297.167 322.525,295.760 323.189 C 294.353 323.854,292.883 324.714,292.493 325.099 C 292.103 325.485,290.707 326.236,289.392 326.770 C 288.076 327.303,286.460 328.132,285.800 328.613 C 284.204 329.774,282.300 330.672,280.704 331.015 C 279.987 331.169,278.638 331.806,277.707 332.429 C 276.107 333.501,272.950 334.791,271.886 334.807 C 271.619 334.812,270.145 335.451,268.612 336.228 C 267.079 337.004,264.398 338.010,262.655 338.462 C 260.912 338.913,258.662 339.721,257.655 340.257 C 255.832 341.226,252.410 342.114,248.600 342.606 C 246.534 342.873,243.084 343.803,241.959 344.396 C 241.606 344.581,240.436 344.849,239.359 344.990 C 238.281 345.130,236.590 345.422,235.600 345.638 C 227.323 347.441,195.206 346.475,188.200 344.212 C 187.320 343.928,184.890 343.396,182.800 343.029 C 176.514 341.926,173.832 341.258,171.447 340.204 C 170.199 339.652,168.936 339.200,168.641 339.200 C 167.570 339.200,163.238 337.634,161.737 336.705 C 159.704 335.446,157.418 334.400,156.701 334.400 C 155.952 334.400,153.725 333.301,152.200 332.179 C 151.540 331.694,150.102 330.906,149.005 330.429 C 147.908 329.951,146.648 329.225,146.205 328.815 C 145.762 328.405,144.230 327.535,142.800 326.882 C 141.370 326.229,139.840 325.295,139.400 324.806 C 138.961 324.317,137.851 323.478,136.935 322.941 C 136.018 322.404,135.007 321.566,134.688 321.079 C 134.369 320.591,133.589 319.925,132.954 319.598 C 131.120 318.651,124.435 312.284,122.668 309.800 C 122.198 309.140,121.350 308.150,120.783 307.600 C 120.215 307.050,119.420 305.835,119.015 304.900 C 118.610 303.965,118.171 303.199,118.039 303.197 C 117.908 303.196,117.350 302.521,116.800 301.697 C 115.659 299.988,115.498 299.772,114.345 298.400 C 113.080 296.894,111.754 294.722,111.413 293.600 C 111.247 293.050,110.699 292.150,110.196 291.600 C 109.156 290.462,107.600 287.657,107.600 286.919 C 107.600 286.375,106.339 283.516,105.960 283.200 C 105.475 282.796,104.741 281.114,103.731 278.094 C 103.161 276.392,102.562 274.910,102.399 274.800 C 101.937 274.488,100.400 270.923,100.400 270.162 C 100.400 268.555,99.029 262.912,98.162 260.952 C 97.186 258.746,96.233 253.407,95.798 247.709 C 95.660 245.898,95.181 242.748,94.734 240.709 C 92.671 231.285,92.100 197.216,93.925 192.393 C 94.494 190.887,95.553 185.038,95.987 181.000 C 96.532 175.935,97.099 173.310,98.148 171.000 C 98.648 169.900,99.467 167.020,99.970 164.600 C 100.472 162.180,101.309 159.390,101.830 158.400 C 102.806 156.544,103.739 153.915,104.178 151.781 C 104.315 151.110,104.881 150.073,105.435 149.475 C 106.052 148.810,106.750 147.216,107.236 145.357 C 107.932 142.703,108.847 140.647,109.621 140.000 C 110.049 139.643,111.109 137.445,111.808 135.467 C 112.184 134.404,112.991 133.023,113.602 132.398 C 114.213 131.772,115.122 130.443,115.621 129.444 C 116.120 128.444,117.040 127.137,117.664 126.538 C 118.289 125.940,118.800 125.233,118.800 124.968 C 118.800 124.703,119.575 123.612,120.522 122.543 C 121.470 121.474,122.680 119.970,123.213 119.200 C 124.700 117.050,131.626 110.396,135.687 107.214 C 136.284 106.746,137.514 105.651,138.419 104.781 C 139.325 103.912,140.214 103.200,140.395 103.200 C 140.576 103.200,141.478 102.570,142.400 101.800 C 143.322 101.030,144.295 100.400,144.563 100.400 C 145.299 100.400,148.095 98.963,149.000 98.119 C 149.440 97.709,150.700 97.040,151.800 96.632 C 152.900 96.224,154.852 95.198,156.138 94.351 C 157.423 93.504,159.223 92.616,160.138 92.377 C 161.052 92.139,163.060 91.338,164.600 90.597 C 166.140 89.855,168.480 89.059,169.800 88.827 C 174.618 87.981,175.966 87.618,178.062 86.605 C 180.530 85.411,185.379 84.626,194.000 84.023 C 199.970 83.606,208.566 82.592,209.140 82.237 C 209.318 82.127,210.349 82.304,211.432 82.630 C 212.946 83.086,213.834 83.130,215.284 82.819 C 216.689 82.518,218.215 82.571,221.284 83.029 C 223.548 83.367,228.370 83.898,232.000 84.210 C 239.971 84.896,242.139 85.312,244.629 86.636 C 246.447 87.602,247.353 87.857,252.400 88.818 C 253.610 89.049,255.680 89.756,257.000 90.389 C 258.320 91.023,260.653 92.010,262.183 92.584 C 263.714 93.158,265.257 93.890,265.612 94.211 C 265.967 94.532,267.505 95.407,269.029 96.156 C 270.553 96.905,272.171 97.871,272.625 98.304 C 273.079 98.737,274.159 99.422,275.025 99.826 C 278.825 101.600,290.050 112.694,292.754 117.348 C 293.282 118.257,294.138 119.460,294.657 120.022 C 295.176 120.584,295.606 121.214,295.613 121.422 C 295.631 121.985,297.272 125.176,298.482 127.000 C 299.065 127.880,299.858 129.590,300.244 130.800 C 300.630 132.010,301.435 133.810,302.033 134.800 C 303.051 136.485,304.400 139.923,304.400 140.833 C 304.400 141.056,304.773 141.995,305.228 142.919 C 306.605 145.714,307.514 148.494,307.716 150.527 C 308.092 154.302,310.457 154.809,315.600 152.215 C 318.015 150.996,321.245 150.134,324.400 149.866 C 326.718 149.668,328.223 149.200,330.505 147.968 C 332.020 147.150,334.717 146.439,337.200 146.203 C 343.912 145.567,348.853 142.252,347.420 139.348 C 347.109 138.717,346.550 136.685,346.178 134.834 C 345.805 132.983,345.014 130.553,344.419 129.434 C 343.823 128.315,343.107 126.590,342.827 125.600 C 341.910 122.362,341.093 120.217,340.388 119.200 C 339.664 118.155,338.400 114.753,338.400 113.847 C 338.400 113.055,337.137 110.644,336.532 110.280 C 336.240 110.104,336.000 109.699,336.000 109.380 C 336.000 109.061,335.857 108.800,335.683 108.800 C 335.508 108.800,335.026 107.801,334.611 106.581 C 334.196 105.360,333.423 103.785,332.893 103.081 C 332.362 102.376,331.478 100.832,330.929 99.648 C 330.379 98.464,329.540 97.114,329.064 96.648 C 328.589 96.182,327.847 95.080,327.415 94.200 C 326.983 93.320,325.903 91.771,325.015 90.758 C 324.127 89.746,323.078 88.486,322.685 87.958 C 321.842 86.829,313.393 78.235,311.741 76.828 C 305.450 71.467,302.778 69.388,301.411 68.792 C 300.525 68.404,299.440 67.753,299.000 67.344 C 298.560 66.935,297.300 66.170,296.200 65.644 C 295.100 65.118,293.586 64.231,292.834 63.673 C 292.083 63.116,290.198 62.142,288.644 61.510 C 287.090 60.877,285.545 60.119,285.209 59.825 C 284.607 59.296,282.315 58.222,279.600 57.198 C 278.830 56.908,277.117 56.175,275.793 55.571 C 274.469 54.966,272.669 54.350,271.793 54.202 C 269.589 53.830,266.557 52.841,264.408 51.793 C 263.293 51.249,260.376 50.566,256.800 50.012 C 253.610 49.519,249.720 48.699,248.155 48.192 C 241.355 45.987,219.436 44.935,198.600 45.815 " stroke="none" fill="#3e4646" fill-rule="evenodd"></path></svg>