<svg id="svg" xmlns="http://www.w3.org/2000/svg" xmlns:xlink="http://www.w3.org/1999/xlink" width="400" height="843.010752688172" viewBox="0, 0, 400,843.010752688172"><g id="svgg"><path id="path0" d="M116.129 134.074 C 116.129 174.697,115.498 218.245,114.727 230.848 L 113.325 253.763 136.232 253.763 L 159.140 253.763 159.170 247.849 C 159.187 244.597,161.601 214.355,164.535 180.645 C 167.468 146.935,169.874 106.048,169.881 89.785 L 169.892 60.215 143.011 60.215 L 116.129 60.215 116.129 134.074 M221.505 156.989 L 221.505 253.763 242.856 253.763 L 264.207 253.763 265.492 242.473 C 269.611 206.313,277.419 101.657,277.419 82.623 L 277.419 60.215 249.462 60.215 L 221.505 60.215 221.505 156.989 " stroke="none" fill="#000000" fill-rule="evenodd"></path></g></svg>