<svg id="svg" version="1.1" xmlns="http://www.w3.org/2000/svg" xmlns:xlink="http://www.w3.org/1999/xlink" width="400" height="546.236559139785" viewBox="0, 0, 400,546.236559139785"><g id="svgg"><path id="path0" d="M125.600 121.097 C 124.830 121.471,123.975 121.994,123.699 122.260 C 123.300 122.646,123.219 153.621,123.299 275.459 L 123.400 428.175 125.000 429.081 C 127.524 430.510,155.921 430.513,158.041 429.084 L 159.400 428.168 159.600 350.584 C 159.720 303.903,159.949 272.681,160.173 272.200 C 160.552 271.387,162.020 269.164,162.419 268.800 C 162.539 268.690,163.133 267.574,163.738 266.321 C 164.343 265.067,165.460 263.420,166.219 262.661 C 166.979 261.901,167.600 261.082,167.600 260.840 C 167.600 260.598,168.545 259.395,169.700 258.166 C 170.855 256.937,172.340 255.321,173.000 254.574 C 173.660 253.827,174.356 253.212,174.546 253.208 C 174.737 253.204,175.547 252.499,176.346 251.643 C 177.146 250.786,178.340 249.810,179.000 249.474 C 179.660 249.137,180.769 248.263,181.464 247.531 C 182.160 246.799,183.780 245.765,185.064 245.234 C 186.349 244.703,187.940 243.876,188.600 243.397 C 190.597 241.946,191.387 241.639,194.863 240.964 C 196.698 240.607,199.730 239.813,201.600 239.199 C 209.827 236.497,219.405 236.527,226.800 239.278 C 228.230 239.809,230.750 240.488,232.400 240.787 C 235.721 241.387,236.821 241.848,239.548 243.787 C 240.566 244.511,241.793 245.223,242.273 245.370 C 243.608 245.778,248.958 251.333,249.787 253.172 C 250.191 254.067,250.674 254.800,250.861 254.800 C 251.047 254.800,251.200 255.055,251.200 255.367 C 251.200 255.678,251.335 255.993,251.500 256.067 C 251.953 256.268,253.443 259.564,254.001 261.600 C 254.272 262.590,254.592 263.670,254.712 264.000 C 257.889 272.743,257.714 267.865,257.879 352.090 L 258.027 427.980 259.351 428.990 L 260.676 430.000 275.783 430.000 C 290.587 430.000,290.922 429.982,292.450 429.124 L 294.008 428.248 293.854 353.424 C 293.669 264.001,293.681 264.303,289.853 252.800 C 289.303 251.150,288.447 248.450,287.950 246.800 C 287.453 245.150,286.760 243.350,286.409 242.800 C 285.678 241.653,285.228 240.674,284.034 237.626 C 283.566 236.430,282.502 234.540,281.671 233.426 C 280.840 232.312,279.905 230.889,279.593 230.265 C 278.841 228.757,270.073 220.004,268.354 219.045 C 267.609 218.630,266.370 217.715,265.600 217.013 C 264.830 216.310,263.390 215.493,262.400 215.197 C 260.110 214.511,258.839 213.885,257.671 212.866 C 256.612 211.943,253.865 211.084,249.800 210.406 C 246.956 209.932,245.593 209.542,243.350 208.558 C 237.212 205.866,213.597 205.817,207.600 208.484 C 205.216 209.544,203.901 209.923,201.000 210.389 C 196.182 211.164,194.767 211.585,193.058 212.753 C 192.146 213.377,190.680 214.117,189.800 214.399 C 186.265 215.531,185.724 215.784,183.800 217.199 C 182.700 218.008,181.150 218.966,180.357 219.327 C 179.563 219.688,178.186 220.690,177.297 221.552 C 176.408 222.415,175.298 223.242,174.829 223.391 C 174.360 223.540,173.113 224.502,172.058 225.531 C 171.002 226.559,169.613 227.850,168.969 228.400 C 168.326 228.950,167.350 229.983,166.800 230.696 C 166.250 231.409,165.597 231.994,165.348 231.996 C 165.100 231.998,164.135 232.739,163.205 233.642 C 161.801 235.004,161.427 235.192,161.009 234.742 C 159.628 233.256,159.600 232.110,159.600 177.087 L 159.600 122.693 158.565 121.804 C 156.726 120.224,128.643 119.621,125.600 121.097 " stroke="none" fill="#262626" fill-rule="evenodd"></path>
</g></svg>