<svg id="svg" version="1.1" xmlns="http://www.w3.org/2000/svg" xmlns:xlink="http://www.w3.org/1999/xlink" width="400" height="572.0430107526881" viewBox="0, 0, 400,572.0430107526881"><g id="svgg"><path id="path0" d="M214.392 139.342 C 213.617 139.594,212.357 140.271,211.592 140.847 C 210.826 141.424,209.660 142.022,209.000 142.178 C 207.700 142.485,203.302 146.742,202.561 148.411 C 202.319 148.955,201.599 150.480,200.961 151.800 C 199.202 155.435,199.017 163.271,200.608 166.694 C 203.800 173.562,204.173 174.032,208.110 176.160 C 209.601 176.966,211.170 177.924,211.597 178.290 C 214.342 180.640,225.393 180.578,228.164 178.197 C 228.786 177.662,229.814 176.995,230.448 176.715 C 231.082 176.434,231.600 176.097,231.600 175.966 C 231.600 175.835,232.281 175.503,233.113 175.229 C 234.456 174.785,234.824 174.343,236.408 171.265 C 237.389 169.359,238.418 167.562,238.695 167.272 C 240.711 165.159,240.196 154.034,237.930 150.738 C 237.529 150.154,237.200 149.477,237.200 149.232 C 237.200 147.625,233.552 143.596,231.100 142.494 C 230.495 142.222,229.505 141.776,228.900 141.503 C 228.295 141.229,227.530 140.719,227.200 140.370 C 225.829 138.916,217.705 138.264,214.392 139.342 M206.026 220.454 C 204.830 220.652,203.750 220.916,203.626 221.041 C 203.502 221.165,203.297 277.907,203.171 347.133 C 202.920 484.901,203.065 477.452,200.571 480.400 C 200.292 480.730,199.574 481.990,198.976 483.200 C 197.526 486.134,193.471 490.063,191.156 490.775 C 187.182 491.999,186.520 492.261,184.754 493.313 C 183.143 494.273,182.340 494.445,178.432 494.669 C 172.271 495.021,172.672 493.917,172.859 509.997 C 173.043 525.820,171.819 524.131,182.906 523.863 C 192.664 523.627,195.021 523.321,197.800 521.926 C 199.697 520.974,200.815 520.677,206.697 519.564 C 208.463 519.230,209.537 518.765,210.364 517.974 C 211.008 517.359,212.764 516.268,214.267 515.550 C 215.906 514.766,217.595 513.575,218.486 512.576 C 219.304 511.659,220.519 510.682,221.186 510.406 C 221.854 510.129,222.400 509.663,222.400 509.370 C 222.400 509.077,223.330 507.849,224.467 506.642 C 225.603 505.434,227.148 503.311,227.898 501.923 C 228.649 500.535,229.594 499.040,229.999 498.600 C 230.652 497.890,231.329 496.025,232.900 490.600 C 233.154 489.720,233.657 488.460,234.017 487.800 C 235.042 485.920,235.556 482.968,236.386 474.200 C 236.834 469.471,236.939 222.006,236.494 221.400 C 235.540 220.102,234.396 220.000,221.305 220.047 C 214.097 220.072,207.222 220.256,206.026 220.454 " stroke="none" fill="#272727" fill-rule="evenodd"></path></g></svg>