<svg id="svg" version="1.1" xmlns="http://www.w3.org/2000/svg" xmlns:xlink="http://www.w3.org/1999/xlink" width="400" height="468" viewBox="0, 0, 400,468"><g id="svgg"><path id="path0" d="M133.500 101.357 C 132.346 102.233,132.419 386.168,133.574 386.786 C 134.816 387.451,162.011 387.318,162.900 386.643 C 163.557 386.144,163.600 383.995,163.600 351.505 C 163.600 311.732,163.184 315.659,167.905 310.845 C 169.607 309.110,172.260 306.305,173.800 304.612 C 175.340 302.920,176.824 301.325,177.098 301.068 C 177.372 300.810,178.201 300.031,178.941 299.336 C 179.682 298.640,180.386 297.814,180.507 297.499 C 180.627 297.184,181.702 296.279,182.894 295.488 C 184.086 294.697,185.292 293.771,185.575 293.430 C 186.037 292.873,186.198 292.885,187.145 293.552 C 187.725 293.961,188.650 294.429,189.200 294.592 C 190.504 294.980,192.400 296.768,192.400 297.610 C 192.400 297.973,193.191 299.011,194.158 299.917 C 195.125 300.824,196.415 302.622,197.025 303.913 C 197.652 305.243,198.582 306.520,199.167 306.857 C 199.735 307.184,200.560 308.149,201.000 309.002 C 201.440 309.855,202.385 311.077,203.100 311.718 C 203.815 312.359,204.400 313.195,204.400 313.576 C 204.400 313.958,205.191 315.011,206.158 315.917 C 207.125 316.824,208.415 318.622,209.025 319.913 C 209.652 321.243,210.582 322.520,211.167 322.857 C 211.735 323.184,212.560 324.149,213.000 325.002 C 213.440 325.855,214.385 327.077,215.100 327.718 C 215.815 328.359,216.400 329.195,216.400 329.576 C 216.400 329.958,217.191 331.011,218.158 331.917 C 219.125 332.824,220.424 334.642,221.046 335.958 C 221.689 337.321,222.562 338.528,223.074 338.761 C 223.567 338.986,224.414 340.032,224.955 341.085 C 225.496 342.138,226.492 343.448,227.169 343.996 C 227.846 344.543,228.403 345.263,228.407 345.596 C 228.411 345.928,229.328 347.183,230.445 348.384 C 231.562 349.585,232.846 351.413,233.297 352.446 C 233.756 353.497,234.525 354.511,235.044 354.747 C 235.554 354.980,236.414 356.032,236.955 357.085 C 237.496 358.138,238.492 359.448,239.169 359.996 C 239.846 360.543,240.403 361.263,240.407 361.596 C 240.411 361.928,241.328 363.183,242.445 364.384 C 243.562 365.585,244.846 367.413,245.297 368.446 C 245.756 369.497,246.525 370.511,247.044 370.747 C 247.554 370.980,248.414 372.032,248.955 373.085 C 249.496 374.138,250.492 375.448,251.169 375.996 C 251.846 376.543,252.404 377.263,252.409 377.596 C 252.414 377.928,253.400 379.264,254.601 380.564 C 255.801 381.865,257.076 383.697,257.435 384.635 C 258.385 387.123,259.941 387.308,278.505 387.137 C 295.593 386.980,295.565 386.985,293.201 384.450 C 292.320 383.506,291.600 382.517,291.600 382.254 C 291.600 381.990,290.745 380.878,289.699 379.782 C 288.654 378.686,287.462 376.972,287.050 375.974 C 286.594 374.869,285.843 373.895,285.132 373.487 C 284.404 373.069,283.661 372.090,283.164 370.895 C 282.725 369.839,281.979 368.801,281.507 368.588 C 281.034 368.374,280.271 367.446,279.812 366.525 C 279.352 365.603,278.244 364.068,277.349 363.113 C 276.454 362.158,275.384 360.666,274.973 359.799 C 274.561 358.931,273.646 357.714,272.940 357.094 C 272.234 356.474,271.548 355.472,271.415 354.868 C 271.282 354.264,270.700 353.417,270.121 352.985 C 269.543 352.553,268.446 351.210,267.683 350.000 C 266.921 348.790,265.715 347.170,265.004 346.400 C 264.292 345.630,263.370 344.381,262.955 343.624 C 262.540 342.867,261.628 341.735,260.928 341.107 C 260.229 340.480,259.540 339.436,259.398 338.789 C 259.255 338.141,258.613 337.237,257.971 336.779 C 257.329 336.322,256.325 335.132,255.741 334.136 C 255.157 333.140,253.878 331.396,252.898 330.262 C 251.918 329.128,250.942 327.717,250.728 327.126 C 250.515 326.536,249.902 325.766,249.367 325.415 C 248.831 325.064,248.009 323.960,247.539 322.960 C 247.070 321.961,246.251 320.859,245.720 320.511 C 245.188 320.163,244.416 319.230,244.002 318.439 C 243.589 317.648,242.429 316.011,241.424 314.801 C 240.420 313.592,239.305 311.986,238.947 311.232 C 238.589 310.478,237.797 309.441,237.187 308.928 C 236.577 308.414,235.724 307.321,235.292 306.497 C 234.860 305.674,234.034 304.460,233.456 303.800 C 230.498 300.420,227.810 296.826,227.163 295.385 C 226.765 294.497,225.810 293.247,225.043 292.608 C 224.275 291.968,223.540 291.017,223.409 290.494 C 223.278 289.972,222.682 289.062,222.085 288.472 C 221.488 287.883,220.654 286.865,220.232 286.210 C 219.303 284.771,218.979 284.362,217.272 282.471 C 216.542 281.662,215.593 280.237,215.164 279.304 C 214.735 278.371,213.966 277.334,213.456 277.000 C 212.946 276.666,212.009 275.398,211.373 274.182 C 210.737 272.966,209.808 271.704,209.308 271.377 C 208.157 270.622,208.162 269.949,209.333 268.531 C 209.846 267.909,210.611 266.770,211.033 266.000 C 211.853 264.503,213.422 262.800,213.981 262.800 C 214.168 262.800,214.666 262.137,215.087 261.326 C 215.531 260.469,216.469 259.531,217.326 259.087 C 218.173 258.647,218.800 258.023,218.800 257.620 C 218.800 256.751,220.993 254.400,221.803 254.400 C 222.132 254.400,222.400 254.075,222.400 253.678 C 222.400 252.775,224.804 250.400,225.719 250.400 C 226.096 250.400,226.406 250.088,226.413 249.700 C 226.431 248.698,228.933 245.835,238.300 236.096 C 239.455 234.896,240.400 233.835,240.400 233.739 C 240.400 233.644,241.927 231.998,243.792 230.083 C 250.631 223.062,251.457 222.175,252.347 220.900 C 252.846 220.185,253.479 219.600,253.754 219.600 C 254.028 219.600,254.651 218.892,255.137 218.026 C 255.624 217.160,256.642 216.068,257.400 215.600 C 258.158 215.132,259.160 214.069,259.627 213.238 C 260.093 212.408,260.998 211.419,261.638 211.041 C 262.277 210.664,262.800 210.191,262.800 209.991 C 262.800 209.377,265.249 206.800,265.833 206.800 C 266.136 206.800,266.759 206.065,267.217 205.167 C 267.675 204.269,268.579 203.234,269.226 202.867 C 269.873 202.500,270.497 201.906,270.613 201.547 C 270.931 200.563,273.124 198.400,273.803 198.400 C 274.132 198.400,274.400 198.106,274.400 197.746 C 274.400 197.387,275.480 196.032,276.800 194.737 C 278.120 193.441,279.200 192.229,279.200 192.042 C 279.200 191.553,284.419 186.406,284.952 186.370 C 285.198 186.354,284.680 186.007,283.800 185.600 C 282.332 184.920,280.897 184.857,266.361 184.830 C 247.460 184.794,249.119 184.370,243.584 190.648 C 243.025 191.282,242.125 192.191,241.584 192.669 C 241.043 193.148,239.700 194.552,238.600 195.789 C 237.500 197.027,235.475 199.193,234.100 200.602 C 232.725 202.011,231.600 203.322,231.600 203.514 C 231.600 203.707,231.124 204.119,230.543 204.430 C 229.962 204.742,229.055 205.679,228.528 206.513 C 228.002 207.348,227.157 208.219,226.651 208.449 C 226.146 208.680,225.398 209.438,224.989 210.134 C 224.082 211.677,223.647 212.133,222.486 212.754 C 221.992 213.018,221.134 213.954,220.580 214.832 C 220.025 215.711,219.113 216.639,218.553 216.894 C 217.994 217.149,217.192 218.031,216.773 218.853 C 216.353 219.676,215.478 220.663,214.829 221.046 C 214.180 221.430,213.341 222.315,212.965 223.013 C 212.589 223.711,211.702 224.594,210.993 224.976 C 210.284 225.358,209.365 226.313,208.952 227.099 C 208.538 227.885,207.638 228.814,206.953 229.164 C 206.268 229.513,205.475 230.340,205.192 231.000 C 204.656 232.250,203.691 233.364,202.906 233.639 C 202.654 233.728,202.026 234.430,201.509 235.200 C 200.993 235.970,199.998 236.960,199.298 237.400 C 198.598 237.840,197.916 238.521,197.782 238.914 C 197.647 239.307,196.606 240.593,195.469 241.772 C 187.346 250.191,185.668 251.992,184.636 253.406 C 183.996 254.283,182.983 255.450,182.384 256.000 C 181.786 256.550,180.831 257.751,180.263 258.668 C 179.695 259.586,178.880 260.448,178.452 260.584 C 178.024 260.719,177.303 261.620,176.849 262.586 C 176.395 263.551,175.486 264.658,174.829 265.047 C 174.172 265.435,173.426 266.254,173.173 266.866 C 172.626 268.186,171.462 269.600,170.923 269.600 C 170.712 269.600,170.103 270.073,169.570 270.652 C 168.463 271.852,166.296 272.889,165.522 272.590 C 163.486 271.801,163.600 276.929,163.600 186.056 C 163.600 102.514,163.597 102.175,162.795 101.489 C 161.722 100.570,134.697 100.448,133.500 101.357 " stroke="none" fill="#242425" fill-rule="evenodd"></path></g></svg>