<svg id="svg" version="1.1" xmlns="http://www.w3.org/2000/svg" xmlns:xlink="http://www.w3.org/1999/xlink" width="400" height="317.2413793103448" viewBox="0, 0, 400,317.2413793103448"><g id="svgg"><path id="path1" d="M0.000 158.730 L 0.000 317.460 200.000 317.460 L 400.000 317.460 400.000 158.730 L 400.000 0.000 200.000 0.000 L 0.000 0.000 0.000 158.730 M193.957 116.512 C 195.086 116.704,196.175 116.998,196.377 117.166 C 196.873 117.577,199.486 118.318,201.423 118.597 C 203.211 118.854,204.628 119.391,206.308 120.448 C 206.942 120.846,208.008 121.352,208.678 121.572 C 209.348 121.792,210.348 122.366,210.900 122.847 C 211.453 123.328,212.398 123.974,213.000 124.283 C 214.955 125.284,219.400 130.186,222.108 134.325 C 224.713 138.308,224.872 138.343,227.535 135.524 C 228.367 134.642,229.655 133.294,230.397 132.528 C 231.139 131.762,231.746 131.020,231.746 130.880 C 231.746 130.741,232.314 130.275,233.009 129.845 C 233.704 129.416,234.337 128.895,234.417 128.687 C 234.620 128.158,239.289 124.719,240.650 124.096 C 241.270 123.812,242.164 123.222,242.637 122.783 C 243.110 122.345,244.175 121.803,245.003 121.579 C 245.831 121.356,247.300 120.692,248.268 120.105 C 249.605 119.295,250.736 118.923,252.971 118.562 C 254.590 118.300,256.776 117.723,257.829 117.280 C 261.980 115.533,277.719 115.540,281.879 117.291 C 282.857 117.702,284.870 118.217,286.352 118.434 C 287.835 118.652,289.183 118.950,289.349 119.097 C 289.515 119.245,289.887 119.365,290.175 119.365 C 290.463 119.365,291.260 119.772,291.946 120.269 C 292.632 120.766,293.922 121.414,294.813 121.710 C 295.704 122.006,296.700 122.543,297.026 122.904 C 297.352 123.265,298.132 123.821,298.758 124.141 C 299.384 124.461,300.456 125.251,301.139 125.898 C 305.043 129.596,306.124 130.730,306.566 131.587 C 306.836 132.111,307.387 132.897,307.791 133.333 C 308.195 133.770,308.832 134.913,309.207 135.873 C 309.582 136.833,310.145 137.905,310.458 138.254 C 311.043 138.906,314.059 147.518,314.413 149.548 C 315.935 158.267,316.006 160.844,316.103 210.836 L 316.195 258.338 315.002 258.931 C 313.240 259.807,294.897 259.839,293.569 258.969 L 292.722 258.414 292.609 208.334 C 292.483 152.645,292.673 157.314,290.305 151.587 C 290.088 151.063,289.682 150.028,289.403 149.286 C 288.887 147.918,286.428 144.062,285.939 143.856 C 285.793 143.793,285.133 143.222,284.473 142.586 C 281.916 140.120,278.830 138.509,275.607 137.958 C 273.977 137.679,271.977 137.131,271.163 136.741 C 268.875 135.645,257.757 135.662,255.452 136.765 C 254.609 137.169,252.823 137.693,251.483 137.931 C 248.592 138.444,247.984 138.646,247.143 139.375 C 246.794 139.677,245.862 140.263,245.073 140.677 C 242.828 141.853,237.143 146.784,237.143 147.555 C 237.143 147.699,236.684 148.285,236.124 148.858 C 234.114 150.914,232.086 155.310,230.985 160.000 C 230.514 162.008,229.992 164.167,229.826 164.799 C 229.641 165.500,229.524 183.918,229.524 212.130 L 229.524 258.314 228.856 258.919 C 227.919 259.768,209.212 260.030,207.639 259.217 L 206.687 258.725 206.589 209.283 L 206.491 159.841 205.616 157.143 C 205.135 155.659,204.449 153.545,204.092 152.446 C 202.595 147.832,198.434 142.581,194.921 140.870 C 194.135 140.488,193.048 139.800,192.504 139.342 C 191.765 138.718,190.776 138.374,188.564 137.969 C 186.939 137.672,184.955 137.115,184.155 136.730 C 181.934 135.665,171.147 135.672,168.685 136.740 C 167.787 137.130,165.716 137.677,164.082 137.956 C 162.006 138.310,160.681 138.733,159.683 139.358 C 158.897 139.851,157.587 140.552,156.772 140.916 C 155.957 141.281,155.026 141.916,154.703 142.327 C 154.379 142.738,153.769 143.259,153.347 143.485 C 152.510 143.933,148.889 147.510,148.889 147.888 C 148.889 148.017,148.389 148.652,147.778 149.300 C 147.167 149.948,146.667 150.638,146.667 150.834 C 146.667 151.029,145.988 152.279,145.159 153.611 L 143.651 156.032 143.565 207.179 L 143.479 258.326 142.817 258.925 C 141.832 259.817,122.855 259.849,121.496 258.961 L 120.635 258.398 120.635 189.194 L 120.635 119.991 121.667 119.362 C 122.628 118.776,123.285 118.732,131.282 118.731 C 143.249 118.730,142.798 118.432,142.843 126.349 C 142.870 131.120,142.976 131.587,144.139 132.068 C 145.263 132.534,145.040 132.678,149.296 128.730 C 150.049 128.032,151.078 127.175,151.582 126.825 C 152.086 126.476,152.888 125.867,153.364 125.472 C 153.840 125.077,154.746 124.537,155.378 124.273 C 156.009 124.009,156.838 123.435,157.218 122.997 C 157.622 122.533,158.643 121.995,159.669 121.705 C 160.637 121.432,161.963 120.864,162.617 120.443 C 164.114 119.477,166.016 118.847,168.254 118.573 C 170.281 118.325,172.932 117.608,173.471 117.160 C 173.817 116.873,176.517 116.386,179.524 116.069 C 181.720 115.837,191.812 116.147,193.957 116.512 " stroke="none" fill="#fbfbfb" fill-rule="evenodd"></path></g></svg>