<svg id="svg" xmlns="http://www.w3.org/2000/svg" xmlns:xlink="http://www.w3.org/1999/xlink" width="400" height="517.2093023255815" viewBox="0, 0, 400,517.2093023255815"><g id="svgg"><path id="path0" d="M10.543 8.682 C 9.860 9.364,9.302 121.132,9.302 257.054 L 9.302 504.186 41.852 504.186 L 74.401 504.186 74.875 313.953 L 75.349 123.721 109.814 175.814 C 128.770 204.465,158.744 250.093,176.423 277.209 C 277.441 432.154,320.688 498.040,323.299 500.973 C 325.929 503.927,329.547 504.218,358.001 503.763 L 389.767 503.256 389.767 255.814 L 389.767 8.372 361.860 7.839 C 346.512 7.545,332.070 7.771,329.767 8.339 L 325.581 9.373 325.581 199.105 C 325.581 303.458,324.953 388.832,324.186 388.825 C 323.063 388.815,247.860 274.286,148.837 121.780 C 89.996 31.159,77.189 11.811,74.690 9.767 C 71.649 7.280,12.938 6.287,10.543 8.682 " stroke="none" fill="#000000" fill-rule="evenodd"></path></g></svg>