<svg id="svg" version="1.1" xmlns="http://www.w3.org/2000/svg" xmlns:xlink="http://www.w3.org/1999/xlink" width="400" height="468.81720430107526" viewBox="0, 0, 400,468.81720430107526"><g id="svgg"><path id="path0" d="M233.400 168.224 C 227.983 168.768,226.075 169.099,225.400 169.610 C 224.510 170.284,220.764 171.305,216.743 171.971 C 214.073 172.413,211.985 172.996,211.143 173.534 C 209.345 174.682,205.262 176.604,203.907 176.941 C 203.306 177.090,202.226 177.720,201.507 178.340 C 200.788 178.961,199.211 179.994,198.001 180.635 C 196.792 181.276,195.214 182.382,194.495 183.093 C 193.776 183.804,192.605 184.676,191.894 185.031 C 190.449 185.752,189.349 186.758,182.980 193.178 C 176.497 199.714,176.173 199.102,175.344 178.749 L 175.138 173.697 173.469 172.970 C 171.989 172.326,170.253 172.227,158.119 172.094 C 143.722 171.936,142.773 172.033,140.900 173.856 C 140.165 174.572,140.165 389.028,140.900 389.744 C 142.712 391.508,143.624 391.600,159.200 391.600 C 174.148 391.600,174.567 391.568,176.897 390.254 C 176.950 390.224,177.085 355.010,177.197 312.000 L 177.400 233.800 178.239 232.600 C 179.377 230.973,181.600 226.843,181.600 226.358 C 181.600 226.142,182.066 225.478,182.635 224.883 C 183.204 224.287,184.126 223.080,184.683 222.200 C 185.241 221.320,186.440 219.880,187.348 219.000 C 188.257 218.120,189.360 216.943,189.800 216.385 C 190.240 215.827,191.117 215.043,191.748 214.644 C 192.379 214.245,193.433 213.307,194.089 212.559 C 194.746 211.812,195.541 211.200,195.856 211.200 C 196.172 211.200,197.202 210.406,198.146 209.435 C 199.089 208.464,200.748 207.276,201.831 206.795 C 205.078 205.353,205.555 205.100,206.293 204.433 C 207.358 203.470,208.712 202.971,211.800 202.403 C 213.340 202.119,216.490 201.239,218.800 200.446 L 223.000 199.005 231.400 199.002 C 239.257 199.000,239.955 199.060,242.200 199.935 C 244.856 200.970,247.311 201.652,251.154 202.421 C 252.775 202.745,254.381 203.406,255.554 204.230 C 256.569 204.944,258.371 206.028,259.558 206.639 C 260.858 207.309,262.019 208.265,262.479 209.044 C 262.898 209.755,263.819 210.777,264.525 211.316 C 265.231 211.854,266.072 212.813,266.393 213.447 C 266.715 214.081,267.618 215.590,268.400 216.800 C 270.240 219.647,270.574 220.395,271.616 224.000 C 272.094 225.650,272.817 227.900,273.223 229.000 C 275.168 234.263,275.200 235.650,275.200 315.090 L 275.200 389.307 276.260 390.218 C 278.390 392.048,307.384 392.268,309.900 390.473 L 311.200 389.546 311.203 316.073 C 311.205 268.006,311.061 240.871,310.785 237.600 C 309.627 223.855,308.938 218.655,308.040 216.884 C 307.125 215.078,306.728 213.917,305.825 210.400 C 304.439 205.001,304.098 203.973,303.453 203.245 C 302.943 202.669,302.444 201.654,300.573 197.381 C 300.280 196.711,299.403 195.361,298.624 194.381 C 297.845 193.402,297.206 192.402,297.204 192.159 C 297.202 191.917,296.120 190.495,294.800 189.000 C 293.480 187.505,292.400 186.128,292.400 185.941 C 292.400 185.753,292.222 185.600,292.005 185.600 C 291.502 185.600,290.244 184.572,288.648 182.859 C 287.962 182.122,286.919 181.270,286.331 180.965 C 285.743 180.661,284.428 179.690,283.409 178.808 C 282.390 177.926,281.071 177.086,280.478 176.941 C 278.848 176.543,275.200 174.754,275.200 174.353 C 275.200 174.159,274.930 174.000,274.600 174.000 C 274.270 174.000,274.000 173.848,274.000 173.663 C 274.000 173.240,271.817 172.616,268.200 172.006 C 264.669 171.410,262.528 170.813,261.000 169.995 C 257.172 167.948,244.334 167.124,233.400 168.224 " stroke="none" fill="#252526" fill-rule="evenodd"></path></g></svg>