<svg id="svg" xmlns="http://www.w3.org/2000/svg" xmlns:xlink="http://www.w3.org/1999/xlink" width="400" height="639.1959798994975" viewBox="0, 0, 400,639.1959798994975"><g id="svgg"><path id="path0" d="M179.899 43.507 C 110.098 49.226,54.710 99.552,51.910 159.799 L 51.256 173.869 83.869 174.421 C 120.697 175.045,116.558 176.956,119.647 157.900 C 131.759 83.183,256.821 81.493,276.665 155.779 C 288.688 200.789,275.752 231.509,220.902 288.211 C 169.012 341.853,158.526 361.489,155.106 411.427 C 153.358 436.953,149.341 434.171,187.952 434.171 L 220.461 434.171 222.845 414.774 C 227.977 373.013,232.769 364.488,276.344 319.598 C 330.681 263.621,346.954 230.981,346.494 178.894 C 345.678 86.453,282.489 35.101,179.899 43.507 M175.879 512.691 C 155.474 518.699,144.727 548.022,155.276 568.905 C 168.499 595.078,212.421 595.991,225.643 570.367 C 243.218 536.306,213.328 501.664,175.879 512.691 " stroke="none" fill="#000000" fill-rule="evenodd"></path></g></svg>