<svg id="svg" version="1.1" xmlns="http://www.w3.org/2000/svg" xmlns:xlink="http://www.w3.org/1999/xlink" width="400" height="342.06896551724134" viewBox="0, 0, 400,342.06896551724134"><g id="svgg"><path id="path0" d="M197.947 63.801 C 195.500 64.023,193.072 64.384,192.550 64.603 C 192.028 64.822,189.411 65.404,186.733 65.896 C 184.056 66.388,180.997 67.155,179.936 67.600 C 178.875 68.046,176.904 68.717,175.555 69.090 C 174.207 69.464,172.594 70.084,171.972 70.469 C 171.349 70.854,170.215 71.389,169.452 71.658 C 168.688 71.928,167.264 72.698,166.286 73.371 C 165.308 74.043,164.317 74.594,164.083 74.594 C 163.850 74.594,163.266 74.958,162.786 75.403 C 162.305 75.848,161.398 76.572,160.768 77.013 C 156.031 80.328,152.320 84.274,149.400 89.101 C 149.047 89.685,148.256 90.932,147.643 91.873 C 147.029 92.814,146.335 94.200,146.100 94.953 C 145.865 95.706,145.311 96.947,144.869 97.712 C 144.087 99.063,142.749 103.615,141.807 108.127 C 141.150 111.273,141.163 121.095,141.827 123.535 C 142.107 124.564,142.725 127.009,143.201 128.967 C 143.676 130.925,144.508 133.312,145.048 134.271 C 145.589 135.229,146.141 136.399,146.275 136.869 C 146.410 137.340,146.942 138.263,147.458 138.922 C 147.975 139.581,148.672 140.659,149.007 141.317 C 149.342 141.976,150.097 142.991,150.685 143.572 C 151.273 144.153,152.678 145.558,153.807 146.694 C 157.912 150.824,161.253 153.500,164.095 154.935 C 164.860 155.322,165.683 155.875,165.922 156.164 C 166.162 156.453,167.192 157.001,168.210 157.382 C 169.228 157.763,170.947 158.519,172.028 159.062 C 173.110 159.605,174.877 160.303,175.956 160.614 C 177.034 160.924,178.420 161.469,179.035 161.824 C 179.651 162.180,181.078 162.653,182.207 162.876 C 183.336 163.100,185.338 163.708,186.655 164.228 C 187.973 164.749,190.106 165.357,191.395 165.580 C 192.685 165.803,194.763 166.374,196.014 166.847 C 197.266 167.321,199.943 168.008,201.964 168.374 C 203.986 168.741,206.449 169.337,207.439 169.698 C 209.039 170.283,212.470 171.170,214.885 171.624 C 215.355 171.712,217.203 172.231,218.991 172.777 C 220.778 173.323,223.396 173.995,224.808 174.272 C 226.219 174.548,228.529 175.164,229.940 175.641 C 231.352 176.118,233.738 176.916,235.244 177.415 C 241.855 179.606,246.870 181.852,248.589 183.391 C 248.965 183.729,249.901 184.394,250.668 184.869 C 252.578 186.053,255.560 189.215,256.801 191.372 C 257.366 192.353,258.086 193.541,258.402 194.012 C 258.717 194.482,259.160 195.868,259.387 197.092 C 259.613 198.315,260.009 200.213,260.267 201.311 C 260.799 203.576,260.892 208.136,260.424 209.011 C 260.252 209.332,259.862 210.801,259.558 212.275 C 258.833 215.784,257.558 218.352,254.752 221.955 C 252.912 224.318,247.880 228.914,247.132 228.914 C 246.964 228.914,246.069 229.453,245.141 230.112 C 244.214 230.771,242.686 231.562,241.745 231.870 C 240.804 232.178,239.299 232.798,238.399 233.249 C 237.500 233.699,235.422 234.352,233.780 234.701 C 232.139 235.049,229.739 235.654,228.447 236.046 C 222.680 237.794,207.121 237.935,200.171 236.302 C 192.429 234.484,189.583 233.693,188.484 233.054 C 187.855 232.688,186.479 232.142,185.428 231.840 C 184.376 231.539,183.005 230.916,182.380 230.455 C 181.756 229.994,180.461 229.360,179.502 229.046 C 178.543 228.731,177.194 227.995,176.504 227.410 C 175.814 226.826,174.516 225.808,173.620 225.150 C 171.050 223.262,165.612 217.503,165.612 216.670 C 165.612 216.492,165.159 215.778,164.606 215.081 C 164.052 214.385,163.341 213.016,163.024 212.040 C 162.708 211.064,162.019 209.495,161.492 208.554 C 160.965 207.613,160.361 205.843,160.149 204.619 C 159.937 203.396,159.393 201.086,158.940 199.487 C 158.487 197.887,158.070 196.132,158.014 195.586 C 157.811 193.599,156.822 193.309,151.411 193.649 C 138.739 194.444,133.848 195.653,134.264 197.886 C 134.375 198.484,134.625 200.590,134.819 202.566 C 135.359 208.050,135.792 210.336,136.695 212.483 C 137.150 213.563,137.779 215.507,138.093 216.804 C 138.407 218.101,139.024 219.701,139.463 220.359 C 139.903 221.018,140.494 222.214,140.777 223.017 C 141.060 223.819,141.664 224.974,142.120 225.583 C 142.577 226.192,143.281 227.305,143.686 228.058 C 144.091 228.811,145.117 230.351,145.967 231.480 C 146.817 232.609,147.927 234.154,148.435 234.914 C 149.640 236.716,155.273 242.320,156.373 242.812 C 156.843 243.022,157.897 243.753,158.715 244.437 C 159.533 245.121,160.336 245.680,160.500 245.680 C 160.663 245.680,161.324 246.143,161.968 246.708 C 162.612 247.273,163.732 247.983,164.458 248.287 C 165.183 248.590,166.195 249.190,166.706 249.620 C 167.217 250.050,168.659 250.732,169.910 251.136 C 171.160 251.541,172.606 252.183,173.121 252.564 C 173.637 252.945,175.540 253.624,177.350 254.072 C 179.160 254.521,181.070 255.109,181.595 255.380 C 182.786 255.995,185.976 256.755,190.419 257.483 C 192.301 257.791,194.303 258.203,194.867 258.398 C 199.698 260.066,223.964 259.913,231.651 258.166 C 233.627 257.716,236.399 257.092,237.810 256.779 C 239.222 256.465,241.762 255.697,243.456 255.071 C 245.150 254.446,247.118 253.829,247.830 253.702 C 248.542 253.574,249.681 253.092,250.361 252.631 C 251.040 252.170,252.408 251.489,253.400 251.117 C 254.392 250.746,255.563 250.162,256.002 249.819 C 256.441 249.476,257.463 248.859,258.273 248.448 C 261.158 246.984,265.018 243.934,269.549 239.540 C 272.724 236.461,273.862 235.058,275.791 231.847 C 276.262 231.063,277.049 229.891,277.540 229.240 C 278.032 228.590,278.614 227.520,278.835 226.863 C 279.055 226.205,279.627 225.102,280.107 224.410 C 280.586 223.719,281.256 222.101,281.597 220.815 C 281.937 219.530,282.543 217.757,282.944 216.876 C 284.983 212.391,285.297 196.644,283.478 190.077 C 281.423 182.658,279.025 177.952,274.356 172.170 C 271.924 169.159,268.691 166.011,267.301 165.302 C 266.582 164.935,265.783 164.382,265.526 164.072 C 265.269 163.762,264.499 163.223,263.815 162.874 C 263.131 162.525,262.360 161.985,262.102 161.674 C 261.844 161.362,260.767 160.671,259.709 160.137 C 258.652 159.603,257.591 158.931,257.353 158.644 C 257.114 158.356,256.123 157.861,255.149 157.543 C 254.175 157.224,252.736 156.592,251.949 156.137 C 251.163 155.682,249.121 154.936,247.412 154.479 C 245.703 154.021,243.932 153.403,243.477 153.105 C 243.021 152.806,241.214 152.207,239.460 151.772 C 237.705 151.338,235.577 150.663,234.731 150.274 C 233.884 149.884,232.190 149.390,230.967 149.177 C 229.743 148.964,227.359 148.335,225.667 147.779 C 223.976 147.223,221.090 146.543,219.255 146.267 C 217.420 145.992,214.800 145.386,213.434 144.921 C 212.067 144.457,209.448 143.840,207.613 143.552 C 205.777 143.263,203.391 142.722,202.309 142.349 C 201.227 141.977,198.592 141.278,196.452 140.796 C 194.313 140.315,191.968 139.618,191.241 139.247 C 190.515 138.877,188.895 138.336,187.641 138.045 C 186.387 137.754,184.652 137.161,183.784 136.727 C 182.917 136.292,181.437 135.685,180.496 135.378 C 179.555 135.070,178.027 134.278,177.100 133.619 C 176.173 132.960,175.246 132.421,175.041 132.421 C 174.623 132.421,171.095 129.070,169.610 127.263 C 168.734 126.195,167.841 124.360,166.378 120.616 C 165.160 117.500,165.575 107.424,166.995 105.619 C 167.341 105.179,167.888 104.139,168.209 103.308 C 169.849 99.070,176.756 92.435,181.073 90.949 C 181.697 90.735,182.746 90.205,183.406 89.773 C 184.065 89.340,185.789 88.759,187.236 88.482 C 188.684 88.205,190.916 87.671,192.197 87.295 C 197.486 85.741,217.630 85.343,222.926 86.687 C 224.055 86.973,226.778 87.662,228.978 88.216 C 231.178 88.770,233.381 89.542,233.875 89.930 C 234.369 90.319,235.341 90.821,236.035 91.045 C 237.288 91.451,240.266 93.433,242.642 95.444 C 243.324 96.021,244.041 96.493,244.235 96.493 C 244.562 96.493,246.139 98.420,247.970 101.058 C 248.383 101.652,249.063 102.578,249.480 103.115 C 249.897 103.652,250.584 105.038,251.006 106.194 C 251.429 107.351,252.164 109.068,252.640 110.009 C 253.199 111.111,253.709 113.058,254.076 115.483 C 254.997 121.579,255.009 121.586,263.340 121.112 C 266.518 120.932,269.735 120.634,270.488 120.451 C 271.240 120.269,273.020 120.115,274.443 120.111 C 275.990 120.106,277.242 119.931,277.558 119.675 C 278.504 118.909,279.198 117.597,279.039 116.875 C 278.954 116.486,278.734 114.457,278.550 112.366 C 278.366 110.275,277.963 107.889,277.654 107.062 C 277.345 106.236,276.728 104.268,276.283 102.687 C 275.837 101.107,275.099 99.260,274.642 98.581 C 274.186 97.903,273.622 96.732,273.390 95.979 C 273.159 95.227,272.625 94.149,272.205 93.584 C 271.784 93.020,271.035 91.758,270.540 90.781 C 270.045 89.803,269.432 88.879,269.177 88.728 C 268.922 88.576,268.429 87.990,268.081 87.425 C 267.376 86.282,258.384 77.331,257.940 77.331 C 257.785 77.331,257.080 76.818,256.374 76.192 C 255.668 75.565,254.410 74.786,253.578 74.461 C 252.747 74.135,251.695 73.577,251.240 73.219 C 250.786 72.861,249.555 72.247,248.505 71.855 C 247.456 71.462,246.198 70.866,245.711 70.530 C 244.212 69.497,235.494 66.815,230.624 65.889 C 228.084 65.405,225.389 64.844,224.636 64.641 C 220.283 63.466,206.432 63.030,197.947 63.801 " stroke="none" fill="#272727" fill-rule="evenodd"></path>
    stroke="none" fill="#fcfcfc" fill-rule="evenodd"></path></g></svg>