<svg id="svg" version="1.1" xmlns="http://www.w3.org/2000/svg" xmlns:xlink="http://www.w3.org/1999/xlink" width="400" height="573.6842105263157" viewBox="0, 0, 400,573.6842105263157"><g id="svgg"><path id="path0" d="M154.200 153.048 C 150.796 153.374,145.319 154.543,143.600 155.312 C 141.347 156.320,134.638 157.903,131.200 158.238 C 128.602 158.492,126.063 159.446,123.800 161.018 C 122.666 161.806,117.563 163.618,116.514 163.606 C 115.972 163.599,113.064 165.395,111.748 166.548 C 111.280 166.959,109.811 167.776,108.483 168.363 C 107.156 168.951,105.123 170.279,103.967 171.316 C 102.811 172.352,101.717 173.200,101.537 173.200 C 101.178 173.200,100.825 173.473,96.640 176.982 C 95.078 178.293,93.656 179.598,93.480 179.882 C 93.304 180.167,92.944 180.400,92.680 180.400 C 92.261 180.400,90.000 182.870,90.000 183.328 C 90.000 183.422,89.353 184.197,88.563 185.050 C 86.478 187.299,82.400 192.344,82.400 192.674 C 82.400 192.829,81.976 193.416,81.457 193.978 C 80.938 194.540,80.159 195.720,79.726 196.600 C 79.292 197.480,78.501 199.095,77.969 200.188 C 77.436 201.282,76.595 202.775,76.100 203.506 C 75.605 204.237,75.200 205.158,75.200 205.551 C 75.200 205.945,75.072 206.395,74.915 206.552 C 74.447 207.019,73.201 210.537,73.197 211.400 C 73.195 211.840,72.825 213.370,72.375 214.800 C 71.514 217.534,71.314 218.570,70.208 226.000 C 69.255 232.407,69.714 237.062,72.321 247.400 C 72.765 249.160,73.335 251.500,73.587 252.600 C 73.840 253.700,74.306 255.123,74.623 255.761 C 74.940 256.400,75.200 257.092,75.200 257.300 C 75.200 257.507,75.538 258.154,75.950 258.738 C 76.363 259.322,77.509 261.330,78.499 263.200 C 79.488 265.070,81.220 267.556,82.349 268.724 C 83.477 269.891,84.400 271.037,84.400 271.268 C 84.400 271.752,91.483 278.800,91.969 278.800 C 92.146 278.800,93.350 279.792,94.645 281.005 C 95.967 282.244,98.316 283.861,100.000 284.694 C 101.650 285.510,103.952 286.947,105.116 287.888 C 106.279 288.830,107.595 289.600,108.040 289.600 C 109.113 289.600,113.241 291.528,114.000 292.384 C 114.830 293.319,119.253 295.198,120.650 295.209 C 122.102 295.220,125.092 296.559,126.400 297.783 C 127.439 298.756,131.781 300.001,136.919 300.799 C 138.677 301.072,140.656 301.760,142.519 302.747 C 145.577 304.366,147.031 304.725,155.600 305.974 C 160.028 306.620,161.539 307.025,163.997 308.223 C 166.408 309.398,167.856 309.794,171.397 310.246 C 173.819 310.555,176.664 310.986,177.720 311.204 C 178.776 311.422,180.077 311.600,180.613 311.600 C 181.148 311.600,182.767 312.323,184.210 313.206 C 185.653 314.089,187.591 314.986,188.517 315.197 C 189.443 315.409,192.000 315.969,194.200 316.441 C 197.350 317.117,198.492 317.555,199.574 318.502 C 201.072 319.814,203.781 321.177,204.916 321.191 C 205.987 321.204,208.859 322.747,210.042 323.945 C 211.482 325.403,212.869 326.400,213.457 326.400 C 214.076 326.400,221.200 333.559,221.200 334.181 C 221.200 334.432,222.026 335.889,223.035 337.419 C 228.836 346.208,228.758 364.663,222.889 372.436 C 221.960 373.666,221.200 374.853,221.200 375.074 C 221.200 375.295,220.840 375.802,220.400 376.200 C 219.960 376.598,219.600 377.154,219.600 377.435 C 219.600 377.716,219.230 378.063,218.778 378.207 C 218.326 378.350,217.381 379.096,216.678 379.864 C 214.326 382.434,213.837 382.817,210.811 384.461 C 209.155 385.361,207.440 386.419,207.000 386.814 C 205.587 388.080,202.319 389.600,201.010 389.600 C 199.397 389.600,194.412 391.284,192.930 392.329 C 188.258 395.624,152.049 395.649,147.489 392.361 C 146.121 391.374,142.204 390.078,139.000 389.551 C 136.122 389.078,132.792 387.571,132.097 386.428 C 131.820 385.973,131.370 385.596,131.097 385.591 C 130.823 385.586,130.150 385.230,129.600 384.800 C 129.050 384.370,128.330 384.010,128.000 384.001 C 127.390 383.985,121.271 378.953,118.756 376.400 C 115.713 373.312,111.843 367.774,110.649 364.800 C 109.922 362.990,109.237 361.433,107.601 357.872 C 107.114 356.811,106.545 354.561,106.336 352.872 C 106.127 351.182,105.696 349.401,105.378 348.914 C 105.060 348.427,104.800 347.834,104.800 347.597 C 104.800 347.359,104.348 346.678,103.797 346.083 L 102.793 345.000 84.753 344.868 C 63.441 344.711,63.219 344.752,62.067 349.000 C 61.029 352.832,63.490 365.986,66.285 371.540 C 67.008 372.978,67.600 374.374,67.600 374.642 C 67.600 375.324,70.260 381.467,70.885 382.230 C 71.168 382.575,71.700 383.189,72.066 383.595 C 72.433 384.001,73.103 385.113,73.556 386.066 C 74.623 388.311,75.134 389.059,76.631 390.563 C 77.308 391.243,78.232 392.449,78.683 393.242 C 79.799 395.201,81.232 396.800,81.872 396.800 C 82.162 396.800,82.400 397.066,82.400 397.391 C 82.400 397.716,82.850 398.276,83.400 398.637 C 83.950 398.997,84.400 399.432,84.400 399.604 C 84.400 400.102,86.676 402.400,87.170 402.400 C 87.418 402.400,87.791 402.850,88.000 403.400 C 88.209 403.950,88.648 404.400,88.976 404.400 C 89.304 404.400,89.765 404.760,90.000 405.200 C 90.235 405.640,90.651 406.000,90.924 406.000 C 91.197 406.000,92.315 406.856,93.410 407.901 C 94.504 408.947,96.390 410.296,97.600 410.899 C 98.810 411.502,100.268 412.491,100.840 413.098 C 101.922 414.246,102.140 414.368,106.400 416.220 C 107.830 416.841,109.367 417.766,109.815 418.275 C 110.263 418.784,110.789 419.200,110.984 419.200 C 111.178 419.200,111.656 419.489,112.047 419.842 C 112.437 420.196,114.013 420.724,115.548 421.017 C 117.084 421.309,118.885 421.830,119.550 422.174 C 120.216 422.518,121.005 422.800,121.305 422.800 C 121.604 422.800,122.212 423.138,122.654 423.550 C 124.249 425.036,127.311 426.060,131.200 426.409 C 133.290 426.597,135.720 426.922,136.600 427.132 C 140.118 427.972,143.061 428.834,144.200 429.360 C 151.512 432.735,189.657 432.720,195.742 429.339 C 197.467 428.381,204.490 426.852,209.035 426.444 C 213.024 426.087,215.528 425.250,217.317 423.676 C 218.193 422.905,220.167 422.159,223.600 421.301 C 225.030 420.944,227.172 420.010,228.361 419.226 C 230.926 417.534,233.276 416.230,235.200 415.432 C 235.970 415.113,237.410 414.120,238.400 413.226 C 239.390 412.332,240.326 411.601,240.480 411.601 C 241.057 411.599,244.660 409.000,246.262 407.429 C 248.443 405.291,249.530 404.400,249.959 404.400 C 250.151 404.400,250.579 403.995,250.910 403.500 C 251.853 402.091,255.141 398.800,255.606 398.800 C 255.836 398.800,256.143 398.492,256.288 398.115 C 256.432 397.739,257.327 396.297,258.275 394.911 C 259.224 393.526,260.000 392.235,260.000 392.042 C 260.000 391.850,260.405 391.421,260.900 391.089 C 261.742 390.525,262.698 388.924,264.176 385.600 C 264.518 384.830,265.149 383.660,265.577 383.000 C 266.876 380.997,267.600 379.511,267.603 378.839 C 267.605 378.487,267.966 377.030,268.406 375.600 C 268.846 374.170,269.404 371.740,269.646 370.200 C 269.888 368.660,270.247 367.098,270.442 366.728 C 270.823 366.009,271.879 358.661,272.359 353.400 C 272.580 350.970,272.479 349.382,271.941 346.800 C 271.551 344.930,271.224 342.561,271.216 341.536 C 271.207 340.510,270.842 338.530,270.405 337.136 C 269.968 335.741,269.609 334.150,269.607 333.600 C 269.597 330.987,267.089 324.417,265.149 321.923 C 264.517 321.111,264.000 320.227,264.000 319.959 C 264.000 318.901,260.774 314.136,257.362 310.153 C 255.581 308.075,255.364 307.858,253.406 306.200 C 252.367 305.320,250.771 303.868,249.858 302.974 C 248.368 301.513,244.738 298.800,244.273 298.800 C 244.172 298.800,243.268 297.990,242.264 297.000 C 241.259 296.010,240.137 295.200,239.770 295.200 C 238.952 295.200,234.400 292.740,234.400 292.298 C 234.400 292.123,233.995 291.802,233.500 291.584 C 233.005 291.366,232.060 290.844,231.400 290.423 C 230.740 290.003,229.747 289.645,229.194 289.629 C 228.103 289.598,223.350 287.419,223.133 286.851 C 222.881 286.191,218.196 284.314,216.000 283.993 C 213.250 283.591,212.701 283.381,210.092 281.732 C 208.933 280.999,207.740 280.400,207.441 280.400 C 207.142 280.400,206.237 280.124,205.430 279.787 C 204.622 279.449,202.132 278.900,199.896 278.565 C 197.660 278.231,195.644 277.809,195.415 277.628 C 195.187 277.446,194.550 277.162,194.000 276.996 C 193.450 276.831,192.524 276.360,191.943 275.951 C 190.841 275.175,187.499 274.363,182.400 273.632 C 180.750 273.395,178.320 273.039,177.000 272.840 C 175.680 272.641,173.173 271.816,171.430 271.007 C 169.137 269.944,167.143 269.372,164.230 268.944 C 157.063 267.889,154.442 267.205,151.477 265.616 C 149.895 264.768,147.880 263.951,147.000 263.801 C 143.287 263.168,138.931 261.835,138.000 261.047 C 136.299 259.606,133.296 258.006,132.287 258.002 C 131.018 257.998,127.846 256.082,126.020 254.218 C 125.042 253.218,124.040 252.400,123.795 252.400 C 123.219 252.400,121.519 250.515,120.803 249.081 C 120.496 248.466,119.650 247.268,118.922 246.418 C 118.195 245.568,117.600 244.704,117.600 244.498 C 117.600 244.292,117.340 243.600,117.023 242.961 C 115.925 240.751,114.799 234.467,114.803 230.576 C 114.808 226.056,115.886 218.592,116.789 216.822 C 117.235 215.947,117.600 215.053,117.600 214.835 C 117.600 214.617,118.410 213.280,119.400 211.863 C 120.390 210.447,121.200 209.054,121.200 208.767 C 121.200 208.208,128.712 200.800,129.279 200.800 C 129.727 200.800,132.538 198.967,134.892 197.139 C 136.086 196.211,137.561 195.504,138.892 195.221 C 141.741 194.614,146.861 192.841,147.600 192.205 C 151.914 188.493,180.760 188.748,187.934 192.562 C 190.515 193.934,192.225 194.475,196.910 195.401 C 197.521 195.522,198.376 195.976,198.810 196.410 C 199.245 196.845,199.737 197.200,199.904 197.200 C 200.071 197.200,200.432 197.560,200.707 198.000 C 200.982 198.440,201.383 198.800,201.597 198.800 C 202.241 198.800,206.160 201.310,206.723 202.083 C 207.010 202.477,207.401 202.800,207.592 202.800 C 208.000 202.800,215.600 210.394,215.600 210.801 C 215.600 210.953,215.939 211.469,216.354 211.947 C 216.769 212.425,217.534 213.442,218.054 214.206 C 218.574 214.970,219.135 215.596,219.300 215.597 C 219.465 215.599,219.600 215.848,219.600 216.151 C 219.600 216.454,219.858 216.916,220.173 217.178 C 220.489 217.440,220.920 218.407,221.133 219.327 C 221.498 220.912,222.312 223.089,224.087 227.229 C 224.518 228.235,225.003 230.183,225.165 231.556 C 225.756 236.570,225.264 236.469,248.491 236.319 L 266.782 236.200 267.863 235.119 C 269.191 233.791,269.392 226.489,268.244 221.274 C 267.890 219.664,267.600 217.892,267.600 217.334 C 267.600 216.777,266.857 214.493,265.948 212.260 C 265.040 210.027,264.140 207.532,263.950 206.715 C 263.466 204.647,261.768 201.038,260.964 200.370 C 260.596 200.064,259.637 198.461,258.833 196.807 C 256.946 192.923,256.464 192.154,254.936 190.592 C 254.241 189.881,253.232 188.602,252.693 187.750 C 252.153 186.897,250.698 185.300,249.458 184.200 C 248.219 183.100,247.204 182.002,247.202 181.759 C 247.201 181.516,246.129 180.476,244.819 179.447 C 243.509 178.418,242.054 177.038,241.586 176.380 C 241.117 175.721,240.163 174.920,239.467 174.599 C 237.409 173.652,232.814 170.310,232.467 169.508 C 232.393 169.338,232.100 169.200,231.815 169.200 C 230.798 169.200,226.931 167.191,225.974 166.166 C 224.748 164.853,222.819 163.899,220.000 163.215 C 217.640 162.641,214.348 161.341,214.008 160.848 C 213.545 160.178,209.362 158.399,208.221 158.387 C 207.117 158.376,201.114 157.358,196.977 156.480 C 196.085 156.291,194.735 155.824,193.977 155.443 C 189.958 153.421,165.617 151.956,154.200 153.048 " stroke="none" fill="#272828" fill-rule="evenodd"></path></g></svg>