<svg id="svg" version="1.1" xmlns="http://www.w3.org/2000/svg" xmlns:xlink="http://www.w3.org/1999/xlink" width="400" height="421.27659574468083" viewBox="0, 0, 400,421.27659574468083"><g id="svgg"><path id="path0" d="M325.192 60.363 C 327.269 61.543,327.200 60.979,327.200 76.702 L 327.200 91.461 326.300 92.273 C 324.453 93.941,322.721 94.000,275.956 94.000 L 231.245 94.000 230.623 94.889 C 230.062 95.689,230.000 108.550,230.000 223.507 L 230.000 351.236 229.018 352.218 L 228.036 353.200 210.744 353.200 C 193.540 353.200,193.447 353.196,192.526 352.330 L 191.600 351.461 191.600 223.619 C 191.600 108.560,191.538 95.689,190.977 94.889 L 190.355 94.000 145.723 94.000 C 98.810 94.000,96.584 93.924,95.100 92.262 C 94.460 91.545,94.400 90.204,94.400 76.601 C 94.400 59.581,94.179 60.579,98.077 60.006 C 102.308 59.384,324.082 59.733,325.192 60.363 " stroke="none" fill="#fcfcfc" fill-rule="evenodd"></path>
    stroke="none" fill="#252525" fill-rule="evenodd"></path></g></svg>