<svg id="svg" version="1.1" xmlns="http://www.w3.org/2000/svg" xmlns:xlink="http://www.w3.org/1999/xlink" width="400" height="448" viewBox="0, 0, 400,448"><g id="svgg"><path id="path0" d="M172.000 152.000 L 172.000 176.000 154.000 176.000 C 136.095 176.000,136.000 176.074,136.000 190.000 C 136.000 203.926,136.095 204.000,154.000 204.000 L 172.000 204.000 172.000 277.408 C 172.000 347.086,172.461 351.501,181.072 364.280 C 198.560 390.229,244.000 391.413,244.000 365.919 C 244.000 352.919,243.393 352.321,232.417 354.517 C 207.590 359.482,204.000 349.085,204.000 272.219 L 204.000 204.438 223.000 203.219 C 241.218 202.050,242.052 201.465,243.253 189.000 L 244.507 176.000 224.253 176.000 L 204.000 176.000 204.000 152.000 L 204.000 128.000 188.000 128.000 L 172.000 128.000 172.000 152.000 " stroke="none" fill="#000000" fill-rule="evenodd"></path></g></svg>