<svg id="svg" version="1.1" xmlns="http://www.w3.org/2000/svg" xmlns:xlink="http://www.w3.org/1999/xlink" width="400" height="440.4040404040404" viewBox="0, 0, 400,440.4040404040404"><g id="svgg"><path id="path0" d="M141.414 242.585 C 141.414 330.601,144.735 346.213,166.493 360.469 C 189.371 375.459,227.753 374.126,252.270 357.488 L 266.667 347.718 266.667 357.698 C 266.667 366.646,268.335 367.677,282.828 367.677 L 298.990 367.677 298.990 264.646 L 298.990 161.616 282.828 161.616 L 266.667 161.616 266.667 238.783 L 266.667 315.950 254.352 327.453 C 239.229 341.580,212.142 346.791,195.446 338.786 C 175.901 329.414,173.862 319.864,173.797 237.374 L 173.737 161.616 157.576 161.616 L 141.414 161.616 141.414 242.585 " stroke="none" fill="#000000" fill-rule="evenodd"></path></g></svg>