<svg id="svg" version="1.1" xmlns="http://www.w3.org/2000/svg" xmlns:xlink="http://www.w3.org/1999/xlink" width="400" height="466.6666666666667" viewBox="0, 0, 400,466.6666666666667"><g id="svgg"><path id="path0" d="M5.000 6.256 C 5.000 7.838,3.149 2.808,97.602 257.956 L 172.425 460.079 198.919 459.623 L 225.413 459.167 270.224 338.333 C 294.869 271.875,317.230 211.500,319.913 204.167 C 322.597 196.833,329.253 178.833,334.704 164.167 C 369.061 71.724,393.333 6.068,393.333 5.573 C 393.333 5.258,378.777 5.000,360.986 5.000 L 328.639 5.000 325.364 14.583 C 323.563 19.854,314.806 45.167,305.905 70.833 C 297.005 96.500,285.981 128.375,281.409 141.667 C 276.836 154.958,270.577 172.958,267.500 181.667 C 264.423 190.375,258.166 208.375,253.597 221.667 C 207.519 355.703,199.376 378.376,197.859 376.859 C 196.474 375.474,190.730 359.234,163.305 279.167 C 157.967 263.583,146.730 230.958,138.333 206.667 C 129.935 182.375,118.967 150.500,113.958 135.833 C 108.949 121.167,96.809 85.917,86.979 57.500 L 69.106 5.833 37.053 5.381 C 19.424 5.132,5.000 5.526,5.000 6.256 " stroke="none" fill="#000000" fill-rule="evenodd"></path></g></svg>