<svg id="svg" version="1.1" xmlns="http://www.w3.org/2000/svg" xmlns:xlink="http://www.w3.org/1999/xlink" width="400" height="339.18128654970764" viewBox="0, 0, 400,339.18128654970764"><g id="svgg"><path id="path0" d="M5.848 13.341 C 5.848 14.245,7.416 21.219,9.333 28.838 C 11.250 36.456,14.903 51.374,17.449 61.988 C 19.996 72.602,24.185 89.971,26.759 100.585 C 29.332 111.199,33.592 128.830,36.226 139.766 C 52.356 206.736,77.840 312.035,79.958 320.468 L 82.456 330.409 101.641 330.409 L 120.826 330.409 124.059 319.298 C 125.837 313.187,131.067 295.292,135.682 279.532 C 140.296 263.772,146.073 244.035,148.520 235.673 C 150.966 227.310,161.158 192.500,171.168 158.317 C 181.178 124.135,190.015 92.656,190.805 88.364 C 193.294 74.856,194.531 75.193,197.625 90.224 C 199.128 97.531,200.767 104.561,201.266 105.848 C 201.766 107.135,208.596 131.082,216.445 159.064 C 224.294 187.047,236.964 232.047,244.600 259.064 C 252.236 286.082,258.990 310.029,259.609 312.281 C 260.228 314.532,261.674 319.532,262.823 323.392 L 264.912 330.409 284.040 330.409 L 303.168 330.409 308.170 309.942 C 310.921 298.684,316.174 277.105,319.844 261.988 C 323.513 246.871,329.071 223.977,332.194 211.111 C 335.318 198.246,339.777 179.825,342.103 170.175 C 344.429 160.526,348.702 142.895,351.598 130.994 C 362.873 84.655,369.480 57.376,377.072 25.821 C 378.685 19.115,379.735 13.194,379.407 12.663 C 378.521 11.229,339.474 11.446,338.582 12.890 C 338.176 13.546,335.017 26.573,331.563 41.837 C 328.108 57.102,321.814 84.854,317.576 103.509 C 313.337 122.164,306.464 152.427,302.301 170.760 C 298.138 189.094,293.469 209.620,291.925 216.374 C 290.381 223.129,287.658 237.797,285.874 248.971 C 282.326 271.190,281.192 272.593,278.436 258.166 C 276.833 249.773,269.764 221.908,264.269 202.323 C 262.195 194.934,258.461 181.520,255.969 172.515 C 253.478 163.509,250.923 154.298,250.292 152.047 C 249.661 149.795,247.104 140.585,244.610 131.579 C 242.115 122.573,237.304 105.205,233.918 92.982 C 230.532 80.760,225.794 63.655,223.388 54.971 C 220.983 46.287,217.570 33.918,215.804 27.485 C 211.023 10.063,213.231 11.581,193.217 11.957 L 176.023 12.281 164.035 54.386 C 124.443 193.445,112.133 237.461,108.692 252.276 C 103.762 273.505,103.821 273.566,99.410 242.690 C 97.588 229.941,97.590 229.950,86.577 182.456 C 85.309 176.988,80.283 155.146,75.408 133.918 C 60.012 66.873,47.993 15.500,47.250 13.565 C 46.240 10.932,5.848 10.714,5.848 13.341 " stroke="none" fill="#000000" fill-rule="evenodd"></path></g></svg>