<svg id="svg" version="1.1" xmlns="http://www.w3.org/2000/svg" xmlns:xlink="http://www.w3.org/1999/xlink" width="400" height="288.3720930232558" viewBox="0, 0, 400,288.3720930232558"><g id="svgg"><path id="path0" d="M122.863 148.062 C 153.633 255.667,150.633 248.062,162.319 248.062 L 172.521 248.062 190.650 189.040 C 200.620 156.578,209.762 131.113,210.966 132.451 C 212.169 133.789,221.252 160.349,231.150 191.473 L 249.147 248.062 259.370 248.062 C 269.154 248.062,269.816 247.294,274.734 230.233 C 277.561 220.426,287.869 184.845,297.641 151.163 L 315.408 89.922 302.564 89.922 L 289.720 89.922 277.702 138.760 C 261.527 204.491,260.320 208.640,258.040 206.361 C 256.956 205.276,248.274 178.982,238.747 147.931 L 221.427 91.473 210.713 90.588 L 200.000 89.703 183.123 145.637 C 173.840 176.400,165.339 203.036,164.233 204.827 C 163.126 206.618,155.373 181.497,147.005 149.003 L 131.789 89.922 119.014 89.922 L 106.238 89.922 122.863 148.062 " stroke="none" fill="#000000" fill-rule="evenodd"></path></g></svg>