<svg id="svg" version="1.1" xmlns="http://www.w3.org/2000/svg" xmlns:xlink="http://www.w3.org/1999/xlink" width="400" height="503.1674208144796" viewBox="0, 0, 400,503.1674208144796"><g id="svgg"><path id="path0" d="M5.213 6.185 C 4.598 6.926,5.269 9.177,6.415 10.214 C 6.847 10.604,7.200 11.136,7.200 11.396 C 7.200 11.655,7.901 12.868,8.758 14.091 C 9.615 15.314,10.560 16.759,10.858 17.302 C 11.156 17.844,12.106 19.348,12.970 20.644 C 13.833 21.940,14.930 23.630,15.407 24.400 C 15.884 25.170,17.076 27.060,18.056 28.600 C 19.036 30.140,20.009 31.694,20.219 32.054 C 20.428 32.413,21.302 33.763,22.161 35.054 C 23.560 37.157,24.655 38.901,25.810 40.863 C 26.024 41.227,26.970 42.667,27.911 44.063 C 28.852 45.458,29.793 46.870,30.003 47.200 C 30.213 47.530,30.839 48.483,31.393 49.318 C 31.947 50.153,32.400 50.974,32.400 51.142 C 32.400 51.311,32.715 51.798,33.100 52.225 C 33.721 52.912,36.478 57.259,38.033 60.000 C 38.345 60.550,38.706 61.090,38.835 61.200 C 39.460 61.731,42.000 65.753,42.000 66.212 C 42.000 66.499,42.142 66.793,42.316 66.867 C 42.757 67.052,46.684 73.005,46.979 73.934 C 47.112 74.352,47.576 75.016,48.010 75.409 C 48.445 75.802,48.800 76.344,48.800 76.613 C 48.800 76.882,49.080 77.335,49.423 77.619 C 49.766 77.904,50.313 78.774,50.639 79.554 C 50.964 80.334,51.366 81.068,51.531 81.186 C 51.785 81.368,53.606 84.093,57.019 89.400 C 58.193 91.227,58.523 91.760,59.516 93.446 C 60.020 94.301,60.830 95.572,61.316 96.272 C 61.802 96.971,62.901 98.681,63.758 100.072 C 65.226 102.454,68.126 106.978,69.609 109.200 C 69.976 109.750,71.204 111.581,72.338 113.269 C 73.472 114.958,74.400 116.443,74.400 116.571 C 74.400 116.699,75.210 117.962,76.200 119.379 C 77.190 120.795,78.000 122.081,78.000 122.236 C 78.000 122.390,78.657 123.526,79.459 124.759 C 83.626 131.160,85.406 133.919,86.995 136.443 C 87.218 136.796,87.921 137.876,88.557 138.843 C 89.193 139.809,90.346 141.590,91.120 142.800 C 91.893 144.010,93.307 146.183,94.263 147.629 C 95.218 149.075,96.000 150.388,96.000 150.546 C 96.000 150.705,96.723 151.813,97.607 153.010 C 98.491 154.206,99.395 155.593,99.617 156.092 C 99.839 156.592,100.421 157.562,100.910 158.250 C 101.400 158.937,102.292 160.287,102.893 161.250 C 103.493 162.212,104.733 164.170,105.646 165.600 C 106.560 167.030,107.778 168.947,108.354 169.859 C 109.404 171.526,111.910 175.327,113.198 177.208 C 113.577 177.762,114.007 178.593,114.154 179.055 C 114.301 179.517,114.776 180.216,115.210 180.609 C 115.645 181.002,116.000 181.566,116.000 181.862 C 116.000 182.158,116.160 182.400,116.356 182.400 C 116.552 182.400,117.076 183.175,117.522 184.122 C 117.967 185.070,118.617 186.082,118.966 186.371 C 119.315 186.661,119.600 187.118,119.600 187.387 C 119.600 187.656,119.960 188.202,120.400 188.600 C 120.840 188.998,121.200 189.454,121.200 189.614 C 121.200 190.208,124.367 195.156,126.100 197.269 C 126.485 197.738,126.800 198.337,126.800 198.599 C 126.800 198.861,127.250 199.599,127.800 200.238 C 128.349 200.877,128.811 201.580,128.826 201.800 C 128.841 202.020,129.474 203.010,130.232 204.000 C 130.991 204.990,131.876 206.340,132.200 207.000 C 132.524 207.660,133.324 208.920,133.979 209.800 C 134.633 210.680,135.448 211.940,135.789 212.600 C 136.131 213.260,137.263 215.089,138.305 216.665 C 139.347 218.240,141.259 221.210,142.553 223.265 C 143.846 225.319,145.669 228.170,146.602 229.600 C 147.535 231.030,149.536 234.151,151.049 236.537 C 152.562 238.922,154.543 242.008,155.452 243.396 C 156.360 244.783,157.579 246.924,158.160 248.153 L 159.217 250.387 157.709 252.953 C 156.169 255.572,150.595 264.393,149.053 266.650 C 147.695 268.639,145.871 271.562,144.955 273.218 C 144.491 274.058,143.570 275.433,142.910 276.273 C 142.250 277.113,141.408 278.340,141.039 279.000 C 139.804 281.209,138.612 283.120,137.100 285.310 C 136.275 286.505,135.600 287.590,135.600 287.721 C 135.600 287.853,135.015 288.794,134.300 289.814 C 132.556 292.301,130.973 294.741,130.159 296.200 C 129.790 296.860,128.523 298.797,127.344 300.505 C 126.165 302.213,125.197 303.743,125.193 303.905 C 125.186 304.190,123.183 307.356,122.460 308.227 C 122.265 308.461,121.407 309.721,120.553 311.027 C 119.699 312.332,118.787 313.626,118.526 313.902 C 118.266 314.179,117.931 314.788,117.782 315.257 C 117.633 315.726,116.875 316.940,116.098 317.955 C 115.321 318.970,114.483 320.250,114.238 320.800 C 113.791 321.800,111.825 324.954,111.141 325.769 C 110.942 326.006,110.220 327.100,109.537 328.200 C 108.236 330.294,104.428 336.147,101.763 340.146 C 100.903 341.437,100.022 342.787,99.805 343.146 C 99.288 344.002,96.604 348.234,94.191 352.000 C 93.134 353.650,91.876 355.630,91.395 356.400 C 90.915 357.170,89.819 358.853,88.961 360.140 C 88.102 361.427,87.164 362.914,86.876 363.444 C 86.097 364.878,82.930 369.706,82.293 370.431 C 81.988 370.777,81.616 371.381,81.466 371.771 C 81.316 372.162,80.503 373.498,79.659 374.741 C 78.815 375.983,77.309 378.260,76.313 379.800 C 73.107 384.758,66.634 394.829,65.404 396.774 C 64.605 398.036,60.868 403.882,58.995 406.800 C 57.935 408.450,56.153 411.240,55.034 413.000 C 53.915 414.761,52.770 416.561,52.489 417.000 C 52.207 417.440,51.667 418.309,51.289 418.930 C 50.910 419.552,49.835 421.059,48.900 422.279 C 47.965 423.498,47.200 424.731,47.200 425.017 C 47.200 425.304,46.795 426.049,46.300 426.672 C 45.267 427.974,44.721 428.824,43.633 430.827 C 43.207 431.611,42.575 432.489,42.229 432.776 C 41.883 433.063,41.600 433.458,41.600 433.654 C 41.600 434.014,39.658 437.090,35.623 443.122 C 34.400 444.949,33.128 446.929,32.795 447.522 C 32.462 448.115,30.752 450.760,28.995 453.399 C 27.238 456.039,25.687 458.471,25.549 458.803 C 25.410 459.135,24.105 461.165,22.649 463.313 C 21.192 465.462,20.000 467.359,20.000 467.530 C 20.000 467.700,19.213 468.921,18.251 470.243 C 17.290 471.565,16.385 473.017,16.241 473.470 C 16.097 473.924,15.624 474.616,15.190 475.009 C 14.755 475.402,14.400 475.877,14.400 476.064 C 14.400 476.251,13.590 477.562,12.600 478.979 C 11.610 480.395,10.800 481.674,10.800 481.821 C 10.800 481.968,9.990 483.247,9.000 484.663 C 8.010 486.080,7.200 487.388,7.200 487.570 C 7.200 487.753,6.931 488.125,6.603 488.398 C 6.274 488.671,5.437 489.908,4.742 491.147 C 4.047 492.386,3.167 493.760,2.787 494.200 C 1.590 495.585,0.970 497.841,1.583 498.580 C 2.470 499.648,75.535 499.323,76.612 498.245 C 77.027 497.830,78.307 496.030,79.456 494.245 C 80.606 492.460,81.918 490.522,82.373 489.937 C 82.828 489.352,83.200 488.713,83.200 488.517 C 83.200 488.321,83.976 487.089,84.924 485.780 C 85.873 484.471,86.761 483.101,86.898 482.736 C 87.035 482.371,87.969 480.896,88.974 479.459 C 89.978 478.022,90.800 476.738,90.800 476.607 C 90.800 476.475,91.134 475.880,91.541 475.284 C 92.670 473.633,95.707 468.899,97.446 466.081 C 99.466 462.808,99.904 462.130,101.700 459.508 C 102.525 458.303,103.200 457.133,103.200 456.908 C 103.200 456.682,103.480 456.265,103.823 455.981 C 104.166 455.696,104.703 454.848,105.017 454.097 C 105.332 453.345,106.107 452.070,106.740 451.265 C 107.372 450.459,108.204 449.187,108.588 448.438 C 108.971 447.688,109.451 446.878,109.653 446.638 C 109.855 446.397,110.588 445.300,111.280 444.200 C 111.972 443.100,112.847 441.840,113.223 441.400 C 113.600 440.960,114.043 440.150,114.208 439.600 C 114.373 439.050,114.620 438.510,114.756 438.400 C 115.330 437.938,117.453 434.902,118.110 433.603 C 118.942 431.961,119.395 431.218,121.008 428.852 C 122.463 426.718,124.180 423.998,125.874 421.145 C 126.574 419.965,127.330 418.792,127.554 418.538 C 127.778 418.284,128.536 417.114,129.239 415.938 C 130.415 413.972,132.749 410.302,135.066 406.778 C 135.580 405.997,136.000 405.217,136.000 405.046 C 136.000 404.875,136.608 403.984,137.350 403.067 C 138.093 402.150,139.021 400.770,139.412 400.000 C 139.804 399.230,140.424 398.150,140.791 397.600 C 143.673 393.281,145.200 390.890,145.200 390.694 C 145.200 390.452,148.499 385.349,149.189 384.524 C 149.408 384.262,149.940 383.419,150.372 382.650 C 150.804 381.881,151.662 380.491,152.279 379.561 C 154.198 376.665,155.193 375.048,155.883 373.700 C 156.249 372.985,156.695 372.400,156.874 372.400 C 157.053 372.400,157.200 372.216,157.200 371.991 C 157.200 371.765,158.132 370.190,159.271 368.491 C 161.843 364.653,163.068 362.718,163.256 362.200 C 163.393 361.819,165.060 359.220,168.489 354.040 C 168.868 353.468,169.529 352.358,169.959 351.573 C 170.390 350.789,171.025 349.911,171.371 349.624 C 171.717 349.337,172.001 348.899,172.002 348.651 C 172.004 348.403,172.813 347.030,173.800 345.600 C 174.787 344.170,175.596 342.872,175.598 342.716 C 175.599 342.560,176.827 340.580,178.327 338.316 C 181.784 333.098,184.024 329.622,184.588 328.600 C 184.830 328.160,185.718 326.720,186.561 325.400 C 187.403 324.080,188.495 322.370,188.986 321.600 C 189.477 320.830,190.581 319.144,191.439 317.854 C 192.298 316.563,193.180 315.213,193.400 314.854 C 195.514 311.404,198.137 307.600,198.403 307.600 C 198.954 307.600,202.053 311.309,202.748 312.800 C 203.106 313.570,203.491 314.290,203.602 314.400 C 204.305 315.095,205.986 317.631,206.584 318.900 C 206.973 319.725,207.451 320.400,207.646 320.400 C 207.841 320.400,208.000 320.625,208.001 320.900 C 208.001 321.175,208.716 322.390,209.589 323.600 C 210.462 324.810,211.424 326.340,211.728 327.000 C 212.031 327.660,213.027 329.265,213.940 330.566 C 214.853 331.868,215.600 333.164,215.600 333.446 C 215.600 333.729,215.846 334.104,216.146 334.280 C 216.446 334.456,217.007 335.217,217.393 335.971 C 217.778 336.725,218.703 338.208,219.447 339.267 C 220.191 340.326,220.800 341.329,220.801 341.496 C 220.801 341.663,221.516 342.790,222.389 344.000 C 223.262 345.210,224.224 346.740,224.526 347.400 C 224.829 348.060,225.374 348.847,225.738 349.149 C 226.102 349.451,226.400 349.857,226.400 350.052 C 226.400 350.359,228.122 353.114,232.848 360.369 C 233.482 361.341,234.000 362.361,234.000 362.635 C 234.000 362.909,234.168 363.193,234.373 363.267 C 234.578 363.340,235.388 364.480,236.172 365.800 C 237.790 368.520,238.006 368.858,239.373 370.800 C 239.915 371.570,241.035 373.370,241.861 374.800 C 242.688 376.230,244.047 378.390,244.881 379.600 C 245.716 380.810,246.399 381.997,246.399 382.238 C 246.400 382.479,246.760 383.002,247.200 383.400 C 247.640 383.798,248.000 384.279,248.000 384.469 C 248.000 384.659,249.125 386.509,250.500 388.581 C 251.875 390.653,253.540 393.277,254.200 394.413 C 254.860 395.548,255.805 396.981,256.300 397.597 C 256.795 398.212,257.200 398.845,257.200 399.004 C 257.200 399.163,258.010 400.511,259.000 402.000 C 259.990 403.489,260.800 404.874,260.800 405.078 C 260.800 405.282,261.145 405.820,261.567 406.273 C 261.989 406.726,262.898 408.095,263.587 409.316 C 264.276 410.536,265.101 411.752,265.420 412.016 C 265.739 412.281,266.000 412.665,266.000 412.868 C 266.000 413.072,266.729 414.336,267.620 415.677 C 268.510 417.018,269.526 418.675,269.875 419.358 C 270.225 420.041,270.627 420.690,270.769 420.800 C 270.910 420.910,271.564 421.900,272.221 423.000 C 272.878 424.100,273.592 425.296,273.808 425.657 C 274.024 426.018,275.235 427.838,276.500 429.701 C 277.765 431.565,278.800 433.201,278.800 433.337 C 278.800 433.473,279.475 434.602,280.300 435.846 C 281.125 437.090,281.976 438.399,282.192 438.754 C 282.408 439.109,283.326 440.570,284.233 442.000 C 285.140 443.430,286.404 445.456,287.041 446.501 C 287.679 447.547,289.460 450.366,291.000 452.764 C 292.540 455.163,294.292 457.907,294.892 458.863 C 295.493 459.818,296.213 460.960,296.492 461.400 C 298.099 463.931,300.157 467.292,300.734 468.326 C 301.100 468.982,301.936 470.302,302.592 471.259 C 304.188 473.590,304.442 474.002,305.554 476.046 C 306.078 477.011,306.632 477.890,306.784 478.000 C 306.936 478.110,307.401 478.785,307.816 479.500 C 308.232 480.215,308.714 480.800,308.886 480.800 C 309.059 480.800,309.200 481.055,309.200 481.366 C 309.200 481.678,310.100 483.279,311.200 484.923 C 312.300 486.568,313.200 488.051,313.200 488.219 C 313.200 488.387,313.650 489.114,314.200 489.836 C 314.750 490.557,315.212 491.294,315.227 491.473 C 315.241 491.653,315.871 492.610,316.626 493.600 C 317.382 494.590,318.300 495.979,318.668 496.687 C 320.034 499.319,318.178 499.201,357.860 499.195 C 377.627 499.192,394.205 499.081,394.700 498.948 C 396.026 498.593,395.855 496.976,394.200 494.228 C 393.430 492.949,392.800 491.827,392.800 491.734 C 392.800 491.642,392.108 490.629,391.262 489.483 C 390.416 488.337,389.381 486.791,388.962 486.048 C 387.735 483.870,387.395 483.317,386.927 482.743 C 386.684 482.444,386.103 481.514,385.636 480.676 C 385.169 479.838,384.607 478.938,384.386 478.676 C 384.166 478.414,383.062 476.760,381.933 475.000 C 378.400 469.493,377.813 468.614,377.326 468.098 C 377.066 467.821,376.725 467.194,376.569 466.703 C 376.414 466.213,375.779 465.179,375.160 464.406 C 374.541 463.633,373.621 462.264,373.117 461.364 C 372.613 460.464,371.856 459.204,371.436 458.564 C 371.016 457.924,370.206 456.680,369.637 455.800 C 369.068 454.920,368.492 454.110,368.357 454.000 C 368.222 453.890,367.791 453.170,367.399 452.400 C 366.747 451.120,363.481 445.950,362.724 445.000 C 362.302 444.470,356.193 434.975,354.592 432.360 C 354.376 432.008,353.679 430.928,353.043 429.960 C 352.407 428.992,351.254 427.210,350.480 426.000 C 347.097 420.707,345.574 418.353,343.080 414.562 C 341.618 412.340,340.295 410.180,340.140 409.762 C 339.985 409.343,339.752 408.910,339.622 408.800 C 339.327 408.550,335.274 402.350,334.000 400.200 C 333.479 399.320,332.680 398.121,332.226 397.536 C 331.772 396.951,330.680 395.267,329.800 393.794 C 328.453 391.539,326.772 388.911,324.815 386.000 C 322.686 382.833,322.013 381.757,322.007 381.503 C 322.003 381.340,321.344 380.350,320.542 379.303 C 319.740 378.257,318.850 376.846,318.565 376.168 C 318.280 375.491,317.766 374.704,317.423 374.419 C 317.080 374.135,316.800 373.724,316.800 373.507 C 316.800 373.289,315.990 371.953,315.000 370.537 C 314.010 369.120,313.200 367.865,313.200 367.746 C 313.200 367.563,311.280 364.705,310.286 363.409 C 309.323 362.154,305.600 355.958,305.600 355.611 C 305.600 355.385,305.450 355.200,305.267 355.200 C 304.935 355.200,303.170 352.539,300.190 347.546 C 299.976 347.187,299.125 345.908,298.300 344.705 C 297.475 343.502,296.800 342.333,296.800 342.108 C 296.800 341.882,296.520 341.465,296.177 341.181 C 295.834 340.896,295.299 340.109,294.987 339.432 C 294.518 338.411,291.667 334.085,290.484 332.600 C 290.309 332.380,289.555 331.120,288.809 329.800 C 288.063 328.480,287.330 327.310,287.179 327.200 C 287.028 327.090,286.306 326.010,285.575 324.800 C 284.844 323.590,283.875 322.060,283.422 321.400 C 282.969 320.740,282.418 319.909,282.199 319.554 C 281.980 319.199,281.170 317.928,280.400 316.731 C 279.630 315.533,278.820 314.270,278.600 313.923 C 278.380 313.576,277.525 312.308,276.700 311.105 C 275.875 309.902,275.200 308.733,275.200 308.508 C 275.200 308.282,274.920 307.865,274.577 307.581 C 274.234 307.296,273.709 306.478,273.410 305.762 C 273.111 305.046,272.131 303.530,271.233 302.394 C 270.335 301.258,269.600 300.102,269.600 299.825 C 269.600 299.549,269.285 298.948,268.900 298.491 C 268.515 298.033,267.840 297.067,267.400 296.344 C 266.960 295.620,266.330 294.644,266.000 294.174 C 265.670 293.704,265.059 292.797,264.643 292.160 C 264.226 291.522,263.551 290.512,263.143 289.916 C 262.734 289.320,262.400 288.673,262.400 288.478 C 262.400 288.283,262.040 287.798,261.600 287.400 C 261.160 287.002,260.800 286.511,260.800 286.310 C 260.800 286.108,260.025 284.831,259.077 283.472 C 258.129 282.112,257.136 280.550,256.870 280.000 C 256.604 279.450,255.846 278.280,255.185 277.400 C 254.524 276.520,253.258 274.540,252.371 273.000 C 251.484 271.460,250.150 269.390,249.406 268.400 C 248.662 267.410,248.041 266.453,248.027 266.273 C 248.012 266.094,247.550 265.357,247.000 264.636 C 246.450 263.914,245.988 263.161,245.973 262.962 C 245.959 262.763,245.338 261.790,244.593 260.800 C 243.848 259.810,242.575 257.830,241.764 256.400 C 240.952 254.970,239.999 253.466,239.644 253.058 C 238.356 251.574,238.816 247.603,240.517 245.527 C 241.321 244.547,242.208 243.214,242.489 242.565 C 242.770 241.917,243.317 240.939,243.705 240.393 C 244.900 238.710,248.000 233.903,248.000 233.733 C 248.000 233.645,248.900 232.252,250.000 230.638 C 251.100 229.024,252.000 227.500,252.000 227.252 C 252.000 227.003,252.141 226.800,252.314 226.800 C 252.486 226.800,252.968 226.215,253.384 225.500 C 253.799 224.785,254.252 224.110,254.389 224.000 C 254.526 223.890,255.167 222.900,255.814 221.800 C 256.461 220.700,257.172 219.509,257.395 219.152 C 257.618 218.796,258.134 217.913,258.543 217.190 C 258.951 216.467,259.626 215.509,260.043 215.062 C 260.459 214.615,260.801 214.058,260.802 213.825 C 260.803 213.591,261.523 212.451,262.402 211.292 C 263.281 210.132,264.000 209.036,264.000 208.855 C 264.000 208.675,265.351 206.473,267.002 203.963 C 268.653 201.454,270.335 198.860,270.740 198.200 C 271.145 197.540,272.180 195.944,273.038 194.654 C 273.897 193.363,274.772 192.013,274.981 191.654 C 275.191 191.294,276.167 189.740,277.150 188.200 C 280.433 183.055,282.234 180.206,282.619 179.546 C 283.029 178.844,285.633 174.889,286.854 173.116 C 287.264 172.520,287.600 171.881,287.600 171.695 C 287.600 171.355,289.946 167.972,290.440 167.600 C 290.586 167.490,291.042 166.748,291.453 165.952 C 293.117 162.728,293.972 161.321,294.571 160.824 C 294.917 160.537,295.200 160.082,295.200 159.813 C 295.200 159.544,295.555 159.002,295.990 158.609 C 296.424 158.216,296.893 157.536,297.033 157.098 C 297.172 156.659,297.963 155.288,298.791 154.050 C 299.620 152.813,301.210 150.360,302.325 148.600 C 303.441 146.840,304.631 145.040,304.971 144.600 C 306.298 142.881,309.148 138.393,309.383 137.652 C 309.520 137.222,310.120 136.238,310.716 135.466 C 311.312 134.694,312.430 133.029,313.200 131.767 C 313.970 130.505,315.320 128.390,316.200 127.067 C 317.080 125.745,318.112 124.074,318.493 123.354 C 318.874 122.634,320.359 120.326,321.793 118.226 C 323.227 116.125,324.400 114.312,324.400 114.195 C 324.400 114.079,324.895 113.244,325.500 112.339 C 328.003 108.594,328.836 107.274,330.258 104.800 C 331.080 103.370,331.855 102.110,331.979 102.000 C 332.531 101.511,334.361 98.860,335.154 97.400 C 336.345 95.206,337.422 93.534,341.260 87.916 C 341.667 87.320,342.000 86.727,342.000 86.598 C 342.000 86.469,342.900 85.030,344.000 83.400 C 345.100 81.770,346.000 80.335,346.000 80.212 C 346.000 80.088,346.810 78.874,347.800 77.514 C 348.790 76.153,349.600 74.920,349.600 74.773 C 349.600 74.468,352.765 69.536,353.988 67.937 C 354.434 67.352,354.800 66.754,354.800 66.609 C 354.800 66.463,355.385 65.513,356.100 64.497 C 356.815 63.481,357.760 61.995,358.200 61.195 C 359.025 59.693,362.102 54.937,362.749 54.162 C 362.950 53.922,363.429 53.112,363.812 52.362 C 364.196 51.613,365.205 50.121,366.055 49.048 C 366.905 47.974,367.600 46.770,367.600 46.371 C 367.600 45.973,367.776 45.539,367.990 45.406 C 368.205 45.273,369.045 44.138,369.858 42.882 C 374.255 36.089,376.807 32.102,378.600 29.220 C 379.700 27.452,380.825 25.690,381.099 25.303 C 382.865 22.815,385.353 18.847,385.672 18.008 C 385.880 17.463,386.180 16.923,386.338 16.808 C 386.916 16.390,389.200 13.029,389.200 12.597 C 389.200 12.351,389.515 11.802,389.900 11.375 C 391.101 10.045,392.086 7.832,391.940 6.794 L 391.800 5.800 354.737 5.698 L 317.674 5.596 315.437 8.568 C 314.207 10.203,313.200 11.650,313.200 11.783 C 313.200 11.917,312.363 13.325,311.341 14.913 C 310.318 16.501,309.093 18.430,308.618 19.200 C 308.143 19.970,306.910 21.877,305.877 23.438 C 304.845 24.998,304.000 26.370,304.000 26.485 C 304.000 26.600,303.235 27.877,302.300 29.323 C 301.365 30.770,299.790 33.248,298.800 34.830 C 297.810 36.413,296.595 38.321,296.100 39.072 C 295.605 39.822,295.200 40.580,295.200 40.756 C 295.200 40.932,294.840 41.402,294.400 41.800 C 293.960 42.198,293.600 42.704,293.600 42.924 C 293.600 43.144,293.150 43.914,292.600 44.636 C 292.050 45.357,291.600 46.096,291.600 46.278 C 291.600 46.461,290.700 47.938,289.600 49.560 C 288.500 51.183,287.600 52.734,287.600 53.006 C 287.600 53.279,287.323 53.732,286.985 54.012 C 286.647 54.293,285.732 55.665,284.951 57.061 C 284.170 58.457,283.400 59.600,283.240 59.600 C 283.079 59.600,282.631 60.266,282.243 61.080 C 281.514 62.607,279.814 65.335,277.149 69.251 C 276.307 70.490,275.429 71.930,275.198 72.451 C 274.823 73.303,273.358 75.540,272.479 76.606 C 272.295 76.829,271.445 78.269,270.589 79.806 C 269.734 81.343,268.802 82.838,268.517 83.129 C 268.233 83.419,268.000 83.811,268.000 84.000 C 268.000 84.189,267.775 84.581,267.500 84.871 C 266.992 85.409,264.400 89.530,264.400 89.801 C 264.400 89.883,263.590 91.133,262.600 92.579 C 261.610 94.025,260.800 95.328,260.800 95.475 C 260.800 95.621,259.960 97.015,258.934 98.571 C 257.908 100.127,256.678 102.030,256.200 102.800 C 255.722 103.570,254.523 105.460,253.536 107.000 C 250.343 111.978,249.600 113.180,249.600 113.363 C 249.600 113.462,248.838 114.681,247.908 116.072 C 246.977 117.462,245.942 119.070,245.608 119.645 C 244.953 120.770,243.593 122.909,240.900 127.049 C 239.965 128.487,239.200 129.804,239.200 129.977 C 239.200 130.150,238.795 130.798,238.300 131.417 C 237.228 132.757,234.689 136.836,233.703 138.803 C 233.316 139.575,232.526 140.835,231.946 141.603 C 231.366 142.371,230.504 143.720,230.031 144.600 C 229.558 145.480,228.632 146.920,227.973 147.800 C 227.314 148.680,226.599 149.760,226.384 150.200 C 225.535 151.939,222.588 156.647,219.946 160.484 C 219.536 161.080,219.200 161.715,219.200 161.895 C 219.200 162.075,218.300 163.472,217.200 165.000 C 216.100 166.528,215.200 167.912,215.200 168.076 C 215.200 168.241,214.507 169.416,213.659 170.687 C 211.111 174.512,208.000 179.605,208.000 179.951 C 208.000 180.130,207.640 180.602,207.200 181.000 C 206.760 181.398,206.400 181.882,206.400 182.075 C 206.400 182.268,205.590 183.655,204.600 185.158 C 203.610 186.661,202.797 188.050,202.793 188.245 C 202.790 188.440,201.736 189.766,200.451 191.191 L 198.114 193.781 197.395 192.391 C 196.665 190.978,195.200 188.764,194.756 188.400 C 194.622 188.290,194.192 187.570,193.801 186.800 C 193.410 186.030,192.597 184.770,191.993 184.000 C 191.390 183.230,190.560 181.943,190.148 181.140 C 189.482 179.839,187.723 177.078,185.546 173.916 C 185.136 173.320,184.800 172.690,184.799 172.516 C 184.799 172.342,184.084 171.210,183.211 170.000 C 182.338 168.790,181.359 167.219,181.036 166.509 C 180.713 165.799,180.254 164.989,180.016 164.709 C 179.648 164.275,178.957 163.249,175.800 158.451 C 174.138 155.925,172.000 152.335,172.000 152.071 C 172.000 151.895,171.685 151.402,171.300 150.975 C 170.570 150.167,168.400 146.935,168.400 146.657 C 168.400 146.290,165.675 142.010,164.485 140.508 C 163.778 139.615,163.200 138.710,163.200 138.497 C 163.200 138.284,162.304 136.780,161.209 135.155 C 160.115 133.530,159.215 131.997,159.209 131.749 C 159.204 131.501,158.920 131.065,158.577 130.781 C 158.234 130.496,157.697 129.709,157.383 129.032 C 157.068 128.354,156.191 126.990,155.432 126.000 C 154.674 125.010,154.041 124.033,154.027 123.829 C 154.003 123.507,151.866 120.117,149.546 116.722 C 149.141 116.130,148.334 114.780,147.753 113.722 C 147.172 112.665,146.443 111.509,146.134 111.153 C 145.537 110.466,143.435 107.116,141.520 103.800 C 140.884 102.700,139.754 100.990,139.009 100.000 C 138.263 99.010,137.641 98.003,137.627 97.762 C 137.612 97.521,137.240 96.998,136.800 96.600 C 136.360 96.202,136.000 95.655,136.000 95.385 C 136.000 95.114,135.190 93.710,134.200 92.264 C 133.210 90.818,132.400 89.520,132.400 89.379 C 132.400 89.239,131.995 88.559,131.500 87.870 C 131.005 87.181,130.420 86.321,130.200 85.960 C 129.980 85.598,129.035 84.164,128.100 82.772 C 127.165 81.380,126.400 80.121,126.400 79.973 C 126.400 79.826,125.635 78.534,124.700 77.101 C 120.438 70.569,117.600 66.076,117.600 65.860 C 117.600 65.731,116.851 64.494,115.937 63.113 C 114.158 60.425,112.549 57.930,110.319 54.400 C 109.555 53.190,108.091 50.901,107.065 49.313 C 106.039 47.725,105.200 46.265,105.200 46.068 C 105.200 45.767,103.861 43.868,102.442 42.156 C 102.239 41.912,101.695 41.012,101.233 40.156 C 100.227 38.295,99.906 37.785,97.700 34.544 C 96.765 33.170,96.000 31.901,95.999 31.723 C 95.999 31.545,95.293 30.384,94.431 29.142 C 93.569 27.899,92.560 26.296,92.189 25.579 C 91.818 24.862,91.355 24.078,91.160 23.838 C 90.444 22.954,86.800 17.279,86.800 17.047 C 86.800 16.778,83.655 11.971,82.410 10.337 C 81.965 9.752,81.598 9.122,81.597 8.937 C 81.595 8.752,80.953 7.925,80.171 7.100 L 78.750 5.600 42.224 5.600 C 10.674 5.600,5.632 5.680,5.213 6.185 " stroke="none" fill="#252525" fill-rule="evenodd"></path></g></svg>