<svg id="svg" version="1.1" xmlns="http://www.w3.org/2000/svg" xmlns:xlink="http://www.w3.org/1999/xlink" width="400" height="426.6666666666667" viewBox="0, 0, 400,426.6666666666667"><g id="svgg"><path id="path0" d="M92.358 153.333 C 95.447 158.048,109.542 179.561,123.681 201.141 L 149.388 240.378 118.504 287.002 C 82.284 341.681,82.988 339.048,104.587 339.048 L 121.555 339.048 143.123 302.905 C 154.986 283.026,165.944 267.536,167.474 268.482 C 169.005 269.428,179.521 285.664,190.843 304.561 L 211.429 338.920 229.749 338.984 C 243.381 339.031,247.347 337.829,245.248 334.286 C 243.697 331.667,229.176 309.658,212.980 285.378 L 183.532 241.232 213.671 194.710 C 249.194 139.876,247.906 144.762,226.832 144.762 L 209.854 144.762 189.689 178.949 C 165.735 219.558,166.945 219.584,142.857 177.965 L 123.810 145.054 105.276 144.908 C 86.922 144.763,86.797 144.845,92.358 153.333 " stroke="none" fill="#000000" fill-rule="evenodd"></path></g></svg>