<svg id="svg" version="1.1" xmlns="http://www.w3.org/2000/svg" xmlns:xlink="http://www.w3.org/1999/xlink" width="400" height="486.5800865800866" viewBox="0, 0, 400,486.5800865800866"><g id="svgg"><path id="path0" d="M8.899 7.065 C 6.529 7.580,6.400 7.654,6.405 8.508 C 6.407 8.998,6.843 10.158,7.373 11.085 C 7.903 12.012,8.459 13.155,8.608 13.626 C 8.758 14.097,9.309 15.114,9.832 15.886 C 10.356 16.658,11.259 18.214,11.839 19.345 C 12.419 20.475,13.316 22.120,13.832 23.000 C 15.563 25.949,16.990 28.592,17.397 29.600 C 17.619 30.150,18.310 31.385,18.934 32.345 C 19.557 33.305,20.423 34.835,20.858 35.745 C 21.293 36.655,21.962 37.940,22.346 38.600 C 22.729 39.260,23.531 40.700,24.127 41.800 C 27.139 47.354,28.109 49.051,28.585 49.600 C 28.871 49.930,29.238 50.650,29.400 51.200 C 29.562 51.750,29.914 52.470,30.182 52.800 C 30.449 53.130,31.033 54.120,31.479 55.000 C 33.174 58.345,35.230 62.155,35.564 62.569 C 35.755 62.806,36.629 64.350,37.508 66.000 C 40.098 70.866,41.695 73.773,42.013 74.200 C 42.325 74.619,45.095 79.713,46.690 82.800 C 48.385 86.080,50.833 90.468,51.230 90.938 C 51.445 91.192,52.037 92.210,52.544 93.200 C 54.744 97.493,57.307 102.231,57.940 103.176 C 58.318 103.739,58.937 104.830,59.316 105.600 C 60.571 108.148,62.997 112.357,63.503 112.863 C 63.776 113.136,64.001 113.639,64.003 113.980 C 64.004 114.321,64.366 115.140,64.808 115.800 C 65.249 116.460,66.180 118.170,66.876 119.600 C 67.572 121.030,68.264 122.290,68.414 122.400 C 68.690 122.602,70.416 125.707,73.308 131.200 C 74.176 132.850,75.035 134.384,75.217 134.609 C 75.399 134.834,76.071 136.004,76.712 137.209 C 77.353 138.414,78.475 140.480,79.206 141.800 C 79.937 143.120,80.889 144.920,81.322 145.800 C 81.755 146.680,82.693 148.314,83.406 149.432 C 84.119 150.549,84.836 151.899,84.999 152.432 C 85.161 152.964,85.517 153.670,85.790 154.000 C 86.062 154.330,86.971 155.860,87.810 157.400 C 90.526 162.387,90.851 162.976,91.781 164.600 C 92.284 165.480,93.453 167.640,94.377 169.400 C 95.301 171.160,96.481 173.320,96.999 174.200 C 97.518 175.080,98.409 176.726,98.979 177.857 C 99.550 178.988,100.445 180.545,100.969 181.316 C 101.492 182.087,102.049 183.141,102.207 183.659 C 102.365 184.176,102.725 184.870,103.006 185.200 C 103.287 185.530,104.210 187.112,105.058 188.715 C 106.824 192.054,107.282 192.885,109.179 196.200 C 109.935 197.520,111.163 199.770,111.908 201.200 C 112.653 202.630,113.743 204.649,114.331 205.688 C 114.919 206.726,116.002 208.706,116.738 210.088 C 117.474 211.469,118.308 212.870,118.591 213.200 C 118.874 213.530,119.240 214.250,119.405 214.800 C 119.570 215.350,120.015 216.250,120.394 216.800 C 120.773 217.350,121.805 219.150,122.687 220.800 C 124.350 223.912,126.952 228.556,127.618 229.600 C 127.828 229.930,128.190 230.650,128.421 231.200 C 128.652 231.750,129.272 232.920,129.798 233.800 C 130.325 234.680,131.134 236.120,131.598 237.000 C 132.061 237.880,132.750 239.140,133.129 239.800 C 133.508 240.460,134.804 242.793,136.009 244.984 C 137.214 247.175,138.506 249.515,138.879 250.184 C 139.253 250.853,139.767 251.850,140.022 252.400 C 140.277 252.950,140.638 253.670,140.825 254.000 C 141.012 254.330,142.163 256.357,143.383 258.504 C 144.602 260.652,145.600 262.514,145.600 262.642 C 145.600 262.771,145.948 263.365,146.373 263.962 C 147.053 264.917,147.941 266.534,151.855 273.945 C 152.362 274.905,152.945 275.895,153.150 276.145 C 153.580 276.670,154.796 278.885,157.900 284.800 C 159.113 287.110,160.235 289.090,160.394 289.200 C 160.554 289.310,160.900 290.063,161.165 290.874 C 161.429 291.685,161.778 292.405,161.940 292.474 C 162.103 292.543,162.838 293.770,163.574 295.200 C 164.309 296.630,165.246 298.229,165.656 298.754 C 166.065 299.279,166.400 299.954,166.400 300.255 C 166.400 300.557,166.760 301.475,167.200 302.296 C 167.993 303.775,168.000 304.552,168.000 390.650 C 168.000 475.579,168.017 477.532,168.765 478.456 L 169.529 479.400 199.150 479.400 C 227.053 479.400,228.813 479.359,229.486 478.686 C 230.166 478.006,230.210 473.760,230.400 389.828 C 230.589 306.605,230.639 301.641,231.300 300.910 C 231.685 300.485,232.000 299.950,232.000 299.722 C 232.000 299.494,232.335 298.879,232.745 298.354 C 233.155 297.829,233.627 296.950,233.794 296.400 C 233.961 295.850,234.301 295.154,234.549 294.852 C 235.118 294.162,237.472 289.964,239.626 285.800 C 240.536 284.040,241.441 282.404,241.636 282.164 C 241.832 281.924,242.556 280.664,243.246 279.364 C 245.502 275.112,246.472 273.410,246.983 272.800 C 247.260 272.470,247.686 271.605,247.931 270.877 C 248.175 270.149,248.903 268.771,249.548 267.814 C 250.194 266.858,250.850 265.653,251.006 265.138 C 251.162 264.622,251.990 263.079,252.845 261.710 C 253.700 260.340,254.400 259.059,254.400 258.864 C 254.400 258.668,254.751 258.062,255.179 257.517 C 255.856 256.657,257.843 253.058,259.521 249.656 C 259.807 249.075,260.206 248.330,260.407 248.000 C 260.607 247.670,261.431 246.140,262.236 244.600 C 263.041 243.060,264.038 241.371,264.450 240.846 C 264.863 240.321,265.200 239.768,265.200 239.616 C 265.200 239.464,266.305 237.374,267.655 234.970 C 269.005 232.567,271.006 228.890,272.102 226.800 C 273.198 224.710,274.433 222.522,274.847 221.938 C 275.261 221.354,275.600 220.701,275.600 220.487 C 275.600 220.273,275.852 219.889,276.161 219.633 C 276.469 219.377,276.831 218.729,276.966 218.194 C 277.100 217.659,277.654 216.567,278.196 215.767 C 278.739 214.968,279.658 213.309,280.239 212.081 C 280.820 210.852,281.544 209.599,281.848 209.295 C 282.152 208.991,282.400 208.554,282.400 208.324 C 282.400 208.093,283.048 206.837,283.841 205.533 C 285.354 203.041,287.977 198.252,288.964 196.178 C 289.284 195.505,290.638 193.032,291.973 190.680 C 293.308 188.329,294.400 186.326,294.400 186.229 C 294.400 185.982,296.943 181.844,297.245 181.600 C 297.381 181.490,297.630 180.959,297.798 180.421 C 297.966 179.882,299.116 177.668,300.352 175.500 C 303.174 170.552,305.174 166.931,306.925 163.600 C 308.646 160.325,313.474 151.598,314.006 150.800 C 314.226 150.470,314.622 149.750,314.887 149.200 C 315.151 148.650,316.478 146.220,317.836 143.800 C 320.834 138.455,322.597 135.248,323.992 132.600 C 324.871 130.931,326.058 128.798,328.775 124.000 C 328.962 123.670,329.316 122.950,329.562 122.400 C 329.807 121.850,330.360 120.860,330.789 120.200 C 331.218 119.540,332.222 117.740,333.021 116.200 C 333.820 114.660,334.618 113.220,334.795 113.000 C 334.971 112.780,335.789 111.340,336.611 109.800 C 337.434 108.260,338.602 106.100,339.207 105.000 C 341.525 100.785,342.966 98.128,343.979 96.200 C 344.557 95.100,345.432 93.570,345.923 92.800 C 346.414 92.030,347.267 90.500,347.817 89.400 C 349.388 86.264,351.545 82.400,352.383 81.224 C 352.803 80.634,353.269 79.665,353.418 79.072 C 353.567 78.478,353.844 77.897,354.033 77.780 C 354.222 77.663,354.741 76.809,355.186 75.883 C 355.631 74.958,356.355 73.660,356.795 73.000 C 357.236 72.340,357.942 71.055,358.364 70.145 C 358.787 69.235,359.626 67.709,360.229 66.753 C 360.833 65.798,361.903 63.932,362.608 62.608 C 363.312 61.284,364.994 58.243,366.345 55.851 C 367.695 53.459,368.800 51.368,368.800 51.205 C 368.800 51.041,369.135 50.479,369.545 49.954 C 369.955 49.429,370.428 48.550,370.597 48.000 C 370.767 47.450,371.221 46.550,371.608 46.000 C 371.995 45.450,372.880 43.920,373.575 42.600 C 374.271 41.280,375.576 38.850,376.475 37.200 C 377.375 35.550,378.801 32.887,379.644 31.283 C 380.487 29.679,381.452 28.091,381.788 27.754 C 382.125 27.418,382.400 26.947,382.400 26.708 C 382.400 26.469,383.660 24.068,385.200 21.372 C 386.740 18.677,388.000 16.376,388.000 16.259 C 388.000 16.142,388.736 14.872,389.636 13.437 C 391.300 10.783,392.065 7.935,391.250 7.431 C 391.007 7.281,375.555 7.172,356.911 7.189 L 323.014 7.220 322.103 8.310 C 321.601 8.909,320.469 10.883,319.587 12.694 C 318.704 14.506,317.357 17.026,316.592 18.294 C 315.828 19.563,315.202 20.873,315.201 21.207 C 315.200 21.541,314.756 22.468,314.213 23.267 C 313.670 24.066,311.986 27.123,310.471 30.060 C 308.956 32.997,306.916 36.930,305.939 38.800 C 304.007 42.493,303.744 43.002,302.521 45.400 C 301.364 47.669,296.092 57.744,294.566 60.600 C 293.861 61.920,291.812 65.880,290.012 69.400 C 285.374 78.469,283.077 82.855,281.913 84.860 C 281.357 85.817,280.763 87.050,280.593 87.600 C 280.424 88.150,279.591 89.743,278.742 91.141 C 277.894 92.538,277.200 93.909,277.200 94.187 C 277.200 94.465,276.875 95.121,276.478 95.646 C 276.081 96.171,275.088 97.950,274.271 99.600 C 273.454 101.250,272.624 102.870,272.426 103.200 C 272.227 103.530,271.566 104.790,270.956 106.000 C 269.976 107.944,266.490 114.690,262.790 121.800 C 262.103 123.120,261.215 124.740,260.816 125.400 C 260.418 126.060,259.957 127.050,259.793 127.600 C 259.629 128.150,259.174 129.056,258.782 129.614 C 258.389 130.171,257.142 132.421,256.009 134.614 C 254.876 136.806,253.782 138.870,253.578 139.200 C 253.374 139.530,252.425 141.420,251.470 143.400 C 249.651 147.169,245.999 154.128,244.229 157.200 C 243.659 158.190,243.077 159.340,242.935 159.755 C 242.793 160.171,242.232 161.341,241.687 162.355 C 240.336 164.872,236.880 171.401,235.735 173.600 C 235.219 174.590,234.630 175.670,234.426 176.000 C 234.221 176.330,233.483 177.770,232.784 179.200 C 232.086 180.630,230.283 184.140,228.779 187.000 C 227.274 189.860,225.319 193.640,224.434 195.400 C 223.549 197.160,222.654 198.870,222.444 199.200 C 222.235 199.530,221.717 200.520,221.293 201.400 C 220.221 203.627,214.301 215.016,213.080 217.200 C 212.092 218.968,209.544 223.886,203.442 235.800 C 201.752 239.100,200.190 241.862,199.972 241.938 C 198.777 242.351,196.708 239.767,194.163 234.682 C 191.527 229.416,188.601 223.742,184.217 215.400 C 180.871 209.033,176.627 200.883,175.573 198.800 C 175.073 197.810,174.478 196.640,174.252 196.200 C 174.027 195.760,173.150 194.050,172.304 192.400 C 171.459 190.750,170.601 189.130,170.398 188.800 C 170.195 188.470,169.693 187.480,169.283 186.600 C 168.874 185.720,167.483 183.020,166.194 180.600 C 164.904 178.180,163.429 175.390,162.915 174.400 C 162.402 173.410,161.820 172.330,161.623 172.000 C 161.425 171.670,160.673 170.230,159.951 168.800 C 156.592 162.147,155.158 159.353,154.819 158.800 C 154.616 158.470,154.197 157.660,153.886 157.000 C 153.327 155.812,147.095 143.714,145.850 141.400 C 145.495 140.740,145.204 139.990,145.202 139.733 C 145.201 139.477,145.056 139.207,144.879 139.133 C 144.703 139.060,143.885 137.650,143.062 136.000 C 142.239 134.350,141.311 132.550,141.001 132.000 C 140.690 131.450,140.130 130.370,139.756 129.600 C 138.592 127.208,136.041 122.344,134.197 119.000 C 133.226 117.240,132.307 115.459,132.154 115.041 C 132.001 114.624,131.268 113.184,130.524 111.841 C 129.781 110.499,128.904 108.770,128.576 108.000 C 128.249 107.230,127.804 106.330,127.589 106.000 C 127.374 105.670,126.459 103.913,125.555 102.097 C 124.652 100.280,123.772 98.706,123.601 98.600 C 123.429 98.494,123.177 97.962,123.040 97.416 C 122.903 96.871,122.163 95.385,121.396 94.113 C 120.628 92.841,119.797 91.170,119.549 90.400 C 119.302 89.630,118.866 88.730,118.582 88.400 C 118.298 88.070,116.720 85.190,115.076 82.000 C 111.123 74.331,110.939 73.965,110.436 72.800 C 109.926 71.618,108.672 69.417,108.102 68.704 C 107.880 68.427,107.561 67.750,107.394 67.200 C 107.227 66.650,106.755 65.771,106.345 65.246 C 105.935 64.721,105.600 64.016,105.600 63.678 C 105.600 63.340,105.351 62.779,105.047 62.431 C 104.743 62.084,103.922 60.630,103.223 59.200 C 102.523 57.770,101.714 56.150,101.424 55.600 C 101.133 55.050,99.944 52.710,98.779 50.400 C 97.615 48.090,95.996 45.030,95.182 43.600 C 94.368 42.170,93.567 40.550,93.403 40.000 C 93.239 39.450,92.877 38.730,92.597 38.400 C 92.318 38.070,91.608 36.810,91.020 35.600 C 90.431 34.390,89.709 32.950,89.414 32.400 C 89.119 31.850,88.235 30.140,87.449 28.600 C 86.662 27.060,85.847 25.530,85.637 25.200 C 85.426 24.870,84.687 23.430,83.994 22.000 C 83.301 20.570,82.485 18.950,82.181 18.400 C 81.877 17.850,81.396 16.931,81.114 16.358 C 78.550 11.157,77.342 8.963,76.602 8.164 L 75.733 7.227 42.466 7.113 C 24.169 7.051,9.064 7.029,8.899 7.065 " stroke="none" fill="#252525" fill-rule="evenodd"></path></g></svg>