<svg id="svg" version="1.1" xmlns="http://www.w3.org/2000/svg" xmlns:xlink="http://www.w3.org/1999/xlink" width="400" height="411.0091743119266" viewBox="0, 0, 400,411.0091743119266"><g id="svgg"><path id="path0" d="M176.878 200.735 C 212.477 299.331,212.949 302.563,195.588 329.059 C 189.957 337.652,164.304 347.140,157.713 343.067 C 155.641 341.786,154.128 346.259,154.128 353.665 C 154.128 382.316,202.102 372.702,218.632 340.737 C 221.734 334.738,240.551 283.278,260.447 226.382 C 280.342 169.487,297.764 120.046,299.162 116.514 C 301.355 110.971,299.435 110.092,285.137 110.092 L 268.571 110.092 255.146 153.211 C 229.233 236.443,226.061 245.872,223.974 245.872 C 222.817 245.872,211.882 215.734,199.675 178.899 L 177.480 111.927 160.749 110.826 L 144.018 109.726 176.878 200.735 " stroke="none" fill="#000000" fill-rule="evenodd"></path></g></svg>