<svg id="svg" version="1.1" xmlns="http://www.w3.org/2000/svg" xmlns:xlink="http://www.w3.org/1999/xlink" width="400" height="533.3333333333334" viewBox="0, 0, 400,533.3333333333334"><g id="svgg"><path id="path0" d="M25.300 25.865 C 24.396 26.230,24.591 70.353,25.500 71.043 C 26.079 71.482,48.756 71.577,156.300 71.587 C 228.721 71.594,286.400 71.753,286.400 71.944 C 286.400 72.134,287.261 72.391,288.313 72.515 C 292.575 73.020,297.200 75.769,297.200 77.797 C 297.200 79.518,294.800 82.838,293.150 83.401 C 292.734 83.542,292.336 84.448,292.047 85.911 C 291.310 89.644,290.861 90.939,289.905 92.090 C 289.407 92.689,288.550 93.811,288.000 94.582 C 287.450 95.352,286.675 96.092,286.277 96.226 C 285.880 96.359,285.250 97.128,284.877 97.934 C 284.505 98.740,283.975 99.544,283.700 99.720 C 283.425 99.896,283.200 100.400,283.200 100.841 C 283.200 102.579,281.526 104.653,279.487 105.441 C 277.285 106.292,277.016 106.643,276.600 109.200 C 276.200 111.658,275.851 112.217,272.979 115.005 C 271.376 116.562,270.345 117.936,270.092 118.851 C 269.876 119.634,269.381 120.647,268.993 121.100 C 268.604 121.554,267.988 122.797,267.623 123.863 C 267.044 125.552,266.700 125.928,264.941 126.800 C 262.775 127.873,262.341 128.523,261.416 132.075 C 260.876 134.149,258.580 137.200,257.560 137.200 C 256.815 137.200,255.700 138.742,255.439 140.132 C 255.290 140.925,254.940 141.805,254.662 142.087 C 254.383 142.369,253.805 143.466,253.377 144.524 C 252.950 145.583,252.330 146.704,252.000 147.017 C 250.237 148.686,249.030 149.600,248.587 149.600 C 248.057 149.600,247.210 151.211,246.387 153.789 C 246.108 154.663,245.640 155.617,245.349 155.909 C 245.057 156.201,244.576 156.785,244.280 157.207 C 243.985 157.629,243.038 158.205,242.175 158.487 C 240.690 158.974,240.590 159.111,240.273 161.101 C 240.089 162.255,239.773 163.200,239.569 163.200 C 239.366 163.200,239.200 163.447,239.200 163.750 C 239.200 164.459,237.226 168.000,236.830 168.000 C 236.664 168.000,236.333 168.429,236.094 168.953 C 235.855 169.478,235.125 170.143,234.470 170.433 C 233.334 170.936,232.286 172.822,231.378 176.000 C 231.221 176.550,230.977 177.090,230.837 177.200 C 230.696 177.310,230.271 177.888,229.892 178.483 C 229.479 179.134,228.566 179.758,227.608 180.045 C 226.255 180.450,225.975 180.725,225.762 181.861 C 225.624 182.598,225.351 183.200,225.155 183.200 C 224.960 183.200,224.786 183.605,224.770 184.100 C 224.696 186.281,220.493 192.397,219.064 192.401 C 218.809 192.402,218.071 193.707,217.423 195.301 C 216.776 196.896,216.146 198.290,216.023 198.400 C 215.901 198.510,215.602 198.960,215.360 199.400 C 215.119 199.840,214.402 200.470,213.767 200.800 C 211.538 201.959,210.151 203.690,209.602 206.000 C 209.004 208.514,208.164 210.000,207.341 210.000 C 207.030 210.000,206.671 210.270,206.545 210.600 C 206.418 210.930,206.083 211.200,205.800 211.200 C 205.517 211.200,205.182 211.470,205.055 211.800 C 204.929 212.130,204.587 212.400,204.295 212.400 C 203.974 212.400,203.558 213.334,203.239 214.771 C 202.950 216.076,202.372 217.508,201.956 217.955 C 201.540 218.401,201.200 219.019,201.200 219.328 C 201.200 220.261,198.835 222.965,197.534 223.518 C 196.864 223.804,196.224 224.389,196.111 224.818 C 195.999 225.248,195.756 225.600,195.571 225.600 C 195.387 225.600,195.115 226.275,194.968 227.100 C 194.292 230.872,193.115 232.228,189.557 233.332 C 189.158 233.455,188.811 234.192,188.645 235.266 C 188.330 237.296,187.142 240.396,186.678 240.399 C 186.500 240.399,185.994 241.216,185.553 242.213 C 184.922 243.639,184.415 244.161,183.176 244.656 C 182.309 245.003,181.600 245.530,181.600 245.828 C 181.600 246.125,181.276 246.691,180.880 247.084 C 180.484 247.478,179.852 248.812,179.476 250.049 C 178.799 252.273,176.720 254.400,175.223 254.400 C 174.486 254.400,173.628 255.618,173.613 256.686 C 173.591 258.200,172.377 261.260,171.366 262.350 C 170.835 262.923,170.400 263.607,170.400 263.870 C 170.400 264.133,169.683 264.855,168.806 265.474 C 167.929 266.093,167.107 266.914,166.979 267.298 C 166.852 267.681,166.499 268.244,166.196 268.547 C 165.892 268.851,165.294 270.135,164.866 271.401 C 163.876 274.334,162.878 275.455,160.294 276.535 C 159.003 277.075,158.872 277.298,158.405 279.772 C 157.928 282.300,157.761 282.573,154.952 285.410 C 153.328 287.049,152.000 288.573,152.000 288.795 C 152.000 289.018,151.820 289.200,151.600 289.200 C 151.380 289.200,151.199 289.515,151.197 289.900 C 151.196 290.285,150.837 291.140,150.400 291.800 C 149.963 292.460,149.604 293.324,149.603 293.719 C 149.599 294.703,146.276 298.000,145.288 298.000 C 144.407 298.000,143.200 300.434,143.200 302.208 C 143.200 302.754,143.038 303.200,142.839 303.200 C 142.641 303.200,142.298 303.717,142.078 304.348 C 141.585 305.762,140.096 307.200,139.125 307.200 C 138.726 307.200,138.400 307.476,138.400 307.813 C 138.400 308.149,138.130 308.529,137.800 308.655 C 137.470 308.782,137.200 309.226,137.200 309.643 C 137.200 310.059,137.020 310.400,136.800 310.400 C 136.580 310.400,136.400 310.665,136.400 310.989 C 136.400 311.663,134.511 316.065,134.084 316.386 C 133.928 316.504,133.602 316.960,133.360 317.400 C 133.119 317.840,132.405 318.470,131.775 318.800 C 129.881 319.791,128.400 321.716,128.400 323.186 C 128.400 323.634,128.220 324.000,128.000 324.000 C 127.780 324.000,127.600 324.421,127.600 324.936 C 127.600 326.378,125.611 328.658,123.900 329.177 C 122.832 329.501,122.400 329.858,122.400 330.416 C 122.400 330.847,122.220 331.200,122.000 331.200 C 121.780 331.200,121.600 331.545,121.600 331.967 C 121.600 333.130,120.098 336.387,119.447 336.637 C 119.131 336.759,118.765 337.250,118.634 337.729 C 118.316 338.888,116.720 340.645,115.684 340.973 C 115.181 341.133,114.583 341.941,114.172 343.019 C 113.797 343.998,113.336 344.800,113.146 344.800 C 112.956 344.800,112.800 345.189,112.800 345.665 C 112.800 347.421,110.972 349.780,108.877 350.726 C 106.989 351.580,106.873 351.723,106.607 353.513 C 106.303 355.572,104.888 359.200,104.390 359.200 C 104.219 359.200,103.706 359.831,103.251 360.603 C 102.796 361.375,101.962 362.217,101.399 362.473 C 100.804 362.744,100.056 363.663,99.610 364.670 C 99.189 365.621,98.655 366.400,98.422 366.400 C 98.190 366.400,98.000 366.767,98.000 367.216 C 98.000 369.106,96.550 370.974,94.456 371.782 C 92.262 372.629,92.020 372.997,91.173 376.772 C 90.634 379.175,89.324 380.715,87.512 381.078 C 86.900 381.200,86.400 381.539,86.400 381.830 C 86.400 382.122,86.164 382.504,85.876 382.680 C 85.588 382.856,85.111 384.026,84.817 385.280 C 84.523 386.534,84.057 387.646,83.781 387.752 C 83.506 387.858,83.060 388.632,82.790 389.472 C 82.260 391.125,79.860 393.736,78.465 394.180 C 77.405 394.516,77.051 395.171,76.399 398.000 C 76.120 399.210,75.637 400.470,75.327 400.800 C 75.017 401.130,74.544 401.722,74.276 402.115 C 74.009 402.508,73.078 403.074,72.210 403.372 C 70.707 403.889,70.603 404.035,70.087 406.358 C 69.789 407.701,69.412 408.800,69.250 408.800 C 69.087 408.800,68.347 410.056,67.605 411.590 C 66.428 414.023,66.038 414.470,64.565 415.080 C 62.819 415.802,62.038 416.982,61.130 420.268 C 60.658 421.979,57.991 424.800,56.845 424.800 C 55.836 424.800,55.362 425.644,54.994 428.100 C 54.837 429.145,54.577 430.000,54.415 430.000 C 54.254 430.000,53.830 430.675,53.474 431.500 C 52.401 433.988,50.269 436.485,48.787 436.990 C 48.236 437.178,46.000 442.165,46.000 443.206 C 46.000 443.738,43.709 446.000,43.169 446.000 C 42.948 446.000,42.549 446.186,42.283 446.414 C 42.017 446.641,41.473 447.052,41.073 447.328 C 40.652 447.618,40.252 448.535,40.121 449.514 C 39.996 450.441,39.738 451.200,39.547 451.200 C 39.356 451.200,39.200 451.531,39.200 451.936 C 39.200 452.763,37.216 455.557,36.600 455.596 C 36.380 455.611,35.750 456.242,35.200 457.000 C 34.650 457.758,34.003 458.383,33.763 458.389 C 33.523 458.395,33.098 459.163,32.818 460.097 C 32.539 461.030,32.060 462.150,31.755 462.586 C 31.450 463.021,31.200 463.683,31.200 464.056 C 31.200 464.428,31.058 464.793,30.883 464.867 C 30.709 464.940,30.071 465.657,29.466 466.461 C 28.860 467.265,27.918 468.034,27.372 468.171 C 25.733 468.583,24.929 469.751,24.463 472.399 C 24.220 473.776,23.657 475.656,23.211 476.577 C 21.948 479.186,21.938 522.400,23.200 522.400 C 23.640 522.400,24.000 522.580,24.000 522.800 C 24.000 523.509,375.119 523.338,375.829 522.629 C 376.310 522.147,376.400 518.569,376.400 499.893 L 376.400 477.728 375.381 477.264 C 374.614 476.915,340.450 476.800,237.255 476.800 C 104.028 476.800,96.022 476.736,95.200 475.661 C 94.949 475.334,93.770 474.609,92.155 473.792 C 91.471 473.445,90.710 472.720,90.464 472.181 C 90.218 471.641,89.833 471.200,89.609 471.200 C 88.644 471.200,89.338 469.719,91.100 468.017 C 93.275 465.916,93.821 464.889,94.219 462.152 C 94.501 460.208,94.906 459.142,95.754 458.106 C 96.903 456.703,97.812 456.000,98.475 456.000 C 98.874 456.000,99.200 455.724,99.200 455.387 C 99.200 455.051,99.457 454.676,99.770 454.556 C 100.084 454.436,100.460 453.628,100.607 452.761 C 100.753 451.894,101.113 450.944,101.406 450.651 C 101.699 450.358,102.384 449.057,102.928 447.759 C 103.786 445.712,104.174 445.268,105.864 444.400 C 108.006 443.300,108.973 441.805,109.437 438.873 C 109.588 437.923,109.931 436.933,110.200 436.673 C 111.935 434.993,113.189 434.089,114.103 433.860 C 114.980 433.640,115.196 433.303,115.421 431.798 C 115.569 430.809,115.823 430.000,115.985 430.000 C 116.146 430.000,116.580 429.325,116.948 428.500 C 118.430 425.181,121.004 422.000,122.208 422.000 C 122.736 422.000,124.400 418.338,124.400 417.175 C 124.400 416.780,124.631 416.219,124.913 415.929 C 125.195 415.638,125.823 414.835,126.309 414.144 C 126.794 413.454,127.687 412.764,128.293 412.612 C 129.821 412.229,130.400 411.663,130.400 410.551 C 130.400 410.028,130.580 409.600,130.800 409.600 C 131.020 409.600,131.202 409.195,131.204 408.700 C 131.213 406.596,135.256 400.400,136.620 400.400 C 137.161 400.400,139.200 396.496,139.200 395.460 C 139.200 395.097,139.359 394.800,139.554 394.800 C 139.749 394.800,140.195 394.196,140.546 393.458 C 141.011 392.478,141.667 391.931,142.973 391.432 C 143.990 391.043,144.869 390.414,145.008 389.974 C 145.143 389.548,145.406 389.200,145.592 389.200 C 145.778 389.200,146.056 388.453,146.210 387.541 C 146.651 384.931,147.488 383.311,148.795 382.539 C 149.458 382.147,150.107 381.494,150.236 381.088 C 150.365 380.681,150.831 380.215,151.271 380.052 C 151.793 379.859,152.346 378.929,152.861 377.378 C 153.296 376.070,153.872 374.820,154.143 374.600 C 154.413 374.380,154.903 373.482,155.232 372.604 C 155.561 371.727,156.190 370.827,156.630 370.604 C 159.086 369.362,160.699 367.396,161.239 364.984 C 161.766 362.626,163.927 359.600,165.084 359.600 C 165.368 359.600,165.600 359.432,165.600 359.227 C 165.600 359.022,165.960 358.740,166.400 358.600 C 166.840 358.460,167.200 358.005,167.200 357.588 C 167.200 356.623,168.768 352.401,169.129 352.396 C 169.278 352.394,169.757 351.580,170.193 350.588 C 170.772 349.272,171.418 348.559,172.580 347.953 C 174.790 346.801,175.441 345.926,176.438 342.767 C 177.356 339.857,178.004 339.175,180.684 338.289 C 182.082 337.827,182.187 337.670,182.623 335.400 C 183.193 332.437,183.509 331.670,184.684 330.400 C 185.193 329.850,185.702 329.106,185.817 328.746 C 185.931 328.386,186.739 327.596,187.612 326.991 C 188.486 326.386,189.200 325.723,189.200 325.517 C 189.200 325.311,189.455 324.888,189.766 324.577 C 190.077 324.265,190.630 323.063,190.995 321.905 C 191.982 318.769,192.392 318.100,193.653 317.578 C 194.284 317.317,194.800 316.945,194.800 316.751 C 194.800 316.558,195.036 316.400,195.324 316.400 C 196.460 316.400,197.213 315.308,197.625 313.067 C 197.903 311.553,198.430 310.300,199.126 309.498 C 200.688 307.700,203.347 305.200,203.698 305.200 C 203.864 305.200,204.000 304.840,204.000 304.400 C 204.000 303.960,204.180 303.600,204.400 303.600 C 204.620 303.600,204.800 303.372,204.800 303.094 C 204.800 302.816,205.160 301.916,205.600 301.096 C 206.040 300.275,206.400 299.358,206.400 299.059 C 206.400 298.257,209.898 294.800,210.710 294.800 C 211.652 294.800,212.367 293.553,212.663 291.391 C 212.798 290.406,213.035 289.600,213.190 289.600 C 213.345 289.600,213.815 288.878,214.236 287.997 C 214.763 286.890,215.402 286.246,216.298 285.917 C 217.012 285.655,217.700 285.116,217.825 284.720 C 217.951 284.324,218.222 284.000,218.427 284.000 C 218.632 284.000,218.800 283.640,218.800 283.200 C 218.800 282.760,218.980 282.400,219.200 282.400 C 219.420 282.400,219.600 282.152,219.600 281.850 C 219.600 281.226,221.540 276.706,221.939 276.400 C 222.083 276.290,222.390 275.840,222.622 275.400 C 222.854 274.960,223.754 274.263,224.622 273.851 C 226.179 273.112,227.600 271.021,227.600 269.469 C 227.600 269.101,227.760 268.800,227.955 268.800 C 228.151 268.800,228.424 268.199,228.562 267.464 C 228.838 265.989,230.072 264.653,231.581 264.193 C 232.807 263.820,233.600 263.048,233.600 262.229 C 233.600 261.883,233.780 261.600,234.000 261.600 C 234.220 261.600,234.400 261.263,234.400 260.851 C 234.400 259.736,235.975 256.385,236.614 256.139 C 236.920 256.022,237.287 255.538,237.431 255.063 C 237.734 254.061,239.164 252.400,239.723 252.400 C 240.293 252.400,241.441 250.954,242.033 249.490 C 242.320 248.780,242.664 248.110,242.797 248.000 C 242.930 247.890,243.258 247.080,243.525 246.200 C 244.176 244.059,245.175 242.954,247.272 242.055 C 248.961 241.331,249.035 241.223,249.545 238.754 C 250.122 235.963,250.818 234.524,252.500 232.648 C 253.105 231.974,253.600 231.286,253.600 231.121 C 253.600 230.956,254.125 230.549,254.767 230.217 C 255.480 229.849,256.109 229.081,256.386 228.242 C 256.635 227.488,257.100 226.770,257.419 226.648 C 257.739 226.525,258.000 226.059,258.000 225.611 C 258.000 223.786,259.510 221.884,261.688 220.964 C 263.659 220.132,263.834 219.944,264.311 218.136 C 265.432 213.885,265.676 213.391,267.232 212.223 C 268.095 211.576,268.800 210.840,268.800 210.587 C 268.800 210.335,269.225 209.935,269.744 209.698 C 270.400 209.400,270.829 208.708,271.150 207.434 C 271.404 206.425,271.745 205.600,271.908 205.600 C 272.197 205.600,272.517 204.971,273.781 201.920 C 274.190 200.932,274.860 200.219,275.797 199.775 C 276.569 199.408,277.200 198.949,277.200 198.754 C 277.200 198.559,277.440 198.400,277.732 198.400 C 278.412 198.400,279.025 197.172,279.729 194.400 C 280.272 192.264,282.537 189.200,283.573 189.200 C 284.412 189.200,285.408 187.760,285.923 185.805 C 286.210 184.713,286.604 183.721,286.797 183.602 C 286.991 183.482,287.509 182.546,287.948 181.521 C 288.835 179.453,290.857 177.301,292.241 176.954 C 293.209 176.711,294.056 175.225,294.779 172.500 C 295.028 171.565,295.365 170.800,295.529 170.800 C 295.693 170.800,296.136 170.277,296.514 169.638 C 296.963 168.878,297.788 168.290,298.898 167.938 C 300.552 167.414,300.605 167.343,300.943 165.200 C 301.133 163.990,301.414 162.910,301.565 162.800 C 301.717 162.690,302.163 161.909,302.557 161.064 C 302.950 160.220,303.570 159.214,303.936 158.829 C 304.301 158.445,304.794 157.795,305.030 157.386 C 305.267 156.977,305.994 156.370,306.646 156.037 C 307.768 155.464,309.028 153.231,309.826 150.400 C 309.981 149.850,310.219 149.310,310.354 149.200 C 310.489 149.090,310.798 148.640,311.040 148.200 C 311.281 147.760,312.001 147.130,312.640 146.800 C 313.278 146.470,313.860 146.065,313.933 145.900 C 314.007 145.735,314.326 145.600,314.643 145.600 C 314.964 145.600,315.327 145.067,315.460 144.400 C 315.592 143.740,315.837 143.200,316.005 143.200 C 316.172 143.200,316.431 142.391,316.579 141.402 C 316.729 140.402,317.282 139.089,317.824 138.444 C 318.361 137.806,318.800 137.197,318.800 137.089 C 318.800 136.768,322.069 133.600,322.401 133.600 C 322.569 133.600,323.109 132.610,323.600 131.400 C 324.091 130.190,324.652 129.200,324.846 129.200 C 325.041 129.200,325.200 128.831,325.200 128.380 C 325.200 127.503,327.574 124.800,328.344 124.800 C 329.366 124.800,331.086 122.546,331.549 120.600 C 332.258 117.626,333.160 116.165,334.648 115.581 C 335.373 115.297,336.059 114.824,336.171 114.532 C 336.283 114.239,336.613 114.000,336.905 114.000 C 337.226 114.000,337.642 113.066,337.961 111.629 C 338.250 110.324,338.828 108.892,339.244 108.445 C 339.660 107.999,340.000 107.391,340.000 107.096 C 340.000 106.088,342.412 103.274,343.643 102.845 C 344.318 102.610,344.966 102.053,345.082 101.609 C 345.198 101.164,345.444 100.800,345.629 100.800 C 345.813 100.800,346.085 100.125,346.232 99.300 C 346.878 95.694,348.989 93.200,351.395 93.200 C 351.902 93.200,352.792 90.989,352.798 89.714 C 352.801 89.032,354.130 86.230,354.533 86.056 C 354.717 85.976,355.206 85.119,355.621 84.150 C 356.121 82.985,356.741 82.250,357.454 81.979 C 358.048 81.754,358.857 81.171,359.254 80.685 C 359.651 80.198,360.231 79.530,360.542 79.200 C 360.853 78.870,361.346 77.529,361.636 76.219 C 362.157 73.869,364.386 70.871,366.017 70.328 C 366.516 70.162,366.618 66.978,366.727 48.127 L 366.854 26.120 364.368 25.860 C 361.482 25.558,26.048 25.563,25.300 25.865 " stroke="none" fill="#242424" fill-rule="evenodd"></path></g></svg>
