<svg id="svg" xmlns="http://www.w3.org/2000/svg" xmlns:xlink="http://www.w3.org/1999/xlink" width="400" height="598.1651376146789" viewBox="0, 0, 400,598.1651376146789"><g id="svgg"><path id="path0" d="M115.932 24.312 C 122.419 31.628,141.994 53.922,159.433 73.853 L 191.139 110.092 215.753 110.092 C 236.294 110.092,240.367 109.641,240.367 107.368 C 240.367 105.870,226.537 83.583,209.633 57.841 L 178.899 11.038 141.518 11.024 L 104.137 11.009 115.932 24.312 M197.248 157.135 C 113.373 166.608,58.939 229.221,50.979 325.380 C 45.008 397.502,62.371 452.637,103.177 491.138 C 163.666 548.209,274.956 546.457,332.644 487.526 C 353.426 466.296,354.233 464.174,344.484 456.417 C 312.572 431.027,316.534 432.302,305.888 444.000 C 237.439 519.215,122.844 478.913,112.710 376.062 L 111.455 363.329 234.168 362.857 L 356.881 362.385 357.467 343.119 C 360.673 237.811,316.014 170.944,234.378 158.822 C 215.897 156.078,209.272 155.777,197.248 157.135 M237.615 211.651 C 269.475 221.868,291.183 255.124,294.895 299.405 L 295.945 311.927 205.879 311.927 C 156.343 311.927,115.427 311.303,114.956 310.540 C 113.649 308.426,117.152 290.387,121.410 277.308 C 139.027 223.188,187.748 195.660,237.615 211.651 " stroke="none" fill="#000000" fill-rule="evenodd"></path></g></svg>