<svg id="svg" xmlns="http://www.w3.org/2000/svg" xmlns:xlink="http://www.w3.org/1999/xlink" width="400" height="596.1977186311788" viewBox="0, 0, 400,596.1977186311788"><g id="svgg"><path id="path0" d="M202.488 105.157 C 188.201 127.024,176.874 145.503,177.318 146.221 C 177.763 146.940,186.537 147.529,196.816 147.529 L 215.507 147.529 223.723 138.757 C 242.686 118.513,288.973 67.104,288.973 66.286 C 288.973 65.798,275.359 65.399,258.720 65.399 L 228.466 65.399 202.488 105.157 M189.354 187.053 C 115.913 195.792,71.423 258.948,73.385 351.677 C 75.375 445.804,123.545 496.317,211.407 496.413 C 259.794 496.466,293.047 481.449,317.100 448.684 C 323.708 439.681,324.233 440.785,307.011 427.457 C 291.870 415.739,290.650 415.572,284.388 424.367 C 282.586 426.897,275.923 432.805,269.582 437.494 C 209.179 482.165,128.540 442.752,124.408 366.540 L 123.954 358.175 225.095 357.414 L 326.236 356.654 326.722 336.882 C 329.175 237.055,274.087 176.971,189.354 187.053 M224.449 230.970 C 246.815 237.773,260.751 251.810,269.454 276.300 C 272.959 286.163,276.861 310.757,275.318 313.255 C 274.640 314.352,251.079 314.734,200.662 314.463 L 126.996 314.068 127.192 306.262 C 128.450 256.169,178.897 217.116,224.449 230.970 " stroke="none" fill="#000000" fill-rule="evenodd"></path></g></svg>